<svg width="21" height="21" viewBox="0 0 21 21" fill="none" xmlns="http://www.w3.org/2000/svg">
<g id="Group 1171276516">
<path id="Vector" d="M8.09718 19.2856L7.9204 19.1088L8.09718 19.2856C8.17817 19.2046 8.28801 19.1591 8.40254 19.1591H12.0389C12.1535 19.1591 12.2633 19.2046 12.3443 19.2856C12.4253 19.3666 12.4708 19.4764 12.4708 19.591C12.4708 19.7055 12.4253 19.8154 12.3443 19.8963C12.2633 19.9773 12.1535 20.0228 12.0389 20.0228H8.40254C8.28801 20.0228 8.17817 19.9773 8.09718 19.8963C8.01619 19.8154 7.9707 19.7055 7.9707 19.591C7.9707 19.4764 8.01619 19.3666 8.09718 19.2856ZM5.18814 9.83105C5.26912 9.75006 5.37896 9.70457 5.4935 9.70457C5.608 9.70457 5.71782 9.75006 5.7988 9.83103C5.87977 9.912 5.92525 10.0218 5.92525 10.1363C5.92525 11.5772 4.75251 12.75 3.31163 12.75C1.87075 12.75 0.697998 11.5772 0.697998 10.1363C0.697998 8.69544 1.87067 7.5227 3.31163 7.5227C3.42616 7.5227 3.536 7.5682 3.61699 7.64918C3.69797 7.73017 3.74347 7.84001 3.74347 7.95454C3.74347 8.06908 3.69797 8.17892 3.61699 8.2599C3.536 8.34089 3.42616 8.38639 3.31163 8.38639C2.34645 8.38639 1.5616 9.17123 1.5616 10.1364C1.5616 11.1016 2.34645 11.8864 3.31163 11.8864C4.27681 11.8864 5.06165 11.1016 5.06165 10.1364C5.06165 10.0219 5.10715 9.91204 5.18814 9.83105ZM8.40254 11.1592H13.4935C13.608 11.1592 13.7178 11.2047 13.7988 11.2857C13.8798 11.3666 13.9253 11.4765 13.9253 11.591C13.9253 11.7056 13.8798 11.8154 13.7988 11.8964C13.7178 11.9774 13.608 12.0229 13.4935 12.0229H8.40254C8.28801 12.0229 8.17817 11.9774 8.09718 11.8964C8.01619 11.8154 7.9707 11.7056 7.9707 11.591C7.9707 11.4765 8.01619 11.3666 8.09718 11.2857C8.17817 11.2047 8.28801 11.1592 8.40254 11.1592ZM8.40254 8.25004H13.4935C13.608 8.25004 13.7178 8.29554 13.7988 8.37653C13.8798 8.45751 13.9253 8.56736 13.9253 8.68189C13.9253 8.79642 13.8798 8.90626 13.7988 8.98725C13.7178 9.06824 13.608 9.11373 13.4935 9.11373H8.40254C8.28801 9.11373 8.17817 9.06824 8.09718 8.98725C8.01619 8.90626 7.9707 8.79642 7.9707 8.68189C7.9707 8.56736 8.01619 8.45751 8.09718 8.37653C8.17817 8.29554 8.28801 8.25004 8.40254 8.25004ZM8.40254 16.2501H13.4935C13.608 16.2501 13.7178 16.2956 13.7988 16.3766C13.8798 16.4576 13.9253 16.5674 13.9253 16.6819C13.9253 16.7965 13.8798 16.9063 13.7988 16.9873C13.7178 17.0683 13.608 17.1138 13.4935 17.1138H8.40254C8.28801 17.1138 8.17817 17.0683 8.09718 16.9873C8.01619 16.9063 7.9707 16.7965 7.9707 16.6819C7.9707 16.5674 8.01619 16.4576 8.09718 16.3766C8.17817 16.2956 8.28801 16.2501 8.40254 16.2501ZM8.40254 3.15913H20.039C20.1535 3.15914 20.2633 3.20464 20.3443 3.28563C20.4253 3.36663 20.4708 3.47647 20.4708 3.591C20.4708 3.70553 20.4253 3.81537 20.3443 3.89635C20.2633 3.97733 20.1534 4.02283 20.0389 4.02282H8.40254C8.28801 4.02282 8.17817 3.97732 8.09718 3.89633C8.01619 3.81535 7.9707 3.70551 7.9707 3.59097C7.9707 3.47644 8.01619 3.3666 8.09718 3.28561C8.17817 3.20463 8.28801 3.15913 8.40254 3.15913ZM8.40254 0.25H17.1298C17.2444 0.25 17.3542 0.295497 17.4352 0.376484C17.5162 0.457471 17.5617 0.567313 17.5617 0.681845C17.5617 0.796376 17.5162 0.906218 17.4352 0.987205C17.3542 1.06819 17.2444 1.11369 17.1298 1.11369H8.40254C8.28801 1.11369 8.17817 1.06819 8.09718 0.987205C8.01619 0.906218 7.9707 0.796377 7.9707 0.681845C7.9707 0.567313 8.01619 0.457471 8.09718 0.376484C8.17817 0.295497 8.28801 0.25 8.40254 0.25ZM5.18814 17.8311C5.26912 17.7501 5.37896 17.7046 5.4935 17.7046C5.60801 17.7046 5.71783 17.7501 5.7988 17.8311C5.87977 17.912 5.92525 18.0219 5.92525 18.1364C5.92525 19.5773 4.75251 20.75 3.31163 20.75C1.87075 20.75 0.697998 19.5773 0.697998 18.1364C0.697998 16.6955 1.87067 15.5227 3.31163 15.5227C3.42616 15.5227 3.536 15.5682 3.61699 15.6492C3.69797 15.7302 3.74347 15.8401 3.74347 15.9546C3.74347 16.0691 3.69797 16.179 3.61699 16.2599C3.536 16.3409 3.42616 16.3864 3.31163 16.3864C2.34645 16.3864 1.5616 17.1713 1.5616 18.1365C1.5616 19.1016 2.34645 19.8865 3.31163 19.8865C4.27681 19.8865 5.06165 19.1016 5.06165 18.1365C5.06165 18.0219 5.10715 17.9121 5.18814 17.8311Z" stroke="url(#paint0_linear_886_4229)" stroke-width="0.5"/>
<path id="Vector_2" d="M5.90727 0.445369L5.91326 0.451735L5.91968 0.457667C5.92884 0.466132 5.93761 0.475024 5.94597 0.484315L5.94597 0.484318L5.94693 0.485376C6.11657 0.671731 6.10401 0.962085 5.91945 1.13279L5.91943 1.13276L5.91639 1.13567L3.03687 3.89013L3.03676 3.89001L3.03037 3.89658C2.94007 3.98953 2.81742 4.04234 2.68929 4.04417L2.68929 4.04413L2.68481 4.04427C2.62456 4.04621 2.56457 4.03482 2.50904 4.01082C2.45351 3.98682 2.40369 3.95075 2.3632 3.90503L2.36338 3.90487L2.35566 3.89689L0.843158 2.33463C0.750182 2.23596 0.697998 2.10463 0.697998 1.96769C0.697998 1.83322 0.748318 1.70417 0.83817 1.60613C1.03449 1.43136 1.33297 1.44395 1.51411 1.63647L1.5141 1.63647L1.51551 1.63794L2.51226 2.68021L2.68547 2.86133L2.86616 2.68768L5.22678 0.419127C5.42301 0.240073 5.72472 0.251356 5.90727 0.445369Z" stroke="url(#paint1_linear_886_4229)" stroke-width="0.5"/>
</g>
<defs>
<linearGradient id="paint0_linear_886_4229" x1="20.3454" y1="-7.95431e-07" x2="-3.42149" y2="4.87254" gradientUnits="userSpaceOnUse">
<stop stop-color="#00A7F7"/>
<stop offset="1" stop-color="#00FC92"/>
</linearGradient>
<linearGradient id="paint1_linear_886_4229" x1="6.20776" y1="0.041992" x2="-0.394245" y2="1.97683" gradientUnits="userSpaceOnUse">
<stop stop-color="#00A7F7"/>
<stop offset="1" stop-color="#00FC92"/>
</linearGradient>
</defs>
</svg>
