<svg width="28" height="28" viewBox="0 0 28 28" fill="none" xmlns="http://www.w3.org/2000/svg">
<rect x="0.25" y="0.25" width="26.6689" height="27.5" rx="5.75" fill="white" fill-opacity="0.1"/>
<rect x="0.25" y="0.25" width="26.6689" height="27.5" rx="5.75" stroke="url(#paint0_linear_1244_32622)" stroke-width="0.5"/>
<path d="M11.0972 22.7856L10.9204 22.6088L11.0972 22.7856C11.1782 22.7046 11.288 22.6591 11.4025 22.6591H15.0389C15.1535 22.6591 15.2633 22.7046 15.3443 22.7856C15.4253 22.8666 15.4708 22.9764 15.4708 23.091C15.4708 23.2055 15.4253 23.3154 15.3443 23.3963C15.2633 23.4773 15.1535 23.5228 15.0389 23.5228H11.4025C11.288 23.5228 11.1782 23.4773 11.0972 23.3963C11.0162 23.3154 10.9707 23.2055 10.9707 23.091C10.9707 22.9764 11.0162 22.8666 11.0972 22.7856ZM8.18814 13.3311C8.26912 13.2501 8.37896 13.2046 8.4935 13.2046C8.608 13.2046 8.71782 13.2501 8.7988 13.331C8.87977 13.412 8.92525 13.5218 8.92525 13.6363C8.92525 15.0772 7.75251 16.25 6.31163 16.25C4.87075 16.25 3.698 15.0772 3.698 13.6363C3.698 12.1954 4.87067 11.0227 6.31163 11.0227C6.42616 11.0227 6.536 11.0682 6.61699 11.1492C6.69797 11.2302 6.74347 11.34 6.74347 11.4545C6.74347 11.5691 6.69797 11.6789 6.61699 11.7599C6.536 11.8409 6.42616 11.8864 6.31163 11.8864C5.34645 11.8864 4.5616 12.6712 4.5616 13.6364C4.5616 14.6016 5.34645 15.3864 6.31163 15.3864C7.27681 15.3864 8.06165 14.6016 8.06165 13.6364C8.06165 13.5219 8.10715 13.412 8.18814 13.3311ZM11.4025 14.6592H16.4935C16.608 14.6592 16.7178 14.7047 16.7988 14.7857C16.8798 14.8666 16.9253 14.9765 16.9253 15.091C16.9253 15.2056 16.8798 15.3154 16.7988 15.3964C16.7178 15.4774 16.608 15.5229 16.4935 15.5229H11.4025C11.288 15.5229 11.1782 15.4774 11.0972 15.3964C11.0162 15.3154 10.9707 15.2056 10.9707 15.091C10.9707 14.9765 11.0162 14.8666 11.0972 14.7857C11.1782 14.7047 11.288 14.6592 11.4025 14.6592ZM11.4025 11.75H16.4935C16.608 11.75 16.7178 11.7955 16.7988 11.8765C16.8798 11.9575 16.9253 12.0674 16.9253 12.1819C16.9253 12.2964 16.8798 12.4063 16.7988 12.4872C16.7178 12.5682 16.608 12.6137 16.4935 12.6137H11.4025C11.288 12.6137 11.1782 12.5682 11.0972 12.4872C11.0162 12.4063 10.9707 12.2964 10.9707 12.1819C10.9707 12.0674 11.0162 11.9575 11.0972 11.8765C11.1782 11.7955 11.288 11.75 11.4025 11.75ZM11.4025 19.7501H16.4935C16.608 19.7501 16.7178 19.7956 16.7988 19.8766C16.8798 19.9576 16.9253 20.0674 16.9253 20.1819C16.9253 20.2965 16.8798 20.4063 16.7988 20.4873C16.7178 20.5683 16.608 20.6138 16.4935 20.6138H11.4025C11.288 20.6138 11.1782 20.5683 11.0972 20.4873C11.0162 20.4063 10.9707 20.2965 10.9707 20.1819C10.9707 20.0674 11.0162 19.9576 11.0972 19.8766C11.1782 19.7956 11.288 19.7501 11.4025 19.7501ZM11.4025 6.65913H23.039C23.1535 6.65914 23.2633 6.70464 23.3443 6.78563C23.4253 6.86663 23.4708 6.97647 23.4708 7.091C23.4708 7.20553 23.4253 7.31537 23.3443 7.39635C23.2633 7.47733 23.1534 7.52283 23.0389 7.52282H11.4025C11.288 7.52282 11.1782 7.47732 11.0972 7.39633C11.0162 7.31535 10.9707 7.20551 10.9707 7.09097C10.9707 6.97644 11.0162 6.8666 11.0972 6.78561C11.1782 6.70463 11.288 6.65913 11.4025 6.65913ZM11.4025 3.75H20.1298C20.2444 3.75 20.3542 3.7955 20.4352 3.87648C20.5162 3.95747 20.5617 4.06731 20.5617 4.18184C20.5617 4.29638 20.5162 4.40622 20.4352 4.48721C20.3542 4.56819 20.2444 4.61369 20.1298 4.61369H11.4025C11.288 4.61369 11.1782 4.56819 11.0972 4.48721C11.0162 4.40622 10.9707 4.29638 10.9707 4.18184C10.9707 4.06731 11.0162 3.95747 11.0972 3.87648C11.1782 3.7955 11.288 3.75 11.4025 3.75ZM8.18814 21.3311C8.26912 21.2501 8.37896 21.2046 8.4935 21.2046C8.60801 21.2046 8.71783 21.2501 8.7988 21.3311C8.87977 21.412 8.92525 21.5219 8.92525 21.6364C8.92525 23.0773 7.75251 24.25 6.31163 24.25C4.87075 24.25 3.698 23.0773 3.698 21.6364C3.698 20.1955 4.87067 19.0227 6.31163 19.0227C6.42616 19.0227 6.536 19.0682 6.61699 19.1492C6.69797 19.2302 6.74347 19.3401 6.74347 19.4546C6.74347 19.5691 6.69797 19.679 6.61699 19.7599C6.536 19.8409 6.42616 19.8864 6.31163 19.8864C5.34645 19.8864 4.5616 20.6713 4.5616 21.6365C4.5616 22.6016 5.34645 23.3865 6.31163 23.3865C7.27681 23.3865 8.06165 22.6016 8.06165 21.6365C8.06165 21.5219 8.10715 21.4121 8.18814 21.3311Z" stroke="url(#paint1_linear_1244_32622)" stroke-width="0.5"/>
<path d="M8.90727 3.94488L8.91326 3.95125L8.91968 3.95718C8.92884 3.96564 8.93761 3.97454 8.94597 3.98383L8.94597 3.98383L8.94693 3.98489C9.11657 4.17124 9.10401 4.4616 8.91945 4.6323L8.91943 4.63228L8.91639 4.63518L6.03687 7.38964L6.03676 7.38952L6.03037 7.39609C5.94007 7.48904 5.81742 7.54185 5.68929 7.54368L5.68929 7.54364L5.68481 7.54378C5.62456 7.54573 5.56457 7.53433 5.50904 7.51033C5.45351 7.48633 5.40369 7.45027 5.3632 7.40454L5.36338 7.40438L5.35566 7.3964L3.84316 5.83414C3.75018 5.73547 3.698 5.60415 3.698 5.4672C3.698 5.33273 3.74832 5.20368 3.83817 5.10564C4.03449 4.93087 4.33297 4.94346 4.51411 5.13598L4.5141 5.13599L4.51551 5.13745L5.51226 6.17972L5.68547 6.36084L5.86616 6.18719L8.22678 3.91864C8.42301 3.73958 8.72472 3.75087 8.90727 3.94488Z" stroke="url(#paint2_linear_1244_32622)" stroke-width="0.5"/>
<defs>
<linearGradient id="paint0_linear_1244_32622" x1="27.8698" y1="-2.09482" x2="-14.1103" y2="27.6084" gradientUnits="userSpaceOnUse">
<stop stop-color="white" stop-opacity="0.4"/>
<stop offset="1" stop-opacity="0"/>
</linearGradient>
<linearGradient id="paint1_linear_1244_32622" x1="23.3454" y1="3.5" x2="-0.421492" y2="8.37254" gradientUnits="userSpaceOnUse">
<stop stop-color="#00A7F7"/>
<stop offset="1" stop-color="#00FC92"/>
</linearGradient>
<linearGradient id="paint2_linear_1244_32622" x1="9.20776" y1="3.5415" x2="2.60576" y2="5.47634" gradientUnits="userSpaceOnUse">
<stop stop-color="#00A7F7"/>
<stop offset="1" stop-color="#00FC92"/>
</linearGradient>
</defs>
</svg>
