<svg width="33" height="33" viewBox="0 0 33 33" fill="none" xmlns="http://www.w3.org/2000/svg">
<circle cx="16.5555" cy="16.2754" r="15.75" fill="#2C2C2C" stroke="url(#paint0_linear_3168_16360)" stroke-width="0.5"/>
<g clip-path="url(#clip0_3168_16360)">
<path d="M12.1963 13.9436C11.9869 13.3799 11.1205 13.39 10.9242 13.9581L9.28924 18.2509C9.01967 18.9685 10.1088 19.3827 10.3844 18.668L10.6478 17.9763H12.4659L12.7263 18.6664C13.004 19.3847 14.0894 18.9679 13.8227 18.2526L12.2026 13.9596C12.2006 13.9542 12.1985 13.9489 12.1963 13.9436ZM11.0942 16.8044L11.561 15.5786L12.0237 16.8044H11.0942ZM23.2743 14.7112C23.5979 14.7112 23.8603 14.4488 23.8603 14.1252C23.8603 13.8016 23.5979 13.5393 23.2743 13.5393H21.4564C21.1328 13.5393 20.8704 13.8016 20.8704 14.1252V18.4396C20.8704 18.7632 21.1328 19.0256 21.4564 19.0256H23.2743C23.5979 19.0256 23.8603 18.7632 23.8603 18.4396C23.8603 18.1161 23.5979 17.8537 23.2743 17.8537H22.0423V16.8684H23.1403C23.4638 16.8684 23.7262 16.606 23.7262 16.2824C23.7262 15.9588 23.4638 15.6965 23.1403 15.6965H22.0423V14.7112H23.2743ZM17.2813 14.6777C17.6002 14.6777 17.9077 14.7715 18.1705 14.9491C18.4387 15.1302 18.8029 15.0598 18.984 14.7916C19.1652 14.5235 19.0947 14.1593 18.8265 13.9781C18.3692 13.6691 17.8349 13.5059 17.2813 13.5059C15.7577 13.5059 14.5183 14.7454 14.5183 16.2689C14.5183 17.7924 15.7577 19.0319 17.2813 19.0319C18.7328 19.0319 19.7465 17.8957 19.7465 16.2689C19.7465 15.9453 19.4842 15.6829 19.1606 15.6829H17.8581C17.5345 15.6829 17.2721 15.9453 17.2721 16.2689C17.2721 16.5925 17.5345 16.8548 17.8581 16.8548H18.4996C18.3543 17.3939 17.9853 17.86 17.2813 17.86C16.4039 17.86 15.6901 17.1462 15.6901 16.2689C15.6901 15.3915 16.4039 14.6777 17.2813 14.6777Z" fill="url(#paint1_linear_3168_16360)"/>
<path d="M25.9696 15.6895C25.646 15.6895 25.3837 15.9518 25.3837 16.2754C25.3837 18.6335 24.4654 20.8504 22.798 22.5178C21.1305 24.1852 18.9136 25.1035 16.5555 25.1035C14.1975 25.1035 11.9805 24.1852 10.3131 22.5178C8.6457 20.8504 7.72742 18.6335 7.72742 16.2754C7.72742 13.9173 8.6457 11.7004 10.3131 10.033C11.9805 8.36555 14.1975 7.44727 16.5555 7.44727C17.7381 7.44727 18.8853 7.67691 19.9654 8.12988C20.5822 8.38853 21.1674 8.71668 21.7098 9.10797L20.9332 9.20582C20.1709 9.3057 20.3224 10.4625 21.0796 10.3685L23.1758 10.1045C23.4877 10.0786 23.7356 9.7807 23.7029 9.46918L23.5161 7.36598C23.4875 7.04363 23.2028 6.80539 22.8806 6.83414C22.5583 6.86277 22.3202 7.1473 22.3488 7.46961L22.4109 8.16863C21.7919 7.72031 21.1233 7.34467 20.4184 7.04914C19.1942 6.5357 17.8945 6.27539 16.5555 6.27539C13.8844 6.27539 11.3732 7.31559 9.48449 9.20434C7.59574 11.0931 6.55554 13.6043 6.55554 16.2754C6.55554 18.9465 7.59574 21.4577 9.48449 23.3464C11.3732 25.2352 13.8844 26.2754 16.5555 26.2754C19.2266 26.2754 21.7378 25.2352 23.6266 23.3464C25.5153 21.4577 26.5555 18.9465 26.5555 16.2754C26.5555 15.9518 26.2932 15.6895 25.9696 15.6895Z" fill="url(#paint2_linear_3168_16360)"/>
</g>
<defs>
<linearGradient id="paint0_linear_3168_16360" x1="33.3811" y1="-2.11869" x2="-15.06" y2="33.2045" gradientUnits="userSpaceOnUse">
<stop stop-color="#6F6F6F" stop-opacity="0"/>
<stop offset="1" stop-color="#808080" stop-opacity="0.51"/>
</linearGradient>
<linearGradient id="paint1_linear_3168_16360" x1="23.5896" y1="13.5059" x2="10.0084" y2="21.1221" gradientUnits="userSpaceOnUse">
<stop stop-color="#00A7F7"/>
<stop offset="1" stop-color="#00FC92"/>
</linearGradient>
<linearGradient id="paint2_linear_3168_16360" x1="26.1852" y1="6.27539" x2="2.80698" y2="11.2402" gradientUnits="userSpaceOnUse">
<stop stop-color="#00A7F7"/>
<stop offset="1" stop-color="#00FC92"/>
</linearGradient>
<clipPath id="clip0_3168_16360">
<rect width="20" height="20" fill="white" transform="translate(6.55554 6.27539)"/>
</clipPath>
</defs>
</svg>
