<svg width="31" height="30" viewBox="0 0 31 30" fill="none" xmlns="http://www.w3.org/2000/svg">
<rect x="0.38147" width="30" height="30" rx="15" fill="white" fill-opacity="0.2"/>
<path d="M9.79609 9.3H12.0441L16.1161 20.5H14.0441L13.3241 18.516H8.52409L7.80409 20.5H5.73209L9.79609 9.3ZM9.23609 16.564H12.6041L10.9161 11.948L9.23609 16.564ZM17.1383 20.5V9.3H21.4343C22.0423 9.3 22.5917 9.452 23.0823 9.756C23.573 10.06 23.9623 10.468 24.2503 10.98C24.5383 11.4867 24.6823 12.0493 24.6823 12.668C24.6823 13.1747 24.589 13.6413 24.4023 14.068C24.221 14.4893 23.965 14.8547 23.6343 15.164C23.309 15.4733 22.933 15.708 22.5063 15.868L25.1863 20.5H22.9383L20.3463 16.044H19.0903V20.5H17.1383ZM19.0903 14.092H21.2103C21.4877 14.092 21.741 14.0227 21.9703 13.884C22.1997 13.7453 22.3837 13.5587 22.5223 13.324C22.661 13.0893 22.7303 12.828 22.7303 12.54C22.7303 12.2467 22.661 11.9827 22.5223 11.748C22.3837 11.5133 22.1997 11.3267 21.9703 11.188C21.741 11.0493 21.4877 10.98 21.2103 10.98H19.0903V14.092Z" fill="url(#paint0_linear_1224_23566)"/>
<defs>
<linearGradient id="paint0_linear_1224_23566" x1="25.4926" y1="9.5" x2="3.45998" y2="18.4327" gradientUnits="userSpaceOnUse">
<stop stop-color="#00A7F7"/>
<stop offset="1" stop-color="#00FC92"/>
</linearGradient>
</defs>
</svg>
