<svg width="41" height="41" viewBox="0 0 41 41" fill="none" xmlns="http://www.w3.org/2000/svg">
<rect x="0.5" y="0.5" width="40" height="40" rx="15.5" fill="white" fill-opacity="0.2"/>
<rect x="0.5" y="0.5" width="40" height="40" rx="15.5" stroke="url(#paint0_linear_1795_3408)" style="mix-blend-mode:overlay"/>
<path d="M23.1568 13.3669C23.0649 13.2747 22.9557 13.2016 22.8355 13.1517C22.7153 13.1019 22.5864 13.0762 22.4562 13.0762C22.326 13.0762 22.1972 13.1019 22.0769 13.1517C21.9567 13.2016 21.8475 13.2747 21.7556 13.3669L15.1768 19.9456C15.1034 20.0189 15.0452 20.1059 15.0055 20.2017C14.9658 20.2974 14.9453 20.4001 14.9453 20.5038C14.9453 20.6075 14.9658 20.7101 15.0055 20.8059C15.0452 20.9017 15.1034 20.9887 15.1768 21.0619L21.7556 27.6406C22.1435 28.0286 22.7689 28.0286 23.1568 27.6406C23.5447 27.2527 23.5447 26.6273 23.1568 26.2394L17.4252 20.4998L23.1647 14.7602C23.5447 14.3802 23.5447 13.7469 23.1568 13.3669Z" fill="url(#paint1_linear_1795_3408)"/>
<defs>
<linearGradient id="paint0_linear_1795_3408" x1="41" y1="1.89555" x2="-10.1529" y2="32.658" gradientUnits="userSpaceOnUse">
<stop stop-color="white"/>
<stop offset="1" stop-opacity="0"/>
</linearGradient>
<linearGradient id="paint1_linear_1795_3408" x1="23.2913" y1="13.0762" x2="13.0545" y2="14.3206" gradientUnits="userSpaceOnUse">
<stop stop-color="#00A7F7"/>
<stop offset="1" stop-color="#00FC92"/>
</linearGradient>
</defs>
</svg>
