<svg width="32" height="32" viewBox="0 0 32 32" fill="none" xmlns="http://www.w3.org/2000/svg">
<g filter="url(#filter0_b_3677_2799)">
<rect width="32" height="32" rx="16" fill="white" fill-opacity="0.1"/>
<path d="M25.5117 21.767L24.5428 21.1404C25.4769 19.5914 25.97 17.8219 25.97 16.0002C25.97 13.3489 24.9432 10.8543 23.075 8.97454C21.2127 7.09483 18.7297 6.05055 16.09 6.02734C16.0319 6.02734 15.9681 6.02734 15.9217 6.02734C13.2762 6.05055 10.7873 7.09483 8.92501 8.97454C7.06271 10.8543 6.03583 13.3431 6.03003 15.9886C6.03003 15.9944 6.03003 15.9944 6.03003 16.0002C6.03003 16.006 6.03003 16.006 6.03003 16.0118C6.03003 18.6574 7.06271 21.1462 8.92501 23.0259C10.7931 24.9057 13.2762 25.9499 15.9159 25.9731C15.9449 25.9731 15.9681 25.9731 15.9971 25.9731C15.9971 25.9731 15.9971 25.9731 16.0029 25.9731C16.0319 25.9731 16.0609 25.9731 16.0842 25.9731C16.0842 25.9731 16.0842 25.9731 16.09 25.9731C16.09 25.9731 16.09 25.9731 16.0958 25.9731C17.7898 25.9557 19.4433 25.5148 20.9053 24.691L21.0735 25.2073C21.1199 25.3408 21.2359 25.4336 21.3752 25.4452C21.3868 25.4452 21.3984 25.4452 21.4042 25.4452C21.5318 25.4452 21.6479 25.3756 21.7117 25.2596L22.6979 23.4205L24.2528 25.4452C24.3398 25.5554 24.4674 25.6134 24.6009 25.6134C24.6937 25.6134 24.7865 25.5844 24.8677 25.5264C25.0592 25.3814 25.094 25.1087 24.949 24.9173L23.3941 22.8983L25.4131 22.411C25.5465 22.3762 25.6509 22.2659 25.6742 22.1325C25.6916 21.9817 25.6335 21.8424 25.5117 21.767ZM22.0598 19.5218C22.3092 18.5007 22.4485 17.4332 22.4717 16.3367H25.2912C25.2332 17.909 24.7865 19.429 23.9801 20.7749L22.0598 19.5218ZM18.7181 18.0888L20.0582 22.1383C18.8921 21.8134 17.6506 21.6336 16.3626 21.6046C16.3684 20.247 16.3684 18.5297 16.3684 16.3367H21.7929C21.7697 17.2998 21.6595 18.2338 21.4564 19.1331L19.2344 17.6885C19.1126 17.6073 18.9501 17.6131 18.8341 17.7059C18.7181 17.7987 18.6717 17.9496 18.7181 18.0888ZM16.3684 15.658C16.3684 13.2445 16.3626 11.6781 16.3568 10.3901C17.7318 10.3611 19.072 10.1523 20.3019 9.78676C21.2185 11.417 21.7407 13.4824 21.7929 15.6638L16.3684 15.658ZM15.6664 25.277C14.3669 25.1493 13.1428 24.2733 12.1739 22.7765C13.282 22.469 14.4597 22.3066 15.6838 22.2833C15.678 23.6235 15.6722 24.5692 15.6664 25.277ZM16.3568 9.71714C16.3568 9.14859 16.351 8.62065 16.3452 8.0753C16.3452 7.64598 16.3394 7.20506 16.3394 6.71773C17.6854 6.84537 18.9443 7.7098 19.9364 9.1892C18.8225 9.50829 17.6042 9.68814 16.3568 9.71714ZM11.5067 9.01515C11.1238 8.88752 10.7583 8.74248 10.4044 8.58003C11.1934 7.98247 12.0811 7.50674 13.0383 7.18186C12.4814 7.65759 11.965 8.26675 11.5067 9.00355C11.5125 9.00935 11.5125 9.01515 11.5067 9.01515ZM15.6664 6.71773C15.6722 7.20506 15.6722 7.64598 15.6722 8.0753C15.678 8.62065 15.678 9.14859 15.6838 9.71714C14.4655 9.69394 13.2762 9.51989 12.1797 9.21821C13.1428 7.7214 14.3669 6.84537 15.6664 6.71773ZM15.6838 10.3901C15.6896 11.6839 15.6954 13.2445 15.6954 15.658H10.4044C10.4508 13.4824 10.9498 11.4402 11.8258 9.81577C13.0267 10.1697 14.3437 10.3669 15.6838 10.3901ZM15.6954 16.3367C15.6954 18.5297 15.6896 20.247 15.6896 21.6046C14.3379 21.6278 13.0441 21.8192 11.8258 22.1731C10.9498 20.5487 10.4508 18.5123 10.4044 16.3367H15.6954ZM11.5125 22.9853C11.9708 23.7221 12.4872 24.3371 13.0441 24.807C12.0869 24.4821 11.1992 24.0064 10.4044 23.4089C10.7525 23.2464 11.1238 23.1014 11.5067 22.9737C11.5125 22.9795 11.5125 22.9853 11.5125 22.9853ZM16.3394 25.277C16.3452 24.5692 16.351 23.6235 16.3568 22.2775C17.5926 22.3066 18.8167 22.4864 19.9364 22.8055C18.9443 24.2849 17.6854 25.1551 16.3394 25.277ZM25.2912 15.658H22.4659C22.4195 13.4127 21.8857 11.2778 20.9575 9.5663C21.381 9.41546 21.7871 9.24141 22.17 9.04996C24.0091 10.6918 25.1984 13.0414 25.2912 15.658ZM21.5956 8.58584C21.2766 8.73088 20.9517 8.86431 20.6094 8.98034C20.1627 8.28416 19.6579 7.6982 19.1184 7.23987C20.0118 7.56476 20.8472 8.01728 21.5956 8.58584ZM9.83586 9.05576C10.2594 9.26462 10.7061 9.45027 11.1702 9.61272C10.2768 11.3126 9.77204 13.4243 9.72563 15.658H6.70881C6.80744 13.0414 7.99676 10.6918 9.83586 9.05576ZM6.71461 16.3367H9.73143C9.77784 18.5703 10.2826 20.6821 11.176 22.382C10.7061 22.5444 10.2594 22.7301 9.83586 22.9389C7.99676 21.3029 6.80744 18.9532 6.71461 16.3367ZM19.1068 24.7606C19.5825 24.3603 20.0292 23.8614 20.4353 23.2754L20.6848 24.0296C20.1801 24.3255 19.6521 24.5692 19.1068 24.7606ZM22.6051 22.353C22.5065 22.3762 22.4253 22.44 22.3789 22.527L21.4796 24.2095L19.6927 18.814L24.4616 21.912L22.6051 22.353Z" fill="url(#paint0_linear_3677_2799)"/>
</g>
<defs>
<filter id="filter0_b_3677_2799" x="-5.3" y="-5.3" width="42.6" height="42.6" filterUnits="userSpaceOnUse" color-interpolation-filters="sRGB">
<feFlood flood-opacity="0" result="BackgroundImageFix"/>
<feGaussianBlur in="BackgroundImageFix" stdDeviation="2.65"/>
<feComposite in2="SourceAlpha" operator="in" result="effect1_backgroundBlur_3677_2799"/>
<feBlend mode="normal" in="SourceGraphic" in2="effect1_backgroundBlur_3677_2799" result="shape"/>
</filter>
<linearGradient id="paint0_linear_3677_2799" x1="25.6008" y1="6.02734" x2="2.29213" y2="10.9759" gradientUnits="userSpaceOnUse">
<stop stop-color="#00A7F7"/>
<stop offset="1" stop-color="#00FC92"/>
</linearGradient>
</defs>
</svg>
