<svg width="17" height="21" viewBox="0 0 17 21" fill="none" xmlns="http://www.w3.org/2000/svg">
<path d="M1.12158 20.7957H15.6618C15.691 20.7957 15.7203 20.7943 15.7492 20.7922C16.3016 20.7413 16.7079 20.2541 16.6578 19.7052L15.4454 6.37185C15.3984 5.85341 14.9705 5.4624 14.4499 5.4624H2.33352C1.81371 5.46297 1.38596 5.85398 1.33874 6.37183L0.126507 19.7051C0.123901 19.7336 0.122635 19.7644 0.122635 19.7951C0.122337 20.3462 0.570173 20.7953 1.12158 20.7957ZM14.4499 6.12901C14.6233 6.12901 14.7658 6.25924 14.7814 6.43206L15.9937 19.7658C16.0106 19.9487 15.8749 20.1111 15.6919 20.1277L15.6618 20.1291H1.12196C0.938269 20.1287 0.789213 19.9793 0.789213 19.7954L2.00271 6.43245C2.0183 6.25964 2.16085 6.1294 2.33414 6.12901H14.4499ZM11.0584 7.79662C11.0589 7.61276 11.209 7.46271 11.3925 7.46234L11.3909 6.79573C10.8416 6.79698 10.3933 7.24531 10.3918 7.79468L11.0584 7.79662Z" fill="url(#paint0_linear_2193_17230)"/>
<path d="M5.39175 8.79583C5.94314 8.79583 6.39177 8.34733 6.39177 7.79582C6.39177 7.24441 5.94326 6.7959 5.39175 6.7959C4.84036 6.7959 4.39183 7.24441 4.39183 7.79582C4.39183 8.34733 4.84034 8.79583 5.39175 8.79583ZM5.39175 7.4625C5.57561 7.4625 5.72516 7.61195 5.72516 7.79582C5.72516 7.97988 5.57561 8.12923 5.39175 8.12923C5.20779 8.12923 5.05844 7.97988 5.05844 7.79582C5.05844 7.61195 5.20779 7.4625 5.39175 7.4625ZM11.3918 8.79583C11.9431 8.79583 12.3917 8.34733 12.3917 7.79582C12.3917 7.24441 11.9432 6.7959 11.3918 6.7959V7.4625C11.5755 7.4625 11.7251 7.61186 11.7251 7.79582C11.7251 7.97968 11.5755 8.12923 11.3918 8.12923C11.208 8.12923 11.0584 7.97968 11.0584 7.79582H10.3918C10.3918 8.34733 10.8403 8.79583 11.3918 8.79583Z" fill="url(#paint1_linear_2193_17230)"/>
<path d="M11.0584 7.79678C11.0589 7.61292 11.209 7.46287 11.3925 7.4625L11.3909 6.7959C10.8416 6.79714 10.3933 7.24547 10.3917 7.79485L11.0584 7.79678Z" fill="url(#paint2_linear_2193_17230)"/>
<path d="M5.05844 7.12924H5.72517V4.12927C5.72517 2.65892 6.92136 1.46263 8.39173 1.46263C9.86208 1.46263 11.0584 2.65892 11.0584 4.12929V7.12927H11.7251V4.12929C11.7251 2.29117 10.2298 0.795898 8.39171 0.795898C6.55383 0.795898 5.05844 2.29117 5.05844 4.12929V7.12924Z" fill="url(#paint3_linear_2193_17230)"/>
<defs>
<linearGradient id="paint0_linear_2193_17230" x1="0.428919" y1="5.4624" x2="19.6265" y2="9.86004" gradientUnits="userSpaceOnUse">
<stop stop-color="#00A7F7"/>
<stop offset="1" stop-color="#00FC92"/>
</linearGradient>
<linearGradient id="paint1_linear_2193_17230" x1="4.53998" y1="6.7959" x2="10.2165" y2="11.618" gradientUnits="userSpaceOnUse">
<stop stop-color="#00A7F7"/>
<stop offset="1" stop-color="#00FC92"/>
</linearGradient>
<linearGradient id="paint2_linear_2193_17230" x1="10.4103" y1="6.7959" x2="11.58" y2="7.04428" gradientUnits="userSpaceOnUse">
<stop stop-color="#00A7F7"/>
<stop offset="1" stop-color="#00FC92"/>
</linearGradient>
<linearGradient id="paint3_linear_2193_17230" x1="5.1819" y1="0.795898" x2="12.9385" y2="2.52983" gradientUnits="userSpaceOnUse">
<stop stop-color="#00A7F7"/>
<stop offset="1" stop-color="#00FC92"/>
</linearGradient>
</defs>
</svg>
