<svg width="15" height="9" viewBox="0 0 15 9" fill="none" xmlns="http://www.w3.org/2000/svg">
<path d="M14.5647 8.21152C14.6569 8.1196 14.73 8.01039 14.7799 7.89017C14.8298 7.76994 14.8555 7.64106 14.8555 7.51089C14.8555 7.38073 14.8298 7.25184 14.7799 7.13162C14.73 7.01139 14.6569 6.90219 14.5647 6.81027L7.98599 0.231518C7.91275 0.158128 7.82576 0.0999026 7.72999 0.0601756C7.63422 0.0204486 7.53155 -3.20139e-07 7.42787 -3.24671e-07C7.32418 -3.29203e-07 7.22152 0.0204486 7.12575 0.0601756C7.02998 0.0999026 6.94298 0.158128 6.86974 0.231518L0.290991 6.81027C-0.0969261 7.19819 -0.0969261 7.8236 0.29099 8.21152C0.678907 8.59944 1.30432 8.59944 1.69224 8.21152L7.43183 2.47985L13.1714 8.21943C13.5514 8.59943 14.1847 8.59944 14.5647 8.21152Z" fill="url(#paint0_linear_719_27229)"/>
<defs>
<linearGradient id="paint0_linear_719_27229" x1="14.8555" y1="8.34598" x2="13.6111" y2="-1.8908" gradientUnits="userSpaceOnUse">
<stop stop-color="#00A7F7"/>
<stop offset="1" stop-color="#00FC92"/>
</linearGradient>
</defs>
</svg>
