<svg width="33" height="33" viewBox="0 0 33 33" fill="none" xmlns="http://www.w3.org/2000/svg">
<circle cx="16.2924" cy="16.6118" r="15.75" fill="#2C2C2C" stroke="url(#paint0_linear_3517_16813)" stroke-width="0.5"/>
<path d="M16.7629 7.69871C16.7629 7.43876 16.5522 7.22803 16.2922 7.22803C16.0322 7.22803 15.8215 7.43876 15.8215 7.69871V17.1124C15.8215 17.3028 15.9362 17.4744 16.1121 17.5472C16.288 17.6201 16.4905 17.5798 16.6251 17.4452L21.2927 12.7776C21.4765 12.5937 21.4765 12.2958 21.2927 12.1119C21.1089 11.9281 20.8109 11.9281 20.627 12.1119L16.7629 15.9761V7.69871Z" fill="url(#paint1_linear_3517_16813)"/>
<path fill-rule="evenodd" clip-rule="evenodd" d="M16.2924 3.50146C8.77547 3.50146 2.68176 9.59517 2.68176 17.1121C2.68176 24.629 8.77547 30.7227 16.2924 30.7227C23.8093 30.7227 29.903 24.629 29.903 17.1121C29.903 9.59517 23.8093 3.50146 16.2924 3.50146ZM3.62313 17.1121C3.62313 10.115 9.29534 4.44283 16.2924 4.44283C23.2894 4.44283 28.9616 10.115 28.9616 17.1121C28.9616 24.1091 23.2894 29.7813 16.2924 29.7813C9.29534 29.7813 3.62313 24.1091 3.62313 17.1121Z" fill="url(#paint2_linear_3517_16813)"/>
<defs>
<linearGradient id="paint0_linear_3517_16813" x1="33.1179" y1="-1.78226" x2="-15.3232" y2="33.5409" gradientUnits="userSpaceOnUse">
<stop stop-color="#6F6F6F" stop-opacity="0"/>
<stop offset="1" stop-color="#808080" stop-opacity="0.51"/>
</linearGradient>
<linearGradient id="paint1_linear_3517_16813" x1="21.3267" y1="7.22803" x2="14.564" y2="8.00595" gradientUnits="userSpaceOnUse">
<stop stop-color="#00A7F7"/>
<stop offset="1" stop-color="#00FC92"/>
</linearGradient>
<linearGradient id="paint2_linear_3517_16813" x1="29.3989" y1="3.50146" x2="-2.42025" y2="10.2588" gradientUnits="userSpaceOnUse">
<stop stop-color="#00A7F7"/>
<stop offset="1" stop-color="#00FC92"/>
</linearGradient>
</defs>
</svg>
