<svg width="32" height="32" viewBox="0 0 32 32" fill="none" xmlns="http://www.w3.org/2000/svg">
<rect x="0.5" y="0.5" width="31" height="31" rx="7.5" fill="white" fill-opacity="0.2"/>
<rect x="0.5" y="0.5" width="31" height="31" rx="7.5" stroke="url(#paint0_linear_915_27636)" style="mix-blend-mode:overlay"/>
<g clip-path="url(#clip0_915_27636)">
<path d="M7.87907 25.0001C7.70522 25.0001 7.53526 24.9486 7.39069 24.852C7.24613 24.7555 7.13345 24.6182 7.06691 24.4576C7.00038 24.297 6.98297 24.1202 7.0169 23.9497C7.05082 23.7792 7.13456 23.6226 7.25751 23.4996L23.4997 7.25746C23.6645 7.09261 23.8881 7 24.1213 7C24.3544 7 24.578 7.09261 24.7428 7.25746C24.9077 7.42231 25.0003 7.64589 25.0003 7.87902C25.0003 8.11215 24.9077 8.33574 24.7428 8.50058L8.50063 24.7428C8.41908 24.8245 8.32219 24.8893 8.21553 24.9335C8.10886 24.9776 7.99452 25.0003 7.87907 25.0001Z" fill="url(#paint1_linear_915_27636)"/>
<path d="M24.1213 25.0001C24.0059 25.0003 23.8915 24.9776 23.7849 24.9335C23.6782 24.8893 23.5813 24.8245 23.4998 24.7428L7.25758 8.50058C7.09273 8.33574 7.00012 8.11215 7.00012 7.87902C7.00012 7.64589 7.09273 7.42231 7.25758 7.25746C7.42243 7.09261 7.64601 7 7.87914 7C8.11228 7 8.33586 7.09261 8.50071 7.25746L24.7429 23.4996C24.8658 23.6226 24.9496 23.7792 24.9835 23.9497C25.0174 24.1202 25 24.297 24.9335 24.4576C24.867 24.6182 24.7543 24.7555 24.6097 24.852C24.4651 24.9486 24.2952 25.0001 24.1213 25.0001Z" fill="url(#paint2_linear_915_27636)"/>
</g>
<defs>
<linearGradient id="paint0_linear_915_27636" x1="32" y1="1.47945" x2="-7.92424" y2="25.4891" gradientUnits="userSpaceOnUse">
<stop stop-color="white"/>
<stop offset="1" stop-opacity="0"/>
</linearGradient>
<linearGradient id="paint1_linear_915_27636" x1="24.6669" y1="7" x2="3.62626" y2="11.4684" gradientUnits="userSpaceOnUse">
<stop stop-color="#00A7F7"/>
<stop offset="1" stop-color="#00FC92"/>
</linearGradient>
<linearGradient id="paint2_linear_915_27636" x1="24.6671" y1="7" x2="3.62638" y2="11.4684" gradientUnits="userSpaceOnUse">
<stop stop-color="#00A7F7"/>
<stop offset="1" stop-color="#00FC92"/>
</linearGradient>
<clipPath id="clip0_915_27636">
<rect width="18" height="18" fill="white" transform="translate(7 7)"/>
</clipPath>
</defs>
</svg>
