<svg width="18" height="18" viewBox="0 0 18 18" fill="none" xmlns="http://www.w3.org/2000/svg">
<g clip-path="url(#clip0_915_27640)">
<path d="M0.879071 18.0001C0.705215 18.0001 0.535256 17.9486 0.390691 17.852C0.246125 17.7555 0.133448 17.6182 0.0669123 17.4576C0.000376494 17.297 -0.0170291 17.1202 0.0168973 16.9497C0.0508237 16.7792 0.134558 16.6226 0.257508 16.4996L16.4997 0.25746C16.6645 0.092611 16.8881 0 17.1213 0C17.3544 0 17.578 0.092611 17.7428 0.25746C17.9077 0.422308 18.0003 0.645891 18.0003 0.879022C18.0003 1.11215 17.9077 1.33574 17.7428 1.50058L1.50063 17.7428C1.41908 17.8245 1.32219 17.8893 1.21553 17.9335C1.10886 17.9776 0.994518 18.0003 0.879071 18.0001Z" fill="url(#paint0_linear_915_27640)"/>
<path d="M17.1213 18.0001C17.0059 18.0003 16.8915 17.9776 16.7849 17.9335C16.6782 17.8893 16.5813 17.8245 16.4998 17.7428L0.257582 1.50058C0.0927331 1.33574 0.00012207 1.11215 0.00012207 0.879022C0.00012207 0.645891 0.0927331 0.422308 0.257582 0.25746C0.42243 0.092611 0.646013 0 0.879144 0C1.11228 0 1.33586 0.092611 1.50071 0.25746L17.7429 16.4996C17.8658 16.6226 17.9496 16.7792 17.9835 16.9497C18.0174 17.1202 18 17.297 17.9335 17.4576C17.867 17.6182 17.7543 17.7555 17.6097 17.852C17.4651 17.9486 17.2952 18.0001 17.1213 18.0001Z" fill="url(#paint1_linear_915_27640)"/>
</g>
<defs>
<linearGradient id="paint0_linear_915_27640" x1="17.6669" y1="-6.81802e-07" x2="-3.37374" y2="4.46841" gradientUnits="userSpaceOnUse">
<stop stop-color="#00A7F7"/>
<stop offset="1" stop-color="#00FC92"/>
</linearGradient>
<linearGradient id="paint1_linear_915_27640" x1="17.6671" y1="-6.81802e-07" x2="-3.37362" y2="4.46841" gradientUnits="userSpaceOnUse">
<stop stop-color="#00A7F7"/>
<stop offset="1" stop-color="#00FC92"/>
</linearGradient>
<clipPath id="clip0_915_27640">
<rect width="18" height="18" fill="white"/>
</clipPath>
</defs>
</svg>
