<svg width="33" height="33" viewBox="0 0 33 33" fill="none" xmlns="http://www.w3.org/2000/svg">
<path d="M32.5267 16.3965C32.5267 25.233 25.3633 32.3965 16.5267 32.3965C7.69018 32.3965 0.526733 25.233 0.526733 16.3965C0.526733 7.55993 7.69018 0.396484 16.5267 0.396484C25.3633 0.396484 32.5267 7.55993 32.5267 16.3965Z" fill="#2C2C2C"/>
<path fill-rule="evenodd" clip-rule="evenodd" d="M14.6958 8.98096C14.6958 7.90179 15.5706 7.02694 16.6498 7.02694C17.729 7.02694 18.6038 7.90179 18.6038 8.98096C18.6038 9.46335 18.429 9.90495 18.1392 10.2458C23.068 10.8137 26.9218 14.9128 27.1063 19.9486H28.3108C28.5197 19.9486 28.689 20.1179 28.689 20.3268V21.2723C28.689 22.5255 27.6731 23.5415 26.4198 23.5415H6.87972C5.62649 23.5415 4.61054 22.5255 4.61054 21.2723V20.3268C4.61054 20.1179 4.77986 19.9486 4.98874 19.9486H6.19327C6.37777 14.9128 10.2316 10.8137 15.1603 10.2458C14.8706 9.90495 14.6958 9.46335 14.6958 8.98096ZM6.95022 19.9486C7.1487 14.937 11.2743 10.935 16.3346 10.935H16.9649C22.0253 10.935 26.1509 14.937 26.3493 19.9486H6.95022ZM5.36693 20.705V21.2723C5.36693 22.1078 6.04423 22.7851 6.87972 22.7851H26.4198C27.2553 22.7851 27.9326 22.1078 27.9326 21.2723V20.705H5.36693Z" fill="url(#paint0_linear_3176_21005)"/>
<defs>
<linearGradient id="paint0_linear_3176_21005" x1="31.9341" y1="0.396483" x2="-5.47096" y2="8.34014" gradientUnits="userSpaceOnUse">
<stop stop-color="#00A7F7"/>
<stop offset="1" stop-color="#00FC92"/>
</linearGradient>
</defs>
</svg>
