<svg width="33" height="33" viewBox="0 0 33 33" fill="none" xmlns="http://www.w3.org/2000/svg">
<circle cx="16.8705" cy="16.2085" r="15.75" fill="#2C2C2C" stroke="url(#paint0_linear_3512_16806)" stroke-width="0.5"/>
<path d="M22.545 7.09826C22.5256 7.0918 22.5062 7.08534 22.4868 7.07887C22.2024 6.99485 21.9051 6.93669 21.6014 6.89791C21.2007 6.85267 20.7935 6.81389 20.3928 6.77511C20.3863 6.77511 20.3799 6.77511 20.3734 6.77511C19.2101 6.67817 18.0403 6.62646 16.8834 6.62646C16.8769 6.62646 16.8705 6.62646 16.864 6.62646C16.8576 6.62646 16.8511 6.62646 16.8446 6.62646C15.6878 6.62646 14.518 6.67817 13.3546 6.77511C13.3482 6.77511 13.3352 6.77511 13.3288 6.77511C12.9281 6.80743 12.5274 6.85267 12.1267 6.89791C11.8294 6.93669 11.5321 7.00132 11.2477 7.07887C11.2283 7.08534 11.2089 7.08534 11.1895 7.09826C8.91456 7.78334 7.29236 9.90319 7.29236 12.372V25.0783C7.29236 25.2915 7.46686 25.466 7.68014 25.466H11.3576C11.5708 25.466 11.7453 25.2915 11.7453 25.0783V22.7387H21.9956V25.0783C21.9956 25.2915 22.1701 25.466 22.3834 25.466H26.0608C26.2741 25.466 26.4486 25.2915 26.4486 25.0783V12.372C26.4421 9.90319 24.8199 7.78334 22.545 7.09826ZM16.8834 7.40202C17.8981 7.40202 18.9257 7.4408 19.9469 7.51836C19.7724 8.88204 18.4539 9.94197 16.864 9.94197C15.2741 9.94197 13.9621 8.88204 13.7812 7.51836C14.8023 7.4408 15.8299 7.40202 16.8446 7.40202C16.8511 7.40202 16.8576 7.40202 16.864 7.40202C16.8705 7.40202 16.8769 7.40202 16.8834 7.40202ZM12.2236 7.67347C12.4886 7.64115 12.7471 7.6153 13.0121 7.58945C13.2189 9.34738 14.8734 10.724 16.864 10.724C18.8546 10.724 20.5091 9.34738 20.716 7.58945C20.9809 7.6153 21.2459 7.64115 21.5044 7.67347C21.666 7.69286 21.8276 7.71871 21.9827 7.75749C21.6789 10.0454 19.4945 11.7904 16.864 11.7904C14.2271 11.7904 12.0491 10.0454 11.7453 7.75749C11.9005 7.71871 12.062 7.68639 12.2236 7.67347ZM11.7453 21.9631V20.6899H21.9956V21.9631H11.7453ZM25.6666 24.684H22.7647V12.7146C22.7647 12.5013 22.5902 12.3268 22.3769 12.3268C22.1637 12.3268 21.9892 12.5013 21.9892 12.7146V19.9143H11.7453V12.7146C11.7453 12.5013 11.5708 12.3268 11.3576 12.3268C11.1443 12.3268 10.9698 12.5013 10.9698 12.7146V24.684H8.06792V12.372C8.06792 10.4008 9.26357 8.69462 10.9956 7.98369C11.4157 10.5883 13.8911 12.5595 16.864 12.5595C19.837 12.5595 22.3188 10.5883 22.7324 7.98369C24.4645 8.68815 25.6601 10.4008 25.6601 12.3656V24.684H25.6666Z" fill="url(#paint1_linear_3512_16806)"/>
<defs>
<linearGradient id="paint0_linear_3512_16806" x1="33.696" y1="-2.18558" x2="-14.7451" y2="33.1376" gradientUnits="userSpaceOnUse">
<stop stop-color="#6F6F6F" stop-opacity="0"/>
<stop offset="1" stop-color="#808080" stop-opacity="0.51"/>
</linearGradient>
<linearGradient id="paint1_linear_3512_16806" x1="26.0939" y1="6.62646" x2="3.73465" y2="11.4547" gradientUnits="userSpaceOnUse">
<stop stop-color="#00A7F7"/>
<stop offset="1" stop-color="#00FC92"/>
</linearGradient>
</defs>
</svg>
