<svg width="20" height="21" viewBox="0 0 20 21" fill="none" xmlns="http://www.w3.org/2000/svg">
<path d="M19.4665 8.85681C18.9672 5.84856 17.2438 2.77942 15.2708 1.38491C14.2843 0.690693 13.2491 0.410572 12.2869 0.58717C10.6305 0.855112 9.29083 2.38969 8.57835 4.81333C8.57226 4.81333 8.57226 4.81333 8.56617 4.81333C7.61619 4.55148 6.56269 4.73416 5.51528 5.33703C4.79062 5.75721 4.07814 6.37835 3.42656 7.13346C3.42047 7.13955 3.42047 7.13955 3.41438 7.13955C3.39002 7.16391 3.36566 7.19436 3.34739 7.2248C2.14773 8.64368 1.15512 10.5132 0.661868 12.3949C0.113806 14.4227 0.211239 16.14 0.954168 17.4979C1.6362 18.7463 2.86021 19.6415 4.50441 20.0921C5.0951 20.2443 5.66752 20.3174 6.21559 20.3174C7.19601 20.3174 8.09118 20.0738 8.87065 19.5988C10.0825 18.8559 10.9716 17.5771 11.5135 15.805C12.1895 16.1156 12.9446 16.2678 13.7606 16.2678C14.1381 16.2678 14.534 16.2374 14.948 16.1704C16.6166 15.872 17.9198 15.0865 18.7114 13.9112C19.5822 12.6263 19.8319 10.9212 19.4665 8.85681ZM4.70537 19.3857C1.60575 18.5332 0.424374 16.1217 1.38653 12.5836C1.81889 10.9151 2.66534 9.26481 3.68841 7.96773L4.81498 9.20392L4.29737 12.3644C4.2791 12.4984 4.32782 12.6324 4.43134 12.7115L4.88806 13.0647V13.0708L4.55922 14.9464C4.52268 15.1474 4.65665 15.3361 4.85761 15.3666C4.88197 15.3727 4.90024 15.3727 4.9185 15.3727C5.0951 15.3727 5.24734 15.2509 5.27779 15.0682L5.53964 13.5702L6.59923 14.3922C6.66622 14.4471 6.74538 14.4714 6.82454 14.4714C6.93416 14.4714 7.04377 14.4227 7.11684 14.3313C7.23864 14.173 7.21428 13.9416 7.04986 13.8198L5.05248 12.2731L5.564 9.14911C5.58227 9.0395 5.54573 8.92989 5.47266 8.84463L4.1634 7.40749C4.71146 6.80462 5.29606 6.31137 5.89284 5.97035C6.52007 5.61106 7.12293 5.42838 7.69536 5.42838C7.93285 5.42838 8.16425 5.45883 8.38957 5.51972C9.16294 5.72068 9.81453 6.26874 10.3261 7.15173C11.4465 9.08213 11.7084 12.3644 10.9594 15.1291C10.9594 15.1291 10.9594 15.1291 10.9594 15.1352C10.0338 18.6732 7.81106 20.1834 4.70537 19.3857ZM14.8323 15.4518C13.6449 15.6467 12.5975 15.5249 11.7206 15.0925C12.4452 12.2 12.1408 8.81419 10.9533 6.78635C10.5027 6.00689 9.92414 5.42838 9.26647 5.08736C9.88761 2.9073 11.0264 1.54323 12.4087 1.31792C13.1942 1.17786 14.0163 1.40317 14.8506 1.99386C16.6775 3.28486 18.2791 6.15913 18.7479 8.99078C19.3874 12.5836 17.9928 14.8855 14.8323 15.4518ZM9.88761 9.7398C10.0155 10.4097 10.0581 11.0978 10.0155 11.7798C10.0033 11.9747 9.83889 12.1208 9.65011 12.1208C9.64402 12.1208 9.63184 12.1208 9.62575 12.1208C9.4248 12.1086 9.27256 11.9321 9.28474 11.7311C9.32736 11.11 9.28474 10.4888 9.16903 9.87377C9.03506 9.17347 8.79757 8.49753 8.46264 7.86421C8.36521 7.68761 8.43828 7.4623 8.61488 7.37095C8.79148 7.27352 9.01679 7.3466 9.10814 7.52319C9.4796 8.2235 9.74146 8.96642 9.88761 9.7398Z" fill="url(#paint0_linear_3311_26178)"/>
<defs>
<linearGradient id="paint0_linear_3311_26178" x1="19.2714" y1="0.535644" x2="-3.35295" y2="5.22729" gradientUnits="userSpaceOnUse">
<stop stop-color="#00A7F7"/>
<stop offset="1" stop-color="#00FC92"/>
</linearGradient>
</defs>
</svg>
