<svg width="26" height="26" viewBox="0 0 26 26" fill="none" xmlns="http://www.w3.org/2000/svg">
<path fill-rule="evenodd" clip-rule="evenodd" d="M12.5614 0.535156C19.4732 0.535156 25.0762 6.13822 25.0762 13.05C25.0762 19.9617 19.4732 25.5647 12.5614 25.5647C5.64968 25.5647 0.0466232 19.9617 0.0466232 13.05C0.0466232 6.13822 5.64968 0.535156 12.5614 0.535156Z" fill="url(#paint0_linear_2992_20884)"/>
<path style="mix-blend-mode:screen" opacity="0.75" d="M0.356804 12.2726C0.550682 9.20935 1.86905 6.4466 3.91446 4.40119C6.12466 2.19098 9.18793 0.814453 12.5614 0.814453C15.9349 0.814453 18.9981 2.18129 21.2083 4.40119C23.2537 6.4466 24.5721 9.20935 24.766 12.2726C24.8242 13.2323 23.3604 13.3389 23.2925 12.3599C23.1277 9.66496 21.9548 7.2318 20.1614 5.43843C18.2129 3.48996 15.5277 2.28792 12.5517 2.28792C9.57568 2.28792 6.89048 3.48996 4.94201 5.43843C3.14864 7.2318 1.98538 9.66496 1.81089 12.3599C1.75272 13.3292 0.279253 13.2323 0.337416 12.2726H0.356804Z" fill="url(#paint1_linear_2992_20884)"/>
<g style="mix-blend-mode:screen">
<path fill-rule="evenodd" clip-rule="evenodd" d="M20.3068 20.7943C20.0451 21.0561 19.7349 21.2015 19.5216 21.1821C15.4308 24.6622 9.18795 24.3714 5.21346 20.3969C1.40377 16.5872 0.986929 10.703 4.01142 6.6122C3.81754 6.26322 4.05989 5.61373 4.59305 5.07088C5.12622 4.53771 5.7854 4.29537 6.12468 4.48924C6.49305 4.20812 6.8905 3.96578 7.28795 3.74282C7.33642 3.52955 7.57877 3.27751 7.92775 3.11271C8.29611 2.93822 8.67417 2.91884 8.85836 3.04486C12.5614 1.77496 16.8849 2.6668 19.9094 5.68159C23.8839 9.65608 24.165 15.8989 20.6946 19.9898C20.714 20.2127 20.5686 20.5132 20.3068 20.775V20.7943Z" fill="#00FC92"/>
</g>
<path fill-rule="evenodd" clip-rule="evenodd" d="M12.5614 2.57031C18.3486 2.57031 23.0405 7.26215 23.0405 13.0494C23.0405 18.8366 18.3486 23.5285 12.5614 23.5285C6.77414 23.5285 2.08231 18.8366 2.08231 13.0494C2.08231 7.26215 6.77414 2.57031 12.5614 2.57031Z" fill="url(#paint2_linear_2992_20884)"/>
<path fill-rule="evenodd" clip-rule="evenodd" d="M12.5615 3.50195C17.8349 3.50195 22.1099 7.77695 22.1099 13.0504C22.1099 18.3239 17.8349 22.5989 12.5615 22.5989C7.28801 22.5989 3.01301 18.3239 3.01301 13.0504C3.01301 7.77695 7.28801 3.50195 12.5615 3.50195Z" fill="url(#paint3_radial_2992_20884)"/>
<path style="mix-blend-mode:multiply" opacity="0.75" fill-rule="evenodd" clip-rule="evenodd" d="M24.9599 12.7199C24.9599 19.4474 19.4053 24.9051 12.5517 24.9051C5.69815 24.9051 0.153256 19.4474 0.153256 12.7199C0.153256 10.6842 0.667031 8.75509 1.56856 7.06836C0.599174 8.84234 0.0466232 10.8781 0.0466232 13.0495C0.0466232 19.9612 5.64968 25.5643 12.5614 25.5643C19.4732 25.5643 25.0762 19.9612 25.0762 13.0495C25.0762 10.8877 24.5237 8.84234 23.5543 7.06836C24.4558 8.75509 24.9696 10.6842 24.9696 12.7199H24.9599Z" fill="url(#paint4_linear_2992_20884)"/>
<path fill-rule="evenodd" clip-rule="evenodd" d="M9.70169 13.3488C8.83894 13.4167 7.10373 13.4264 6.2119 13.3779C6.11496 13.3779 6.02771 13.3294 5.97924 13.2422C6.08588 13.4458 6.5318 14.0468 6.75475 14.2794C6.81292 14.357 7.37516 15.0356 7.4721 15.0452C7.85986 15.0646 8.40271 15.0743 8.96496 15.0743C9.20731 14.483 9.45935 13.9014 9.70169 13.3488Z" fill="url(#paint5_radial_2992_20884)"/>
<path fill-rule="evenodd" clip-rule="evenodd" d="M17.8445 3.24532C16.6328 5.1841 15.1108 7.48155 13.7925 9.41063C14.4807 9.38155 15.3823 9.35246 16.2159 9.35246C17.2144 7.8693 18.2323 6.29889 19.1047 4.91267C19.1629 4.82542 19.1532 4.68001 19.1241 4.62185C18.9884 4.31165 18.0578 3.10961 17.8154 2.87695C17.8542 2.97389 17.8542 3.08052 17.796 3.16777L17.8445 3.24532Z" fill="url(#paint6_radial_2992_20884)"/>
<path fill-rule="evenodd" clip-rule="evenodd" d="M17.9706 9.85701C14.8298 13.9284 11.3594 17.9223 8.05377 21.3249C7.57877 21.8193 6.76449 22.556 6.59 22.4687C6.59 22.4687 6.59 22.4687 6.5803 22.459C6.64816 22.5948 7.64663 23.9228 7.83081 24.1167C7.84051 24.1264 7.8502 24.1361 7.8599 24.1458C8.02469 24.233 8.84867 23.4963 9.32367 23.0019C12.6293 19.5994 16.1094 15.6055 19.2405 11.534C19.3084 11.4371 19.2987 11.282 19.2696 11.2238C19.2405 11.156 19.2502 11.1851 19.2308 11.1657C19.0854 10.933 18.242 9.80854 17.99 9.53711C18.0385 9.64374 18.0288 9.76007 17.9609 9.84731L17.9706 9.85701Z" fill="url(#paint7_radial_2992_20884)"/>
<path style="mix-blend-mode:multiply" opacity="0.5" fill-rule="evenodd" clip-rule="evenodd" d="M17.7962 3.3249C18.0967 3.57694 18.465 4.01316 18.5038 4.33306C18.6783 5.62235 17.4375 7.31877 16.7589 8.26877C16.2258 9.00551 15.838 9.26724 15.3533 9.37388C15.6441 9.37388 15.9252 9.37388 16.2064 9.36418C17.2048 7.88102 18.2227 6.31061 19.0951 4.92439C19.1533 4.83714 19.1436 4.69173 19.1145 4.63357C18.9788 4.32337 18.0482 3.13102 17.8059 2.88867C17.8446 2.98561 17.8446 3.08255 17.7865 3.17949C17.7671 3.20857 17.7574 3.22796 17.738 3.25704L17.7962 3.3249Z" fill="url(#paint8_radial_2992_20884)"/>
<path style="mix-blend-mode:multiply" opacity="0.5" fill-rule="evenodd" clip-rule="evenodd" d="M19.2308 11.1474C19.1145 10.9535 18.465 10.0907 18.1354 9.68359C18.814 11.0989 18.814 11.6127 17.8833 12.8632C16.7395 14.4045 15.5665 15.9168 14.3354 17.3805C13.2109 18.7183 12.0282 20.027 10.7971 21.2678C10.2446 21.83 9.63386 22.3341 8.99406 22.78C8.23794 23.3132 7.49151 23.2938 6.96804 22.9933C7.28794 23.4295 7.71447 23.9821 7.8308 24.0984C7.84049 24.1081 7.85018 24.1178 7.85988 24.1275C8.02467 24.2147 8.84865 23.478 9.32365 22.9836C12.6293 19.581 16.1094 15.5872 19.2405 11.5157C19.3083 11.4188 19.2987 11.2637 19.2696 11.2055C19.2405 11.1377 19.2502 11.1668 19.2308 11.1474Z" fill="url(#paint9_radial_2992_20884)"/>
<path style="mix-blend-mode:screen" fill-rule="evenodd" clip-rule="evenodd" d="M8.73228 23.5466C8.58687 23.6241 8.41238 23.6726 8.32513 23.6047C8.16034 23.4787 7.55932 22.6838 7.45268 22.5093C7.45268 22.4899 7.4333 22.4802 7.4236 22.4609C7.32666 22.3058 7.36544 22.0925 7.44299 21.9083C7.06493 22.2476 6.69656 22.519 6.58993 22.4609C6.58993 22.4609 6.57054 22.4512 6.57054 22.4415C6.6384 22.5772 7.63687 23.9052 7.82105 24.0991C7.83075 24.1088 7.84044 24.1185 7.85013 24.1282C7.95677 24.1864 8.34452 23.8956 8.73228 23.5466ZM17.6119 10.3823C17.7379 10.3241 17.8833 10.295 17.9608 10.3532C17.9705 10.3629 17.9899 10.3726 17.9996 10.3823C18.1547 10.5083 18.7557 11.3129 18.8624 11.4874C18.9496 11.6231 18.9205 11.8073 18.8624 11.9818C18.9787 11.8267 19.1047 11.6716 19.2211 11.5165C19.2889 11.4195 19.2792 11.2644 19.2501 11.2063C19.2211 11.1384 19.2307 11.1675 19.2114 11.1481C19.066 10.9154 18.2226 9.79096 17.9705 9.51953C17.9705 9.51953 17.9802 9.53892 17.9802 9.54861C18.0287 9.65525 18.019 9.77157 17.9512 9.85882C17.8154 10.0333 17.6797 10.2078 17.544 10.3823C17.5343 10.392 17.5246 10.4114 17.5149 10.4211C17.544 10.4017 17.5731 10.392 17.5925 10.3823H17.6119Z" fill="url(#paint10_radial_2992_20884)"/>
<path fill-rule="evenodd" clip-rule="evenodd" d="M11.2818 2.80854C12.5614 2.53711 15.9833 2.50803 17.6313 2.77946C17.7379 2.79885 17.8155 2.85701 17.8639 2.95395C17.9027 3.05089 17.9027 3.14782 17.8446 3.24476C16.6328 5.18354 15.1109 7.48099 13.7925 9.41007C14.9655 9.35191 16.7588 9.33252 17.7476 9.3713C17.8639 9.3713 17.9609 9.43915 18.0094 9.54578C18.0578 9.65242 18.0481 9.76874 17.9803 9.85599C14.8395 13.9274 11.369 17.9213 8.06344 21.3238C7.58844 21.8182 6.77415 22.555 6.59966 22.4677C6.42517 22.3805 6.68691 21.4886 6.79354 21.0524C7.11344 19.734 8.46089 16.157 9.7114 13.3458C8.84864 13.4136 7.11344 13.4233 6.2216 13.3749C6.12466 13.3749 6.03742 13.3264 5.98895 13.2392C5.93078 13.1616 5.92109 13.0647 5.95017 12.9677C6.81293 10.3988 9.59507 4.88303 10.9134 3.05089C11.0104 2.92487 11.1267 2.84731 11.2818 2.80854Z" fill="url(#paint11_radial_2992_20884)"/>
<path style="mix-blend-mode:multiply" fill-rule="evenodd" clip-rule="evenodd" d="M17.3598 7.6093C16.5067 8.37512 14.8685 8.8792 14.5001 8.35573C14.2578 8.71441 14.0251 9.06339 13.7925 9.40267C14.4807 9.37359 15.3823 9.34451 16.2159 9.34451C16.6037 8.77257 16.9914 8.19094 17.3695 7.59961L17.3598 7.6093Z" fill="url(#paint12_radial_2992_20884)"/>
<path style="mix-blend-mode:multiply" fill-rule="evenodd" clip-rule="evenodd" d="M8.47058 13.3961C8.93588 13.7548 8.21853 14.8987 7.27823 14.8793C7.36547 14.9762 7.44302 15.0344 7.47211 15.0441C7.85986 15.0635 8.40272 15.0732 8.96496 15.0732C9.20731 14.4818 9.45935 13.9002 9.7017 13.3477C9.3818 13.3767 8.94558 13.3864 8.47058 13.3961Z" fill="url(#paint13_radial_2992_20884)"/>
<g style="mix-blend-mode:screen">
<path fill-rule="evenodd" clip-rule="evenodd" d="M11.3884 4.22573C12.7359 4.00277 14.5583 3.98338 15.9252 4.12879C16.1191 4.14818 16.3226 4.21603 16.4777 4.34205C16.7782 4.59409 16.5747 5.14664 16.3129 5.63134C16.8461 4.80736 17.3696 3.99307 17.8446 3.23695C17.9027 3.14971 17.9027 3.04307 17.864 2.94613C17.8252 2.8492 17.7379 2.79103 17.6313 2.77165C15.9736 2.50022 12.5614 2.5293 11.2818 2.80073C11.1267 2.82981 11.0007 2.91705 10.9134 3.04307C10.2833 3.91552 9.32365 5.63134 8.39304 7.45379C9.04253 6.34869 10.4191 4.38083 11.3884 4.21603V4.22573Z" fill="url(#paint14_linear_2992_20884)"/>
</g>
<path style="mix-blend-mode:screen" fill-rule="evenodd" clip-rule="evenodd" d="M17.7476 9.36509C17.4277 9.3554 17.0206 9.3457 16.5844 9.3457C17.3211 9.58805 17.3211 10.1309 16.7298 10.8967C15.1303 12.9712 10.8747 18.1477 8.79049 19.6794C7.73385 20.4549 7.39457 19.9605 7.3461 19.2722C7.08436 20.0187 6.89049 20.6391 6.79355 21.0462C6.69661 21.463 6.45426 22.287 6.58028 22.4421C6.58028 22.4421 6.58028 22.4421 6.58998 22.4518C6.69661 22.51 7.06498 22.2289 7.44304 21.8993C7.6563 21.7054 7.87926 21.4921 8.05375 21.3176C11.2043 18.0799 14.5099 14.2896 17.5344 10.4217C17.6798 10.2278 17.8252 10.0437 17.9706 9.84979C18.0384 9.75285 18.0481 9.63652 17.9997 9.53958C17.9512 9.45234 17.8543 9.39417 17.7476 9.39417V9.36509Z" fill="url(#paint15_radial_2992_20884)"/>
<path style="mix-blend-mode:screen" fill-rule="evenodd" clip-rule="evenodd" d="M11.6114 2.98478C11.4466 3.01386 11.2721 3.07203 11.1557 3.19805C10.1282 4.25468 7.62718 9.14039 7.2685 10.4394C7.23942 10.5266 7.21034 10.6817 7.2782 10.7399C7.37513 10.8174 7.53024 10.6042 7.5884 10.5266C8.50932 9.07254 9.3236 7.56029 10.2348 6.09652C10.6904 5.36948 11.2236 4.52611 11.7471 3.84754C12.0767 3.42101 12.6971 3.29499 13.1818 3.16896C13.87 2.97509 13.5889 2.81029 13.0945 2.82968C12.6195 2.84907 12.0864 2.89754 11.6017 2.99448L11.6114 2.98478Z" fill="url(#paint16_linear_2992_20884)"/>
<path style="mix-blend-mode:screen" fill-rule="evenodd" clip-rule="evenodd" d="M17.3986 9.45012C16.2741 9.44042 15.1496 9.44042 14.0251 9.49859C13.4823 9.52767 13.8991 10.0802 14.2869 10.1093C15.169 10.1675 16.4971 9.97359 17.3695 9.69247C17.4665 9.66338 17.6022 9.62461 17.6119 9.52767C17.6216 9.45012 17.4761 9.45012 17.3986 9.45012Z" fill="url(#paint17_linear_2992_20884)"/>
<path style="mix-blend-mode:screen" opacity="0.5" fill-rule="evenodd" clip-rule="evenodd" d="M7.79206 21.5866C7.7242 22.8177 10.5451 20.5494 11.1849 19.9677C13.3563 17.9805 15.9446 15.2177 17.4181 12.6392C17.9222 11.7473 17.99 10.6034 17.2436 10.807C14.3257 14.5198 11.1558 18.1356 8.13134 21.2473C8.11195 21.2667 8.08287 21.2958 8.06348 21.3152C7.98593 21.4024 7.88899 21.4897 7.80175 21.5769L7.79206 21.5866Z" fill="url(#paint18_radial_2992_20884)"/>
<path style="mix-blend-mode:screen" fill-rule="evenodd" clip-rule="evenodd" d="M11.718 5.19406C11.4175 5.41702 11.1266 5.66906 10.9425 5.98895C9.90522 7.76293 9.01338 9.60477 8.07307 11.4272C7.87919 11.8053 7.65624 12.5226 8.36389 12.5905C9.18787 12.668 10.0215 12.5905 10.8455 12.5905C9.99246 14.4614 8.95522 16.3808 8.37358 18.3486C8.19909 18.9594 8.69348 18.9691 9.08124 18.6104C10.894 16.9333 14.0639 13.4629 15.3435 11.2527C15.6828 10.6711 15.1108 10.3997 14.6358 10.3803C13.9379 10.3512 13.2496 10.3997 12.5516 10.4094C13.3562 9.10069 14.1996 7.8114 14.9751 6.47365C15.0817 6.27977 15.1593 6.06651 15.1884 5.84355C15.2272 5.52365 15.1011 5.23283 14.8685 5.01957C14.5098 4.68997 13.5307 4.68028 12.7164 4.83538C12.2996 4.91293 11.9215 5.04865 11.718 5.20375V5.19406Z" fill="url(#paint19_radial_2992_20884)"/>
<defs>
<linearGradient id="paint0_linear_2992_20884" x1="12.5614" y1="25.5551" x2="12.5614" y2="0.535156" gradientUnits="userSpaceOnUse">
<stop stop-color="#00FC92"/>
<stop offset="1" stop-color="#73ABDE"/>
</linearGradient>
<linearGradient id="paint1_linear_2992_20884" x1="12.5614" y1="13.0384" x2="12.5614" y2="0.814453" gradientUnits="userSpaceOnUse">
<stop/>
<stop offset="1" stop-color="#00FF9D"/>
</linearGradient>
<linearGradient id="paint2_linear_2992_20884" x1="12.5614" y1="23.5188" x2="12.5614" y2="2.57031" gradientUnits="userSpaceOnUse">
<stop stop-color="#84C4FF"/>
<stop offset="1" stop-color="#5244F3"/>
</linearGradient>
<radialGradient id="paint3_radial_2992_20884" cx="0" cy="0" r="1" gradientUnits="userSpaceOnUse" gradientTransform="translate(12.5615 13.0504) scale(9.54847)">
<stop stop-color="#00FC92"/>
<stop offset="1" stop-color="#25094F"/>
</radialGradient>
<linearGradient id="paint4_linear_2992_20884" x1="12.5614" y1="25.5546" x2="12.5614" y2="7.06836" gradientUnits="userSpaceOnUse">
<stop stop-color="#074675"/>
<stop offset="1" stop-color="white"/>
</linearGradient>
<radialGradient id="paint5_radial_2992_20884" cx="0" cy="0" r="1" gradientUnits="userSpaceOnUse" gradientTransform="translate(4.90322 12.2534) scale(5.5449 5.5449)">
<stop stop-color="#00FC92"/>
<stop offset="1" stop-color="#00A7F7"/>
</radialGradient>
<radialGradient id="paint6_radial_2992_20884" cx="0" cy="0" r="1" gradientUnits="userSpaceOnUse" gradientTransform="translate(15.8185 4.32134) scale(13.5811)">
<stop stop-color="#00FC92"/>
<stop offset="1" stop-color="#00A7F7"/>
</radialGradient>
<radialGradient id="paint7_radial_2992_20884" cx="0" cy="0" r="1" gradientUnits="userSpaceOnUse" gradientTransform="translate(18.0675 20.2392) scale(25.5143 25.5143)">
<stop stop-color="#00A7F7"/>
<stop offset="1" stop-color="#00FC92"/>
</radialGradient>
<radialGradient id="paint8_radial_2992_20884" cx="0" cy="0" r="1" gradientUnits="userSpaceOnUse" gradientTransform="translate(14.8298 3.28612) scale(6.67908 6.67908)">
<stop stop-color="white"/>
<stop offset="0.11" stop-color="#F9FAFB"/>
<stop offset="0.26" stop-color="#E9ECF0"/>
<stop offset="0.42" stop-color="#CED5DE"/>
<stop offset="0.6" stop-color="#A9B5C6"/>
<stop offset="0.79" stop-color="#7A8CA6"/>
<stop offset="0.98" stop-color="#405B80"/>
<stop offset="1" stop-color="#3C577D"/>
</radialGradient>
<radialGradient id="paint9_radial_2992_20884" cx="0" cy="0" r="1" gradientUnits="userSpaceOnUse" gradientTransform="translate(7.42365 11.0989) scale(14.2112)">
<stop stop-color="white"/>
<stop offset="0.11" stop-color="#F9FAFB"/>
<stop offset="0.26" stop-color="#E9ECF0"/>
<stop offset="0.42" stop-color="#CED5DE"/>
<stop offset="0.6" stop-color="#A9B5C6"/>
<stop offset="0.79" stop-color="#7A8CA6"/>
<stop offset="0.98" stop-color="#405B80"/>
<stop offset="1" stop-color="#3C577D"/>
</radialGradient>
<radialGradient id="paint10_radial_2992_20884" cx="0" cy="0" r="1" gradientUnits="userSpaceOnUse" gradientTransform="translate(13.5889 17.2068) scale(9.16071)">
<stop offset="0.58"/>
<stop offset="0.74" stop-color="#000101"/>
<stop offset="0.79" stop-color="#000808"/>
<stop offset="0.83" stop-color="#001414"/>
<stop offset="0.87" stop-color="#002525"/>
<stop offset="0.89" stop-color="#003B3B"/>
<stop offset="0.92" stop-color="#005656"/>
<stop offset="0.94" stop-color="#007777"/>
<stop offset="0.96" stop-color="#009C9C"/>
<stop offset="0.98" stop-color="#00C7C7"/>
<stop offset="1" stop-color="#00FFFF"/>
</radialGradient>
<radialGradient id="paint11_radial_2992_20884" cx="0" cy="0" r="1" gradientUnits="userSpaceOnUse" gradientTransform="translate(10.4772 2.81823) scale(19.7367 19.7367)">
<stop stop-color="#00FC92"/>
<stop offset="1" stop-color="#0081FC"/>
</radialGradient>
<radialGradient id="paint12_radial_2992_20884" cx="0" cy="0" r="1" gradientUnits="userSpaceOnUse" gradientTransform="translate(13.3368 6.35879) scale(5.20561 5.20561)">
<stop stop-color="white"/>
<stop offset="0.11" stop-color="#F9FAFB"/>
<stop offset="0.26" stop-color="#E9ECF0"/>
<stop offset="0.42" stop-color="#CED5DE"/>
<stop offset="0.6" stop-color="#A9B5C6"/>
<stop offset="0.79" stop-color="#7A8CA6"/>
<stop offset="0.98" stop-color="#405B80"/>
<stop offset="1" stop-color="#3C577D"/>
</radialGradient>
<radialGradient id="paint13_radial_2992_20884" cx="0" cy="0" r="1" gradientUnits="userSpaceOnUse" gradientTransform="translate(7.29762 13.4252) scale(4.99235 4.99234)">
<stop stop-color="white"/>
<stop offset="0.11" stop-color="#F9FAFB"/>
<stop offset="0.26" stop-color="#E9ECF0"/>
<stop offset="0.42" stop-color="#CED5DE"/>
<stop offset="0.6" stop-color="#A9B5C6"/>
<stop offset="0.79" stop-color="#7A8CA6"/>
<stop offset="0.98" stop-color="#405B80"/>
<stop offset="1" stop-color="#3C577D"/>
</radialGradient>
<linearGradient id="paint14_linear_2992_20884" x1="17.7151" y1="2.58203" x2="7.81008" y2="6.68302" gradientUnits="userSpaceOnUse">
<stop stop-color="#00A7F7"/>
<stop offset="1" stop-color="#00FC92"/>
</linearGradient>
<radialGradient id="paint15_radial_2992_20884" cx="0" cy="0" r="1" gradientUnits="userSpaceOnUse" gradientTransform="translate(21.189 28.7819) scale(21.0551)">
<stop stop-color="#00FFFF"/>
<stop offset="0.11" stop-color="#00FAFA"/>
<stop offset="0.23" stop-color="#00ECEC"/>
<stop offset="0.36" stop-color="#00D6D6"/>
<stop offset="0.5" stop-color="#00B6B6"/>
<stop offset="0.64" stop-color="#008E8E"/>
<stop offset="0.78" stop-color="#005C5C"/>
<stop offset="0.92" stop-color="#002222"/>
<stop offset="1"/>
</radialGradient>
<linearGradient id="paint16_linear_2992_20884" x1="12.7455" y1="2.04447" x2="6.84197" y2="13.3088" gradientUnits="userSpaceOnUse">
<stop stop-color="#A1E1FF"/>
<stop offset="1"/>
</linearGradient>
<linearGradient id="paint17_linear_2992_20884" x1="13.7731" y1="9.77971" x2="17.6119" y2="9.77971" gradientUnits="userSpaceOnUse">
<stop stop-color="#A1E1FF"/>
<stop offset="1"/>
</linearGradient>
<radialGradient id="paint18_radial_2992_20884" cx="0" cy="0" r="1" gradientUnits="userSpaceOnUse" gradientTransform="translate(6.20226 7.16211) scale(15.3939)">
<stop stop-color="#00FFFF"/>
<stop offset="0.11" stop-color="#00FAFA"/>
<stop offset="0.23" stop-color="#00ECEC"/>
<stop offset="0.36" stop-color="#00D6D6"/>
<stop offset="0.5" stop-color="#00B6B6"/>
<stop offset="0.64" stop-color="#008E8E"/>
<stop offset="0.78" stop-color="#005C5C"/>
<stop offset="0.92" stop-color="#002222"/>
<stop offset="1"/>
</radialGradient>
<radialGradient id="paint19_radial_2992_20884" cx="0" cy="0" r="1" gradientUnits="userSpaceOnUse" gradientTransform="translate(3.00317 5.15528) scale(14.5505 14.5505)">
<stop stop-color="#00FFFF"/>
<stop offset="0.11" stop-color="#00FAFA"/>
<stop offset="0.23" stop-color="#00ECEC"/>
<stop offset="0.36" stop-color="#00D6D6"/>
<stop offset="0.5" stop-color="#00B6B6"/>
<stop offset="0.64" stop-color="#008E8E"/>
<stop offset="0.78" stop-color="#005C5C"/>
<stop offset="0.92" stop-color="#002222"/>
<stop offset="1"/>
</radialGradient>
</defs>
</svg>
