<svg width="45" height="43" viewBox="0 0 45 43" fill="none" xmlns="http://www.w3.org/2000/svg">
<rect x="0.5" y="0.5" width="43.9045" height="41.8395" rx="15.5" fill="white" fill-opacity="0.2"/>
<rect x="0.5" y="0.5" width="43.9045" height="41.8395" rx="15.5" stroke="url(#paint0_linear_2679_16354)" style="mix-blend-mode:overlay"/>
<path d="M17.79 11.8105C16.2737 11.8105 14.7631 12.3879 13.6088 13.5422C12.7813 14.3698 12.2472 15.3772 12.0171 16.4457C11.9691 16.6687 12.111 16.8884 12.334 16.9364C12.557 16.9844 12.7767 16.8425 12.8247 16.6196C13.0214 15.7056 13.4785 14.8407 14.1929 14.1264C15.1863 13.133 16.4841 12.6366 17.79 12.6366C18.311 12.6366 19.0182 12.8693 19.7654 13.2462C19.9691 13.349 20.2175 13.2672 20.3202 13.0635C20.423 12.8599 20.3411 12.6115 20.1375 12.5087C19.3566 12.1148 18.5081 11.8105 17.79 11.8105Z" fill="url(#paint1_linear_2679_16354)"/>
<path fill-rule="evenodd" clip-rule="evenodd" d="M32.7374 22.7373C32.7628 22.712 32.7843 22.6839 32.8019 22.6537C34.1031 21.311 34.9045 19.4796 34.9045 17.4617C34.9045 13.3407 31.5638 10 27.4428 10C25.5241 10 23.774 10.7247 22.4522 11.9144C21.1305 10.7247 19.3804 10 17.4617 10C13.3407 10 10 13.3407 10 17.4617C10 19.6545 10.9464 21.6269 12.4517 22.9914L22.1789 32.7185C22.2564 32.796 22.3614 32.8395 22.471 32.8395C22.5806 32.8395 22.6857 32.7959 22.7631 32.7184L32.7374 22.7373ZM10.826 17.4617C10.826 13.7969 13.7969 10.826 17.4617 10.826C19.2972 10.826 20.9581 11.5708 22.1598 12.7756C22.2373 12.8532 22.3425 12.8969 22.4522 12.8969C22.562 12.8969 22.6672 12.8532 22.7446 12.7756C23.9464 11.5708 25.6072 10.826 27.4428 10.826C31.1076 10.826 34.0785 13.7969 34.0785 17.4617C34.0785 19.2923 33.3378 20.9491 32.1387 22.1501C32.1143 22.1745 32.0934 22.2016 32.0762 22.2305L22.4708 31.8423L13.0286 22.4002C13.0237 22.3952 13.0186 22.3904 13.0135 22.3858C11.6695 21.1709 10.826 19.4151 10.826 17.4617Z" fill="url(#paint2_linear_2679_16354)"/>
<defs>
<linearGradient id="paint0_linear_2679_16354" x1="44.9045" y1="1.98059" x2="-9.68823" y2="36.3942" gradientUnits="userSpaceOnUse">
<stop stop-color="white"/>
<stop offset="1" stop-opacity="0"/>
</linearGradient>
<linearGradient id="paint1_linear_2679_16354" x1="20.2098" y1="11.8105" x2="11.0902" y2="14.9623" gradientUnits="userSpaceOnUse">
<stop stop-color="#00A7F7"/>
<stop offset="1" stop-color="#00FC92"/>
</linearGradient>
<linearGradient id="paint2_linear_2679_16354" x1="34.4433" y1="10" x2="5.56772" y2="16.6867" gradientUnits="userSpaceOnUse">
<stop stop-color="#00A7F7"/>
<stop offset="1" stop-color="#00FC92"/>
</linearGradient>
</defs>
</svg>
