<svg width="430" height="430" viewBox="0 0 430 430" fill="none" xmlns="http://www.w3.org/2000/svg">
<path d="M214.9 348.1C208.2 348.1 201.4 346.2 195.5 342.3C137.6 304.3 72.7997 228.4 69.1997 172C67.0997 138.9 80.8997 118.2 92.8997 106.7C105 94.9003 117.6 90.1003 119.6 89.4003C138.7 81.3003 158.8 81.5003 177.8 90.0003C192.3 96.5003 205.3 107.5 214.9 121.6C224.6 107.5 237.5 96.5003 252 90.0003C271 81.6003 291.1 81.4003 310.2 89.5003C312.2 90.2003 324.7 95.0003 336.9 106.7C348.9 118.3 362.7 139 360.6 172C357 228.4 292.2 304.3 234.3 342.3C228.4 346.1 221.7 348.1 214.9 348.1ZM148.2 95.5003C140.4 95.5003 132.3 97.1003 124.1 100.6C124 100.7 123.8 100.7 123.7 100.8C121.8 101.4 77.7997 117.3 81.1997 171.3C82.6997 195.1 97.0997 225.6 121.8 257.3C144.5 286.4 173.8 313.8 202.1 332.3C209.9 337.4 219.9 337.4 227.7 332.3C256 313.8 285.3 286.4 308 257.3C332.7 225.7 347.1 195.1 348.6 171.3C352 117.2 308 101.4 306.1 100.8C306 100.7 305.8 100.7 305.7 100.6C268.9 84.9003 235.6 107.9 220.1 135.9C219 137.8 217 139 214.8 139C212.6 139 210.6 137.8 209.5 135.9C197.7 114.2 175 95.5003 148.2 95.5003Z" fill="url(#paint0_linear_2164_1739)"/>
<defs>
<linearGradient id="paint0_linear_2164_1739" x1="118.346" y1="81.1964" x2="311.537" y2="274.387" gradientUnits="userSpaceOnUse">
<stop stop-color="#CB5EEE"/>
<stop offset="1" stop-color="#4BE1EC"/>
</linearGradient>
</defs>
</svg>
