<svg width="32" height="32" viewBox="0 0 32 32" fill="none" xmlns="http://www.w3.org/2000/svg">
<g filter="url(#filter0_b_719_27358)">
<rect width="32" height="32" rx="16" fill="white" fill-opacity="0.1"/>
<path d="M17.603 28H13.7597C13.1177 28 12.5955 27.4778 12.5955 26.8358V18.1669H10.3532C9.71115 18.1669 9.18896 17.6445 9.18896 17.0027V13.288C9.18896 12.646 9.71115 12.1238 10.3532 12.1238H12.5955V10.2636C12.5955 8.41919 13.1746 6.85 14.2701 5.72589C15.3706 4.59672 16.9085 4 18.7176 4L21.6487 4.00478C22.2896 4.00586 22.8109 4.52809 22.8109 5.16892V8.61794C22.8109 9.25989 22.2889 9.78212 21.6471 9.78212L19.6736 9.78283C19.0717 9.78283 18.9184 9.90348 18.8857 9.94047C18.8317 10.0019 18.7674 10.1752 18.7674 10.654V12.1237H21.4988C21.7044 12.1237 21.9036 12.1744 22.0748 12.2699C22.4442 12.4763 22.6738 12.8665 22.6738 13.2882L22.6723 17.0029C22.6723 17.6445 22.1501 18.1667 21.5081 18.1667H18.7674V26.8358C18.7674 27.4778 18.245 28 17.603 28ZM14.0024 26.593H17.3602V17.537C17.3602 17.1084 17.7091 16.7598 18.1375 16.7598H21.2653L21.2666 13.5309H18.1373C17.7089 13.5309 17.3602 13.1823 17.3602 12.7536V10.6541C17.3602 10.1044 17.4161 9.47931 17.831 9.00944C18.3324 8.44145 19.1224 8.37592 19.6732 8.37592L21.4039 8.37517V5.41136L18.7165 5.407C15.8091 5.407 14.0025 7.26808 14.0025 10.2637V12.7535C14.0025 13.182 13.6538 13.5308 13.2253 13.5308H10.596V16.7597H13.2253C13.6538 16.7597 14.0025 17.1084 14.0025 17.537L14.0024 26.593Z" fill="url(#paint0_linear_719_27358)"/>
</g>
<defs>
<filter id="filter0_b_719_27358" x="-5.3" y="-5.3" width="42.6" height="42.6" filterUnits="userSpaceOnUse" color-interpolation-filters="sRGB">
<feFlood flood-opacity="0" result="BackgroundImageFix"/>
<feGaussianBlur in="BackgroundImageFix" stdDeviation="2.65"/>
<feComposite in2="SourceAlpha" operator="in" result="effect1_backgroundBlur_719_27358"/>
<feBlend mode="normal" in="SourceGraphic" in2="effect1_backgroundBlur_719_27358" result="shape"/>
</filter>
<linearGradient id="paint0_linear_719_27358" x1="22.5587" y1="4" x2="6.15602" y2="5.97712" gradientUnits="userSpaceOnUse">
<stop stop-color="#00A7F7"/>
<stop offset="1" stop-color="#00FC92"/>
</linearGradient>
</defs>
</svg>
