<svg width="45" height="45" viewBox="0 0 45 45" fill="none" xmlns="http://www.w3.org/2000/svg">
<rect x="0.922119" y="0.78125" width="43" height="43" rx="11.9355" fill="white" fill-opacity="0.1"/>
<rect x="0.922119" y="0.78125" width="43" height="43" rx="11.9355" stroke="url(#paint0_linear_3317_17043)"/>
<path d="M12.1096 29.403H22.577C22.8925 27.967 24.1749 26.889 25.7042 26.889C27.2335 26.889 28.5159 27.967 28.8314 29.403H32.7346C33.1143 29.403 33.4221 29.7108 33.4221 30.0905C33.4221 30.4702 33.1143 30.778 32.7346 30.778H28.831C28.515 32.2133 27.2308 33.292 25.7042 33.292C24.1767 33.292 22.8932 32.2134 22.5773 30.778H12.1096C11.7299 30.778 11.4221 30.4702 11.4221 30.0905C11.4221 29.7108 11.7299 29.403 12.1096 29.403ZM23.8778 30.0887L23.8778 30.0961C23.8808 31.1002 24.7001 31.9169 25.7042 31.9169C26.7069 31.9169 27.5262 31.1013 27.5305 30.0977L27.5307 30.0876C27.5291 29.0818 26.7104 28.264 25.7042 28.264C24.6985 28.264 23.88 29.081 23.8777 30.0862L23.8778 30.0887ZM32.7346 15.1597H28.831C28.5149 16.5949 27.2308 17.6737 25.7042 17.6737C24.1767 17.6737 22.8932 16.5951 22.5773 15.1597H12.1096C11.7299 15.1597 11.4221 14.8519 11.4221 14.4722C11.4221 14.0925 11.7299 13.7847 12.1096 13.7847H22.577C22.8925 12.3487 24.1749 11.2707 25.7042 11.2707C27.2335 11.2707 28.5159 12.3487 28.8314 13.7847H32.7346C33.1143 13.7847 33.4221 14.0925 33.4221 14.4722C33.4221 14.8519 33.1143 15.1597 32.7346 15.1597ZM25.7042 12.6457C24.6985 12.6457 23.88 13.4627 23.8777 14.4679L23.8778 14.4704L23.8778 14.4778C23.8808 15.4818 24.7001 16.2987 25.7042 16.2987C26.7069 16.2987 27.5262 15.483 27.5305 14.4795L27.5307 14.4694C27.5292 13.4635 26.7104 12.6457 25.7042 12.6457ZM32.7346 22.9688H22.2672C21.9517 24.4048 20.6694 25.4828 19.14 25.4828C17.6107 25.4828 16.3283 24.4048 16.0129 22.9688H12.1096C11.7299 22.9688 11.4221 22.661 11.4221 22.2813C11.4221 21.9016 11.7299 21.5938 12.1096 21.5938H16.0132C16.3293 20.1586 17.6134 19.0799 19.14 19.0799C20.6675 19.0799 21.951 20.1585 22.267 21.5938H32.7346C33.1143 21.5938 33.4221 21.9016 33.4221 22.2813C33.4221 22.661 33.1143 22.9688 32.7346 22.9688ZM20.9665 22.2831L20.9664 22.2758C20.9634 21.2717 20.1441 20.4549 19.14 20.4549C18.1374 20.4549 17.318 21.2706 17.3137 22.2741L17.3136 22.2842C17.3151 23.2901 18.1338 24.1078 19.14 24.1078C20.1458 24.1078 20.9642 23.2908 20.9665 22.2856L20.9665 22.2831Z" fill="url(#paint1_linear_3317_17043)"/>
<defs>
<linearGradient id="paint0_linear_3317_17043" x1="45.5572" y1="-3.01061" x2="-21.0493" y2="45.5587" gradientUnits="userSpaceOnUse">
<stop stop-color="white" stop-opacity="0.4"/>
<stop offset="1" stop-opacity="0"/>
</linearGradient>
<linearGradient id="paint1_linear_3317_17043" x1="33.0147" y1="33.292" x2="7.29656" y2="27.8356" gradientUnits="userSpaceOnUse">
<stop stop-color="#00A7F7"/>
<stop offset="1" stop-color="#00FC92"/>
</linearGradient>
</defs>
</svg>
