<svg width="22" height="24" viewBox="0 0 22 24" fill="none" xmlns="http://www.w3.org/2000/svg">
<path fill-rule="evenodd" clip-rule="evenodd" d="M21.9177 3.52344C21.9177 3.74815 21.7355 3.93031 21.5108 3.93031L18.4975 3.93031C18.3007 5.27291 17.1441 6.30371 15.7468 6.30371C14.3495 6.30371 13.193 5.27291 12.9961 3.93031L0.489204 3.93031C0.264477 3.93031 0.0823344 3.74815 0.0823344 3.52344C0.0823344 3.29873 0.264477 3.11657 0.489204 3.11657L12.9961 3.11657C13.193 1.77393 14.3495 0.743164 15.7468 0.743164C17.1441 0.743164 18.3007 1.77393 18.4975 3.11657L21.5108 3.11657C21.7355 3.11657 21.9177 3.29873 21.9177 3.52344ZM13.7803 3.52344C13.7803 4.60951 14.6607 5.48997 15.7468 5.48997C16.8329 5.48997 17.7133 4.60951 17.7133 3.52344C17.7133 2.43735 16.8329 1.5569 15.7468 1.5569C14.6607 1.5569 13.7803 2.43735 13.7803 3.52344Z" fill="url(#paint0_linear_3317_17522)"/>
<path fill-rule="evenodd" clip-rule="evenodd" d="M21.5108 12.4069C21.7355 12.4069 21.9177 12.2247 21.9177 12C21.9177 11.7753 21.7355 11.5931 21.5108 11.5931L9.34296 11.5931C9.1461 10.2505 7.98957 9.21973 6.59225 9.21973C5.19492 9.21973 4.0384 10.2505 3.84154 11.5931L0.489208 11.5931C0.26448 11.5931 0.0823363 11.7753 0.0823363 12C0.0823363 12.2247 0.26448 12.4069 0.489208 12.4069L3.84154 12.4069C4.0384 13.7495 5.19492 14.7803 6.59225 14.7803C7.98957 14.7803 9.1461 13.7495 9.34296 12.4069L21.5108 12.4069ZM4.62571 12C4.62571 13.0861 5.50618 13.9665 6.59225 13.9665C7.67832 13.9665 8.55878 13.0861 8.55878 12C8.55878 10.9139 7.67832 10.0335 6.59225 10.0335C5.50618 10.0335 4.62571 10.9139 4.62571 12Z" fill="url(#paint1_linear_3317_17522)"/>
<path fill-rule="evenodd" clip-rule="evenodd" d="M21.5108 20.8829C21.7355 20.8829 21.9177 20.7008 21.9177 20.4761C21.9177 20.2513 21.7355 20.0692 21.5108 20.0692L14.4288 20.0692C14.232 18.7266 13.0754 17.6958 11.6781 17.6958C10.2808 17.6958 9.12426 18.7266 8.92741 20.0692L0.489204 20.0692C0.264477 20.0692 0.0823344 20.2513 0.0823344 20.4761C0.0823344 20.7008 0.264477 20.8829 0.489204 20.8829L8.92741 20.8829C9.12426 22.2255 10.2808 23.2563 11.6781 23.2563C13.0754 23.2563 14.232 22.2255 14.4288 20.8829L21.5108 20.8829ZM11.6781 22.4426C10.592 22.4426 9.71158 21.5621 9.71158 20.4761C9.71158 19.39 10.592 18.5095 11.6781 18.5095C12.7642 18.5095 13.6447 19.39 13.6447 20.4761C13.6447 21.5621 12.7642 22.4426 11.6781 22.4426Z" fill="url(#paint2_linear_3317_17522)"/>
<defs>
<linearGradient id="paint0_linear_3317_17522" x1="21.9177" y1="6.20074" x2="21.5514" y2="-0.57237" gradientUnits="userSpaceOnUse">
<stop stop-color="#00A7F7"/>
<stop offset="1" stop-color="#00FC92"/>
</linearGradient>
<linearGradient id="paint1_linear_3317_17522" x1="21.9177" y1="14.6773" x2="21.5514" y2="7.90419" gradientUnits="userSpaceOnUse">
<stop stop-color="#00A7F7"/>
<stop offset="1" stop-color="#00FC92"/>
</linearGradient>
<linearGradient id="paint2_linear_3317_17522" x1="21.9177" y1="23.1534" x2="21.5514" y2="16.3803" gradientUnits="userSpaceOnUse">
<stop stop-color="#00A7F7"/>
<stop offset="1" stop-color="#00FC92"/>
</linearGradient>
</defs>
</svg>
