<svg width="23" height="19" viewBox="0 0 23 19" fill="none" xmlns="http://www.w3.org/2000/svg">
<path d="M4.34852 0.535645C3.33277 0.535645 2.50629 1.4344 2.50629 2.53897C2.50629 3.64354 3.33277 4.5423 4.34852 4.5423C5.36427 4.5423 6.19075 3.64354 6.19075 2.53897C6.19075 1.4344 5.36427 0.535645 4.34852 0.535645ZM4.34852 3.71901C3.74916 3.71901 3.26337 3.19074 3.26337 2.53897C3.26337 1.8872 3.74916 1.35893 4.34852 1.35893C4.94787 1.35893 5.43367 1.8872 5.43367 2.53897C5.43367 3.19074 4.94787 3.71901 4.34852 3.71901ZM1.3896 5.46849C0.714533 5.46849 0.165649 6.06538 0.165649 6.79947C0.165649 7.53357 0.714533 8.13045 1.3896 8.13045C2.06466 8.13045 2.61354 7.53357 2.61354 6.79947C2.61354 6.06538 2.06466 5.46849 1.3896 5.46849ZM1.3896 7.3003C1.13093 7.3003 0.92273 7.0739 0.92273 6.79261C0.92273 6.51132 1.13093 6.28492 1.3896 6.28492C1.64827 6.28492 1.85646 6.51132 1.85646 6.79261C1.85646 7.0739 1.64827 7.3003 1.3896 7.3003ZM12.9855 12.4596C12.9098 11.849 12.6133 11.3618 12.2158 11.1835C10.8342 10.5797 8.64495 11.602 8.55662 11.65C8.36735 11.7392 8.27903 11.9862 8.36104 12.192C8.44306 12.3978 8.67019 12.4939 8.85946 12.4047C9.40834 12.144 11.0298 11.5539 11.9319 11.9519C12.0518 12.0067 12.1969 12.24 12.2411 12.5762C12.26 12.734 12.2979 13.2828 11.8878 13.6259C11.5723 13.8934 10.7585 14.2022 8.85946 13.3377C8.66388 13.2485 8.44306 13.3514 8.36735 13.5573C8.28534 13.7699 8.37997 14.0101 8.56924 14.0993C9.57868 14.5589 10.361 14.7236 10.954 14.7236C11.6228 14.7236 12.0644 14.5178 12.3483 14.2776C12.8341 13.866 13.0802 13.1868 12.9855 12.4596ZM4.29174 10.3739C3.96367 10.3739 3.69869 10.662 3.69869 11.0188C3.69869 11.3756 3.96367 11.6637 4.29174 11.6637C4.61981 11.6637 4.88478 11.3756 4.88478 11.0188C4.88478 10.662 4.61981 10.3739 4.29174 10.3739ZM4.29174 10.3739C3.96367 10.3739 3.69869 10.662 3.69869 11.0188C3.69869 11.3756 3.96367 11.6637 4.29174 11.6637C4.61981 11.6637 4.88478 11.3756 4.88478 11.0188C4.88478 10.662 4.61981 10.3739 4.29174 10.3739ZM12.9855 12.4596C12.9098 11.849 12.6133 11.3618 12.2158 11.1835C10.8342 10.5797 8.64495 11.602 8.55662 11.65C8.36735 11.7392 8.27903 11.9862 8.36104 12.192C8.44306 12.3978 8.67019 12.4939 8.85946 12.4047C9.40834 12.144 11.0298 11.5539 11.9319 11.9519C12.0518 12.0067 12.1969 12.24 12.2411 12.5762C12.26 12.734 12.2979 13.2828 11.8878 13.6259C11.5723 13.8934 10.7585 14.2022 8.85946 13.3377C8.66388 13.2485 8.44306 13.3514 8.36735 13.5573C8.28534 13.7699 8.37997 14.0101 8.56924 14.0993C9.57868 14.5589 10.361 14.7236 10.954 14.7236C11.6228 14.7236 12.0644 14.5178 12.3483 14.2776C12.8341 13.866 13.0802 13.1868 12.9855 12.4596ZM12.9855 12.4596C12.9098 11.849 12.6133 11.3618 12.2158 11.1835C10.8342 10.5797 8.64495 11.602 8.55662 11.65C8.36735 11.7392 8.27903 11.9862 8.36104 12.192C8.44306 12.3978 8.67019 12.4939 8.85946 12.4047C9.40834 12.144 11.0298 11.5539 11.9319 11.9519C12.0518 12.0067 12.1969 12.24 12.2411 12.5762C12.26 12.734 12.2979 13.2828 11.8878 13.6259C11.5723 13.8934 10.7585 14.2022 8.85946 13.3377C8.66388 13.2485 8.44306 13.3514 8.36735 13.5573C8.28534 13.7699 8.37997 14.0101 8.56924 14.0993C9.57868 14.5589 10.361 14.7236 10.954 14.7236C11.6228 14.7236 12.0644 14.5178 12.3483 14.2776C12.8341 13.866 13.0802 13.1868 12.9855 12.4596ZM4.29174 10.3739C3.96367 10.3739 3.69869 10.662 3.69869 11.0188C3.69869 11.3756 3.96367 11.6637 4.29174 11.6637C4.61981 11.6637 4.88478 11.3756 4.88478 11.0188C4.88478 10.662 4.61981 10.3739 4.29174 10.3739ZM22.8087 7.63648C22.8907 7.47868 22.8781 7.28658 22.7645 7.14937C22.6509 7.01901 22.4743 6.97785 22.3229 7.05332C19.7172 8.34313 17.8182 9.28305 16.0391 8.89885C15.9697 8.8371 15.894 8.77535 15.8183 8.71361C15.7552 8.66558 15.6858 8.6107 15.6227 8.56267C15.6606 8.42546 15.7552 8.17847 16.0012 7.85602C16.1274 7.69136 16.1148 7.44438 15.9697 7.29344C14.0833 5.3107 12.2348 4.19926 11.0234 3.60924C10.1023 3.1633 9.01087 3.54063 8.49353 4.48055C8.18439 5.04999 7.96989 5.5714 7.85001 6.05165C5.96993 6.23689 4.66397 7.37577 3.82487 8.25394C3.29491 8.80966 2.81543 9.40654 2.35487 9.98284C1.86908 10.5934 1.41483 11.1629 0.947966 11.6157C0.815477 11.746 0.783932 11.9519 0.872258 12.1234C1.62303 13.5847 2.67032 14.7579 3.9826 15.6018C4.09616 15.6772 4.21603 15.7458 4.3359 15.8144C4.34221 15.8213 4.35483 15.8282 4.36114 15.8282C5.71757 16.6034 7.33899 17.0494 9.0992 17.1248C9.42727 17.2689 11.6228 18.1677 13.4776 18.1677C13.5849 18.1677 13.6922 18.1128 13.7615 18.0236C14.3672 17.262 14.1843 16.4319 13.8814 15.8762C14.3861 15.6841 14.8782 15.5332 15.364 15.4851C15.3956 15.4851 15.4208 15.4783 15.4524 15.4714C15.4587 15.4714 15.4587 15.4714 15.465 15.4714C17.6353 15.2176 18.386 15.7047 20.3923 17.0151C20.7015 17.2209 21.0548 17.4473 21.4333 17.6874C21.4901 17.7217 21.5595 17.7423 21.6226 17.7423C21.6983 17.7423 21.7677 17.7217 21.8308 17.6737C21.9506 17.5845 22.0137 17.4267 21.9948 17.2758C21.7866 15.7321 20.8466 13.0976 20.1778 11.897C20.2535 11.7803 20.3418 11.6363 20.4428 11.4716C21.1431 10.4013 22.2913 8.58325 22.8087 7.63648ZM4.37375 14.902C3.45895 14.3119 2.68294 13.5435 2.06466 12.6242C2.34226 12.7134 2.582 12.7614 2.77127 12.7683C2.77758 12.7683 2.78389 12.7683 2.79019 12.7683C2.99208 12.7683 3.15612 12.5968 3.16873 12.3772C3.17504 12.1508 3.01732 11.9587 2.80912 11.945C2.61354 11.9381 2.31702 11.8558 1.9511 11.7186C2.27286 11.355 2.59462 10.9502 2.92899 10.5317C3.37693 9.96912 3.8438 9.38596 4.34852 8.85082C4.36745 8.83024 4.38637 8.80966 4.41161 8.78908C5.68603 9.54375 6.44311 10.7032 6.44311 11.9313C6.44311 13.1113 5.7365 14.2433 4.53779 14.998C4.48101 14.9706 4.42423 14.9363 4.37375 14.902ZM15.3073 14.6824C14.4492 14.7648 13.6354 15.1078 12.771 15.4714C11.7742 15.8899 10.7458 16.329 9.64177 16.329C8.06452 16.329 6.59452 16.0203 5.33903 15.4302C6.52512 14.5315 7.21281 13.2691 7.21281 11.9381C7.21281 10.4837 6.40525 9.12525 5.02989 8.2265C6.05195 7.34147 7.05508 6.90924 8.18439 6.86808C8.1907 6.86808 8.19701 6.86808 8.20332 6.86808C8.26641 6.86808 8.3295 6.86122 8.39259 6.86122C10.7269 6.86122 13.4082 7.82858 15.3956 9.38596C16.3419 10.1338 16.8467 11.0119 16.8467 11.9381C16.8277 12.9398 16.4176 14.5795 15.3073 14.6824ZM19.4207 12.144C19.9254 12.9398 20.7078 14.9774 21.08 16.5211C20.979 16.4525 20.8781 16.3907 20.7835 16.329C19.1999 15.293 18.2851 14.6961 16.8214 14.6138C17.3261 13.9209 17.5911 12.9124 17.5911 11.9381C17.5911 11.1835 17.3514 10.4699 16.8845 9.81132C18.2851 9.81132 19.7362 9.21444 21.4901 8.37057C20.9412 9.28305 20.2598 10.3533 19.8371 11.0325C19.6542 11.3275 19.5027 11.5539 19.427 11.6843C19.3324 11.8215 19.3324 12.0067 19.4207 12.144Z" fill="url(#paint0_linear_3311_26181)"/>
<defs>
<linearGradient id="paint0_linear_3311_26181" x1="22.4412" y1="0.535644" x2="-3.3569" y2="7.58778" gradientUnits="userSpaceOnUse">
<stop stop-color="#00A7F7"/>
<stop offset="1" stop-color="#00FC92"/>
</linearGradient>
</defs>
</svg>
