<svg width="430" height="121" viewBox="0 0 430 121" fill="none" xmlns="http://www.w3.org/2000/svg">
<g clip-path="url(#clip0_3215_32190)">
<path d="M0 20.2546C0 11.3018 0 6.82529 2.85656 4.42745C5.71312 2.0296 10.1384 2.80821 18.9891 4.36543C47.0191 9.29716 100.422 18.0841 140.026 20.9182C169.066 22.9964 185.842 23.9182 215 23.9182C244.158 23.9182 259.831 22.9964 288.872 20.9182C328.601 18.0752 382.768 9.24156 411.048 4.3188C419.881 2.78119 424.298 2.01238 427.149 4.40998C430 6.80757 430 11.2743 430 20.2077V72.9182C430 80.4607 430 84.2319 427.657 86.5751C425.314 88.9182 421.542 88.9182 414 88.9182H16C8.45752 88.9182 4.68629 88.9182 2.34315 86.5751C0 84.2319 0 80.4607 0 72.9182V20.2546Z" fill="#272735"/>
<path fill-rule="evenodd" clip-rule="evenodd" d="M230.302 3.91797H199.698C176.771 3.91797 169.693 23.7553 162.375 44.2634C162.251 44.6127 162.126 44.9622 162.001 45.3118L161.933 45.5022C156.702 60.1507 151.419 74.9444 140.586 82.918H0V120.918H430V82.918H289.414C278.581 74.9444 273.298 60.1506 268.067 45.5021L267.999 45.3118C267.874 44.9622 267.749 44.6127 267.625 44.2635C260.308 23.7553 253.23 3.91797 230.302 3.91797Z" fill="url(#paint0_linear_3215_32190)"/>
</g>
<defs>
<linearGradient id="paint0_linear_3215_32190" x1="305.519" y1="3.91796" x2="117.364" y2="92.2957" gradientUnits="userSpaceOnUse">
<stop stop-color="#00A7F7"/>
<stop offset="1" stop-color="#00FC92"/>
</linearGradient>
<clipPath id="clip0_3215_32190">
<rect width="430" height="120" fill="white" transform="translate(0 0.917969)"/>
</clipPath>
</defs>
</svg>
