<svg width="44" height="46" viewBox="0 0 44 46" fill="none" xmlns="http://www.w3.org/2000/svg">
<rect x="0.5" y="0.5" width="43" height="43" rx="11.9355" fill="white" fill-opacity="0.1"/>
<rect x="0.5" y="0.5" width="43" height="43" rx="11.9355" stroke="url(#paint0_linear_1244_33306)"/>
<g filter="url(#filter0_bd_1244_33306)">
<mask id="path-2-inside-1_1244_33306" fill="white">
<path d="M22 15.94H30.3672C30.5141 15.94 30.4016 15.9396 30.438 15.9397C30.6534 15.9408 30.8368 15.9415 31.0648 15.861C31.4979 15.7082 31.7807 15.378 31.9129 14.9935C31.9709 14.825 32 14.647 32 14.47C32 14.293 31.9709 14.115 31.9129 13.9465C31.7806 13.562 31.4979 13.2318 31.0648 13.079C30.8366 12.9985 30.6534 12.9994 30.438 13.0003C30.4016 13.0005 30.5141 13 30.3672 13H13.6328C13.4859 13 13.5984 13.0005 13.562 13.0003C13.3466 12.9992 13.1632 12.9985 12.9352 13.079C12.5021 13.2318 12.2193 13.562 12.0871 13.9465C12.0291 14.115 12 14.293 12 14.47C12 14.647 12.0291 14.825 12.0871 14.9935C12.2194 15.378 12.5021 15.7082 12.9352 15.861C13.1634 15.9415 13.3466 15.9406 13.562 15.9397C13.5984 15.9396 13.4859 15.94 13.6328 15.94H22ZM30.3672 28.06H13.6328C13.4859 28.06 13.5984 28.0604 13.562 28.0603C13.3466 28.0592 13.1632 28.0585 12.9352 28.139C12.5021 28.2918 12.2193 28.622 12.0871 29.0064C12.0291 29.175 12 29.353 12 29.53C12 29.707 12.0291 29.885 12.0871 30.0535C12.2194 30.438 12.5021 30.7682 12.9352 30.921C13.1634 31.0015 13.3466 31.0006 13.562 30.9997C13.5984 30.9995 13.4859 31 13.6328 31H30.3672C30.5141 31 30.4016 30.9995 30.438 30.9997C30.6534 31.0007 30.8368 31.0015 31.0648 30.921C31.4979 30.7682 31.7807 30.438 31.9129 30.0535C31.9709 29.885 32 29.707 32 29.53C32 29.353 31.9709 29.175 31.9129 29.0064C31.7806 28.622 31.4979 28.2918 31.0648 28.139C30.8366 28.0585 30.6534 28.0594 30.438 28.0603C30.4016 28.0604 30.5141 28.06 30.3672 28.06ZM22 23.4699H30.3672C30.5141 23.4699 30.4016 23.4694 30.438 23.4696C30.6534 23.4707 30.8368 23.4714 31.0648 23.3909C31.4979 23.2381 31.7807 22.9079 31.9129 22.5234C31.9709 22.3549 32 22.1769 32 21.9999C32 21.8229 31.9709 21.6449 31.9129 21.4764C31.7806 21.0919 31.4979 20.7617 31.0648 20.6089C30.8366 20.5284 30.6534 20.5293 30.438 20.5302C30.4016 20.5303 30.5141 20.5299 30.3672 20.5299H13.6328C13.4859 20.5299 13.5984 20.5303 13.562 20.5302C13.3466 20.5291 13.1632 20.5284 12.9352 20.6089C12.5021 20.7617 12.2193 21.0919 12.0871 21.4764C12.0291 21.6449 12 21.8229 12 21.9999C12 22.1769 12.0291 22.3549 12.0871 22.5234C12.2194 22.9079 12.5021 23.2381 12.9352 23.3909C13.1634 23.4714 13.3466 23.4705 13.562 23.4696C13.5984 23.4694 13.4859 23.4699 13.6328 23.4699H22Z"/>
</mask>
<path d="M22 15.94H30.3672C30.5141 15.94 30.4016 15.9396 30.438 15.9397C30.6534 15.9408 30.8368 15.9415 31.0648 15.861C31.4979 15.7082 31.7807 15.378 31.9129 14.9935C31.9709 14.825 32 14.647 32 14.47C32 14.293 31.9709 14.115 31.9129 13.9465C31.7806 13.562 31.4979 13.2318 31.0648 13.079C30.8366 12.9985 30.6534 12.9994 30.438 13.0003C30.4016 13.0005 30.5141 13 30.3672 13H13.6328C13.4859 13 13.5984 13.0005 13.562 13.0003C13.3466 12.9992 13.1632 12.9985 12.9352 13.079C12.5021 13.2318 12.2193 13.562 12.0871 13.9465C12.0291 14.115 12 14.293 12 14.47C12 14.647 12.0291 14.825 12.0871 14.9935C12.2194 15.378 12.5021 15.7082 12.9352 15.861C13.1634 15.9415 13.3466 15.9406 13.562 15.9397C13.5984 15.9396 13.4859 15.94 13.6328 15.94H22ZM30.3672 28.06H13.6328C13.4859 28.06 13.5984 28.0604 13.562 28.0603C13.3466 28.0592 13.1632 28.0585 12.9352 28.139C12.5021 28.2918 12.2193 28.622 12.0871 29.0064C12.0291 29.175 12 29.353 12 29.53C12 29.707 12.0291 29.885 12.0871 30.0535C12.2194 30.438 12.5021 30.7682 12.9352 30.921C13.1634 31.0015 13.3466 31.0006 13.562 30.9997C13.5984 30.9995 13.4859 31 13.6328 31H30.3672C30.5141 31 30.4016 30.9995 30.438 30.9997C30.6534 31.0007 30.8368 31.0015 31.0648 30.921C31.4979 30.7682 31.7807 30.438 31.9129 30.0535C31.9709 29.885 32 29.707 32 29.53C32 29.353 31.9709 29.175 31.9129 29.0064C31.7806 28.622 31.4979 28.2918 31.0648 28.139C30.8366 28.0585 30.6534 28.0594 30.438 28.0603C30.4016 28.0604 30.5141 28.06 30.3672 28.06ZM22 23.4699H30.3672C30.5141 23.4699 30.4016 23.4694 30.438 23.4696C30.6534 23.4707 30.8368 23.4714 31.0648 23.3909C31.4979 23.2381 31.7807 22.9079 31.9129 22.5234C31.9709 22.3549 32 22.1769 32 21.9999C32 21.8229 31.9709 21.6449 31.9129 21.4764C31.7806 21.0919 31.4979 20.7617 31.0648 20.6089C30.8366 20.5284 30.6534 20.5293 30.438 20.5302C30.4016 20.5303 30.5141 20.5299 30.3672 20.5299H13.6328C13.4859 20.5299 13.5984 20.5303 13.562 20.5302C13.3466 20.5291 13.1632 20.5284 12.9352 20.6089C12.5021 20.7617 12.2193 21.0919 12.0871 21.4764C12.0291 21.6449 12 21.8229 12 21.9999C12 22.1769 12.0291 22.3549 12.0871 22.5234C12.2194 22.9079 12.5021 23.2381 12.9352 23.3909C13.1634 23.4714 13.3466 23.4705 13.562 23.4696C13.5984 23.4694 13.4859 23.4699 13.6328 23.4699H22Z" fill="url(#paint1_linear_1244_33306)"/>
<path d="M30.438 15.9397L30.4405 15.3278L30.441 15.3278L30.438 15.9397ZM31.0648 15.861L30.8611 15.284L30.8613 15.284L31.0648 15.861ZM31.9129 14.9935L31.3343 14.7946L31.3343 14.7944L31.9129 14.9935ZM31.9129 13.9465L32.4915 13.7473L32.4915 13.7473L31.9129 13.9465ZM31.0648 13.079L30.8612 13.6561L30.8612 13.656L31.0648 13.079ZM30.438 13.0003L30.4405 13.6122L30.4405 13.6122L30.438 13.0003ZM13.562 13.0003L13.5595 13.6122L13.559 13.6122L13.562 13.0003ZM12.9352 13.079L13.1389 13.656L13.1387 13.6561L12.9352 13.079ZM12.0871 13.9465L12.6657 14.1454L12.6657 14.1456L12.0871 13.9465ZM12.0871 14.9935L11.5085 15.1927L11.5085 15.1927L12.0871 14.9935ZM12.9352 15.861L13.1388 15.284L13.1388 15.284L12.9352 15.861ZM13.562 15.9397L13.5595 15.3278H13.5595L13.562 15.9397ZM13.562 28.0603L13.5595 28.6722L13.559 28.6722L13.562 28.0603ZM12.9352 28.139L13.1389 28.716L13.1387 28.716L12.9352 28.139ZM12.0871 29.0064L12.6657 29.2054L12.6657 29.2056L12.0871 29.0064ZM12.0871 30.0535L11.5085 30.2527L11.5085 30.2527L12.0871 30.0535ZM12.9352 30.921L13.1388 30.3439L13.1388 30.344L12.9352 30.921ZM13.562 30.9997L13.5595 30.3878H13.5595L13.562 30.9997ZM30.438 30.9997L30.4405 30.3878L30.441 30.3878L30.438 30.9997ZM31.0648 30.921L30.8611 30.344L30.8613 30.3439L31.0648 30.921ZM31.9129 30.0535L31.3343 29.8546L31.3343 29.8544L31.9129 30.0535ZM31.9129 29.0064L32.4915 28.8073L32.4915 28.8073L31.9129 29.0064ZM31.0648 28.139L30.8612 28.716L30.8612 28.716L31.0648 28.139ZM30.438 28.0603L30.4405 28.6722H30.4405L30.438 28.0603ZM30.438 23.4696L30.4405 22.8577L30.441 22.8577L30.438 23.4696ZM31.0648 23.3909L30.8611 22.8139L30.8613 22.8138L31.0648 23.3909ZM31.9129 22.5234L31.3343 22.3245L31.3343 22.3243L31.9129 22.5234ZM31.9129 21.4764L32.4915 21.2772L32.4915 21.2772L31.9129 21.4764ZM31.0648 20.6089L30.8612 21.1859L30.8612 21.1859L31.0648 20.6089ZM30.438 20.5302L30.4405 21.1421H30.4405L30.438 20.5302ZM13.562 20.5302L13.5595 21.1421L13.559 21.1421L13.562 20.5302ZM12.9352 20.6089L13.1389 21.1859L13.1387 21.1859L12.9352 20.6089ZM12.0871 21.4764L12.6657 21.6753L12.6657 21.6755L12.0871 21.4764ZM12.0871 22.5234L11.5085 22.7226L11.5085 22.7226L12.0871 22.5234ZM12.9352 23.3909L13.1388 22.8138L13.1388 22.8139L12.9352 23.3909ZM13.562 23.4696L13.5595 22.8577H13.5595L13.562 23.4696ZM22 15.3281H30.3672V16.5519H22V15.3281ZM30.3672 15.3281C30.4039 15.3281 30.4234 15.3281 30.4328 15.3281C30.4351 15.328 30.4364 15.328 30.4369 15.328C30.4382 15.328 30.4361 15.328 30.4326 15.3281C30.4316 15.3281 30.4296 15.3282 30.427 15.3282C30.4253 15.3283 30.4194 15.3285 30.4118 15.3289C30.4084 15.3291 30.3999 15.3295 30.389 15.3306C30.3837 15.331 30.3737 15.332 30.3612 15.3338C30.3553 15.3346 30.3418 15.3368 30.3342 15.3381C30.3237 15.3401 30.2983 15.3459 30.2834 15.3497C30.2601 15.3566 30.1976 15.3803 30.1592 15.3989C30.084 15.446 29.9004 15.6614 29.8403 15.8479C29.8501 16.082 30.0241 16.3838 30.1166 16.456C30.1633 16.4829 30.2392 16.516 30.2667 16.5251C30.2838 16.5301 30.3128 16.5372 30.3245 16.5397C30.333 16.5414 30.3478 16.5439 30.3542 16.5449C30.3677 16.547 30.3785 16.5481 30.384 16.5487C30.3955 16.5498 30.4044 16.5504 30.4079 16.5506C30.4123 16.5509 30.4159 16.551 30.418 16.5511C30.4222 16.5513 30.4256 16.5514 30.427 16.5515C30.4301 16.5516 30.4324 16.5516 30.433 16.5516C30.435 16.5516 30.4356 16.5516 30.4331 16.5516C30.4315 16.5516 30.4296 16.5516 30.4281 16.5516C30.4276 16.5516 30.4266 16.5516 30.426 16.5516C30.4258 16.5516 30.4253 16.5516 30.4247 16.5516C30.4245 16.5516 30.4237 16.5515 30.4226 16.5515C30.4222 16.5515 30.4209 16.5515 30.4192 16.5515C30.4183 16.5515 30.4158 16.5514 30.4143 16.5514C30.4113 16.5513 30.4001 16.5508 30.3918 16.5504C30.2736 16.5312 29.8297 15.8226 30.3875 15.3293C30.3998 15.3285 30.4158 15.328 30.4195 15.3279C30.424 15.3278 30.4276 15.3278 30.4277 15.3278C30.4293 15.3278 30.4307 15.3278 30.4308 15.3278C30.4316 15.3278 30.4322 15.3278 30.4323 15.3278C30.4335 15.3278 30.4364 15.3278 30.4405 15.3278L30.4354 16.5516C30.4331 16.5516 30.4315 16.5516 30.4303 16.5516C30.4289 16.5516 30.4286 16.5516 30.4287 16.5516C30.4287 16.5516 30.4289 16.5516 30.429 16.5516C30.4291 16.5516 30.4294 16.5516 30.4298 16.5516C30.4299 16.5516 30.4312 16.5516 30.4329 16.5516C30.4329 16.5516 30.4365 16.5516 30.441 16.5515C30.4447 16.5514 30.4608 16.5508 30.473 16.5501C31.0309 16.0567 30.5869 15.3482 30.4687 15.329C30.4605 15.3285 30.4492 15.3281 30.4463 15.328C30.4447 15.328 30.4422 15.3279 30.4413 15.3279C30.4396 15.3279 30.4383 15.3278 30.4379 15.3278C30.4369 15.3278 30.4361 15.3278 30.436 15.3278C30.4357 15.3278 30.4354 15.3278 30.4353 15.3278C30.4352 15.3278 30.4351 15.3278 30.4351 15.3278C30.435 15.3278 30.435 15.3278 30.4353 15.3278C30.4356 15.3278 30.4359 15.3278 30.4363 15.3278C30.438 15.3278 30.4407 15.3278 30.4436 15.3279C30.4455 15.3279 30.4504 15.3279 30.455 15.328C30.4563 15.328 30.4591 15.3281 30.4627 15.3282C30.4643 15.3282 30.4678 15.3283 30.4722 15.3285C30.4744 15.3286 30.478 15.3288 30.4825 15.3291C30.486 15.3293 30.495 15.3299 30.5065 15.331C30.512 15.3316 30.5228 15.3327 30.5363 15.3348C30.5427 15.3358 30.5576 15.3383 30.566 15.34C30.5777 15.3425 30.6067 15.3496 30.6239 15.3546C30.6513 15.3637 30.7272 15.3968 30.7739 15.4237C30.8664 15.4959 31.0404 15.7977 31.0502 16.0318C30.9902 16.2183 30.8066 16.4337 30.7313 16.4808C30.693 16.4994 30.6304 16.5231 30.6071 16.53C30.5922 16.5338 30.5668 16.5396 30.5563 16.5416C30.5487 16.5429 30.5352 16.5451 30.5293 16.5459C30.5168 16.5477 30.5068 16.5487 30.5015 16.5492C30.4905 16.5502 30.482 16.5507 30.4785 16.5508C30.4708 16.5513 30.4647 16.5514 30.4628 16.5515C30.4601 16.5516 30.4578 16.5516 30.4565 16.5517C30.4518 16.5517 30.4476 16.5518 30.4458 16.5518C30.4433 16.5518 30.4404 16.5518 30.4374 16.5518C30.4254 16.5519 30.4039 16.5519 30.3672 16.5519V15.3281ZM30.441 15.3278C30.6571 15.3289 30.7437 15.3255 30.8611 15.284L31.2686 16.438C30.9299 16.5576 30.6497 16.5527 30.435 16.5516L30.441 15.3278ZM30.8613 15.284C31.0976 15.2006 31.2554 15.024 31.3343 14.7946L32.4916 15.1925C32.3061 15.7319 31.8982 16.2158 31.2684 16.438L30.8613 15.284ZM31.3343 14.7944C31.3698 14.6912 31.3881 14.5806 31.3881 14.47H32.6119C32.6119 14.7134 32.572 14.9588 32.4915 15.1927L31.3343 14.7944ZM31.3881 14.47C31.3881 14.3594 31.3698 14.2488 31.3343 14.1456L32.4915 13.7473C32.572 13.9812 32.6119 14.2266 32.6119 14.47H31.3881ZM31.3343 14.1456C31.2552 13.9159 31.0975 13.7394 30.8612 13.6561L31.2684 12.502C31.8983 12.7242 32.3059 13.2082 32.4915 13.7473L31.3343 14.1456ZM30.8612 13.656C30.7436 13.6146 30.6574 13.6113 30.4405 13.6122L30.4354 12.3884C30.6494 12.3875 30.9296 12.3824 31.2685 12.502L30.8612 13.656ZM30.4405 13.6122C30.4364 13.6122 30.4335 13.6122 30.4323 13.6122C30.4322 13.6122 30.4316 13.6122 30.4308 13.6122C30.4307 13.6122 30.4293 13.6122 30.4277 13.6122C30.4276 13.6122 30.424 13.6122 30.4195 13.6121C30.4158 13.6121 30.3997 13.6115 30.3874 13.6107C29.8293 13.1157 30.2753 12.4084 30.3919 12.3896C30.4001 12.3892 30.4113 12.3887 30.4143 12.3886C30.4158 12.3886 30.4183 12.3886 30.4192 12.3885C30.4209 12.3885 30.4222 12.3885 30.4226 12.3885C30.4237 12.3885 30.4245 12.3885 30.4247 12.3885C30.4253 12.3885 30.4258 12.3885 30.426 12.3885C30.4266 12.3884 30.4276 12.3884 30.4281 12.3884C30.4296 12.3884 30.4315 12.3884 30.4331 12.3884C30.4356 12.3884 30.435 12.3884 30.433 12.3884C30.4324 12.3884 30.4301 12.3885 30.427 12.3886C30.4256 12.3886 30.4222 12.3887 30.418 12.3889C30.4159 12.389 30.4123 12.3891 30.4079 12.3894C30.4044 12.3896 30.3955 12.3902 30.384 12.3913C30.3784 12.3919 30.3676 12.3931 30.3541 12.3951C30.3478 12.3961 30.3329 12.3987 30.3245 12.4003C30.3127 12.4028 30.2838 12.41 30.2666 12.4149C30.2391 12.424 30.1632 12.4572 30.1164 12.4841C30.0239 12.5565 29.85 12.8586 29.8404 13.0928C29.9006 13.279 30.0841 13.4941 30.1593 13.5411C30.1976 13.5597 30.2602 13.5834 30.2835 13.5903C30.2983 13.5942 30.3238 13.5999 30.3342 13.6019C30.3418 13.6033 30.3553 13.6054 30.3612 13.6062C30.3737 13.608 30.3837 13.609 30.389 13.6095C30.3999 13.6105 30.4084 13.611 30.4118 13.6111C30.4194 13.6116 30.4253 13.6117 30.427 13.6118C30.4296 13.6119 30.4316 13.6119 30.4326 13.6119C30.4361 13.612 30.4382 13.612 30.4369 13.612C30.4364 13.612 30.4351 13.612 30.4328 13.612C30.4234 13.6119 30.4039 13.6119 30.3672 13.6119V12.3881C30.4039 12.3881 30.4254 12.3881 30.4374 12.3882C30.4404 12.3882 30.4433 12.3882 30.4458 12.3882C30.4476 12.3882 30.4518 12.3883 30.4565 12.3884C30.4578 12.3884 30.4601 12.3884 30.4628 12.3885C30.4647 12.3886 30.4708 12.3887 30.4785 12.3892C30.482 12.3894 30.4905 12.3898 30.5015 12.3908C30.5068 12.3913 30.5168 12.3923 30.5293 12.3941C30.5352 12.3949 30.5487 12.3971 30.5563 12.3984C30.5668 12.4005 30.5922 12.4062 30.6071 12.41C30.6304 12.4169 30.6929 12.4406 30.7312 12.4592C30.8064 12.5062 30.9899 12.7213 31.0501 12.9075C31.0406 13.1417 30.8667 13.4438 30.7741 13.5162C30.7274 13.5432 30.6514 13.5763 30.6239 13.5854C30.6068 13.5904 30.5778 13.5975 30.5661 13.6C30.5576 13.6017 30.5427 13.6042 30.5364 13.6052C30.5229 13.6073 30.5121 13.6084 30.5065 13.609C30.495 13.6101 30.486 13.6107 30.4825 13.6109C30.478 13.6112 30.4744 13.6114 30.4722 13.6115C30.4678 13.6117 30.4643 13.6118 30.4627 13.6118C30.4591 13.6119 30.4563 13.612 30.4551 13.612C30.4504 13.6121 30.4455 13.6121 30.4436 13.6121C30.4407 13.6122 30.438 13.6122 30.4363 13.6122C30.4359 13.6122 30.4356 13.6122 30.4353 13.6122C30.435 13.6122 30.435 13.6122 30.4351 13.6122C30.4351 13.6122 30.4352 13.6122 30.4353 13.6122C30.4354 13.6122 30.4357 13.6122 30.436 13.6122C30.4361 13.6122 30.4369 13.6122 30.4379 13.6122C30.4383 13.6122 30.4396 13.6122 30.4413 13.6121C30.4422 13.6121 30.4447 13.6121 30.4463 13.612C30.4492 13.6119 30.4605 13.6115 30.4687 13.611C30.5853 13.5923 31.0312 12.885 30.4732 12.3899C30.4609 12.3892 30.4448 12.3886 30.441 12.3885C30.4365 12.3885 30.4329 12.3884 30.4329 12.3884C30.4313 12.3884 30.4299 12.3884 30.4298 12.3884C30.4294 12.3884 30.4291 12.3884 30.429 12.3884C30.4289 12.3884 30.4287 12.3884 30.4287 12.3884C30.4286 12.3884 30.4289 12.3884 30.4303 12.3884C30.4315 12.3884 30.4331 12.3884 30.4354 12.3884L30.4405 13.6122ZM30.3672 13.6119H13.6328V12.3881H30.3672V13.6119ZM13.6328 13.6119C13.5961 13.6119 13.5766 13.6119 13.5672 13.612C13.5649 13.612 13.5636 13.612 13.5631 13.612C13.5618 13.612 13.5639 13.612 13.5674 13.6119C13.5684 13.6119 13.5704 13.6119 13.573 13.6118C13.5747 13.6117 13.5806 13.6116 13.5882 13.6111C13.5916 13.611 13.6001 13.6105 13.611 13.6095C13.6163 13.609 13.6263 13.608 13.6388 13.6063C13.6446 13.6054 13.6581 13.6033 13.6657 13.6019C13.6761 13.5999 13.7015 13.5942 13.7163 13.5903C13.7395 13.5835 13.8018 13.56 13.84 13.5415C13.9149 13.4949 14.0982 13.2813 14.159 13.0962C14.1507 12.8614 13.9774 12.5577 13.8844 12.4847C13.8375 12.4575 13.7613 12.4242 13.7337 12.415C13.7165 12.41 13.6874 12.4028 13.6757 12.4003C13.6672 12.3987 13.6523 12.3961 13.6459 12.3951C13.6324 12.3931 13.6216 12.3919 13.616 12.3914C13.6046 12.3902 13.5956 12.3896 13.5921 12.3894C13.5877 12.3891 13.5841 12.389 13.582 12.3889C13.5778 12.3887 13.5745 12.3886 13.573 12.3886C13.5699 12.3885 13.5676 12.3884 13.567 12.3884C13.565 12.3884 13.5644 12.3884 13.5669 12.3884C13.5685 12.3884 13.5704 12.3884 13.5719 12.3884C13.5724 12.3884 13.5734 12.3884 13.5741 12.3885C13.5742 12.3885 13.5747 12.3885 13.5753 12.3885C13.5755 12.3885 13.5763 12.3885 13.5774 12.3885C13.5778 12.3885 13.5791 12.3885 13.5808 12.3885C13.5817 12.3886 13.5842 12.3886 13.5858 12.3886C13.5888 12.3887 13.6001 12.3892 13.6084 12.3897C13.7304 12.4099 14.1695 13.1215 13.6123 13.6107C13.6001 13.6115 13.5842 13.6121 13.5805 13.6121C13.576 13.6122 13.5724 13.6122 13.5723 13.6122C13.5707 13.6122 13.5693 13.6122 13.5692 13.6122C13.5684 13.6122 13.5678 13.6122 13.5677 13.6122C13.5665 13.6122 13.5636 13.6122 13.5595 13.6122L13.5646 12.3884C13.5669 12.3884 13.5685 12.3884 13.5697 12.3884C13.5711 12.3884 13.5714 12.3884 13.5713 12.3884C13.5713 12.3884 13.5711 12.3884 13.571 12.3884C13.5709 12.3884 13.5706 12.3884 13.5702 12.3884C13.5701 12.3884 13.5687 12.3884 13.5671 12.3884C13.5671 12.3884 13.5635 12.3885 13.559 12.3885C13.5553 12.3886 13.5393 12.3892 13.5271 12.3899C12.9699 12.8792 13.409 13.5907 13.5311 13.611C13.5394 13.6115 13.5507 13.6119 13.5537 13.612C13.5552 13.6121 13.5577 13.6121 13.5587 13.6121C13.5604 13.6122 13.5617 13.6122 13.5621 13.6122C13.5631 13.6122 13.5639 13.6122 13.564 13.6122C13.5643 13.6122 13.5646 13.6122 13.5647 13.6122C13.5648 13.6122 13.5649 13.6122 13.5649 13.6122C13.565 13.6122 13.565 13.6122 13.5647 13.6122C13.5644 13.6122 13.5641 13.6122 13.5637 13.6122C13.562 13.6122 13.5593 13.6122 13.5564 13.6121C13.5545 13.6121 13.5496 13.6121 13.5449 13.612C13.5437 13.612 13.5409 13.6119 13.5373 13.6118C13.5357 13.6118 13.5322 13.6117 13.5278 13.6115C13.5256 13.6114 13.522 13.6112 13.5175 13.6109C13.514 13.6107 13.505 13.6101 13.4935 13.609C13.4879 13.6084 13.4771 13.6073 13.4635 13.6052C13.4572 13.6042 13.4423 13.6016 13.4338 13.6C13.4221 13.5975 13.393 13.5903 13.3758 13.5853C13.3482 13.5762 13.272 13.5428 13.225 13.5156C13.1321 13.4427 12.9588 13.1389 12.9504 12.9042C13.0113 12.719 13.1946 12.5055 13.2695 12.4588C13.3076 12.4404 13.3699 12.4168 13.3932 12.41C13.408 12.4061 13.4334 12.4004 13.4438 12.3984C13.4514 12.3971 13.4649 12.3949 13.4707 12.3941C13.4832 12.3923 13.4932 12.3913 13.4986 12.3908C13.5095 12.3898 13.518 12.3894 13.5215 12.3892C13.5292 12.3887 13.5353 12.3886 13.5372 12.3885C13.5399 12.3884 13.5422 12.3884 13.5436 12.3884C13.5482 12.3883 13.5524 12.3882 13.5542 12.3882C13.5567 12.3882 13.5596 12.3882 13.5626 12.3882C13.5746 12.3881 13.5961 12.3881 13.6328 12.3881V13.6119ZM13.559 13.6122C13.3429 13.6111 13.2563 13.6145 13.1389 13.656L12.7314 12.502C13.0701 12.3825 13.3503 12.3874 13.565 12.3884L13.559 13.6122ZM13.1387 13.6561C12.9024 13.7394 12.7446 13.916 12.6657 14.1454L11.5084 13.7475C11.6939 13.2081 12.1018 12.7242 12.7316 12.502L13.1387 13.6561ZM12.6657 14.1456C12.6302 14.2488 12.6119 14.3595 12.6119 14.47H11.3881C11.3881 14.2266 11.428 13.9812 11.5085 13.7473L12.6657 14.1456ZM12.6119 14.47C12.6119 14.5806 12.6302 14.6912 12.6657 14.7944L11.5085 15.1927C11.428 14.9588 11.3881 14.7134 11.3881 14.47H12.6119ZM12.6657 14.7944C12.7448 15.0241 12.9025 15.2006 13.1388 15.284L12.7316 16.438C12.1017 16.2158 11.6941 15.7318 11.5085 15.1927L12.6657 14.7944ZM13.1388 15.284C13.2564 15.3255 13.3426 15.3287 13.5595 15.3278L13.5646 16.5516C13.3506 16.5525 13.0704 16.5576 12.7315 16.438L13.1388 15.284ZM13.5595 15.3278C13.5636 15.3278 13.5665 15.3278 13.5677 15.3278C13.5678 15.3278 13.5684 15.3278 13.5692 15.3278C13.5693 15.3278 13.5707 15.3278 13.5723 15.3278C13.5724 15.3278 13.576 15.3278 13.5804 15.3279C13.5842 15.328 13.6002 15.3285 13.6124 15.3293C14.1699 15.8206 13.7284 16.5307 13.6082 16.5504C13.6 16.5508 13.5887 16.5513 13.5857 16.5514C13.5842 16.5514 13.5817 16.5515 13.5808 16.5515C13.5791 16.5515 13.5778 16.5515 13.5774 16.5515C13.5763 16.5515 13.5755 16.5516 13.5753 16.5516C13.5747 16.5516 13.5742 16.5516 13.574 16.5516C13.5734 16.5516 13.5724 16.5516 13.5719 16.5516C13.5704 16.5516 13.5685 16.5516 13.5669 16.5516C13.5644 16.5516 13.565 16.5516 13.567 16.5516C13.5676 16.5516 13.5699 16.5516 13.573 16.5515C13.5744 16.5514 13.5778 16.5513 13.582 16.5511C13.5841 16.551 13.5877 16.5509 13.5921 16.5506C13.5956 16.5504 13.6046 16.5498 13.616 16.5487C13.6216 16.5481 13.6324 16.5469 13.6459 16.5449C13.6523 16.5439 13.6672 16.5413 13.6757 16.5397C13.6874 16.5372 13.7165 16.53 13.7337 16.525C13.7613 16.5158 13.8376 16.4824 13.8846 16.4552C13.9776 16.3821 14.1508 16.078 14.1589 15.8431C14.0979 15.6582 13.9146 15.445 13.8398 15.3984C13.8017 15.38 13.7394 15.3565 13.7162 15.3497C13.7014 15.3458 13.6761 15.3401 13.6656 15.3381C13.658 15.3367 13.6446 15.3346 13.6387 15.3338C13.6263 15.332 13.6163 15.331 13.6109 15.3305C13.6001 15.3295 13.5916 15.3291 13.5882 15.3289C13.5806 15.3285 13.5747 15.3283 13.573 15.3282C13.5704 15.3282 13.5684 15.3281 13.5674 15.3281C13.5639 15.328 13.5618 15.328 13.5631 15.328C13.5636 15.328 13.5649 15.328 13.5672 15.3281C13.5766 15.3281 13.5961 15.3281 13.6328 15.3281V16.5519C13.5961 16.5519 13.5746 16.5519 13.5626 16.5518C13.5596 16.5518 13.5567 16.5518 13.5542 16.5518C13.5524 16.5518 13.5482 16.5517 13.5436 16.5517C13.5422 16.5516 13.5399 16.5516 13.5372 16.5515C13.5353 16.5514 13.5292 16.5513 13.5215 16.5508C13.518 16.5507 13.5095 16.5502 13.4986 16.5492C13.4932 16.5487 13.4832 16.5477 13.4708 16.546C13.4649 16.5451 13.4515 16.543 13.4439 16.5416C13.4334 16.5396 13.4081 16.5339 13.3932 16.5301C13.37 16.5232 13.3078 16.4997 13.2696 16.4813C13.1948 16.4347 13.0115 16.2215 12.9505 16.0366C12.9586 15.8017 13.1319 15.4976 13.2249 15.4245C13.2718 15.3973 13.3481 15.3639 13.3757 15.3547C13.393 15.3497 13.422 15.3425 13.4338 15.34C13.4423 15.3384 13.4572 15.3358 13.4635 15.3348C13.4771 15.3327 13.4879 15.3316 13.4935 15.331C13.505 15.3299 13.514 15.3293 13.5175 15.3291C13.522 15.3288 13.5256 15.3286 13.5278 15.3285C13.5322 15.3283 13.5357 15.3282 13.5373 15.3282C13.5409 15.3281 13.5437 15.328 13.5449 15.328C13.5496 15.3279 13.5545 15.3279 13.5564 15.3279C13.5593 15.3278 13.562 15.3278 13.5637 15.3278C13.5641 15.3278 13.5644 15.3278 13.5647 15.3278C13.565 15.3278 13.565 15.3278 13.5649 15.3278C13.5649 15.3278 13.5648 15.3278 13.5647 15.3278C13.5646 15.3278 13.5643 15.3278 13.564 15.3278C13.5639 15.3278 13.5631 15.3278 13.5621 15.3278C13.5617 15.3278 13.5604 15.3279 13.5587 15.3279C13.5578 15.3279 13.5553 15.328 13.5537 15.328C13.5507 15.3281 13.5395 15.3285 13.5312 15.329C13.4111 15.3487 12.9695 16.0588 13.5271 16.5501C13.5393 16.5508 13.5553 16.5514 13.559 16.5515C13.5635 16.5516 13.5671 16.5516 13.5671 16.5516C13.5688 16.5516 13.5701 16.5516 13.5702 16.5516C13.5706 16.5516 13.5709 16.5516 13.571 16.5516C13.5711 16.5516 13.5713 16.5516 13.5713 16.5516C13.5714 16.5516 13.5711 16.5516 13.5697 16.5516C13.5685 16.5516 13.5669 16.5516 13.5646 16.5516L13.5595 15.3278ZM13.6328 15.3281H22V16.5519H13.6328V15.3281ZM30.3672 28.6719H13.6328V27.4481H30.3672V28.6719ZM13.6328 28.6719C13.5961 28.6719 13.5766 28.6719 13.5672 28.6719C13.5649 28.672 13.5636 28.672 13.5631 28.672C13.5618 28.672 13.5639 28.672 13.5674 28.6719C13.5684 28.6719 13.5704 28.6718 13.573 28.6718C13.5747 28.6717 13.5806 28.6715 13.5882 28.6711C13.5916 28.6709 13.6001 28.6705 13.611 28.6695C13.6163 28.669 13.6263 28.668 13.6388 28.6662C13.6446 28.6654 13.6581 28.6633 13.6657 28.6619C13.6761 28.6599 13.7014 28.6542 13.7163 28.6503C13.7395 28.6435 13.8018 28.6199 13.84 28.6015C13.9148 28.5549 14.0982 28.3413 14.159 28.1562C14.1507 27.9214 13.9773 27.6176 13.8844 27.5447C13.8375 27.5175 13.7612 27.4842 13.7337 27.475C13.7164 27.47 13.6874 27.4628 13.6757 27.4603C13.6672 27.4587 13.6523 27.4561 13.6459 27.4551C13.6324 27.4531 13.6216 27.4519 13.616 27.4513C13.6046 27.4502 13.5956 27.4496 13.5921 27.4494C13.5877 27.4491 13.5841 27.449 13.582 27.4489C13.5778 27.4487 13.5744 27.4486 13.573 27.4485C13.5699 27.4484 13.5676 27.4484 13.567 27.4484C13.565 27.4484 13.5644 27.4484 13.5669 27.4484C13.5685 27.4484 13.5704 27.4484 13.5719 27.4484C13.5724 27.4484 13.5734 27.4484 13.574 27.4484C13.5742 27.4484 13.5747 27.4484 13.5753 27.4484C13.5755 27.4484 13.5763 27.4485 13.5774 27.4485C13.5778 27.4485 13.5791 27.4485 13.5808 27.4485C13.5817 27.4485 13.5842 27.4486 13.5857 27.4486C13.5887 27.4487 13.6 27.4492 13.6083 27.4496C13.7303 27.4699 14.1695 28.1813 13.6123 28.6707C13.6001 28.6715 13.5842 28.672 13.5804 28.6721C13.576 28.6722 13.5724 28.6722 13.5723 28.6722C13.5707 28.6722 13.5693 28.6722 13.5692 28.6722C13.5684 28.6722 13.5678 28.6722 13.5677 28.6722C13.5665 28.6722 13.5636 28.6722 13.5595 28.6722L13.5646 27.4484C13.5669 27.4484 13.5685 27.4484 13.5697 27.4484C13.5711 27.4484 13.5714 27.4484 13.5713 27.4484C13.5713 27.4484 13.5711 27.4484 13.571 27.4484C13.5709 27.4484 13.5706 27.4484 13.5702 27.4484C13.5701 27.4484 13.5688 27.4484 13.5671 27.4484C13.5671 27.4484 13.5635 27.4484 13.559 27.4485C13.5553 27.4486 13.5394 27.4492 13.5272 27.4499C12.9699 27.9393 13.4092 28.6508 13.5311 28.671C13.5394 28.6715 13.5507 28.6719 13.5537 28.672C13.5553 28.672 13.5577 28.6721 13.5587 28.6721C13.5604 28.6721 13.5617 28.6722 13.5621 28.6722C13.5631 28.6722 13.5639 28.6722 13.564 28.6722C13.5643 28.6722 13.5646 28.6722 13.5647 28.6722C13.5648 28.6722 13.5649 28.6722 13.5649 28.6722C13.565 28.6722 13.565 28.6722 13.5647 28.6722C13.5644 28.6722 13.5641 28.6722 13.5637 28.6722C13.562 28.6722 13.5593 28.6722 13.5564 28.6721C13.5545 28.6721 13.5496 28.6721 13.5449 28.672C13.5437 28.672 13.5409 28.6719 13.5373 28.6718C13.5357 28.6718 13.5322 28.6717 13.5278 28.6715C13.5256 28.6714 13.522 28.6712 13.5175 28.6709C13.514 28.6707 13.505 28.6701 13.4935 28.669C13.4879 28.6684 13.4771 28.6673 13.4636 28.6652C13.4572 28.6642 13.4423 28.6616 13.4338 28.66C13.4221 28.6575 13.393 28.6503 13.3758 28.6453C13.3482 28.6361 13.272 28.6028 13.2251 28.5756C13.1321 28.5027 12.9588 28.1989 12.9504 27.9641C13.0113 27.779 13.1946 27.5654 13.2695 27.5188C13.3077 27.5003 13.37 27.4768 13.3932 27.47C13.408 27.4661 13.4334 27.4604 13.4438 27.4584C13.4514 27.457 13.4649 27.4549 13.4707 27.454C13.4832 27.4523 13.4932 27.4513 13.4986 27.4508C13.5095 27.4498 13.518 27.4493 13.5215 27.4492C13.5292 27.4487 13.5353 27.4486 13.5372 27.4485C13.5399 27.4484 13.5422 27.4484 13.5436 27.4483C13.5482 27.4482 13.5524 27.4482 13.5542 27.4482C13.5567 27.4482 13.5596 27.4482 13.5626 27.4482C13.5746 27.4481 13.5961 27.4481 13.6328 27.4481V28.6719ZM13.559 28.6722C13.3429 28.6711 13.2563 28.6745 13.1389 28.716L12.7314 27.562C13.0701 27.4424 13.3503 27.4473 13.565 27.4484L13.559 28.6722ZM13.1387 28.716C12.9024 28.7994 12.7446 28.976 12.6657 29.2054L11.5084 28.8075C11.6939 28.2681 12.1018 27.7842 12.7316 27.562L13.1387 28.716ZM12.6657 29.2056C12.6302 29.3088 12.6119 29.4194 12.6119 29.53H11.3881C11.3881 29.2866 11.428 29.0412 11.5085 28.8073L12.6657 29.2056ZM12.6119 29.53C12.6119 29.6406 12.6302 29.7512 12.6657 29.8544L11.5085 30.2527C11.428 30.0188 11.3881 29.7734 11.3881 29.53H12.6119ZM12.6657 29.8544C12.7448 30.0841 12.9025 30.2606 13.1388 30.3439L12.7316 31.498C12.1017 31.2758 11.6941 30.7918 11.5085 30.2527L12.6657 29.8544ZM13.1388 30.344C13.2564 30.3854 13.3426 30.3887 13.5595 30.3878L13.5646 31.6116C13.3506 31.6125 13.0704 31.6176 12.7315 31.498L13.1388 30.344ZM13.5595 30.3878C13.5636 30.3878 13.5665 30.3878 13.5677 30.3878C13.5678 30.3878 13.5685 30.3878 13.5692 30.3878C13.5694 30.3878 13.5708 30.3878 13.5725 30.3878C13.5725 30.3878 13.5762 30.3878 13.5808 30.3879C13.5846 30.388 13.6009 30.3886 13.6134 30.3893C14.1695 30.8784 13.7314 31.5898 13.6091 31.6103C13.6006 31.6108 13.5891 31.6113 13.586 31.6113C13.5844 31.6114 13.5819 31.6114 13.5809 31.6115C13.5792 31.6115 13.5779 31.6115 13.5775 31.6115C13.5764 31.6115 13.5756 31.6115 13.5754 31.6115C13.5747 31.6115 13.5742 31.6115 13.5741 31.6115C13.5735 31.6116 13.5724 31.6116 13.5719 31.6116C13.5704 31.6116 13.5686 31.6116 13.5669 31.6116C13.5644 31.6116 13.565 31.6116 13.567 31.6116C13.5676 31.6116 13.5699 31.6115 13.573 31.6114C13.5745 31.6114 13.5778 31.6113 13.5821 31.6111C13.5842 31.611 13.5878 31.6108 13.5922 31.6106C13.5957 31.6104 13.6047 31.6098 13.6162 31.6086C13.6218 31.6081 13.6326 31.6069 13.6462 31.6049C13.6526 31.6039 13.6675 31.6013 13.676 31.5996C13.6877 31.5971 13.7169 31.5899 13.7341 31.5848C13.7618 31.5756 13.8382 31.5421 13.8851 31.5149C13.9781 31.4416 14.1509 31.1378 14.159 30.9033C14.0982 30.7186 13.9152 30.5054 13.8404 30.4587C13.8022 30.4402 13.7398 30.4166 13.7166 30.4097C13.7017 30.4059 13.6763 30.4001 13.6659 30.3981C13.6583 30.3968 13.6448 30.3946 13.6389 30.3938C13.6264 30.392 13.6164 30.391 13.6111 30.3905C13.6002 30.3895 13.5917 30.3891 13.5883 30.3889C13.5806 30.3884 13.5747 30.3883 13.573 30.3882C13.5704 30.3881 13.5684 30.3881 13.5674 30.3881C13.564 30.388 13.5618 30.388 13.5631 30.388C13.5636 30.388 13.5649 30.388 13.5672 30.388C13.5766 30.3881 13.5961 30.3881 13.6328 30.3881V31.6119C13.5961 31.6119 13.5746 31.6119 13.5626 31.6118C13.5596 31.6118 13.5567 31.6118 13.5542 31.6118C13.5524 31.6118 13.5482 31.6117 13.5435 31.6116C13.5422 31.6116 13.5399 31.6116 13.5371 31.6115C13.5352 31.6114 13.5291 31.6113 13.5214 31.6108C13.518 31.6106 13.5094 31.6102 13.4985 31.6091C13.4931 31.6086 13.4831 31.6077 13.4706 31.6059C13.4647 31.6051 13.4512 31.6029 13.4436 31.6016C13.4331 31.5995 13.4077 31.5938 13.3929 31.5899C13.3696 31.5831 13.3073 31.5595 13.2691 31.541C13.1943 31.4943 13.0113 31.2811 12.9505 31.0963C12.9586 30.8619 13.1314 30.558 13.2243 30.4848C13.2713 30.4575 13.3477 30.424 13.3753 30.4148C13.3926 30.4098 13.4217 30.4026 13.4335 30.4001C13.442 30.3984 13.4569 30.3958 13.4633 30.3948C13.4769 30.3928 13.4877 30.3916 13.4934 30.391C13.5049 30.3899 13.5139 30.3893 13.5174 30.3891C13.5219 30.3888 13.5255 30.3886 13.5278 30.3885C13.5321 30.3883 13.5356 30.3882 13.5373 30.3882C13.5408 30.3881 13.5437 30.388 13.5449 30.388C13.5495 30.3879 13.5545 30.3879 13.5564 30.3879C13.5593 30.3878 13.562 30.3878 13.5636 30.3878C13.5641 30.3878 13.5644 30.3878 13.5646 30.3878C13.5649 30.3878 13.565 30.3878 13.5649 30.3878C13.5648 30.3878 13.5647 30.3878 13.5646 30.3878C13.5645 30.3878 13.5643 30.3878 13.564 30.3878C13.5638 30.3878 13.563 30.3878 13.562 30.3878C13.5616 30.3878 13.5602 30.3878 13.5585 30.3879C13.5575 30.3879 13.555 30.388 13.5534 30.388C13.5504 30.3881 13.5389 30.3886 13.5304 30.389C13.408 30.4095 12.97 31.121 13.526 31.61C13.5386 31.6108 13.5549 31.6114 13.5587 31.6115C13.5633 31.6115 13.567 31.6116 13.567 31.6116C13.5687 31.6116 13.57 31.6116 13.5701 31.6116C13.5705 31.6116 13.5708 31.6116 13.571 31.6116C13.5711 31.6116 13.5712 31.6116 13.5713 31.6116C13.5714 31.6116 13.5711 31.6116 13.5697 31.6116C13.5685 31.6116 13.5669 31.6116 13.5646 31.6116L13.5595 30.3878ZM13.6328 30.3881H30.3672V31.6119H13.6328V30.3881ZM30.3672 30.3881C30.4039 30.3881 30.4234 30.3881 30.4328 30.388C30.4351 30.388 30.4364 30.388 30.4369 30.388C30.4382 30.388 30.436 30.388 30.4326 30.3881C30.4316 30.3881 30.4296 30.3881 30.427 30.3882C30.4253 30.3883 30.4194 30.3884 30.4117 30.3889C30.4083 30.3891 30.3998 30.3895 30.3889 30.3905C30.3835 30.391 30.3735 30.392 30.361 30.3938C30.3551 30.3946 30.3416 30.3968 30.334 30.3982C30.3235 30.4002 30.298 30.4059 30.2831 30.4098C30.2597 30.4167 30.1971 30.4405 30.1587 30.4592C30.0834 30.5064 29.9002 30.7218 29.8403 30.9081C29.8501 31.1417 30.0236 31.4433 30.1161 31.5156C30.1628 31.5426 30.2388 31.5758 30.2663 31.585C30.2835 31.59 30.3125 31.5972 30.3242 31.5996C30.3327 31.6013 30.3476 31.6039 30.3539 31.6049C30.3675 31.6069 30.3783 31.6081 30.3839 31.6086C30.3953 31.6098 30.4043 31.6104 30.4078 31.6106C30.4122 31.6108 30.4158 31.611 30.4179 31.6111C30.4222 31.6113 30.4255 31.6114 30.427 31.6114C30.4301 31.6115 30.4324 31.6116 30.433 31.6116C30.435 31.6116 30.4356 31.6116 30.4331 31.6116C30.4314 31.6116 30.4296 31.6116 30.4281 31.6116C30.4276 31.6116 30.4265 31.6116 30.4259 31.6115C30.4258 31.6115 30.4253 31.6115 30.4246 31.6115C30.4244 31.6115 30.4236 31.6115 30.4225 31.6115C30.4221 31.6115 30.4208 31.6115 30.4191 31.6115C30.4181 31.6114 30.4156 31.6114 30.414 31.6113C30.4109 31.6113 30.3995 31.6108 30.391 31.6103C30.2706 31.5904 29.8301 30.8805 30.3865 30.3893C30.399 30.3886 30.4154 30.388 30.4192 30.3879C30.4238 30.3878 30.4275 30.3878 30.4275 30.3878C30.4292 30.3878 30.4306 30.3878 30.4308 30.3878C30.4315 30.3878 30.4322 30.3878 30.4323 30.3878C30.4335 30.3878 30.4364 30.3878 30.4405 30.3878L30.4354 31.6116C30.4331 31.6116 30.4315 31.6116 30.4303 31.6116C30.4289 31.6116 30.4286 31.6116 30.4287 31.6116C30.4288 31.6116 30.4289 31.6116 30.429 31.6116C30.4292 31.6116 30.4295 31.6116 30.4299 31.6116C30.43 31.6116 30.4313 31.6116 30.433 31.6116C30.433 31.6116 30.4367 31.6115 30.4413 31.6115C30.4451 31.6114 30.4615 31.6108 30.4741 31.61C31.0304 31.1189 30.5899 30.409 30.4695 30.389C30.4611 30.3885 30.4496 30.3881 30.4466 30.388C30.445 30.3879 30.4424 30.3879 30.4415 30.3879C30.4398 30.3878 30.4384 30.3878 30.438 30.3878C30.437 30.3878 30.4362 30.3878 30.436 30.3878C30.4357 30.3878 30.4355 30.3878 30.4354 30.3878C30.4353 30.3878 30.4352 30.3878 30.4351 30.3878C30.435 30.3878 30.4351 30.3878 30.4354 30.3878C30.4356 30.3878 30.4359 30.3878 30.4364 30.3878C30.438 30.3878 30.4407 30.3878 30.4436 30.3879C30.4455 30.3879 30.4505 30.3879 30.4551 30.388C30.4563 30.388 30.4592 30.3881 30.4627 30.3882C30.4644 30.3882 30.4678 30.3883 30.4722 30.3885C30.4744 30.3886 30.4781 30.3888 30.4826 30.3891C30.4861 30.3893 30.4951 30.3899 30.5066 30.391C30.5122 30.3916 30.523 30.3927 30.5366 30.3948C30.5429 30.3958 30.5578 30.3984 30.5663 30.4C30.578 30.4025 30.6071 30.4097 30.6243 30.4147C30.6518 30.4238 30.7277 30.457 30.7745 30.484C30.8669 30.5564 31.0405 30.8579 31.0503 31.0915C30.9904 31.2778 30.8071 31.4933 30.7319 31.5405C30.6935 31.5591 30.6308 31.5829 30.6075 31.5898C30.5925 31.5937 30.5671 31.5995 30.5566 31.6015C30.5489 31.6029 30.5354 31.6051 30.5295 31.6059C30.517 31.6076 30.507 31.6086 30.5016 31.6091C30.4907 31.6101 30.4821 31.6106 30.4786 31.6108C30.4709 31.6113 30.4648 31.6114 30.4629 31.6115C30.4601 31.6116 30.4578 31.6116 30.4565 31.6116C30.4518 31.6117 30.4476 31.6118 30.4458 31.6118C30.4433 31.6118 30.4404 31.6118 30.4374 31.6118C30.4254 31.6119 30.4039 31.6119 30.3672 31.6119V30.3881ZM30.441 30.3878C30.6571 30.3889 30.7437 30.3855 30.8611 30.344L31.2686 31.498C30.9299 31.6175 30.6497 31.6126 30.435 31.6116L30.441 30.3878ZM30.8613 30.3439C31.0976 30.2606 31.2554 30.084 31.3343 29.8546L32.4916 30.2525C32.3061 30.7919 31.8982 31.2758 31.2684 31.498L30.8613 30.3439ZM31.3343 29.8544C31.3698 29.7512 31.3881 29.6405 31.3881 29.53H32.6119C32.6119 29.7734 32.572 30.0188 32.4915 30.2527L31.3343 29.8544ZM31.3881 29.53C31.3881 29.4194 31.3698 29.3088 31.3343 29.2056L32.4915 28.8073C32.572 29.0412 32.6119 29.2866 32.6119 29.53H31.3881ZM31.3343 29.2056C31.2552 28.9759 31.0975 28.7994 30.8612 28.716L31.2684 27.562C31.8983 27.7842 32.3059 28.2682 32.4915 28.8073L31.3343 29.2056ZM30.8612 28.716C30.7436 28.6745 30.6574 28.6713 30.4405 28.6722L30.4354 27.4484C30.6494 27.4475 30.9296 27.4424 31.2685 27.562L30.8612 28.716ZM30.4405 28.6722C30.4364 28.6722 30.4335 28.6722 30.4323 28.6722C30.4322 28.6722 30.4316 28.6722 30.4308 28.6722C30.4307 28.6722 30.4293 28.6722 30.4277 28.6722C30.4276 28.6722 30.424 28.6722 30.4195 28.6721C30.4158 28.672 30.3997 28.6714 30.3874 28.6707C29.8293 28.1755 30.2754 27.4683 30.3919 27.4496C30.4001 27.4492 30.4113 27.4487 30.4143 27.4486C30.4158 27.4486 30.4183 27.4485 30.4192 27.4485C30.4209 27.4485 30.4222 27.4485 30.4227 27.4485C30.4237 27.4485 30.4245 27.4484 30.4247 27.4484C30.4253 27.4484 30.4258 27.4484 30.426 27.4484C30.4266 27.4484 30.4276 27.4484 30.4281 27.4484C30.4296 27.4484 30.4315 27.4484 30.4331 27.4484C30.4356 27.4484 30.435 27.4484 30.433 27.4484C30.4324 27.4484 30.4301 27.4484 30.427 27.4485C30.4256 27.4486 30.4222 27.4487 30.418 27.4489C30.4159 27.449 30.4123 27.4491 30.4079 27.4494C30.4044 27.4496 30.3955 27.4502 30.384 27.4513C30.3784 27.4519 30.3677 27.453 30.3541 27.4551C30.3478 27.4561 30.3329 27.4587 30.3245 27.4603C30.3128 27.4628 30.2838 27.4699 30.2666 27.4749C30.2391 27.484 30.1632 27.5171 30.1165 27.5441C30.0239 27.6165 29.85 27.9186 29.8404 28.1528C29.9006 28.3391 30.0842 28.5541 30.1593 28.6011C30.1977 28.6197 30.2602 28.6434 30.2835 28.6503C30.2984 28.6541 30.3238 28.6599 30.3342 28.6619C30.3418 28.6632 30.3553 28.6654 30.3612 28.6662C30.3737 28.668 30.3837 28.669 30.389 28.6694C30.3999 28.6705 30.4084 28.6709 30.4118 28.6711C30.4194 28.6715 30.4253 28.6717 30.427 28.6718C30.4296 28.6718 30.4316 28.6719 30.4326 28.6719C30.4361 28.672 30.4382 28.672 30.4369 28.672C30.4364 28.672 30.4351 28.672 30.4328 28.6719C30.4234 28.6719 30.4039 28.6719 30.3672 28.6719V27.4481C30.4039 27.4481 30.4254 27.4481 30.4374 27.4482C30.4404 27.4482 30.4433 27.4482 30.4458 27.4482C30.4476 27.4482 30.4518 27.4482 30.4565 27.4483C30.4578 27.4484 30.4601 27.4484 30.4628 27.4485C30.4647 27.4486 30.4708 27.4487 30.4785 27.4492C30.482 27.4493 30.4905 27.4498 30.5014 27.4508C30.5068 27.4513 30.5168 27.4523 30.5293 27.4541C30.5352 27.4549 30.5487 27.4571 30.5563 27.4584C30.5668 27.4604 30.5922 27.4661 30.6071 27.47C30.6303 27.4769 30.6929 27.5006 30.7312 27.5192C30.8064 27.5662 30.9899 27.7812 31.0501 27.9675C31.0406 28.2017 30.8667 28.5038 30.7741 28.5762C30.7273 28.6032 30.6514 28.6363 30.6239 28.6454C30.6067 28.6504 30.5778 28.6575 30.566 28.66C30.5576 28.6617 30.5427 28.6642 30.5364 28.6652C30.5228 28.6673 30.512 28.6684 30.5065 28.669C30.495 28.6701 30.486 28.6707 30.4825 28.6709C30.478 28.6712 30.4744 28.6714 30.4722 28.6715C30.4678 28.6717 30.4643 28.6718 30.4627 28.6718C30.4591 28.6719 30.4563 28.672 30.4551 28.672C30.4504 28.6721 30.4455 28.6721 30.4436 28.6721C30.4407 28.6722 30.438 28.6722 30.4363 28.6722C30.4359 28.6722 30.4356 28.6722 30.4353 28.6722C30.435 28.6722 30.435 28.6722 30.4351 28.6722C30.4351 28.6722 30.4352 28.6722 30.4353 28.6722C30.4354 28.6722 30.4357 28.6722 30.436 28.6722C30.4361 28.6722 30.4369 28.6722 30.4379 28.6722C30.4383 28.6722 30.4396 28.6721 30.4413 28.6721C30.4422 28.6721 30.4447 28.672 30.4463 28.672C30.4492 28.6719 30.4604 28.6715 30.4686 28.671C30.5851 28.6523 31.0312 27.9451 30.4731 27.4499C30.4608 27.4492 30.4447 27.4486 30.441 27.4485C30.4365 27.4484 30.4329 27.4484 30.4329 27.4484C30.4312 27.4484 30.4299 27.4484 30.4298 27.4484C30.4294 27.4484 30.4291 27.4484 30.429 27.4484C30.4289 27.4484 30.4287 27.4484 30.4287 27.4484C30.4286 27.4484 30.4289 27.4484 30.4303 27.4484C30.4315 27.4484 30.4331 27.4484 30.4354 27.4484L30.4405 28.6722ZM22 22.858H30.3672V24.0818H22V22.858ZM30.3672 22.858C30.4039 22.858 30.4234 22.858 30.4328 22.8579C30.4351 22.8579 30.4364 22.8579 30.4369 22.8579C30.4382 22.8579 30.4361 22.8579 30.4326 22.858C30.4316 22.858 30.4296 22.858 30.427 22.8581C30.4253 22.8582 30.4194 22.8583 30.4118 22.8588C30.4084 22.8589 30.3999 22.8594 30.389 22.8604C30.3837 22.8609 30.3737 22.8619 30.3612 22.8637C30.3553 22.8645 30.3418 22.8667 30.3342 22.868C30.3237 22.87 30.2983 22.8757 30.2834 22.8796C30.2601 22.8865 30.1976 22.9102 30.1592 22.9288C30.084 22.9759 29.9004 23.1913 29.8403 23.3778C29.8501 23.6119 30.0241 23.9137 30.1166 23.9859C30.1633 24.0128 30.2392 24.0459 30.2667 24.055C30.2838 24.06 30.3128 24.0671 30.3245 24.0696C30.333 24.0712 30.3478 24.0738 30.3542 24.0748C30.3677 24.0768 30.3785 24.078 30.384 24.0786C30.3955 24.0797 30.4044 24.0803 30.4079 24.0805C30.4123 24.0808 30.4159 24.0809 30.418 24.081C30.4222 24.0812 30.4256 24.0813 30.427 24.0813C30.4301 24.0814 30.4324 24.0815 30.433 24.0815C30.435 24.0815 30.4356 24.0815 30.4331 24.0815C30.4315 24.0815 30.4296 24.0815 30.4281 24.0815C30.4276 24.0815 30.4266 24.0815 30.426 24.0815C30.4258 24.0814 30.4253 24.0814 30.4247 24.0814C30.4245 24.0814 30.4237 24.0814 30.4226 24.0814C30.4222 24.0814 30.4209 24.0814 30.4192 24.0814C30.4183 24.0813 30.4158 24.0813 30.4143 24.0813C30.4113 24.0812 30.4001 24.0807 30.3918 24.0803C30.2736 24.0611 29.8297 23.3525 30.3875 22.8592C30.3998 22.8584 30.4158 22.8578 30.4195 22.8578C30.424 22.8577 30.4276 22.8577 30.4277 22.8577C30.4293 22.8577 30.4307 22.8577 30.4308 22.8577C30.4316 22.8577 30.4322 22.8577 30.4323 22.8577C30.4335 22.8577 30.4364 22.8577 30.4405 22.8577L30.4354 24.0815C30.4331 24.0815 30.4315 24.0815 30.4303 24.0815C30.4289 24.0815 30.4286 24.0815 30.4287 24.0815C30.4287 24.0815 30.4289 24.0815 30.429 24.0815C30.4291 24.0815 30.4294 24.0815 30.4298 24.0815C30.4299 24.0815 30.4312 24.0815 30.4329 24.0815C30.4329 24.0815 30.4365 24.0814 30.441 24.0814C30.4447 24.0813 30.4608 24.0807 30.473 24.08C31.0309 23.5866 30.5869 22.8781 30.4687 22.8589C30.4605 22.8584 30.4492 22.858 30.4463 22.8579C30.4447 22.8578 30.4422 22.8578 30.4413 22.8578C30.4396 22.8577 30.4383 22.8577 30.4379 22.8577C30.4369 22.8577 30.4361 22.8577 30.436 22.8577C30.4357 22.8577 30.4354 22.8577 30.4353 22.8577C30.4352 22.8577 30.4351 22.8577 30.4351 22.8577C30.435 22.8577 30.435 22.8577 30.4353 22.8577C30.4356 22.8577 30.4359 22.8577 30.4363 22.8577C30.438 22.8577 30.4407 22.8577 30.4436 22.8578C30.4455 22.8578 30.4504 22.8578 30.455 22.8579C30.4563 22.8579 30.4591 22.858 30.4627 22.8581C30.4643 22.8581 30.4678 22.8582 30.4722 22.8584C30.4744 22.8585 30.478 22.8587 30.4825 22.859C30.486 22.8592 30.495 22.8598 30.5065 22.8609C30.512 22.8615 30.5228 22.8626 30.5363 22.8647C30.5427 22.8656 30.5576 22.8682 30.566 22.8699C30.5777 22.8723 30.6067 22.8795 30.6239 22.8845C30.6513 22.8936 30.7272 22.9267 30.7739 22.9536C30.8664 23.0258 31.0404 23.3276 31.0502 23.5617C30.9902 23.7482 30.8066 23.9636 30.7313 24.0106C30.693 24.0293 30.6304 24.053 30.6071 24.0598C30.5922 24.0637 30.5668 24.0694 30.5563 24.0715C30.5487 24.0728 30.5352 24.075 30.5293 24.0758C30.5168 24.0776 30.5068 24.0786 30.5015 24.0791C30.4905 24.0801 30.482 24.0805 30.4785 24.0807C30.4708 24.0812 30.4647 24.0813 30.4628 24.0814C30.4601 24.0815 30.4578 24.0815 30.4565 24.0815C30.4518 24.0816 30.4476 24.0817 30.4458 24.0817C30.4433 24.0817 30.4404 24.0817 30.4374 24.0817C30.4254 24.0818 30.4039 24.0818 30.3672 24.0818V22.858ZM30.441 22.8577C30.6571 22.8588 30.7437 22.8554 30.8611 22.8139L31.2686 23.9679C30.9299 24.0874 30.6497 24.0825 30.435 24.0815L30.441 22.8577ZM30.8613 22.8138C31.0976 22.7305 31.2554 22.5539 31.3343 22.3245L32.4916 22.7224C32.3061 23.2618 31.8982 23.7457 31.2684 23.9679L30.8613 22.8138ZM31.3343 22.3243C31.3698 22.2211 31.3881 22.1104 31.3881 21.9999H32.6119C32.6119 22.2433 32.572 22.4887 32.4915 22.7226L31.3343 22.3243ZM31.3881 21.9999C31.3881 21.8893 31.3698 21.7787 31.3343 21.6755L32.4915 21.2772C32.572 21.5111 32.6119 21.7565 32.6119 21.9999H31.3881ZM31.3343 21.6755C31.2552 21.4458 31.0975 21.2693 30.8612 21.1859L31.2684 20.0319C31.8983 20.2541 32.3059 20.7381 32.4915 21.2772L31.3343 21.6755ZM30.8612 21.1859C30.7436 21.1444 30.6574 21.1412 30.4405 21.1421L30.4354 19.9183C30.6494 19.9174 30.9296 19.9123 31.2685 20.0319L30.8612 21.1859ZM30.4405 21.1421C30.4364 21.1421 30.4335 21.1421 30.4323 21.1421C30.4322 21.1421 30.4316 21.1421 30.4308 21.1421C30.4307 21.1421 30.4293 21.1421 30.4277 21.1421C30.4276 21.1421 30.424 21.1421 30.4195 21.142C30.4158 21.1419 30.3997 21.1414 30.3874 21.1406C29.8293 20.6454 30.2754 19.9382 30.3919 19.9195C30.4001 19.9191 30.4113 19.9186 30.4143 19.9185C30.4158 19.9185 30.4183 19.9184 30.4192 19.9184C30.4209 19.9184 30.4222 19.9184 30.4227 19.9184C30.4237 19.9184 30.4245 19.9184 30.4247 19.9183C30.4253 19.9183 30.4258 19.9183 30.426 19.9183C30.4266 19.9183 30.4276 19.9183 30.4281 19.9183C30.4296 19.9183 30.4315 19.9183 30.4331 19.9183C30.4356 19.9183 30.435 19.9183 30.433 19.9183C30.4324 19.9183 30.4301 19.9183 30.427 19.9184C30.4256 19.9185 30.4222 19.9186 30.418 19.9188C30.4159 19.9189 30.4123 19.919 30.4079 19.9193C30.4044 19.9195 30.3955 19.9201 30.384 19.9212C30.3784 19.9218 30.3677 19.9229 30.3541 19.925C30.3478 19.926 30.3329 19.9286 30.3245 19.9302C30.3128 19.9327 30.2838 19.9398 30.2666 19.9448C30.2391 19.9539 30.1632 19.9871 30.1165 20.014C30.0239 20.0864 29.85 20.3885 29.8404 20.6227C29.9006 20.809 30.0842 21.024 30.1593 21.071C30.1977 21.0896 30.2602 21.1133 30.2835 21.1202C30.2984 21.1241 30.3238 21.1298 30.3342 21.1318C30.3418 21.1331 30.3553 21.1353 30.3612 21.1361C30.3737 21.1379 30.3837 21.1389 30.389 21.1394C30.3999 21.1404 30.4084 21.1408 30.4118 21.141C30.4194 21.1414 30.4253 21.1416 30.427 21.1417C30.4296 21.1417 30.4316 21.1418 30.4326 21.1418C30.4361 21.1419 30.4382 21.1419 30.4369 21.1419C30.4364 21.1419 30.4351 21.1419 30.4328 21.1418C30.4234 21.1418 30.4039 21.1418 30.3672 21.1418V19.918C30.4039 19.918 30.4254 19.918 30.4374 19.9181C30.4404 19.9181 30.4433 19.9181 30.4458 19.9181C30.4476 19.9181 30.4518 19.9182 30.4565 19.9182C30.4578 19.9183 30.4601 19.9183 30.4628 19.9184C30.4647 19.9185 30.4708 19.9186 30.4785 19.9191C30.482 19.9192 30.4905 19.9197 30.5014 19.9207C30.5068 19.9212 30.5168 19.9222 30.5293 19.924C30.5352 19.9248 30.5487 19.927 30.5563 19.9283C30.5668 19.9303 30.5922 19.936 30.6071 19.9399C30.6303 19.9468 30.6929 19.9705 30.7312 19.9891C30.8064 20.0361 30.9899 20.2511 31.0501 20.4374C31.0406 20.6716 30.8667 20.9737 30.7741 21.0461C30.7273 21.0731 30.6514 21.1062 30.6239 21.1153C30.6067 21.1203 30.5778 21.1274 30.566 21.1299C30.5576 21.1316 30.5427 21.1341 30.5364 21.1351C30.5228 21.1372 30.512 21.1383 30.5065 21.1389C30.495 21.14 30.486 21.1406 30.4825 21.1408C30.478 21.1411 30.4744 21.1413 30.4722 21.1414C30.4678 21.1416 30.4643 21.1417 30.4627 21.1417C30.4591 21.1418 30.4563 21.1419 30.4551 21.1419C30.4504 21.142 30.4455 21.142 30.4436 21.142C30.4407 21.1421 30.438 21.1421 30.4363 21.1421C30.4359 21.1421 30.4356 21.1421 30.4353 21.1421C30.435 21.1421 30.435 21.1421 30.4351 21.1421C30.4351 21.1421 30.4352 21.1421 30.4353 21.1421C30.4354 21.1421 30.4357 21.1421 30.436 21.1421C30.4361 21.1421 30.4369 21.1421 30.4379 21.1421C30.4383 21.1421 30.4396 21.142 30.4413 21.142C30.4422 21.142 30.4447 21.1419 30.4463 21.1419C30.4492 21.1418 30.4604 21.1414 30.4686 21.1409C30.5851 21.1222 31.0312 20.415 30.4731 19.9198C30.4608 19.9191 30.4447 19.9185 30.441 19.9184C30.4365 19.9183 30.4329 19.9183 30.4329 19.9183C30.4312 19.9183 30.4299 19.9183 30.4298 19.9183C30.4294 19.9183 30.4291 19.9183 30.429 19.9183C30.4289 19.9183 30.4287 19.9183 30.4287 19.9183C30.4286 19.9183 30.4289 19.9183 30.4303 19.9183C30.4315 19.9183 30.4331 19.9183 30.4354 19.9183L30.4405 21.1421ZM30.3672 21.1418H13.6328V19.918H30.3672V21.1418ZM13.6328 21.1418C13.5961 21.1418 13.5766 21.1418 13.5672 21.1418C13.5649 21.1419 13.5636 21.1419 13.5631 21.1419C13.5618 21.1419 13.5639 21.1419 13.5674 21.1418C13.5684 21.1418 13.5704 21.1417 13.573 21.1417C13.5747 21.1416 13.5806 21.1414 13.5882 21.141C13.5916 21.1408 13.6001 21.1404 13.611 21.1394C13.6163 21.1389 13.6263 21.1379 13.6388 21.1361C13.6446 21.1353 13.6581 21.1332 13.6657 21.1318C13.6761 21.1298 13.7014 21.1241 13.7163 21.1202C13.7395 21.1134 13.8018 21.0899 13.84 21.0714C13.9148 21.0248 14.0982 20.8112 14.159 20.6261C14.1507 20.3913 13.9773 20.0875 13.8844 20.0146C13.8375 19.9874 13.7612 19.9541 13.7337 19.9449C13.7164 19.9399 13.6874 19.9327 13.6757 19.9302C13.6672 19.9286 13.6523 19.926 13.6459 19.925C13.6324 19.923 13.6216 19.9218 13.616 19.9212C13.6046 19.9201 13.5956 19.9195 13.5921 19.9193C13.5877 19.919 13.5841 19.9189 13.582 19.9188C13.5778 19.9186 13.5744 19.9185 13.573 19.9184C13.5699 19.9183 13.5676 19.9183 13.567 19.9183C13.565 19.9183 13.5644 19.9183 13.5669 19.9183C13.5685 19.9183 13.5704 19.9183 13.5719 19.9183C13.5724 19.9183 13.5734 19.9183 13.574 19.9183C13.5742 19.9183 13.5747 19.9183 13.5753 19.9183C13.5755 19.9184 13.5763 19.9184 13.5774 19.9184C13.5778 19.9184 13.5791 19.9184 13.5808 19.9184C13.5817 19.9184 13.5842 19.9185 13.5857 19.9185C13.5887 19.9186 13.6 19.9191 13.6083 19.9195C13.7303 19.9398 14.1695 20.6512 13.6123 21.1406C13.6001 21.1414 13.5842 21.1419 13.5804 21.142C13.576 21.1421 13.5724 21.1421 13.5723 21.1421C13.5707 21.1421 13.5693 21.1421 13.5692 21.1421C13.5684 21.1421 13.5678 21.1421 13.5677 21.1421C13.5665 21.1421 13.5636 21.1421 13.5595 21.1421L13.5646 19.9183C13.5669 19.9183 13.5685 19.9183 13.5697 19.9183C13.5711 19.9183 13.5714 19.9183 13.5713 19.9183C13.5713 19.9183 13.5711 19.9183 13.571 19.9183C13.5709 19.9183 13.5706 19.9183 13.5702 19.9183C13.5701 19.9183 13.5688 19.9183 13.5671 19.9183C13.5671 19.9183 13.5635 19.9183 13.559 19.9184C13.5553 19.9185 13.5394 19.9191 13.5272 19.9198C12.9699 20.4092 13.4092 21.1207 13.5311 21.1409C13.5394 21.1414 13.5507 21.1418 13.5537 21.1419C13.5553 21.1419 13.5577 21.142 13.5587 21.142C13.5604 21.142 13.5617 21.1421 13.5621 21.1421C13.5631 21.1421 13.5639 21.1421 13.564 21.1421C13.5643 21.1421 13.5646 21.1421 13.5647 21.1421C13.5648 21.1421 13.5649 21.1421 13.5649 21.1421C13.565 21.1421 13.565 21.1421 13.5647 21.1421C13.5644 21.1421 13.5641 21.1421 13.5637 21.1421C13.562 21.1421 13.5593 21.1421 13.5564 21.142C13.5545 21.142 13.5496 21.142 13.5449 21.1419C13.5437 21.1419 13.5409 21.1418 13.5373 21.1417C13.5357 21.1417 13.5322 21.1416 13.5278 21.1414C13.5256 21.1413 13.522 21.1411 13.5175 21.1408C13.514 21.1406 13.505 21.14 13.4935 21.1389C13.4879 21.1383 13.4771 21.1372 13.4636 21.1351C13.4572 21.1341 13.4423 21.1315 13.4338 21.1299C13.4221 21.1274 13.393 21.1202 13.3758 21.1152C13.3482 21.106 13.272 21.0727 13.2251 21.0455C13.1321 20.9726 12.9588 20.6688 12.9504 20.434C13.0113 20.2489 13.1946 20.0353 13.2695 19.9887C13.3077 19.9702 13.37 19.9467 13.3932 19.9399C13.408 19.936 13.4334 19.9303 13.4438 19.9283C13.4514 19.9269 13.4649 19.9248 13.4707 19.9239C13.4832 19.9222 13.4932 19.9212 13.4986 19.9207C13.5095 19.9197 13.518 19.9192 13.5215 19.9191C13.5292 19.9186 13.5353 19.9185 13.5372 19.9184C13.5399 19.9183 13.5422 19.9183 13.5436 19.9182C13.5482 19.9182 13.5524 19.9181 13.5542 19.9181C13.5567 19.9181 13.5596 19.9181 13.5626 19.9181C13.5746 19.918 13.5961 19.918 13.6328 19.918V21.1418ZM13.559 21.1421C13.3429 21.141 13.2563 21.1444 13.1389 21.1859L12.7314 20.0319C13.0701 19.9123 13.3503 19.9173 13.565 19.9183L13.559 21.1421ZM13.1387 21.1859C12.9024 21.2693 12.7446 21.4459 12.6657 21.6753L11.5084 21.2774C11.6939 20.738 12.1018 20.2541 12.7316 20.0319L13.1387 21.1859ZM12.6657 21.6755C12.6302 21.7787 12.6119 21.8893 12.6119 21.9999H11.3881C11.3881 21.7565 11.428 21.5111 11.5085 21.2772L12.6657 21.6755ZM12.6119 21.9999C12.6119 22.1105 12.6302 22.2211 12.6657 22.3243L11.5085 22.7226C11.428 22.4887 11.3881 22.2433 11.3881 21.9999H12.6119ZM12.6657 22.3243C12.7448 22.554 12.9025 22.7305 13.1388 22.8138L12.7316 23.9679C12.1017 23.7457 11.6941 23.2617 11.5085 22.7226L12.6657 22.3243ZM13.1388 22.8139C13.2564 22.8553 13.3426 22.8586 13.5595 22.8577L13.5646 24.0815C13.3506 24.0824 13.0704 24.0875 12.7315 23.9679L13.1388 22.8139ZM13.5595 22.8577C13.5636 22.8577 13.5665 22.8577 13.5677 22.8577C13.5678 22.8577 13.5684 22.8577 13.5692 22.8577C13.5693 22.8577 13.5707 22.8577 13.5723 22.8577C13.5724 22.8577 13.576 22.8577 13.5804 22.8578C13.5842 22.8578 13.6002 22.8584 13.6124 22.8592C14.1699 23.3505 13.7284 24.0605 13.6082 24.0803C13.6 24.0807 13.5887 24.0812 13.5857 24.0813C13.5842 24.0813 13.5817 24.0813 13.5808 24.0814C13.5791 24.0814 13.5778 24.0814 13.5774 24.0814C13.5763 24.0814 13.5755 24.0814 13.5753 24.0814C13.5747 24.0814 13.5742 24.0814 13.574 24.0815C13.5734 24.0815 13.5724 24.0815 13.5719 24.0815C13.5704 24.0815 13.5685 24.0815 13.5669 24.0815C13.5644 24.0815 13.565 24.0815 13.567 24.0815C13.5676 24.0815 13.5699 24.0814 13.573 24.0813C13.5744 24.0813 13.5778 24.0812 13.582 24.081C13.5841 24.0809 13.5877 24.0808 13.5921 24.0805C13.5956 24.0803 13.6046 24.0797 13.616 24.0786C13.6216 24.078 13.6324 24.0768 13.6459 24.0748C13.6523 24.0738 13.6672 24.0712 13.6757 24.0696C13.6874 24.0671 13.7165 24.0599 13.7337 24.0549C13.7613 24.0457 13.8376 24.0123 13.8846 23.9851C13.9776 23.912 14.1508 23.6079 14.1589 23.373C14.0979 23.1881 13.9146 22.9749 13.8398 22.9283C13.8017 22.9099 13.7394 22.8864 13.7162 22.8795C13.7014 22.8757 13.6761 22.87 13.6656 22.868C13.658 22.8666 13.6446 22.8645 13.6387 22.8636C13.6263 22.8619 13.6163 22.8609 13.6109 22.8604C13.6001 22.8594 13.5916 22.8589 13.5882 22.8588C13.5806 22.8583 13.5747 22.8582 13.573 22.8581C13.5704 22.858 13.5684 22.858 13.5674 22.858C13.5639 22.8579 13.5618 22.8579 13.5631 22.8579C13.5636 22.8579 13.5649 22.8579 13.5672 22.8579C13.5766 22.858 13.5961 22.858 13.6328 22.858V24.0818C13.5961 24.0818 13.5746 24.0818 13.5626 24.0817C13.5596 24.0817 13.5567 24.0817 13.5542 24.0817C13.5524 24.0817 13.5482 24.0816 13.5436 24.0815C13.5422 24.0815 13.5399 24.0815 13.5372 24.0814C13.5353 24.0813 13.5292 24.0812 13.5215 24.0807C13.518 24.0805 13.5095 24.0801 13.4986 24.0791C13.4932 24.0786 13.4832 24.0776 13.4708 24.0758C13.4649 24.075 13.4515 24.0729 13.4439 24.0715C13.4334 24.0695 13.4081 24.0638 13.3932 24.0599C13.37 24.0531 13.3078 24.0296 13.2696 24.0112C13.1948 23.9646 13.0115 23.7514 12.9505 23.5665C12.9586 23.3316 13.1319 23.0275 13.2249 22.9544C13.2718 22.9272 13.3481 22.8938 13.3757 22.8846C13.393 22.8796 13.422 22.8724 13.4338 22.8699C13.4423 22.8683 13.4572 22.8657 13.4635 22.8647C13.4771 22.8626 13.4879 22.8615 13.4935 22.8609C13.505 22.8598 13.514 22.8592 13.5175 22.859C13.522 22.8587 13.5256 22.8585 13.5278 22.8584C13.5322 22.8582 13.5357 22.8581 13.5373 22.8581C13.5409 22.858 13.5437 22.8579 13.5449 22.8579C13.5496 22.8578 13.5545 22.8578 13.5564 22.8578C13.5593 22.8577 13.562 22.8577 13.5637 22.8577C13.5641 22.8577 13.5644 22.8577 13.5647 22.8577C13.565 22.8577 13.565 22.8577 13.5649 22.8577C13.5649 22.8577 13.5648 22.8577 13.5647 22.8577C13.5646 22.8577 13.5643 22.8577 13.564 22.8577C13.5639 22.8577 13.5631 22.8577 13.5621 22.8577C13.5617 22.8577 13.5604 22.8577 13.5587 22.8578C13.5578 22.8578 13.5553 22.8578 13.5537 22.8579C13.5507 22.858 13.5395 22.8584 13.5312 22.8589C13.4111 22.8786 12.9695 23.5887 13.5271 24.08C13.5393 24.0807 13.5553 24.0813 13.559 24.0814C13.5635 24.0814 13.5671 24.0815 13.5671 24.0815C13.5688 24.0815 13.5701 24.0815 13.5702 24.0815C13.5706 24.0815 13.5709 24.0815 13.571 24.0815C13.5711 24.0815 13.5713 24.0815 13.5713 24.0815C13.5714 24.0815 13.5711 24.0815 13.5697 24.0815C13.5685 24.0815 13.5669 24.0815 13.5646 24.0815L13.5595 22.8577ZM13.6328 22.858H22V24.0818H13.6328V22.858Z" fill="url(#paint2_linear_1244_33306)" mask="url(#path-2-inside-1_1244_33306)"/>
</g>
<defs>
<filter id="filter0_bd_1244_33306" x="-0.648453" y="0.351547" width="45.2969" height="45.5485" filterUnits="userSpaceOnUse" color-interpolation-filters="sRGB">
<feFlood flood-opacity="0" result="BackgroundImageFix"/>
<feGaussianBlur in="BackgroundImageFix" stdDeviation="6.32423"/>
<feComposite in2="SourceAlpha" operator="in" result="effect1_backgroundBlur_1244_33306"/>
<feColorMatrix in="SourceAlpha" type="matrix" values="0 0 0 0 0 0 0 0 0 0 0 0 0 0 0 0 0 0 127 0" result="hardAlpha"/>
<feOffset dy="4"/>
<feGaussianBlur stdDeviation="5.45"/>
<feComposite in2="hardAlpha" operator="out"/>
<feColorMatrix type="matrix" values="0 0 0 0 0.305635 0 0 0 0 0.0867188 0 0 0 0 0.770833 0 0 0 1 0"/>
<feBlend mode="normal" in2="effect1_backgroundBlur_1244_33306" result="effect2_dropShadow_1244_33306"/>
<feBlend mode="normal" in="SourceGraphic" in2="effect2_dropShadow_1244_33306" result="shape"/>
</filter>
<linearGradient id="paint0_linear_1244_33306" x1="45.1351" y1="-3.29186" x2="-21.4714" y2="45.2775" gradientUnits="userSpaceOnUse">
<stop stop-color="white" stop-opacity="0.4"/>
<stop offset="1" stop-opacity="0"/>
</linearGradient>
<linearGradient id="paint1_linear_1244_33306" x1="12.3704" y1="13" x2="35.5143" y2="18.4611" gradientUnits="userSpaceOnUse">
<stop stop-color="#00A7F7"/>
<stop offset="1" stop-color="#00FC92"/>
</linearGradient>
<linearGradient id="paint2_linear_1244_33306" x1="32" y1="16.375" x2="23.7948" y2="31.3484" gradientUnits="userSpaceOnUse">
<stop stop-color="white"/>
<stop offset="0.99715" stop-color="white" stop-opacity="0"/>
</linearGradient>
</defs>
</svg>

