<svg width="353" height="29" viewBox="0 0 353 29" fill="none" xmlns="http://www.w3.org/2000/svg">
<path d="M10 25H334" stroke="white" stroke-opacity="0.13" stroke-width="8" stroke-linecap="round"/>
<line x1="8.5" y1="12" x2="8.5" y2="21" stroke="white"/>
<path d="M3.68182 9.11932C3.06818 9.11932 2.54403 8.94318 2.10938 8.59091C1.67756 8.2358 1.34517 7.72301 1.11222 7.05256C0.882102 6.3821 0.767045 5.5767 0.767045 4.63636C0.767045 3.69886 0.882102 2.89631 1.11222 2.22869C1.34517 1.55824 1.67898 1.04545 2.11364 0.690341C2.55114 0.332386 3.07386 0.153409 3.68182 0.153409C4.28977 0.153409 4.81108 0.332386 5.24574 0.690341C5.68324 1.04545 6.01705 1.55824 6.24716 2.22869C6.48011 2.89631 6.59659 3.69886 6.59659 4.63636C6.59659 5.5767 6.48011 6.3821 6.24716 7.05256C6.01705 7.72301 5.68466 8.2358 5.25 8.59091C4.81818 8.94318 4.29545 9.11932 3.68182 9.11932ZM3.68182 8.40341C4.35511 8.40341 4.88068 8.07528 5.25852 7.41903C5.63636 6.75994 5.82528 5.83239 5.82528 4.63636C5.82528 3.84091 5.73864 3.16193 5.56534 2.59943C5.39489 2.03409 5.14915 1.60227 4.82812 1.30398C4.50994 1.00568 4.12784 0.856534 3.68182 0.856534C3.0142 0.856534 2.49006 1.18892 2.10938 1.85369C1.72869 2.51562 1.53835 3.44318 1.53835 4.63636C1.53835 5.43182 1.62358 6.1108 1.79403 6.6733C1.96733 7.2358 2.21307 7.66477 2.53125 7.96023C2.85227 8.25568 3.2358 8.40341 3.68182 8.40341ZM12.5057 7.38068V6.98438C12.5057 6.65767 12.5711 6.36364 12.7018 6.10227C12.8324 5.83807 13.0185 5.62926 13.26 5.47585C13.5015 5.32244 13.7884 5.24574 14.1208 5.24574C14.456 5.24574 14.743 5.32244 14.9816 5.47585C15.2202 5.62926 15.4035 5.83807 15.5313 6.10227C15.6591 6.36364 15.7231 6.65767 15.7231 6.98438V7.38068C15.7231 7.70739 15.6577 8.00142 15.527 8.26278C15.3992 8.52415 15.216 8.73295 14.9773 8.8892C14.7387 9.04261 14.4532 9.11932 14.1208 9.11932C13.7827 9.11932 13.493 9.04261 13.2515 8.8892C13.0128 8.73295 12.8282 8.52415 12.6975 8.26278C12.5697 8.00142 12.5057 7.70739 12.5057 7.38068ZM13.1748 6.98438V7.38068C13.1748 7.7017 13.2529 7.97585 13.4091 8.20312C13.5682 8.42756 13.8055 8.53977 14.1208 8.53977C14.4276 8.53977 14.6591 8.42756 14.8154 8.20312C14.9716 7.97585 15.0498 7.7017 15.0498 7.38068V6.98438C15.0498 6.66335 14.9731 6.39062 14.8197 6.16619C14.6663 5.93892 14.4333 5.82528 14.1208 5.82528C13.8111 5.82528 13.5753 5.93892 13.4134 6.16619C13.2543 6.39062 13.1748 6.66335 13.1748 6.98438ZM8.10801 2.28835V1.89205C8.10801 1.56534 8.17335 1.27131 8.30403 1.00994C8.43472 0.748579 8.6208 0.541193 8.86227 0.387784C9.10375 0.231534 9.39068 0.153409 9.72307 0.153409C10.0583 0.153409 10.3452 0.231534 10.5839 0.387784C10.8225 0.541193 11.0057 0.748579 11.1336 1.00994C11.2614 1.27131 11.3253 1.56534 11.3253 1.89205V2.28835C11.3253 2.61506 11.26 2.91051 11.1293 3.17472C11.0015 3.43608 10.8182 3.64347 10.5796 3.79688C10.341 3.95028 10.0555 4.02699 9.72307 4.02699C9.385 4.02699 9.09523 3.95028 8.85375 3.79688C8.61511 3.64347 8.43045 3.43608 8.29977 3.17472C8.17193 2.91051 8.10801 2.61506 8.10801 2.28835ZM8.77705 1.89205V2.28835C8.77705 2.60937 8.85517 2.88352 9.01142 3.1108C9.17051 3.33523 9.40773 3.44744 9.72307 3.44744C10.0299 3.44744 10.2614 3.33523 10.4177 3.1108C10.5739 2.88352 10.652 2.60937 10.652 2.28835V1.89205C10.652 1.57102 10.5753 1.2983 10.4219 1.07386C10.2685 0.846591 10.0356 0.732954 9.72307 0.732954C9.41341 0.732954 9.17761 0.846591 9.01568 1.07386C8.85659 1.2983 8.77705 1.57102 8.77705 1.89205ZM8.50006 9L14.4958 0.272727H15.2501L9.25432 9H8.50006Z" fill="white"/>
<line x1="90.5" y1="12" x2="90.5" y2="21" stroke="white"/>
<path d="M83.9716 9V8.41619L86.8224 5.21165C87.1946 4.79119 87.4943 4.43182 87.7216 4.13352C87.9489 3.83523 88.1136 3.55966 88.2159 3.30682C88.321 3.05398 88.3736 2.79119 88.3736 2.51847C88.3736 2.18608 88.2955 1.89631 88.1392 1.64915C87.9858 1.39915 87.7741 1.20455 87.5043 1.06534C87.2344 0.926136 86.9304 0.856534 86.5923 0.856534C86.2344 0.856534 85.9205 0.933238 85.6506 1.08665C85.3835 1.24006 85.1761 1.45028 85.0284 1.71733C84.8807 1.98437 84.8068 2.29119 84.8068 2.63778H84.044C84.044 2.15483 84.1548 1.72727 84.3764 1.35511C84.6009 0.980114 84.9063 0.686079 85.2926 0.473011C85.6818 0.259943 86.1222 0.153409 86.6136 0.153409C87.0994 0.153409 87.5313 0.258523 87.9091 0.46875C88.2869 0.676136 88.5838 0.958806 88.7997 1.31676C89.0156 1.67472 89.1236 2.07528 89.1236 2.51847C89.1236 2.83949 89.0668 3.15057 88.9531 3.4517C88.8423 3.75284 88.6506 4.08807 88.3778 4.45739C88.1051 4.8267 87.7273 5.27841 87.2443 5.8125L85.0795 8.22869V8.28409H89.3963V9H83.9716ZM93.6084 9.11932C93.1226 9.11932 92.6879 9.02131 92.3044 8.82528C91.9237 8.62642 91.6197 8.35369 91.3925 8.0071C91.168 7.66051 91.0487 7.2642 91.0345 6.81818H91.8058C91.8314 7.28125 92.0132 7.66193 92.3513 7.96023C92.6893 8.25568 93.1084 8.40341 93.6084 8.40341C93.9976 8.40341 94.3442 8.31108 94.6481 8.12642C94.9521 7.93892 95.1893 7.68324 95.3598 7.35938C95.5331 7.03267 95.6197 6.66477 95.6197 6.25568C95.6169 5.82955 95.5246 5.45455 95.3427 5.13068C95.1609 4.80398 94.9138 4.5483 94.6013 4.36364C94.2916 4.17898 93.9436 4.08665 93.5572 4.08665C93.2646 4.08381 92.9777 4.1321 92.6964 4.23153C92.4152 4.33097 92.1808 4.45881 91.9933 4.61506L91.1964 4.51278L91.7206 0.272727H96.0331V0.988636H92.3896L92.0402 3.90767H92.0828C92.276 3.74574 92.5104 3.61364 92.7859 3.51136C93.0643 3.40909 93.3584 3.35795 93.668 3.35795C94.1822 3.35795 94.6439 3.48153 95.053 3.72869C95.4649 3.97585 95.7902 4.31676 96.0288 4.75142C96.2703 5.18324 96.391 5.6804 96.391 6.2429C96.391 6.79403 96.2703 7.28693 96.0288 7.72159C95.7902 8.15341 95.4606 8.49432 95.0402 8.74432C94.6226 8.99432 94.1453 9.11932 93.6084 9.11932ZM102.379 7.38068V6.98438C102.379 6.65767 102.444 6.36364 102.575 6.10227C102.706 5.83807 102.892 5.62926 103.133 5.47585C103.375 5.32244 103.662 5.24574 103.994 5.24574C104.329 5.24574 104.616 5.32244 104.855 5.47585C105.094 5.62926 105.277 5.83807 105.405 6.10227C105.532 6.36364 105.596 6.65767 105.596 6.98438V7.38068C105.596 7.70739 105.531 8.00142 105.4 8.26278C105.272 8.52415 105.089 8.73295 104.851 8.8892C104.612 9.04261 104.326 9.11932 103.994 9.11932C103.656 9.11932 103.366 9.04261 103.125 8.8892C102.886 8.73295 102.701 8.52415 102.571 8.26278C102.443 8.00142 102.379 7.70739 102.379 7.38068ZM103.048 6.98438V7.38068C103.048 7.7017 103.126 7.97585 103.282 8.20312C103.442 8.42756 103.679 8.53977 103.994 8.53977C104.301 8.53977 104.532 8.42756 104.689 8.20312C104.845 7.97585 104.923 7.7017 104.923 7.38068V6.98438C104.923 6.66335 104.846 6.39062 104.693 6.16619C104.54 5.93892 104.307 5.82528 103.994 5.82528C103.684 5.82528 103.449 5.93892 103.287 6.16619C103.128 6.39062 103.048 6.66335 103.048 6.98438ZM97.9813 2.28835V1.89205C97.9813 1.56534 98.0466 1.27131 98.1773 1.00994C98.308 0.748579 98.4941 0.541193 98.7356 0.387784C98.977 0.231534 99.264 0.153409 99.5963 0.153409C99.9316 0.153409 100.219 0.231534 100.457 0.387784C100.696 0.541193 100.879 0.748579 101.007 1.00994C101.135 1.27131 101.199 1.56534 101.199 1.89205V2.28835C101.199 2.61506 101.133 2.91051 101.003 3.17472C100.875 3.43608 100.692 3.64347 100.453 3.79688C100.214 3.95028 99.9287 4.02699 99.5963 4.02699C99.2583 4.02699 98.9685 3.95028 98.727 3.79688C98.4884 3.64347 98.3037 3.43608 98.1731 3.17472C98.0452 2.91051 97.9813 2.61506 97.9813 2.28835ZM98.6503 1.89205V2.28835C98.6503 2.60937 98.7285 2.88352 98.8847 3.1108C99.0438 3.33523 99.281 3.44744 99.5963 3.44744C99.9032 3.44744 100.135 3.33523 100.291 3.1108C100.447 2.88352 100.525 2.60937 100.525 2.28835V1.89205C100.525 1.57102 100.449 1.2983 100.295 1.07386C100.142 0.846591 99.9088 0.732954 99.5963 0.732954C99.2867 0.732954 99.0509 0.846591 98.889 1.07386C98.7299 1.2983 98.6503 1.57102 98.6503 1.89205ZM98.3733 9L104.369 0.272727H105.123L99.1276 9H98.3733Z" fill="white"/>
<line x1="172.5" y1="12" x2="172.5" y2="21" stroke="white"/>
<path d="M166.524 9.11932C166.038 9.11932 165.604 9.02131 165.22 8.82528C164.839 8.62642 164.536 8.35369 164.308 8.0071C164.084 7.66051 163.964 7.2642 163.95 6.81818H164.722C164.747 7.28125 164.929 7.66193 165.267 7.96023C165.605 8.25568 166.024 8.40341 166.524 8.40341C166.913 8.40341 167.26 8.31108 167.564 8.12642C167.868 7.93892 168.105 7.68324 168.276 7.35938C168.449 7.03267 168.536 6.66477 168.536 6.25568C168.533 5.82955 168.44 5.45455 168.259 5.13068C168.077 4.80398 167.83 4.5483 167.517 4.36364C167.207 4.17898 166.859 4.08665 166.473 4.08665C166.18 4.08381 165.893 4.1321 165.612 4.23153C165.331 4.33097 165.097 4.45881 164.909 4.61506L164.112 4.51278L164.636 0.272727H168.949V0.988636H165.305L164.956 3.90767H164.999C165.192 3.74574 165.426 3.61364 165.702 3.51136C165.98 3.40909 166.274 3.35795 166.584 3.35795C167.098 3.35795 167.56 3.48153 167.969 3.72869C168.381 3.97585 168.706 4.31676 168.945 4.75142C169.186 5.18324 169.307 5.6804 169.307 6.2429C169.307 6.79403 169.186 7.28693 168.945 7.72159C168.706 8.15341 168.376 8.49432 167.956 8.74432C167.538 8.99432 167.061 9.11932 166.524 9.11932ZM173.59 9.11932C172.977 9.11932 172.452 8.94318 172.018 8.59091C171.586 8.2358 171.254 7.72301 171.021 7.05256C170.791 6.3821 170.675 5.5767 170.675 4.63636C170.675 3.69886 170.791 2.89631 171.021 2.22869C171.254 1.55824 171.587 1.04545 172.022 0.690341C172.46 0.332386 172.982 0.153409 173.59 0.153409C174.198 0.153409 174.72 0.332386 175.154 0.690341C175.592 1.04545 175.925 1.55824 176.156 2.22869C176.389 2.89631 176.505 3.69886 176.505 4.63636C176.505 5.5767 176.389 6.3821 176.156 7.05256C175.925 7.72301 175.593 8.2358 175.158 8.59091C174.727 8.94318 174.204 9.11932 173.59 9.11932ZM173.59 8.40341C174.264 8.40341 174.789 8.07528 175.167 7.41903C175.545 6.75994 175.734 5.83239 175.734 4.63636C175.734 3.84091 175.647 3.16193 175.474 2.59943C175.303 2.03409 175.058 1.60227 174.737 1.30398C174.418 1.00568 174.036 0.856534 173.59 0.856534C172.923 0.856534 172.398 1.18892 172.018 1.85369C171.637 2.51562 171.447 3.44318 171.447 4.63636C171.447 5.43182 171.532 6.1108 171.702 6.6733C171.876 7.2358 172.122 7.66477 172.44 7.96023C172.761 8.25568 173.144 8.40341 173.59 8.40341ZM182.414 7.38068V6.98438C182.414 6.65767 182.48 6.36364 182.61 6.10227C182.741 5.83807 182.927 5.62926 183.168 5.47585C183.41 5.32244 183.697 5.24574 184.029 5.24574C184.364 5.24574 184.651 5.32244 184.89 5.47585C185.129 5.62926 185.312 5.83807 185.44 6.10227C185.568 6.36364 185.632 6.65767 185.632 6.98438V7.38068C185.632 7.70739 185.566 8.00142 185.435 8.26278C185.308 8.52415 185.124 8.73295 184.886 8.8892C184.647 9.04261 184.362 9.11932 184.029 9.11932C183.691 9.11932 183.401 9.04261 183.16 8.8892C182.921 8.73295 182.737 8.52415 182.606 8.26278C182.478 8.00142 182.414 7.70739 182.414 7.38068ZM183.083 6.98438V7.38068C183.083 7.7017 183.161 7.97585 183.318 8.20312C183.477 8.42756 183.714 8.53977 184.029 8.53977C184.336 8.53977 184.568 8.42756 184.724 8.20312C184.88 7.97585 184.958 7.7017 184.958 7.38068V6.98438C184.958 6.66335 184.882 6.39062 184.728 6.16619C184.575 5.93892 184.342 5.82528 184.029 5.82528C183.72 5.82528 183.484 5.93892 183.322 6.16619C183.163 6.39062 183.083 6.66335 183.083 6.98438ZM178.016 2.28835V1.89205C178.016 1.56534 178.082 1.27131 178.212 1.00994C178.343 0.748579 178.529 0.541193 178.771 0.387784C179.012 0.231534 179.299 0.153409 179.632 0.153409C179.967 0.153409 180.254 0.231534 180.492 0.387784C180.731 0.541193 180.914 0.748579 181.042 1.00994C181.17 1.27131 181.234 1.56534 181.234 1.89205V2.28835C181.234 2.61506 181.168 2.91051 181.038 3.17472C180.91 3.43608 180.727 3.64347 180.488 3.79688C180.249 3.95028 179.964 4.02699 179.632 4.02699C179.293 4.02699 179.004 3.95028 178.762 3.79688C178.524 3.64347 178.339 3.43608 178.208 3.17472C178.08 2.91051 178.016 2.61506 178.016 2.28835ZM178.685 1.89205V2.28835C178.685 2.60937 178.764 2.88352 178.92 3.1108C179.079 3.33523 179.316 3.44744 179.632 3.44744C179.938 3.44744 180.17 3.33523 180.326 3.1108C180.482 2.88352 180.56 2.60937 180.56 2.28835V1.89205C180.56 1.57102 180.484 1.2983 180.33 1.07386C180.177 0.846591 179.944 0.732954 179.632 0.732954C179.322 0.732954 179.086 0.846591 178.924 1.07386C178.765 1.2983 178.685 1.57102 178.685 1.89205ZM178.408 9L184.404 0.272727H185.158L179.163 9H178.408Z" fill="white"/>
<line x1="254.5" y1="12" x2="254.5" y2="21" stroke="white"/>
<path d="M244.223 9L248.199 1.04403V0.988636H243.618V0.272727H249.034V1.02273L245.062 9H244.223ZM252.929 9.11932C252.443 9.11932 252.008 9.02131 251.625 8.82528C251.244 8.62642 250.94 8.35369 250.713 8.0071C250.488 7.66051 250.369 7.2642 250.355 6.81818H251.126C251.152 7.28125 251.334 7.66193 251.672 7.96023C252.01 8.25568 252.429 8.40341 252.929 8.40341C253.318 8.40341 253.664 8.31108 253.968 8.12642C254.272 7.93892 254.51 7.68324 254.68 7.35938C254.853 7.03267 254.94 6.66477 254.94 6.25568C254.937 5.82955 254.845 5.45455 254.663 5.13068C254.481 4.80398 254.234 4.5483 253.922 4.36364C253.612 4.17898 253.264 4.08665 252.878 4.08665C252.585 4.08381 252.298 4.1321 252.017 4.23153C251.735 4.33097 251.501 4.45881 251.314 4.61506L250.517 4.51278L251.041 0.272727H255.353V0.988636H251.71L251.36 3.90767H251.403C251.596 3.74574 251.831 3.61364 252.106 3.51136C252.385 3.40909 252.679 3.35795 252.988 3.35795C253.503 3.35795 253.964 3.48153 254.373 3.72869C254.785 3.97585 255.11 4.31676 255.349 4.75142C255.591 5.18324 255.711 5.6804 255.711 6.2429C255.711 6.79403 255.591 7.28693 255.349 7.72159C255.11 8.15341 254.781 8.49432 254.36 8.74432C253.943 8.99432 253.466 9.11932 252.929 9.11932ZM261.699 7.38068V6.98438C261.699 6.65767 261.765 6.36364 261.895 6.10227C262.026 5.83807 262.212 5.62926 262.454 5.47585C262.695 5.32244 262.982 5.24574 263.314 5.24574C263.65 5.24574 263.937 5.32244 264.175 5.47585C264.414 5.62926 264.597 5.83807 264.725 6.10227C264.853 6.36364 264.917 6.65767 264.917 6.98438V7.38068C264.917 7.70739 264.851 8.00142 264.721 8.26278C264.593 8.52415 264.41 8.73295 264.171 8.8892C263.932 9.04261 263.647 9.11932 263.314 9.11932C262.976 9.11932 262.687 9.04261 262.445 8.8892C262.206 8.73295 262.022 8.52415 261.891 8.26278C261.763 8.00142 261.699 7.70739 261.699 7.38068ZM262.368 6.98438V7.38068C262.368 7.7017 262.446 7.97585 262.603 8.20312C262.762 8.42756 262.999 8.53977 263.314 8.53977C263.621 8.53977 263.853 8.42756 264.009 8.20312C264.165 7.97585 264.243 7.7017 264.243 7.38068V6.98438C264.243 6.66335 264.167 6.39062 264.013 6.16619C263.86 5.93892 263.627 5.82528 263.314 5.82528C263.005 5.82528 262.769 5.93892 262.607 6.16619C262.448 6.39062 262.368 6.66335 262.368 6.98438ZM257.302 2.28835V1.89205C257.302 1.56534 257.367 1.27131 257.498 1.00994C257.628 0.748579 257.814 0.541193 258.056 0.387784C258.297 0.231534 258.584 0.153409 258.917 0.153409C259.252 0.153409 259.539 0.231534 259.777 0.387784C260.016 0.541193 260.199 0.748579 260.327 1.00994C260.455 1.27131 260.519 1.56534 260.519 1.89205V2.28835C260.519 2.61506 260.454 2.91051 260.323 3.17472C260.195 3.43608 260.012 3.64347 259.773 3.79688C259.535 3.95028 259.249 4.02699 258.917 4.02699C258.579 4.02699 258.289 3.95028 258.047 3.79688C257.809 3.64347 257.624 3.43608 257.493 3.17472C257.366 2.91051 257.302 2.61506 257.302 2.28835ZM257.971 1.89205V2.28835C257.971 2.60937 258.049 2.88352 258.205 3.1108C258.364 3.33523 258.601 3.44744 258.917 3.44744C259.223 3.44744 259.455 3.33523 259.611 3.1108C259.768 2.88352 259.846 2.60937 259.846 2.28835V1.89205C259.846 1.57102 259.769 1.2983 259.616 1.07386C259.462 0.846591 259.229 0.732954 258.917 0.732954C258.607 0.732954 258.371 0.846591 258.209 1.07386C258.05 1.2983 257.971 1.57102 257.971 1.89205ZM257.694 9L263.689 0.272727H264.444L258.448 9H257.694Z" fill="white"/>
<line x1="336.5" y1="12" x2="336.5" y2="21" stroke="white"/>
<path d="M326.665 0.272727V9H325.868V1.10795H325.817L323.771 2.46733V1.64062L325.834 0.272727H326.665ZM331.786 9.11932C331.172 9.11932 330.648 8.94318 330.213 8.59091C329.781 8.2358 329.449 7.72301 329.216 7.05256C328.986 6.3821 328.871 5.5767 328.871 4.63636C328.871 3.69886 328.986 2.89631 329.216 2.22869C329.449 1.55824 329.783 1.04545 330.217 0.690341C330.655 0.332386 331.178 0.153409 331.786 0.153409C332.394 0.153409 332.915 0.332386 333.349 0.690341C333.787 1.04545 334.121 1.55824 334.351 2.22869C334.584 2.89631 334.7 3.69886 334.7 4.63636C334.7 5.5767 334.584 6.3821 334.351 7.05256C334.121 7.72301 333.788 8.2358 333.354 8.59091C332.922 8.94318 332.399 9.11932 331.786 9.11932ZM331.786 8.40341C332.459 8.40341 332.984 8.07528 333.362 7.41903C333.74 6.75994 333.929 5.83239 333.929 4.63636C333.929 3.84091 333.842 3.16193 333.669 2.59943C333.499 2.03409 333.253 1.60227 332.932 1.30398C332.614 1.00568 332.232 0.856534 331.786 0.856534C331.118 0.856534 330.594 1.18892 330.213 1.85369C329.832 2.51562 329.642 3.44318 329.642 4.63636C329.642 5.43182 329.727 6.1108 329.898 6.6733C330.071 7.2358 330.317 7.66477 330.635 7.96023C330.956 8.25568 331.34 8.40341 331.786 8.40341ZM338.905 9.11932C338.291 9.11932 337.767 8.94318 337.333 8.59091C336.901 8.2358 336.568 7.72301 336.335 7.05256C336.105 6.3821 335.99 5.5767 335.99 4.63636C335.99 3.69886 336.105 2.89631 336.335 2.22869C336.568 1.55824 336.902 1.04545 337.337 0.690341C337.774 0.332386 338.297 0.153409 338.905 0.153409C339.513 0.153409 340.034 0.332386 340.469 0.690341C340.906 1.04545 341.24 1.55824 341.47 2.22869C341.703 2.89631 341.82 3.69886 341.82 4.63636C341.82 5.5767 341.703 6.3821 341.47 7.05256C341.24 7.72301 340.908 8.2358 340.473 8.59091C340.041 8.94318 339.519 9.11932 338.905 9.11932ZM338.905 8.40341C339.578 8.40341 340.104 8.07528 340.482 7.41903C340.859 6.75994 341.048 5.83239 341.048 4.63636C341.048 3.84091 340.962 3.16193 340.788 2.59943C340.618 2.03409 340.372 1.60227 340.051 1.30398C339.733 1.00568 339.351 0.856534 338.905 0.856534C338.237 0.856534 337.713 1.18892 337.333 1.85369C336.952 2.51562 336.761 3.44318 336.761 4.63636C336.761 5.43182 336.847 6.1108 337.017 6.6733C337.19 7.2358 337.436 7.66477 337.754 7.96023C338.075 8.25568 338.459 8.40341 338.905 8.40341ZM347.729 7.38068V6.98438C347.729 6.65767 347.794 6.36364 347.925 6.10227C348.056 5.83807 348.242 5.62926 348.483 5.47585C348.725 5.32244 349.012 5.24574 349.344 5.24574C349.679 5.24574 349.966 5.32244 350.205 5.47585C350.443 5.62926 350.627 5.83807 350.754 6.10227C350.882 6.36364 350.946 6.65767 350.946 6.98438V7.38068C350.946 7.70739 350.881 8.00142 350.75 8.26278C350.622 8.52415 350.439 8.73295 350.2 8.8892C349.962 9.04261 349.676 9.11932 349.344 9.11932C349.006 9.11932 348.716 9.04261 348.475 8.8892C348.236 8.73295 348.051 8.52415 347.921 8.26278C347.793 8.00142 347.729 7.70739 347.729 7.38068ZM348.398 6.98438V7.38068C348.398 7.7017 348.476 7.97585 348.632 8.20312C348.791 8.42756 349.029 8.53977 349.344 8.53977C349.651 8.53977 349.882 8.42756 350.039 8.20312C350.195 7.97585 350.273 7.7017 350.273 7.38068V6.98438C350.273 6.66335 350.196 6.39062 350.043 6.16619C349.889 5.93892 349.656 5.82528 349.344 5.82528C349.034 5.82528 348.798 5.93892 348.637 6.16619C348.477 6.39062 348.398 6.66335 348.398 6.98438ZM343.331 2.28835V1.89205C343.331 1.56534 343.396 1.27131 343.527 1.00994C343.658 0.748579 343.844 0.541193 344.085 0.387784C344.327 0.231534 344.614 0.153409 344.946 0.153409C345.281 0.153409 345.568 0.231534 345.807 0.387784C346.046 0.541193 346.229 0.748579 346.357 1.00994C346.485 1.27131 346.548 1.56534 346.548 1.89205V2.28835C346.548 2.61506 346.483 2.91051 346.352 3.17472C346.225 3.43608 346.041 3.64347 345.803 3.79688C345.564 3.95028 345.279 4.02699 344.946 4.02699C344.608 4.02699 344.318 3.95028 344.077 3.79688C343.838 3.64347 343.654 3.43608 343.523 3.17472C343.395 2.91051 343.331 2.61506 343.331 2.28835ZM344 1.89205V2.28835C344 2.60937 344.078 2.88352 344.235 3.1108C344.394 3.33523 344.631 3.44744 344.946 3.44744C345.253 3.44744 345.485 3.33523 345.641 3.1108C345.797 2.88352 345.875 2.60937 345.875 2.28835V1.89205C345.875 1.57102 345.798 1.2983 345.645 1.07386C345.492 0.846591 345.259 0.732954 344.946 0.732954C344.637 0.732954 344.401 0.846591 344.239 1.07386C344.08 1.2983 344 1.57102 344 1.89205ZM343.723 9L349.719 0.272727H350.473L344.477 9H343.723Z" fill="white"/>
</svg>
