<svg width="32" height="32" viewBox="0 0 32 32" fill="none" xmlns="http://www.w3.org/2000/svg">
<g filter="url(#filter0_b_719_27363)">
<rect width="32" height="32" rx="16" fill="white" fill-opacity="0.1"/>
<path d="M16.0031 10.8652C15.3292 10.8651 14.6618 10.9978 14.0391 11.2556C13.4165 11.5135 12.8507 11.8915 12.3742 12.3681C11.8976 12.8446 11.5196 13.4104 11.2617 14.033C11.0039 14.6557 10.8712 15.3231 10.8713 15.997C10.8712 16.671 11.0039 17.3383 11.2617 17.961C11.5196 18.5837 11.8976 19.1494 12.3742 19.626C12.8507 20.1025 13.4165 20.4805 14.0391 20.7384C14.6618 20.9962 15.3292 21.1289 16.0031 21.1288C16.6771 21.1289 17.3444 20.9962 17.9671 20.7384C18.5898 20.4805 19.1555 20.1025 19.6321 19.626C20.1086 19.1494 20.4866 18.5837 20.7445 17.961C21.0023 17.3383 21.135 16.671 21.1349 15.997C21.135 15.3231 21.0023 14.6557 20.7445 14.033C20.4866 13.4104 20.1086 12.8446 19.6321 12.3681C19.1555 11.8915 18.5898 11.5135 17.9671 11.2556C17.3444 10.9978 16.6771 10.8651 16.0031 10.8652ZM16.0031 19.3279C15.3446 19.3278 14.7008 19.1323 14.1533 18.7664C13.6058 18.4004 13.1791 17.8803 12.9272 17.2718C12.6753 16.6634 12.6094 15.9939 12.7379 15.348C12.8664 14.7021 13.1836 14.1088 13.6492 13.6431C14.1149 13.1775 14.7082 12.8603 15.3541 12.7318C16 12.6033 16.6695 12.6692 17.2779 12.9211C17.8864 13.173 18.4065 13.5997 18.7725 14.1472C19.1384 14.6947 19.3339 15.3385 19.334 15.997C19.3342 16.4345 19.2482 16.8677 19.0809 17.272C18.9136 17.6762 18.6683 18.0435 18.3589 18.3528C18.0496 18.6622 17.6823 18.9075 17.2781 19.0748C16.8738 19.2421 16.4406 19.3281 16.0031 19.3279Z" fill="url(#paint0_linear_719_27363)"/>
<path d="M20.1236 6.06282C18.2835 5.97699 13.7259 5.98116 11.8842 6.06282C10.2659 6.13866 8.83834 6.5295 7.68748 7.68036C5.76411 9.60373 6.00995 12.1955 6.00995 15.9964C6.00995 19.8865 5.79327 22.4182 7.68748 24.3124C9.61836 26.2424 12.2476 25.9899 16.0035 25.9899C19.8569 25.9899 21.1869 25.9924 22.5495 25.4649C24.402 24.7457 25.8004 23.0899 25.937 20.1156C26.0237 18.2748 26.0187 13.718 25.937 11.8763C25.772 8.36537 23.8878 6.23616 20.1236 6.06282ZM23.0361 23.0399C21.7753 24.3007 20.0261 24.1882 15.9793 24.1882C11.8126 24.1882 10.1417 24.2499 8.92251 23.0274C7.51831 21.6298 7.77248 19.3856 7.77248 15.983C7.77248 11.3788 7.29997 8.06287 11.9209 7.82619C12.9826 7.78869 13.2951 7.77619 15.9677 7.77619L16.0052 7.80119C20.4461 7.80119 23.9303 7.33618 24.1395 11.9563C24.187 13.0105 24.1978 13.3271 24.1978 15.9955C24.197 20.114 24.2753 21.7948 23.0361 23.0399Z" fill="url(#paint1_linear_719_27363)"/>
<path d="M21.3379 11.8613C22.0002 11.8613 22.5371 11.3244 22.5371 10.6621C22.5371 9.99979 22.0002 9.46289 21.3379 9.46289C20.6756 9.46289 20.1387 9.99979 20.1387 10.6621C20.1387 11.3244 20.6756 11.8613 21.3379 11.8613Z" fill="url(#paint2_linear_719_27363)"/>
</g>
<defs>
<filter id="filter0_b_719_27363" x="-5.3" y="-5.3" width="42.6" height="42.6" filterUnits="userSpaceOnUse" color-interpolation-filters="sRGB">
<feFlood flood-opacity="0" result="BackgroundImageFix"/>
<feGaussianBlur in="BackgroundImageFix" stdDeviation="2.65"/>
<feComposite in2="SourceAlpha" operator="in" result="effect1_backgroundBlur_719_27363"/>
<feBlend mode="normal" in="SourceGraphic" in2="effect1_backgroundBlur_719_27363" result="shape"/>
</filter>
<linearGradient id="paint0_linear_719_27363" x1="20.9448" y1="10.8652" x2="8.94766" y2="13.4131" gradientUnits="userSpaceOnUse">
<stop stop-color="#00A7F7"/>
<stop offset="1" stop-color="#00FC92"/>
</linearGradient>
<linearGradient id="paint1_linear_719_27363" x1="25.6298" y1="6" x2="2.25108" y2="10.9648" gradientUnits="userSpaceOnUse">
<stop stop-color="#00A7F7"/>
<stop offset="1" stop-color="#00FC92"/>
</linearGradient>
<linearGradient id="paint2_linear_719_27363" x1="22.4926" y1="9.46289" x2="19.6891" y2="10.0583" gradientUnits="userSpaceOnUse">
<stop stop-color="#00A7F7"/>
<stop offset="1" stop-color="#00FC92"/>
</linearGradient>
</defs>
</svg>
