<svg width="20" height="20" viewBox="0 0 20 20" fill="none" xmlns="http://www.w3.org/2000/svg">
<path d="M10.0032 4.86523C9.32923 4.86512 8.66187 4.99779 8.0392 5.25564C7.41653 5.5135 6.85077 5.8915 6.37422 6.36805C5.89767 6.8446 5.51967 7.41037 5.26181 8.03304C5.00395 8.6557 4.87129 9.32307 4.8714 9.99701C4.87129 10.671 5.00395 11.3383 5.26181 11.961C5.51967 12.5837 5.89767 13.1494 6.37422 13.626C6.85077 14.1025 7.41653 14.4805 8.0392 14.7384C8.66187 14.9962 9.32923 15.1289 10.0032 15.1288C10.6771 15.1289 11.3445 14.9962 11.9672 14.7384C12.5898 14.4805 13.1556 14.1025 13.6321 13.626C14.1087 13.1494 14.4867 12.5837 14.7445 11.961C15.0024 11.3383 15.1351 10.671 15.135 9.99701C15.1351 9.32307 15.0024 8.6557 14.7445 8.03304C14.4867 7.41037 14.1087 6.8446 13.6321 6.36805C13.1556 5.8915 12.5898 5.5135 11.9672 5.25564C11.3445 4.99779 10.6771 4.86512 10.0032 4.86523ZM10.0032 13.3279C9.34462 13.3278 8.7009 13.1323 8.1534 12.7664C7.6059 12.4004 7.17921 11.8803 6.92727 11.2718C6.67532 10.6634 6.60945 9.99387 6.73796 9.34798C6.86648 8.70208 7.18362 8.1088 7.64929 7.64313C8.11496 7.17746 8.70825 6.86032 9.35414 6.7318C10 6.60328 10.6695 6.66916 11.278 6.9211C11.8864 7.17304 12.4065 7.59974 12.7725 8.14724C13.1385 8.69474 13.3339 9.33846 13.3341 9.99701C13.3343 10.4345 13.2483 10.8677 13.081 11.272C12.9137 11.6762 12.6683 12.0435 12.359 12.3528C12.0496 12.6622 11.6823 12.9075 11.2781 13.0748C10.8739 13.2421 10.4407 13.3281 10.0032 13.3279Z" fill="url(#paint0_linear_975_22147)"/>
<path d="M14.1236 0.0628236C12.2836 -0.0230116 7.72598 -0.0188449 5.88427 0.0628236C4.2659 0.138659 2.83837 0.5295 1.68751 1.68036C-0.235863 3.60373 0.00997598 6.19546 0.00997598 9.99637C0.00997598 13.8865 -0.206695 16.4182 1.68751 18.3124C3.61839 20.2424 6.24761 19.9899 10.0035 19.9899C13.8569 19.9899 15.187 19.9924 16.5495 19.4649C18.402 18.7457 19.8004 17.0899 19.9371 14.1156C20.0237 12.2748 20.0187 7.71799 19.9371 5.87628C19.7721 2.36537 17.8879 0.236161 14.1236 0.0628236ZM17.0362 17.0399C15.7753 18.3007 14.0261 18.1882 9.97936 18.1882C5.8126 18.1882 4.14173 18.2499 2.92254 17.0274C1.51834 15.6298 1.77251 13.3856 1.77251 9.98304C1.77251 5.37877 1.3 2.06287 5.92094 1.82619C6.98263 1.78869 7.29513 1.77619 9.96769 1.77619L10.0052 1.80119C14.4461 1.80119 17.9304 1.33618 18.1395 5.95628C18.187 7.01047 18.1979 7.32715 18.1979 9.99554C18.197 14.114 18.2754 15.7948 17.0362 17.0399Z" fill="url(#paint1_linear_975_22147)"/>
<path d="M15.3379 5.86128C16.0002 5.86128 16.5371 5.32438 16.5371 4.66208C16.5371 3.99979 16.0002 3.46289 15.3379 3.46289C14.6756 3.46289 14.1387 3.99979 14.1387 4.66208C14.1387 5.32438 14.6756 5.86128 15.3379 5.86128Z" fill="url(#paint2_linear_975_22147)"/>
<defs>
<linearGradient id="paint0_linear_975_22147" x1="14.9449" y1="4.86523" x2="2.94772" y2="7.41305" gradientUnits="userSpaceOnUse">
<stop stop-color="#00A7F7"/>
<stop offset="1" stop-color="#00FC92"/>
</linearGradient>
<linearGradient id="paint1_linear_975_22147" x1="19.6298" y1="-7.57583e-07" x2="-3.74889" y2="4.96481" gradientUnits="userSpaceOnUse">
<stop stop-color="#00A7F7"/>
<stop offset="1" stop-color="#00FC92"/>
</linearGradient>
<linearGradient id="paint2_linear_975_22147" x1="16.4927" y1="3.46289" x2="13.6892" y2="4.05826" gradientUnits="userSpaceOnUse">
<stop stop-color="#00A7F7"/>
<stop offset="1" stop-color="#00FC92"/>
</linearGradient>
</defs>
</svg>
