<svg width="16" height="18" viewBox="0 0 16 18" fill="none" xmlns="http://www.w3.org/2000/svg">
<g opacity="0.6">
<path d="M7.59527 17.9581C7.63848 17.9855 7.68858 18 7.73973 18C7.79087 18 7.84097 17.9855 7.88418 17.9581C9.24571 17.0502 10.5122 16.0072 11.6643 14.8449C14.1591 12.3258 15.4795 9.75802 15.4795 7.41167C15.4822 3.32918 12.0099 0 7.74108 0C3.47228 0 0 3.32918 0 7.41167C0 9.75532 1.31763 12.3258 3.81519 14.8449C4.9673 16.0072 6.23374 17.0502 7.59527 17.9581ZM7.74108 0.540012C11.7129 0.540012 14.9421 3.62348 14.9421 7.41437C14.9421 12.3339 8.7725 16.7107 7.74108 17.4046C6.70695 16.708 0.540012 12.3339 0.540012 7.41437C0.540012 3.62348 3.76929 0.540012 7.74108 0.540012Z" fill="white"/>
<path d="M7.74101 10.2257C8.39828 10.2257 9.04079 10.0308 9.58732 9.66571C10.1339 9.30061 10.5599 8.78166 10.8115 8.17448C11.0632 7.56729 11.1291 6.89913 11.0011 6.25446C10.8731 5.60978 10.5568 5.01754 10.0922 4.55259C9.62766 4.08765 9.03567 3.77087 8.3911 3.64232C7.74653 3.51377 7.07832 3.57921 6.47093 3.83036C5.86354 4.08151 5.34425 4.50711 4.97871 5.05335C4.61316 5.59958 4.41777 6.24194 4.41724 6.8992C4.41795 7.78075 4.76828 8.62603 5.39137 9.24963C6.01447 9.87324 6.85946 10.2242 7.74101 10.2257ZM7.74101 4.11544C8.29159 4.11544 8.8298 4.2787 9.28759 4.58459C9.74538 4.89047 10.1022 5.32524 10.3129 5.8339C10.5236 6.34257 10.5787 6.90229 10.4713 7.44229C10.3639 7.98228 10.0987 8.4783 9.70943 8.86762C9.32011 9.25694 8.82409 9.52206 8.2841 9.62948C7.7441 9.73689 7.18438 9.68176 6.67571 9.47106C6.16705 9.26037 5.73228 8.90357 5.4264 8.44578C5.12051 7.98799 4.95725 7.44978 4.95725 6.8992C4.95868 6.16134 5.25242 5.45411 5.77417 4.93236C6.29592 4.41061 7.00315 4.11687 7.74101 4.11544Z" fill="white"/>
</g>
</svg>
