<svg width="33" height="33" viewBox="0 0 33 33" fill="none" xmlns="http://www.w3.org/2000/svg">
<circle cx="16.7269" cy="16.396" r="15.75" fill="#2C2C2C" stroke="url(#paint0_linear_3172_21004)" stroke-width="0.5"/>
<path d="M24.1137 13.6535C23.8484 9.99698 20.8873 7.0621 17.2206 6.82755C15.1461 6.68923 13.168 7.39889 11.6603 8.80618C10.1768 10.1954 9.32043 12.1621 9.32043 14.1948C9.32043 14.9706 9.44708 15.7585 9.70037 16.5283C11.1236 20.9246 16.2678 25.6877 16.4849 25.8862C16.5512 25.9523 16.6417 25.9824 16.7322 25.9824C16.8226 25.9824 16.9191 25.9463 16.9854 25.8742C17.2146 25.6456 22.6664 20.1909 23.8122 16.3599C24.0775 15.4698 24.1801 14.5557 24.1137 13.6535ZM23.1126 16.1614C22.1538 19.3669 17.8056 23.9978 16.7201 25.1224C15.6587 24.094 11.5759 19.9804 10.3879 16.3118C10.1587 15.6081 10.0441 14.8985 10.0441 14.1948C10.0441 12.3304 10.7919 10.6044 12.1549 9.33542C13.5178 8.06044 15.2969 7.42896 17.1724 7.54924C20.4772 7.75973 23.1548 10.4059 23.39 13.7077C23.4504 14.5196 23.3599 15.3435 23.1126 16.1614ZM16.7261 10.5262C14.6998 10.5262 13.0474 12.1741 13.0474 14.1948C13.0474 16.2155 14.6998 17.8634 16.7261 17.8634C18.7524 17.8634 20.4049 16.2155 20.4049 14.1948C20.4049 12.1741 18.7524 10.5262 16.7261 10.5262ZM16.7261 17.1417C15.0978 17.1417 13.7711 15.8186 13.7711 14.1948C13.7711 12.571 15.0978 11.2479 16.7261 11.2479C18.3544 11.2479 19.6812 12.571 19.6812 14.1948C19.6812 15.8186 18.3544 17.1417 16.7261 17.1417Z" fill="url(#paint1_linear_3172_21004)"/>
<defs>
<linearGradient id="paint0_linear_3172_21004" x1="33.5525" y1="-1.99808" x2="-14.8886" y2="33.3251" gradientUnits="userSpaceOnUse">
<stop stop-color="#6F6F6F" stop-opacity="0"/>
<stop offset="1" stop-color="#808080" stop-opacity="0.51"/>
</linearGradient>
<linearGradient id="paint1_linear_3172_21004" x1="23.859" y1="6.81055" x2="6.23761" y2="9.70193" gradientUnits="userSpaceOnUse">
<stop stop-color="#00A7F7"/>
<stop offset="1" stop-color="#00FC92"/>
</linearGradient>
</defs>
</svg>
