<svg width="26" height="24" viewBox="0 0 26 24" fill="none" xmlns="http://www.w3.org/2000/svg">
<path d="M8.25566 2.73682C6.73936 2.73682 5.22877 3.3142 4.07445 4.46851C3.24697 5.29604 2.7128 6.30351 2.48279 7.37197C2.43478 7.595 2.57663 7.81465 2.79962 7.86263C3.02261 7.91067 3.2423 7.7688 3.2903 7.54585C3.48707 6.63186 3.94413 5.76701 4.65854 5.05264C5.6519 4.05928 6.94972 3.56284 8.25566 3.56284C8.7766 3.56284 9.48381 3.79552 10.2311 4.1725C10.4347 4.27524 10.6831 4.19344 10.7858 3.98979C10.8886 3.78614 10.8068 3.53776 10.6031 3.43502C9.82221 3.04105 8.97375 2.73682 8.25566 2.73682Z" fill="url(#paint0_linear_2679_16350)"/>
<path fill-rule="evenodd" clip-rule="evenodd" d="M23.2029 13.6636C23.2282 13.6382 23.2498 13.6102 23.2674 13.58C24.5685 12.2373 25.37 10.4059 25.37 8.38799C25.37 4.26699 22.0293 0.92627 17.9083 0.92627C15.9896 0.92627 14.2395 1.65092 12.9177 2.84068C11.596 1.65092 9.84589 0.92627 7.92718 0.92627C3.80621 0.92627 0.465485 4.26699 0.465485 8.38799C0.465485 10.5808 1.41188 12.5531 2.91722 13.9177L12.6444 23.6448C12.7219 23.7222 12.8269 23.7657 12.9365 23.7657C13.0461 23.7657 13.1511 23.7222 13.2286 23.6447L23.2029 13.6636ZM1.29151 8.38799C1.29151 4.72321 4.26241 1.75229 7.92718 1.75229C9.76273 1.75229 11.4236 2.49702 12.6253 3.70183C12.7028 3.77951 12.808 3.82317 12.9177 3.82317C13.0274 3.82317 13.1327 3.77951 13.2101 3.70183C14.4119 2.49702 16.0727 1.75229 17.9083 1.75229C21.5731 1.75229 24.544 4.72321 24.544 8.38799C24.544 10.2186 23.8033 11.8754 22.6042 13.0763C22.5798 13.1008 22.5589 13.1278 22.5417 13.1567L12.9363 22.7685L3.49405 13.3264C3.48914 13.3215 3.48412 13.3167 3.47897 13.312C2.13502 12.0972 1.29151 10.3414 1.29151 8.38799Z" fill="url(#paint1_linear_2679_16350)"/>
<defs>
<linearGradient id="paint0_linear_2679_16350" x1="10.6754" y1="2.73682" x2="1.55585" y2="5.88855" gradientUnits="userSpaceOnUse">
<stop stop-color="#00A7F7"/>
<stop offset="1" stop-color="#00FC92"/>
</linearGradient>
<linearGradient id="paint1_linear_2679_16350" x1="24.9088" y1="0.926269" x2="-3.9668" y2="7.61297" gradientUnits="userSpaceOnUse">
<stop stop-color="#00A7F7"/>
<stop offset="1" stop-color="#00FC92"/>
</linearGradient>
</defs>
</svg>
