<svg width="430" height="119" viewBox="0 0 430 119" fill="none" xmlns="http://www.w3.org/2000/svg">
<path d="M0 18.3366C0 9.38379 0 4.90732 2.85656 2.50948C5.71312 0.11163 10.1384 0.89024 18.9891 2.44746C47.0191 7.37919 100.422 16.1661 140.026 19.0002C169.066 21.0784 185.842 22.0002 215 22.0002C244.158 22.0002 259.831 21.0784 288.872 19.0002C328.601 16.1572 382.768 7.32359 411.048 2.40083C419.881 0.86322 424.298 0.0944099 427.149 2.49201C430 4.8896 430 9.35629 430 18.2897V71.0002C430 78.5427 430 82.3139 427.657 84.6571C425.314 87.0002 421.542 87.0002 414 87.0002H16C8.45752 87.0002 4.68629 87.0002 2.34315 84.6571C0 82.3139 0 78.5427 0 71.0002V18.3366Z" fill="#272735"/>
<path d="M430 81H0V119H430V81Z" fill="#272735"/>
<path d="M199.19 2H230.812C254.905 2 262.059 30.2435 269.762 58.9773C277.737 88.7259 285.775 119 312.127 119H117.875C144.227 119 152.265 88.7259 160.239 58.9773C167.942 30.2435 175.097 2 199.19 2Z" fill="url(#paint0_linear_3396_21673)"/>
<defs>
<linearGradient id="paint0_linear_3396_21673" x1="308.53" y1="2.00001" x2="97.4652" y2="76.4189" gradientUnits="userSpaceOnUse">
<stop stop-color="#00A7F7"/>
<stop offset="1" stop-color="#00FC92"/>
</linearGradient>
</defs>
</svg>
