<svg width="21" height="21" viewBox="0 0 21 21" fill="none" xmlns="http://www.w3.org/2000/svg">
<path d="M12.663 7.6573C13.0467 6.23233 12.9492 4.81955 12.3768 3.57119C11.78 2.26191 10.6961 1.16578 9.16759 0.313242C9.11279 0.282794 9.05798 0.270615 8.99709 0.264526C7.24937 0.234078 5.76352 0.64208 4.58823 1.48244C3.47383 2.27409 2.6822 3.4494 2.29856 4.87436C2.0976 5.63556 2.06106 6.40893 2.19503 7.17622C2.37163 8.21145 2.09151 9.26495 1.42166 10.0688C0.92231 10.6656 0.563025 11.3537 0.362069 12.1149C-0.0154856 13.5155 0.185471 14.9709 0.916221 16.2193C1.64697 17.4676 2.82226 18.3506 4.22894 18.7038C4.66739 18.8134 5.10584 18.8682 5.5382 18.8682C7.92532 18.8682 10.1115 17.2545 10.7387 14.843C10.9336 14.0879 10.964 13.3145 10.824 12.5533C10.6413 11.5425 10.9275 10.5011 11.6034 9.69122C12.1028 9.10053 12.4621 8.41241 12.663 7.6573ZM10.1054 12.6934C10.2211 13.3511 10.1967 14.0148 10.0262 14.6725C9.48425 16.7551 7.59648 18.1496 5.53211 18.1496C5.16065 18.1496 4.777 18.1009 4.39945 18.0096C3.18764 17.7051 2.17067 16.9378 1.53736 15.86C0.904041 14.7821 0.733533 13.5216 1.05628 12.3158C1.23288 11.6582 1.53736 11.0675 1.96972 10.5498C2.79181 9.56943 3.13283 8.30279 2.9136 7.05443C2.7979 6.39066 2.82835 5.72081 3.00495 5.06314C3.54691 3.03529 4.95969 1.68949 6.99361 1.19623C7.01797 1.35456 7.03015 1.49462 7.03015 1.64077C7.03015 1.79301 7.01797 1.94525 6.99361 2.10967C6.96316 2.31063 7.10323 2.49331 7.30418 2.52376C7.32245 2.52376 7.34072 2.52985 7.35899 2.52985C7.53559 2.52985 7.69391 2.40197 7.71827 2.21928C7.74872 2.01833 7.7609 1.82955 7.7609 1.64077C7.7609 1.45199 7.74872 1.26322 7.71827 1.06226C8.09583 1.01354 8.49165 0.983096 8.89965 0.989186C9.38682 1.26322 9.81918 1.57379 10.2028 1.90262C10.1967 1.93307 10.1967 1.96961 10.2028 2.00615C10.2333 2.18274 10.2455 2.34107 10.2455 2.50549C10.2455 2.65773 10.2333 2.80997 10.2089 2.97439C10.1785 3.17535 10.3185 3.35803 10.5195 3.3885C10.5377 3.3885 10.556 3.39459 10.5743 3.39459C10.7509 3.39459 10.9092 3.26669 10.9336 3.084C10.9518 2.95003 10.964 2.82215 10.9701 2.69427C12.0784 4.04617 12.4377 5.69645 11.9627 7.46243C11.7861 8.12011 11.4816 8.7108 11.0493 9.22841C10.2272 10.2088 9.88616 11.4755 10.1054 12.6934ZM5.8305 5.72081C5.73916 5.91568 5.66608 6.1349 5.5991 6.38457C5.57474 6.48201 5.55038 6.57944 5.53211 6.67078C5.49557 6.84129 5.34334 6.96309 5.17283 6.96309C5.14847 6.96309 5.12411 6.96308 5.09975 6.957C4.8988 6.91437 4.777 6.72559 4.81354 6.52464C4.8379 6.41502 4.86226 6.30541 4.89271 6.1958C4.97187 5.9035 5.06321 5.65383 5.16674 5.41633C5.25199 5.23364 5.46513 5.15448 5.6539 5.23973C5.83659 5.32499 5.91576 5.53812 5.8305 5.72081ZM4.11933 12.8091C3.92446 13.0709 3.77831 13.3328 3.66261 13.6616C3.6078 13.8078 3.46774 13.9052 3.32161 13.9052C3.27898 13.9052 3.23635 13.8991 3.19981 13.8809C3.01104 13.8139 2.9136 13.6007 2.98059 13.412C3.12065 13.0161 3.30334 12.6812 3.54082 12.3645C3.66261 12.2062 3.89401 12.1697 4.05234 12.2915C4.21067 12.4194 4.24112 12.6508 4.11933 12.8091ZM5.50166 10.5925C5.37987 11.0066 5.22763 11.3598 5.03277 11.6764C4.96578 11.786 4.84399 11.8469 4.7222 11.8469C4.65521 11.8469 4.58823 11.8287 4.52733 11.7921C4.35682 11.6825 4.30202 11.4572 4.41163 11.2867C4.56996 11.0309 4.69784 10.7386 4.80136 10.3854C4.85617 10.1906 5.05712 10.081 5.25199 10.1358C5.44686 10.1967 5.55647 10.4037 5.50166 10.5925ZM3.52255 15.933C3.56518 16.1279 3.4373 16.3228 3.23635 16.3654C3.21199 16.3715 3.18764 16.3715 3.16328 16.3715C2.99277 16.3715 2.84053 16.2497 2.80399 16.0792V16.067C2.73701 15.7504 2.67002 15.4276 2.67002 15.0196C2.67002 14.9892 2.67002 14.9526 2.67002 14.9161C2.67611 14.7151 2.84662 14.5568 3.04758 14.5629C3.24853 14.569 3.40685 14.7395 3.40076 14.9404C3.40076 14.9709 3.40076 14.9952 3.40076 15.0257C3.40076 15.3606 3.45556 15.6347 3.51646 15.927L3.52255 15.933ZM6.04973 4.17406C6.25068 3.94874 6.43946 3.71734 6.61606 3.37021C6.7074 3.18753 6.92663 3.11445 7.10323 3.20579C7.28591 3.29714 7.35899 3.51638 7.26764 3.69298C7.05451 4.11925 6.81701 4.40546 6.59779 4.65513C6.52471 4.7343 6.42728 4.77692 6.32376 4.77692C6.2385 4.77692 6.15325 4.74648 6.08017 4.68558C5.92794 4.5577 5.91576 4.3263 6.04973 4.17406ZM5.69653 9.0579C5.70871 9.25886 5.55647 9.43546 5.35552 9.44764C5.34943 9.44764 5.33725 9.44764 5.33116 9.44764C5.14238 9.44764 4.97796 9.30149 4.96578 9.10662C4.94751 8.85695 4.90489 8.63772 4.85617 8.40632C4.83181 8.30279 4.81354 8.18709 4.78918 8.07748C4.75265 7.87652 4.88662 7.68775 5.08757 7.65121C5.28853 7.61467 5.47731 7.74864 5.51384 7.9496C5.53211 8.05312 5.55038 8.15055 5.57474 8.26017C5.62346 8.50984 5.67826 8.7656 5.69653 9.0579ZM9.0458 6.58553C8.95446 6.7804 8.87529 6.99962 8.8144 7.2493C8.79004 7.34673 8.76568 7.44416 8.74741 7.53551C8.71088 7.70601 8.55863 7.82781 8.38813 7.82781C8.36377 7.82781 8.33941 7.82781 8.31505 7.82172C8.1141 7.77909 7.9923 7.59031 8.02884 7.38936C8.0532 7.27974 8.07756 7.17013 8.10801 7.06052C8.18717 6.76822 8.27851 6.51855 8.38204 6.28105C8.46729 6.09836 8.68043 6.0192 8.8692 6.10445C9.05189 6.18362 9.13106 6.40284 9.0458 6.58553ZM10.4829 4.55161C10.2698 4.97788 10.0323 5.26409 9.81309 5.51985C9.74002 5.59902 9.64258 5.64165 9.53906 5.64165C9.4538 5.64165 9.36855 5.6112 9.29548 5.5503C9.14324 5.41633 9.13106 5.18493 9.26503 5.03269C9.46598 4.80737 9.65476 4.57597 9.83136 4.22886C9.9227 4.04617 10.1419 3.9731 10.3185 4.06444C10.4951 4.1497 10.5682 4.36892 10.4829 4.55161ZM8.91183 9.92262C8.92401 10.1236 8.77177 10.3002 8.57081 10.3124C8.56472 10.3124 8.55255 10.3124 8.54646 10.3124C8.35768 10.3124 8.19326 10.1662 8.18108 9.97134C8.16281 9.72167 8.12019 9.50244 8.07147 9.27104C8.04711 9.16751 8.02884 9.0579 8.00448 8.9422C7.96795 8.74124 8.10192 8.55247 8.30287 8.51593C8.50383 8.47939 8.69261 8.61336 8.72914 8.81432C8.74741 8.91784 8.76568 9.01528 8.79004 9.12489C8.83876 9.36847 8.88747 9.62423 8.91183 9.92262ZM7.33463 13.6738C7.13976 13.9357 6.99361 14.1975 6.87791 14.5263C6.8231 14.6725 6.68304 14.7699 6.53689 14.7699C6.49427 14.7699 6.45164 14.7638 6.4151 14.7456C6.22633 14.6786 6.12889 14.4655 6.19588 14.2767C6.34203 13.8809 6.51863 13.5459 6.75612 13.2293C6.87791 13.0709 7.10931 13.0344 7.26764 13.1562C7.42597 13.2841 7.45642 13.5094 7.33463 13.6738ZM6.73785 16.7978C6.78048 16.9987 6.6526 17.1875 6.45164 17.2301C6.42728 17.2362 6.40292 17.2362 6.37856 17.2362C6.20806 17.2362 6.05582 17.1144 6.01928 16.9439V16.9317C5.95229 16.6212 5.88531 16.2923 5.88531 15.8904C5.88531 15.8539 5.88531 15.8234 5.88531 15.7869C5.8914 15.5859 6.05582 15.4276 6.26286 15.4337C6.46382 15.4398 6.62215 15.6103 6.61606 15.8112C6.61606 15.8417 6.61606 15.8661 6.61606 15.8904C6.61606 16.2253 6.67086 16.4994 6.73176 16.7856L6.73785 16.7978ZM8.71696 11.4572C8.59517 11.8713 8.44293 12.2245 8.24807 12.5411C8.18108 12.6508 8.05929 12.7117 7.9375 12.7117C7.87051 12.7117 7.80353 12.6934 7.74263 12.6568C7.57212 12.5472 7.51732 12.328 7.62693 12.1514C7.78526 11.8956 7.91314 11.6033 8.01666 11.2502C8.07147 11.0553 8.27851 10.9457 8.46729 11.0005C8.66216 11.0614 8.77177 11.2623 8.71696 11.4572ZM13.4851 12.4924C13.3694 12.4985 13.2659 12.5594 13.205 12.6568C12.115 14.301 12.1454 15.793 13.3085 17.8086C14.3925 19.6903 15.5799 20.488 17.3398 20.488C17.4616 20.488 17.5895 20.482 17.7174 20.4759C17.8331 20.4698 17.9366 20.4089 18.0036 20.3054C19.0753 18.6368 19.0449 17.1449 17.894 15.1597C16.7369 13.1501 15.4581 12.3767 13.4851 12.4924ZM17.486 19.7512C16.1767 19.7877 15.0562 19.3737 13.9418 17.4433C12.8213 15.5068 13.0223 14.3315 13.7165 13.2171C15.0258 13.1745 16.1463 13.5886 17.2667 15.525C18.369 17.4433 18.1863 18.5881 17.486 19.7512ZM18.9475 1.98179C18.8622 1.90262 18.7465 1.87218 18.6308 1.89653C16.7004 2.28627 15.6652 3.36412 15.0623 5.6112C14.4594 7.85216 14.8187 9.30149 16.2924 10.6107C16.3594 10.6716 16.4446 10.7021 16.536 10.7021C16.5603 10.7021 16.5908 10.7021 16.6152 10.696C18.5516 10.2758 19.5869 9.19796 20.1776 6.98135C20.7804 4.74039 20.4272 3.29105 18.9475 1.98179ZM19.4773 6.79258C18.9048 8.93611 17.967 9.61205 16.6456 9.94089C15.6895 9.03963 15.1963 7.96178 15.7748 5.79997C16.3533 3.63817 17.3276 2.95003 18.6064 2.65164C19.5564 3.55292 20.0558 4.63686 19.4773 6.79258Z" fill="url(#paint0_linear_3311_26184)"/>
<defs>
<linearGradient id="paint0_linear_3311_26184" x1="20.082" y1="0.262939" x2="-3.62011" y2="5.31067" gradientUnits="userSpaceOnUse">
<stop stop-color="#00A7F7"/>
<stop offset="1" stop-color="#00FC92"/>
</linearGradient>
</defs>
</svg>
