<svg width="17" height="21" viewBox="0 0 17 21" fill="none" xmlns="http://www.w3.org/2000/svg">
<path d="M16.9134 11.7187C16.8282 10.1232 16.0183 8.45468 14.5141 6.75568C13.7956 5.94577 12.9917 5.18457 12.2123 4.44773C11.9322 4.18588 11.6399 3.90576 11.3597 3.63782C11.3232 3.60128 11.2806 3.56474 11.2319 3.51602C10.9639 3.26635 10.5559 2.89488 10.2941 2.31028C10.087 1.84138 10.0018 1.32377 10.0505 0.775706C10.0566 0.672183 10.0261 0.57475 9.95304 0.495585C9.88605 0.42251 9.78862 0.379883 9.6851 0.379883H7.54156C7.44413 0.379883 7.3467 0.42251 7.27362 0.495585C7.20055 0.56866 7.1701 0.666093 7.17619 0.769616C7.20664 1.3055 7.11529 1.81702 6.90825 2.27983C6.64031 2.87661 6.2323 3.26635 5.93392 3.54647C5.89129 3.5891 5.84866 3.62564 5.81212 3.66217C5.44675 4.01537 5.0631 4.36857 4.69773 4.71567C4.11313 5.25765 3.51026 5.81789 2.94393 6.40249C1.57986 7.82745 0.0209291 9.74567 0.191437 11.9927C0.343677 13.9901 1.51288 15.884 3.33366 17.0471C4.25319 17.6378 5.32496 18.0458 6.45762 18.2589L6.11051 18.5695C5.95827 18.7034 5.95218 18.9349 6.08615 19.0871C6.15923 19.1663 6.25666 19.2089 6.3541 19.2089C6.43935 19.2089 6.53069 19.1784 6.59768 19.1175L7.39542 18.3929C7.65118 18.4172 7.90694 18.4294 8.16879 18.4355V19.9335C8.16879 20.1345 8.33321 20.2989 8.53417 20.2989C8.73512 20.2989 8.89954 20.1345 8.89954 19.9335V18.4233C9.14922 18.4111 9.40498 18.3929 9.65465 18.3624L10.4889 19.1114C10.5559 19.1723 10.6473 19.2028 10.7325 19.2028C10.8299 19.2028 10.9335 19.1602 11.0065 19.081C11.1405 18.9288 11.1283 18.6974 10.9822 18.5634L10.5803 18.2041C11.0065 18.1128 11.4267 17.9971 11.8408 17.857C13.0892 17.4307 14.2157 16.7609 15.0926 15.9266C16.0548 15.0132 16.6638 13.9353 16.8525 12.8087C16.9134 12.4616 16.9378 12.0902 16.9134 11.7187ZM4.50286 12.0962C4.46024 10.8783 4.94131 9.51426 5.09964 9.06363C5.46502 8.02841 5.87302 7.38291 6.34192 6.63389C6.50634 6.37204 6.67075 6.1041 6.84735 5.80571C7.35888 4.92881 7.80951 4.00319 8.18706 3.03494V17.4064C6.91434 16.5295 4.59421 14.593 4.50286 12.0962ZM8.91781 17.382V3.08366C9.28319 4.03973 9.72164 4.94708 10.221 5.80571C10.4037 6.12237 10.5803 6.40249 10.7508 6.67043C11.2136 7.40727 11.6094 8.04058 11.9687 9.06363C12.127 9.51426 12.6081 10.8722 12.5655 12.0962C12.468 14.5686 10.1966 16.4929 8.91781 17.382ZM8.06527 1.11672C7.97393 1.42729 7.87649 1.73786 7.77297 2.04234C7.85822 1.74395 7.90085 1.43338 7.91303 1.11672H8.06527ZM0.922188 11.9379C0.776038 9.99534 2.13401 8.30853 3.47981 6.91401C4.02788 6.34768 4.62465 5.79353 5.20317 5.25155C5.57463 4.90445 5.95827 4.55125 6.32974 4.19197C6.36628 4.15543 6.40281 4.11889 6.44544 4.08236C6.76819 3.77788 7.24926 3.32724 7.57201 2.60867C7.19446 3.60128 6.74383 4.55125 6.22013 5.44033C6.04962 5.72654 5.8852 5.99448 5.72687 6.25025C5.25797 7.00536 4.81343 7.71175 4.41761 8.82614C4.2471 9.30722 3.72949 10.7687 3.7782 12.1267C3.83301 13.5943 4.53331 15.0375 5.85475 16.4077C6.32974 16.8948 6.82299 17.315 7.27362 17.656C5.98263 17.5099 4.75863 17.1019 3.72949 16.4381C2.12793 15.409 1.05007 13.6856 0.922188 11.9379ZM16.134 12.6991C15.8112 14.5869 14.0331 16.3468 11.6033 17.175C11.0309 17.3698 10.4524 17.5099 9.8617 17.6012C10.2941 17.2663 10.763 16.8705 11.2136 16.4077C12.5411 15.0375 13.2353 13.6004 13.2901 12.1267C13.3388 10.7687 12.8212 9.30722 12.6507 8.82614C12.261 7.73002 11.8286 7.02971 11.3658 6.29287C11.2014 6.02493 11.0248 5.7509 10.8482 5.44642C10.0809 4.12498 9.47196 2.66957 9.02742 1.12281H9.30754C9.31363 1.64652 9.42325 2.15195 9.63029 2.61476C9.95304 3.33333 10.4463 3.79006 10.7386 4.058C10.7812 4.10062 10.8178 4.13107 10.8543 4.16761C11.1405 4.44164 11.4328 4.71567 11.7129 4.98361C12.4802 5.70827 13.2719 6.4512 13.9722 7.24285C15.3484 8.79569 16.1157 10.3546 16.1888 11.7613C16.201 12.078 16.1827 12.3885 16.134 12.6991Z" fill="url(#paint0_linear_3311_26175)"/>
<defs>
<linearGradient id="paint0_linear_3311_26175" x1="16.6127" y1="0.379882" x2="-3.21071" y2="3.91874" gradientUnits="userSpaceOnUse">
<stop stop-color="#00A7F7"/>
<stop offset="1" stop-color="#00FC92"/>
</linearGradient>
</defs>
</svg>
