<svg width="21" height="21" viewBox="0 0 21 21" fill="none" xmlns="http://www.w3.org/2000/svg">
<path d="M7.19148 16.1038C7.1864 16.0788 7.17897 16.0542 7.16921 16.0304C7.15944 16.007 7.14733 15.9843 7.13327 15.9632C7.1192 15.9418 7.10296 15.9219 7.08483 15.9038C7.06674 15.8857 7.04685 15.8694 7.02545 15.8554C7.00417 15.8412 6.98153 15.8291 6.95786 15.8194C6.93442 15.8097 6.90981 15.8019 6.88481 15.7972C6.83453 15.787 6.78273 15.787 6.73245 15.7972C6.70745 15.8019 6.68284 15.8097 6.65901 15.8194C6.63557 15.8292 6.61291 15.8413 6.59181 15.8554C6.57033 15.8694 6.5504 15.8858 6.53243 15.9038C6.51446 15.9218 6.49805 15.9417 6.48399 15.9632C6.46954 15.9843 6.45782 16.007 6.44805 16.0304C6.43816 16.0541 6.4307 16.0787 6.42578 16.1038C6.4207 16.1288 6.41797 16.1546 6.41797 16.18C6.41797 16.2054 6.4207 16.2312 6.42578 16.2562C6.43047 16.2812 6.43828 16.3058 6.44805 16.3292C6.45782 16.3531 6.46954 16.3757 6.48399 16.3968C6.49805 16.4183 6.51446 16.4382 6.53243 16.4562C6.5504 16.4742 6.57033 16.4906 6.59181 16.5047C6.61291 16.5188 6.63557 16.5309 6.65901 16.5406C6.68284 16.5504 6.70745 16.5582 6.73245 16.5629C6.75745 16.568 6.78324 16.5707 6.80863 16.5707C6.83402 16.5707 6.85981 16.568 6.88481 16.5629C6.90981 16.5582 6.93442 16.5504 6.95786 16.5406C6.98169 16.5309 7.00435 16.5187 7.02545 16.5047C7.04685 16.4906 7.06674 16.4744 7.08483 16.4562C7.1028 16.4382 7.1192 16.4183 7.13327 16.3968C7.14733 16.3757 7.15944 16.3531 7.16921 16.3292C7.18883 16.2819 7.19905 16.2312 7.19929 16.18C7.19929 16.1546 7.19655 16.1288 7.19148 16.1038Z" fill="url(#paint0_linear_2193_17219)"/>
<path d="M18.4184 16.2243C18.4169 16.2204 18.4153 16.2165 18.4137 16.2127C18.0542 15.3715 17.2111 15.0606 16.2133 15.4014L13.4922 16.1539C13.3349 15.6774 12.9425 15.272 12.3876 15.0661C12.3842 15.0648 12.3807 15.0636 12.3773 15.0624L9.38613 14.0472C9.13717 13.7254 8.35734 12.902 6.89722 12.902C5.87682 12.902 4.97415 13.602 4.45772 14.365H0.842487C0.626768 14.365 0.451904 14.5399 0.451904 14.7556V19.6799C0.451904 19.8957 0.626768 20.0705 0.842487 20.0705H3.16477C3.38049 20.0705 3.55536 19.8957 3.55536 19.6799V19.3427H4.64442C4.86014 19.3427 5.035 19.1678 5.035 18.9521V18.8397C5.66985 18.8951 5.87866 19.0155 6.46172 19.3517C6.91011 19.6103 7.58781 20.0011 8.80822 20.5498C8.81389 20.5523 8.81963 20.5548 8.82537 20.557C9.0596 20.6492 9.51748 20.7939 10.082 20.7939C10.4749 20.7939 10.9196 20.7237 11.376 20.5168L17.3907 18.3633C17.4014 18.3595 17.4119 18.3552 17.4222 18.3504C17.997 18.086 18.8536 17.3406 18.4184 16.2243ZM2.77419 19.2893H1.23307V15.1461H2.77419V19.2893ZM4.25384 18.5615H3.55536V15.1461H4.25384V18.5615ZM17.1101 17.634L11.0982 19.7865C11.0869 19.7906 11.0758 19.7952 11.0648 19.8001C10.2275 20.1849 9.43163 19.9546 9.11971 19.8333C7.94086 19.3028 7.31167 18.94 6.85195 18.6749C6.2128 18.3064 5.90483 18.1287 5.035 18.0569V14.9111C5.40523 14.3043 6.1232 13.6831 6.89726 13.6831C8.22469 13.6831 8.78717 14.5465 8.80928 14.5814C8.85697 14.6589 8.93026 14.7174 9.01648 14.7466L12.1206 15.8002C12.6164 15.9863 12.8784 16.4108 12.758 16.8342C12.7309 16.9305 12.685 17.0204 12.623 17.0988C12.5609 17.1771 12.4839 17.2424 12.3964 17.2909C12.2219 17.3887 12.0157 17.4134 11.8229 17.3595L8.32359 16.2506C8.11783 16.1854 7.8984 16.2993 7.83325 16.5049C7.76806 16.7106 7.88196 16.9301 8.0876 16.9953L11.593 18.1061C11.5968 18.1073 11.6005 18.1084 11.6042 18.1095C11.7421 18.1489 11.8848 18.1689 12.0283 18.169C12.2875 18.169 12.544 18.1029 12.7767 17.9733C13.1365 17.7728 13.3967 17.4441 13.5094 17.0479C13.5183 17.0162 13.5263 16.9846 13.5332 16.953L16.4658 16.1406C16.8894 15.9959 17.4454 15.9437 17.6929 16.5139C17.9491 17.1832 17.2832 17.5514 17.1101 17.634ZM14.4762 5.93483C14.4711 5.90983 14.4637 5.88522 14.4535 5.8614C14.4437 5.83796 14.432 5.81531 14.4176 5.79422C14.4035 5.77282 14.3873 5.75293 14.3691 5.73485C14.3511 5.71672 14.3312 5.70049 14.3098 5.68642C14.2887 5.67236 14.266 5.66025 14.2426 5.65048C14.2191 5.64065 14.1946 5.63319 14.1696 5.62822C14.1192 5.61807 14.0672 5.61807 14.0168 5.62822C13.9918 5.63291 13.9672 5.64072 13.9438 5.65048C13.92 5.66025 13.8973 5.67236 13.8762 5.68642C13.8547 5.70048 13.8348 5.71688 13.8169 5.73485C13.7989 5.75282 13.7825 5.77274 13.7684 5.79422C13.7544 5.81531 13.7423 5.83796 13.7325 5.8614C13.7226 5.88506 13.7151 5.90966 13.7102 5.93483C13.7052 5.95983 13.7024 5.9856 13.7024 6.01099C13.7024 6.03638 13.7052 6.06216 13.7102 6.08716C13.7149 6.11215 13.7227 6.13676 13.7325 6.1602C13.7423 6.18402 13.7544 6.20667 13.7684 6.22777C13.7825 6.24925 13.7989 6.26917 13.8169 6.28713C13.8348 6.3051 13.8547 6.32151 13.8762 6.33557C13.8973 6.34963 13.92 6.36174 13.9438 6.3715C13.9672 6.38127 13.9918 6.38869 14.0168 6.39376C14.0418 6.39884 14.0676 6.40157 14.093 6.40157C14.1184 6.40157 14.1442 6.39884 14.1696 6.39376C14.1942 6.38869 14.2188 6.38127 14.2426 6.3715C14.266 6.36174 14.2887 6.34963 14.3098 6.33557C14.3312 6.3215 14.3511 6.30527 14.3691 6.28713C14.3871 6.26917 14.4035 6.24925 14.4176 6.22777C14.432 6.20667 14.4437 6.18402 14.4535 6.1602C14.4637 6.13676 14.4711 6.11215 14.4762 6.08716C14.4812 6.06216 14.4836 6.03638 14.4836 6.01099C14.4836 5.9856 14.4812 5.95983 14.4762 5.93483Z" fill="url(#paint1_linear_2193_17219)"/>
<path d="M20.0593 2.12067H17.737C17.5213 2.12067 17.3464 2.29553 17.3464 2.51125V2.84848H16.2573C16.0416 2.84848 15.8668 3.02334 15.8668 3.23906V3.35147C15.2319 3.29605 15.0231 3.17567 14.4401 2.83946C13.9917 2.58089 13.314 2.19011 12.0935 1.64138C12.0879 1.63881 12.0821 1.6364 12.0764 1.63416C11.6791 1.47785 10.6379 1.1703 9.52588 1.67427L7.95418 2.23702L6.62936 0.912243C6.47684 0.759721 6.22952 0.759721 6.077 0.912243L1.72755 5.26165C1.58686 5.40238 1.55987 5.64638 1.72755 5.81405L9.15983 13.2463C9.27876 13.3653 9.55725 13.4013 9.71223 13.2463L13.6831 9.27551C13.7863 9.28442 13.8935 9.28922 14.0045 9.28922C15.0249 9.28922 15.9276 8.58922 16.444 7.82626H20.0593C20.275 7.82626 20.4499 7.65139 20.4499 7.43568V2.51125C20.4499 2.29553 20.275 2.12067 20.0593 2.12067ZM6.35314 1.74079L7.24336 2.631C6.97874 2.79466 6.6728 2.88222 6.35314 2.88222C6.03345 2.88222 5.72755 2.7947 5.46293 2.631L6.35314 1.74079ZM3.44635 6.42809L2.55613 5.53784L3.44635 4.64762C3.61 4.91224 3.69757 5.21818 3.69757 5.53784C3.69757 5.85749 3.61004 6.16343 3.44635 6.42809ZM9.43605 12.4178L8.54599 11.5277C9.08941 11.1923 9.78261 11.1923 10.3261 11.5277L9.43605 12.4178ZM10.8888 10.965C10.0257 10.3389 8.84639 10.3389 7.98328 10.965L4.00906 6.99076C4.31407 6.57128 4.47874 6.06739 4.47874 5.53784C4.47874 5.00824 4.31411 4.50439 4.00906 4.08491L4.90025 3.19375C5.31974 3.49876 5.82359 3.66343 6.35318 3.66343C6.88277 3.66343 7.38663 3.49876 7.80611 3.19375L8.6509 4.03855C8.46622 4.06599 8.28806 4.12676 8.1251 4.2179C7.84513 4.3739 7.62547 4.60751 7.48868 4.89013C7.04599 4.97218 6.63858 5.18655 6.32026 5.50495C5.45219 6.37306 5.45219 7.78552 6.3203 8.65363C6.75431 9.08765 7.32444 9.30469 7.89462 9.30469C8.46475 9.30469 9.03492 9.08768 9.46898 8.65363C9.75137 8.37124 9.9492 8.02417 10.0483 7.64593L11.3671 8.09349C11.2186 8.78123 11.3706 9.50475 11.7808 10.073L10.8888 10.965ZM8.51416 7.12508C8.5176 7.12633 8.52103 7.12758 8.52451 7.12876L9.30552 7.39384C9.24654 7.66003 9.11308 7.90477 8.91662 8.10127C8.35308 8.66472 7.43615 8.6648 6.8727 8.10127C6.30916 7.53777 6.30916 6.62088 6.8727 6.05735C7.00745 5.9225 7.16757 5.81567 7.34382 5.74301C7.41592 6.34302 7.84794 6.87785 8.51416 7.12508ZM12.3436 9.51022C12.1933 9.2648 12.1075 8.98541 12.094 8.69796C12.3066 8.8515 12.5381 8.97686 12.7829 9.07093L12.3436 9.51022ZM15.8667 7.27995C15.4965 7.88684 14.7786 8.50798 14.0045 8.50798C13.8597 8.50798 13.7239 8.49767 13.597 8.47931L13.5955 8.47908C12.752 8.35655 12.2983 7.87715 12.1487 7.68733C12.1408 7.67561 12.1068 7.6312 12.1018 7.62382C12.0547 7.53952 11.978 7.47572 11.8865 7.44482L8.78108 6.39083C8.28551 6.20483 8.02355 5.78047 8.14361 5.35723L8.14385 5.35641L8.14412 5.35543C8.17131 5.25947 8.21723 5.16985 8.27921 5.09171C8.3412 5.01358 8.41804 4.94848 8.50529 4.90017C8.67983 4.80227 8.88607 4.77759 9.07879 4.83154L12.5781 5.94045C12.7838 6.00571 13.0033 5.89174 13.0685 5.6861C13.1336 5.48046 13.0198 5.26095 12.8141 5.19576L10.031 4.31383L10.0067 4.28953L10.006 4.28879L8.56513 2.84793L9.80359 2.40446C9.80777 2.40294 9.81292 2.40103 9.81706 2.39935L9.82117 2.39771C9.82646 2.39556 9.83171 2.3933 9.83691 2.39091C10.6742 2.00611 11.47 2.23644 11.782 2.35775C12.9609 2.8882 13.5901 3.25101 14.0498 3.5161C14.689 3.88469 14.9969 4.06229 15.8667 4.13412V7.27995ZM17.3464 7.04502H16.6479V3.62964H17.3464V7.04502ZM19.6687 7.04502H18.1276V2.90183H19.6687V7.04502Z" fill="url(#paint2_linear_2193_17219)"/>
<defs>
<linearGradient id="paint0_linear_2193_17219" x1="7.18482" y1="15.7896" x2="6.27154" y2="15.9835" gradientUnits="userSpaceOnUse">
<stop stop-color="#00A7F7"/>
<stop offset="1" stop-color="#00FC92"/>
</linearGradient>
<linearGradient id="paint1_linear_2193_17219" x1="18.2025" y1="5.6206" x2="-2.56087" y2="10.8764" gradientUnits="userSpaceOnUse">
<stop stop-color="#00A7F7"/>
<stop offset="1" stop-color="#00FC92"/>
</linearGradient>
<linearGradient id="paint2_linear_2193_17219" x1="20.101" y1="0.797851" x2="-0.789889" y2="7.45648" gradientUnits="userSpaceOnUse">
<stop stop-color="#00A7F7"/>
<stop offset="1" stop-color="#00FC92"/>
</linearGradient>
</defs>
</svg>
