<svg width="12" height="11" viewBox="0 0 12 11"  xmlns="http://www.w3.org/2000/svg">
<path d="M5.40441 0.755174C5.70376 -0.166137 7.00717 -0.166135 7.30653 0.755175L7.92707 2.66501C8.06094 3.07703 8.4449 3.35599 8.87812 3.35599H10.8862C11.855 3.35599 12.2577 4.5956 11.474 5.16501L9.84942 6.34535C9.49894 6.59999 9.35228 7.05136 9.48615 7.46338L10.1067 9.37321C10.406 10.2945 9.35157 11.0606 8.56785 10.4912L6.94325 9.3109C6.59277 9.05626 6.11817 9.05626 5.76768 9.3109L4.14308 10.4912C3.35937 11.0606 2.30489 10.2945 2.60424 9.37321L3.22478 7.46338C3.35866 7.05136 3.212 6.59999 2.86151 6.34535L1.23691 5.16501C0.4532 4.5956 0.855977 3.35599 1.8247 3.35599H3.83282C4.26604 3.35599 4.65 3.07703 4.78387 2.66501L5.40441 0.755174Z" fill="#e8e8e8"/>
</svg>
