<svg width="39" height="39" viewBox="0 0 39 39" fill="none" xmlns="http://www.w3.org/2000/svg">
<path fill-rule="evenodd" clip-rule="evenodd" d="M36.1044 15.8208C36.1581 16.0062 36.1468 16.2025 36.0846 16.3714C36.0195 16.548 35.9036 16.6971 35.7424 16.8033L27.2383 22.493L30.0239 32.3247C30.1314 32.6956 29.9871 33.0871 29.6619 33.3072C29.3367 33.5274 28.9153 33.5117 28.6123 33.2693L20.5769 26.9436L12.0728 32.6333C11.7475 32.8534 11.3261 32.8377 11.0231 32.5953C10.7201 32.3529 10.6086 31.9456 10.7415 31.5848L14.2767 21.9895L6.24131 15.6638C5.9383 15.4214 5.82397 15.0219 5.95972 14.6534C6.09547 14.2849 6.44171 14.0551 6.82956 14.0672L17.0483 14.4668L20.5835 4.87149C20.7192 4.50303 21.0683 4.26547 21.4533 4.28527C21.8383 4.30507 22.1692 4.56646 22.2767 4.93735L25.0623 14.769L35.281 15.1687C35.666 15.1885 35.9969 15.4499 36.1044 15.8208Z" fill="url(#paint0_linear_3556_3014)"/>
<defs>
<linearGradient id="paint0_linear_3556_3014" x1="0.92261" y1="28.3253" x2="20.4545" y2="-2.00955" gradientUnits="userSpaceOnUse">
<stop stop-color="#00A7F7"/>
<stop offset="1" stop-color="#00FC92"/>
</linearGradient>
</defs>
</svg>
