<svg width="20" height="16" viewBox="0 0 20 16" fill="none" xmlns="http://www.w3.org/2000/svg">
<path d="M18.9989 15.6734H0.998938C0.816696 15.6729 0.638062 15.6226 0.482262 15.5281C0.326462 15.4335 0.199396 15.2983 0.114742 15.1369C0.0300884 14.9755 -0.00894737 14.7941 0.00183487 14.6122C0.0126171 14.4302 0.0728111 14.2547 0.175938 14.1044L9.17594 1.10445C9.54894 0.565445 10.4469 0.565445 10.8209 1.10445L19.8209 14.1044C19.9251 14.2544 19.9862 14.43 19.9976 14.6122C20.0089 14.7945 19.9702 14.9763 19.8854 15.1381C19.8007 15.2998 19.6733 15.4352 19.517 15.5296C19.3607 15.624 19.1815 15.6737 18.9989 15.6734Z" fill="white"/>
<path d="M18.9989 15.1734L18.9997 15.1734C19.0909 15.1736 19.1804 15.1487 19.2585 15.1016C19.3365 15.0544 19.4002 14.9868 19.4425 14.906C19.4848 14.8252 19.5042 14.7344 19.4985 14.6434C19.4929 14.5524 19.4623 14.4646 19.4103 14.3897L19.4098 14.389L10.4101 1.38949C10.3334 1.27883 10.1839 1.2002 9.99806 1.2002C9.81222 1.2002 9.66333 1.27881 9.58709 1.38897L9.58703 1.38905L0.588182 14.3874C0.588001 14.3876 0.58782 14.3879 0.587639 14.3882C0.536306 14.4633 0.506342 14.5509 0.500959 14.6417C0.495558 14.7329 0.515114 14.8238 0.557526 14.9046C0.599936 14.9855 0.663595 15.0532 0.741652 15.1006C0.819498 15.1479 0.908722 15.173 0.999767 15.1734L18.9989 15.1734Z" stroke="white" stroke-opacity="0.1"/>
</svg>
