<svg width="44" height="44" viewBox="0 0 44 44" fill="none" xmlns="http://www.w3.org/2000/svg">
<rect x="0.5" y="0.5" width="43" height="43" rx="11.9355" fill="white" fill-opacity="0.1"/>
<rect x="0.5" y="0.5" width="43" height="43" rx="11.9355" stroke="url(#paint0_linear_3186_30730)"/>
<path d="M20.3666 27.5629C21.9479 27.5629 23.4061 27.0516 24.5991 26.1994L29.0873 30.6875C29.2956 30.8958 29.5702 31 29.8637 31C30.4792 31 30.9148 30.5266 30.9148 29.9206C30.9148 29.6365 30.8201 29.3619 30.6118 29.1631L26.152 24.6938C27.0894 23.4629 27.6481 21.9385 27.6481 20.2814C27.6481 16.2762 24.3719 13 20.3666 13C16.3708 13 13.0852 16.2667 13.0852 20.2814C13.0852 24.2867 16.3614 27.5629 20.3666 27.5629ZM20.3666 25.9911C17.242 25.9911 14.657 23.4061 14.657 20.2814C14.657 17.1568 17.242 14.5718 20.3666 14.5718C23.4913 14.5718 26.0763 17.1568 26.0763 20.2814C26.0763 23.4061 23.4913 25.9911 20.3666 25.9911Z" fill="#00FC92"/>
<defs>
<linearGradient id="paint0_linear_3186_30730" x1="45.1351" y1="-3.29186" x2="-21.4714" y2="45.2775" gradientUnits="userSpaceOnUse">
<stop stop-color="white" stop-opacity="0.4"/>
<stop offset="1" stop-opacity="0"/>
</linearGradient>
</defs>
</svg>
