<svg width="124" height="124" viewBox="0 0 124 124" fill="none" xmlns="http://www.w3.org/2000/svg">
<g clip-path="url(#clip0_1942_16683)">
<path d="M18.1595 18.1595C29.8695 6.44921 45.4392 0 62 0C78.5608 0 94.1305 6.44921 105.841 18.1595C117.551 29.8695 124 45.4392 124 62C124 78.5608 117.551 94.1305 105.841 105.841C94.1305 117.551 78.5608 124 62 124C45.4392 124 29.8695 117.551 18.1595 105.841C6.44897 94.1305 0 78.5608 0 62C0 45.4392 6.44897 29.8695 18.1595 18.1595ZM62 116.619C92.117 116.619 116.619 92.117 116.619 62C116.619 31.883 92.117 7.38091 62 7.38091C31.883 7.38091 7.38091 31.883 7.38091 62C7.38091 92.117 31.883 116.619 62 116.619Z" fill="url(#paint0_linear_1942_16683)"/>
<path d="M75.412 45.6274C81.4553 39.5836 91.2888 39.5841 97.3321 45.6274C98.7734 47.0684 98.7734 49.4053 97.3321 50.8465C95.8906 52.2875 93.5538 52.2875 92.1128 50.8465C88.9469 47.6809 83.796 47.6811 80.6306 50.8465C79.9099 51.5673 78.9656 51.9277 78.0213 51.9277C77.077 51.9277 76.1323 51.5673 75.412 50.8465C73.9707 49.4053 73.9707 47.0686 75.412 45.6274ZM26.6689 45.6274C32.7122 39.5841 42.5457 39.5836 48.589 45.6274C50.0303 47.0684 50.0303 49.4053 48.589 50.8465C47.1475 52.2875 44.8106 52.2875 43.3696 50.8465C40.2042 47.6809 35.0534 47.6807 31.8875 50.8465C31.1668 51.5673 30.2225 51.9277 29.2782 51.9277C28.3339 51.9277 27.3891 51.5673 26.6689 50.8465C25.2276 49.4053 25.2276 47.0686 26.6689 45.6274ZM29.2779 64.7067H94.7223C96.7606 64.7067 98.4128 66.3591 98.4128 68.3971C98.4128 88.475 82.078 104.81 62.0001 104.81C41.9223 104.81 25.5875 88.475 25.5875 68.3971C25.5875 66.3589 27.2397 64.7067 29.2779 64.7067ZM62.0001 97.4289C76.7586 97.4289 88.9803 86.3602 90.7984 72.0876H33.2016C35.02 86.3602 47.2417 97.4289 62.0001 97.4289Z" fill="url(#paint1_linear_1942_16683)"/>
</g>
<defs>
<linearGradient id="paint0_linear_1942_16683" x1="2.2963" y1="-4.69683e-06" x2="147.241" y2="30.7817" gradientUnits="userSpaceOnUse">
<stop stop-color="#00A7F7"/>
<stop offset="1" stop-color="#00FC92"/>
</linearGradient>
<linearGradient id="paint1_linear_1942_16683" x1="26.9361" y1="41.0947" x2="110.952" y2="61.4882" gradientUnits="userSpaceOnUse">
<stop stop-color="#00A7F7"/>
<stop offset="1" stop-color="#00FC92"/>
</linearGradient>
<clipPath id="clip0_1942_16683">
<rect width="124" height="124" fill="white" transform="matrix(-1 0 0 1 124 0)"/>
</clipPath>
</defs>
</svg>
