<svg width="20" height="20" viewBox="0 0 20 20" fill="none" xmlns="http://www.w3.org/2000/svg">
<path d="M10.0089 1.44065C7.32461 1.44155 5.08867 3.67625 5.08542 6.367C5.08465 6.99722 5.06522 7.57757 5.02965 8.11219C5.0077 8.44203 4.73337 8.68647 4.41877 8.68647C4.37243 8.68647 4.32524 8.68117 4.27784 8.67007L3.43696 8.47295C3.40182 8.46469 3.36586 8.46052 3.32977 8.46052C3.11621 8.46052 2.91955 8.60644 2.8716 8.82257C2.80382 9.12799 2.97494 9.43657 3.27088 9.54034L4.5473 10.0556C4.86955 10.1857 5.04263 10.5364 4.95188 10.8719C3.92784 14.6578 1.06756 14.2641 1.06756 14.7573C1.06756 15.3767 3.22348 15.4641 3.41825 15.6589C3.61302 15.8538 3.42671 16.7992 3.8619 16.9822C3.94394 17.0167 4.06048 17.0287 4.20264 17.0287C4.53044 17.0287 4.99403 16.9647 5.48265 16.9647C5.90649 16.9647 6.34916 17.0129 6.73832 17.1927C7.77074 17.6696 8.76609 18.5604 9.99998 18.5604C11.2339 18.5604 12.2292 17.6696 13.2616 17.1927C13.6509 17.0128 14.0934 16.9647 14.5173 16.9647C15.0059 16.9647 15.4696 17.0287 15.7973 17.0287C15.9394 17.0287 16.0561 17.0167 16.1381 16.9822C16.5733 16.7992 16.3869 15.8538 16.5817 15.6589C16.7765 15.4641 18.9324 15.3766 18.9324 14.7572C18.9324 14.264 16.0721 14.6577 15.0481 10.8719C14.9573 10.5364 15.1304 10.1857 15.4527 10.0556L16.7291 9.5403C16.872 9.49022 16.9915 9.38951 17.0651 9.25724C17.1387 9.12496 17.1612 8.9703 17.1284 8.82253C17.0804 8.60636 16.8838 8.46044 16.6702 8.46048C16.6348 8.46048 16.5988 8.46449 16.563 8.47291L15.7222 8.67003C15.6748 8.68113 15.6276 8.68643 15.5812 8.68643C15.2667 8.68643 14.9923 8.44195 14.9704 8.11214C14.9348 7.57753 14.9153 6.99718 14.9145 6.36695C14.9113 3.67625 12.6932 1.44159 10.0089 1.44065ZM10.0085 0.373047H10.0093C10.8105 0.373303 11.591 0.534298 12.329 0.851589C13.0374 1.15611 13.675 1.59033 14.224 2.14219C14.7723 2.69333 15.2038 3.33317 15.5065 4.04394C15.8212 4.78302 15.9812 5.56416 15.9822 6.36567C15.9824 6.74618 15.9905 7.12664 16.0066 7.50681L16.3194 7.43345C16.4344 7.40652 16.5521 7.3929 16.6701 7.39283C17.0125 7.39344 17.3451 7.50739 17.6159 7.71687C17.8969 7.93492 18.094 8.24542 18.1707 8.5912C18.3534 9.41423 17.8989 10.2451 17.1114 10.5373L16.1746 10.9155C16.7949 12.8195 17.9387 13.1843 18.709 13.4301C18.9134 13.4953 19.0899 13.5516 19.258 13.635C19.9277 13.9674 20 14.5306 20 14.7572C20 15.1914 19.7945 15.5876 19.4213 15.8728C19.2355 16.0149 19.0053 16.1321 18.7177 16.2311C18.3256 16.3661 17.8711 16.4517 17.5017 16.5204C17.4839 16.6573 17.4577 16.8043 17.4136 16.9525C17.2304 17.5679 16.8439 17.8435 16.5519 17.9662C16.2748 18.0828 15.9885 18.0962 15.7973 18.0962C15.6103 18.0962 15.4126 18.0816 15.2032 18.0661C14.9786 18.0494 14.7464 18.0323 14.5173 18.0323C14.1623 18.0323 13.898 18.0746 13.7093 18.1617C13.4503 18.2814 13.1757 18.4427 12.8849 18.6135C12.0753 19.089 11.1577 19.6279 9.99998 19.6279C8.84227 19.6279 7.92473 19.089 7.11515 18.6135C6.82433 18.4427 6.54966 18.2814 6.29061 18.1617C6.10199 18.0746 5.8377 18.0323 5.48265 18.0323C5.25355 18.0323 5.02132 18.0495 4.79678 18.0661C4.58745 18.0816 4.38973 18.0962 4.20268 18.0962C4.01145 18.0962 3.72521 18.0828 3.4481 17.9662C3.15609 17.8435 2.76958 17.5679 2.58642 16.9525C2.5423 16.8043 2.51608 16.6573 2.49828 16.5204C2.12889 16.4517 1.67434 16.3661 1.28232 16.2311C0.994621 16.1321 0.76449 16.0149 0.578684 15.8728C0.205536 15.5876 0 15.1914 0 14.7572C0 14.5306 0.072298 13.9674 0.742113 13.6351C0.910196 13.5517 1.08673 13.4953 1.29112 13.4301C2.06137 13.1844 3.2052 12.8195 3.82552 10.9155L2.88876 10.5374C2.10121 10.2452 1.64671 9.41423 1.82936 8.5912C1.9061 8.24542 2.10318 7.93492 2.38421 7.71687C2.65359 7.50792 2.98937 7.39283 3.32977 7.39283C3.44767 7.39283 3.56571 7.4065 3.68058 7.4334L3.99347 7.50677C4.00951 7.1266 4.01762 6.74614 4.01782 6.36563C4.0188 5.56348 4.18013 4.78156 4.49738 4.0415C4.80191 3.33108 5.23574 2.69141 5.78679 2.14023C6.3378 1.58909 6.97717 1.15534 7.68704 0.851077C8.42646 0.534169 9.20752 0.373346 10.0085 0.373047Z" fill="url(#paint0_linear_975_22163)"/>
<defs>
<linearGradient id="paint0_linear_975_22163" x1="0.370371" y1="0.373046" x2="23.6692" y2="5.51247" gradientUnits="userSpaceOnUse">
<stop stop-color="#00A7F7"/>
<stop offset="1" stop-color="#00FC92"/>
</linearGradient>
</defs>
</svg>
