<svg width="29" height="29" viewBox="0 0 29 29" fill="none" xmlns="http://www.w3.org/2000/svg">
<path d="M15.4999 4.83398C15.4999 4.2817 15.0522 3.83398 14.4999 3.83398C13.9476 3.83398 13.4999 4.2817 13.4999 4.83398H15.4999ZM13.4999 6.04232C13.4999 6.5946 13.9476 7.04232 14.4999 7.04232C15.0522 7.04232 15.4999 6.5946 15.4999 6.04232H13.4999ZM21.7499 18.334C21.1976 18.334 20.7499 18.7817 20.7499 19.334C20.7499 19.8863 21.1976 20.334 21.7499 20.334V18.334ZM24.1666 20.334C24.7189 20.334 25.1666 19.8863 25.1666 19.334C25.1666 18.7817 24.7189 18.334 24.1666 18.334V20.334ZM14.4999 19.334V18.334C13.9476 18.334 13.4999 18.7817 13.4999 19.334H14.4999ZM16.9166 20.334C17.4689 20.334 17.9166 19.8863 17.9166 19.334C17.9166 18.7817 17.4689 18.334 16.9166 18.334V20.334ZM13.4999 24.1673C13.4999 24.7196 13.9476 25.1673 14.4999 25.1673C15.0522 25.1673 15.4999 24.7196 15.4999 24.1673H13.4999ZM15.4999 10.8757C15.4999 10.3234 15.0522 9.87565 14.4999 9.87565C13.9476 9.87565 13.4999 10.3234 13.4999 10.8757H15.4999ZM14.4999 14.5007H13.4999C13.4999 15.0529 13.9476 15.5007 14.4999 15.5007V14.5007ZM19.3333 23.1673C18.781 23.1673 18.3333 23.615 18.3333 24.1673C18.3333 24.7196 18.781 25.1673 19.3333 25.1673V23.1673ZM24.1666 25.1673C24.7189 25.1673 25.1666 24.7196 25.1666 24.1673C25.1666 23.615 24.7189 23.1673 24.1666 23.1673V25.1673ZM4.83325 13.5007C4.28097 13.5007 3.83325 13.9484 3.83325 14.5007C3.83325 15.0529 4.28097 15.5007 4.83325 15.5007V13.5007ZM9.66659 15.5007C10.2189 15.5007 10.6666 15.0529 10.6666 14.5007C10.6666 13.9484 10.2189 13.5007 9.66659 13.5007V15.5007ZM14.512 15.5007C15.0643 15.5007 15.512 15.0529 15.512 14.5007C15.512 13.9484 15.0643 13.5007 14.512 13.5007V15.5007ZM19.3453 15.5007C19.8976 15.5007 20.3453 15.0529 20.3453 14.5007C20.3453 13.9484 19.8976 13.5007 19.3453 13.5007V15.5007ZM24.1666 13.5007C23.6143 13.5007 23.1666 13.9484 23.1666 14.5007C23.1666 15.0529 23.6143 15.5007 24.1666 15.5007V13.5007ZM24.1787 15.5007C24.731 15.5007 25.1787 15.0529 25.1787 14.5007C25.1787 13.9484 24.731 13.5007 24.1787 13.5007V15.5007ZM6.04159 5.83398H8.45825V3.83398H6.04159V5.83398ZM8.66659 6.04232V8.45898H10.6666V6.04232H8.66659ZM8.45825 8.66732H6.04159V10.6673H8.45825V8.66732ZM5.83325 8.45898V6.04232H3.83325V8.45898H5.83325ZM6.04159 8.66732C5.92653 8.66732 5.83325 8.57404 5.83325 8.45898H3.83325C3.83325 9.67861 4.82196 10.6673 6.04159 10.6673V8.66732ZM8.66659 8.45898C8.66659 8.57404 8.57331 8.66732 8.45825 8.66732V10.6673C9.67788 10.6673 10.6666 9.67861 10.6666 8.45898H8.66659ZM8.45825 5.83398C8.57331 5.83398 8.66659 5.92726 8.66659 6.04232H10.6666C10.6666 4.82269 9.67788 3.83398 8.45825 3.83398V5.83398ZM6.04159 3.83398C4.82196 3.83398 3.83325 4.82269 3.83325 6.04232H5.83325C5.83325 5.92726 5.92653 5.83398 6.04159 5.83398V3.83398ZM20.5416 5.83398H22.9583V3.83398H20.5416V5.83398ZM23.1666 6.04232V8.45898H25.1666V6.04232H23.1666ZM22.9583 8.66732H20.5416V10.6673H22.9583V8.66732ZM20.3333 8.45898V6.04232H18.3333V8.45898H20.3333ZM20.5416 8.66732C20.4265 8.66732 20.3333 8.57404 20.3333 8.45898H18.3333C18.3333 9.67861 19.322 10.6673 20.5416 10.6673V8.66732ZM23.1666 8.45898C23.1666 8.57404 23.0733 8.66732 22.9583 8.66732V10.6673C24.1779 10.6673 25.1666 9.67861 25.1666 8.45898H23.1666ZM22.9583 5.83398C23.0733 5.83398 23.1666 5.92726 23.1666 6.04232H25.1666C25.1666 4.82269 24.1779 3.83398 22.9583 3.83398V5.83398ZM20.5416 3.83398C19.322 3.83398 18.3333 4.82269 18.3333 6.04232H20.3333C20.3333 5.92726 20.4265 5.83398 20.5416 5.83398V3.83398ZM6.04159 20.334H8.45825V18.334H6.04159V20.334ZM8.66659 20.5423V22.959H10.6666V20.5423H8.66659ZM8.45825 23.1673H6.04159V25.1673H8.45825V23.1673ZM5.83325 22.959V20.5423H3.83325V22.959H5.83325ZM6.04159 23.1673C5.92653 23.1673 5.83325 23.074 5.83325 22.959H3.83325C3.83325 24.1786 4.82196 25.1673 6.04159 25.1673V23.1673ZM8.66659 22.959C8.66659 23.074 8.57331 23.1673 8.45825 23.1673V25.1673C9.67788 25.1673 10.6666 24.1786 10.6666 22.959H8.66659ZM8.45825 20.334C8.57331 20.334 8.66659 20.4273 8.66659 20.5423H10.6666C10.6666 19.3227 9.67788 18.334 8.45825 18.334V20.334ZM6.04159 18.334C4.82196 18.334 3.83325 19.3227 3.83325 20.5423H5.83325C5.83325 20.4273 5.92653 20.334 6.04159 20.334V18.334ZM13.4999 4.83398V6.04232H15.4999V4.83398H13.4999ZM21.7499 20.334H24.1666V18.334H21.7499V20.334ZM14.4999 20.334H16.9166V18.334H14.4999V20.334ZM13.4999 19.334V24.1673H15.4999V19.334H13.4999ZM13.4999 10.8757V14.5007H15.4999V10.8757H13.4999ZM19.3333 25.1673H24.1666V23.1673H19.3333V25.1673ZM4.83325 15.5007H9.66659V13.5007H4.83325V15.5007ZM14.4999 15.5007H14.512V13.5007H14.4999V15.5007ZM24.1666 15.5007H24.1787V13.5007H24.1666V15.5007ZM14.4999 15.5007H19.3453V13.5007H14.4999V15.5007Z" fill="black"/>
</svg>
