<svg width="32" height="40" viewBox="0 0 32 40" fill="none" xmlns="http://www.w3.org/2000/svg">
<path d="M1.04572 37L2.67172 28.6H3.44572L5.71372 34.564L7.97572 28.6H8.74972L10.3817 37H9.35572L8.17372 30.904L6.04372 36.544H5.37772L3.24772 30.904L2.07172 37H1.04572ZM14.2996 37.156C13.7476 37.156 13.2436 37.014 12.7876 36.73C12.3356 36.446 11.9736 36.066 11.7016 35.59C11.4336 35.11 11.2996 34.58 11.2996 34C11.2996 33.56 11.3776 33.15 11.5336 32.77C11.6896 32.386 11.9036 32.05 12.1756 31.762C12.4516 31.47 12.7716 31.242 13.1356 31.078C13.4996 30.914 13.8876 30.832 14.2996 30.832C14.7516 30.832 15.1656 30.924 15.5416 31.108C15.9216 31.288 16.2456 31.54 16.5136 31.864C16.7856 32.188 16.9876 32.564 17.1196 32.992C17.2556 33.42 17.3056 33.878 17.2696 34.366H12.3736C12.4216 34.706 12.5336 35.01 12.7096 35.278C12.8856 35.542 13.1096 35.752 13.3816 35.908C13.6576 36.064 13.9636 36.144 14.2996 36.148C14.6596 36.148 14.9856 36.056 15.2776 35.872C15.5696 35.684 15.8056 35.428 15.9856 35.104L17.0116 35.344C16.7716 35.876 16.4096 36.312 15.9256 36.652C15.4416 36.988 14.8996 37.156 14.2996 37.156ZM12.3436 33.574H16.2556C16.2236 33.238 16.1156 32.932 15.9316 32.656C15.7476 32.376 15.5136 32.152 15.2296 31.984C14.9456 31.816 14.6356 31.732 14.2996 31.732C13.9636 31.732 13.6556 31.814 13.3756 31.978C13.0956 32.142 12.8636 32.364 12.6796 32.644C12.4996 32.92 12.3876 33.23 12.3436 33.574ZM23.9447 33.268V37H22.9367V33.49C22.9367 33.186 22.8627 32.91 22.7147 32.662C22.5667 32.414 22.3687 32.218 22.1207 32.074C21.8727 31.926 21.5967 31.852 21.2927 31.852C20.9927 31.852 20.7167 31.926 20.4647 32.074C20.2167 32.218 20.0187 32.414 19.8707 32.662C19.7227 32.91 19.6487 33.186 19.6487 33.49V37H18.6407V31H19.6487V31.75C19.8607 31.47 20.1287 31.248 20.4527 31.084C20.7767 30.916 21.1287 30.832 21.5087 30.832C21.9567 30.832 22.3647 30.942 22.7327 31.162C23.1047 31.378 23.3987 31.67 23.6147 32.038C23.8347 32.406 23.9447 32.816 23.9447 33.268ZM25.2646 34.72V31H26.2726V34.498C26.2726 34.802 26.3466 35.078 26.4946 35.326C26.6426 35.574 26.8406 35.772 27.0886 35.92C27.3406 36.064 27.6166 36.136 27.9166 36.136C28.2206 36.136 28.4946 36.064 28.7386 35.92C28.9866 35.772 29.1846 35.574 29.3326 35.326C29.4806 35.078 29.5546 34.802 29.5546 34.498V31H30.5626L30.5686 37H29.5606L29.5546 36.238C29.3426 36.518 29.0746 36.742 28.7506 36.91C28.4266 37.074 28.0766 37.156 27.7006 37.156C27.2526 37.156 26.8426 37.048 26.4706 36.832C26.1026 36.612 25.8086 36.318 25.5886 35.95C25.3726 35.582 25.2646 35.172 25.2646 34.72Z" fill="#272735"/>
<path d="M23.4118 0H8.08468C7.03979 0 6.18994 0.849852 6.18994 1.89474V22.1053C6.18994 23.1501 7.03979 24 8.08468 24H23.4118C24.4565 24 25.3066 23.1501 25.3066 22.1053V1.89474C25.3066 0.849852 24.4565 0 23.4118 0ZM24.5487 22.1053C24.5487 22.732 24.0384 23.2421 23.4118 23.2421H8.08468C7.4579 23.2421 6.94784 22.732 6.94784 22.1053V1.89474C6.94784 1.26796 7.4579 0.757895 8.08468 0.757895H23.4118C24.0384 0.757895 24.5487 1.26796 24.5487 1.89474V22.1053Z" fill="url(#paint0_linear_1244_32703)"/>
<path d="M18.223 11.827L19.9485 11.8305C19.949 11.8305 19.949 11.8305 19.9495 11.8305C20.0495 11.8305 20.1458 11.7909 20.217 11.7199C20.2885 11.6489 20.3284 11.5524 20.3284 11.4516C20.3284 7.83845 19.7994 5.55921 18.7558 4.67727C18.2758 4.2718 17.8597 4.31626 17.7809 4.32965C17.5982 4.36047 17.4651 4.51837 17.4651 4.70329V15.0862H18.223V11.827ZM18.223 5.22068C18.2374 5.23155 18.252 5.24317 18.2669 5.2558C18.7396 5.65546 19.5233 6.94212 19.5685 11.0716L18.223 11.0689V5.22068Z" fill="url(#paint1_linear_1244_32703)"/>
<path d="M13.0944 9.68016V15.1534H13.8523V9.68016C14.9432 9.45178 15.7784 8.2586 15.7784 6.82188C15.7784 5.22197 14.7443 3.92041 13.4734 3.92041C12.2024 3.92041 11.1681 5.22197 11.1681 6.82188C11.1681 8.25885 12.0035 9.45178 13.0944 9.68016ZM13.4734 4.6783C14.3265 4.6783 15.0205 5.64007 15.0205 6.82188C15.0205 8.00369 14.3265 8.96496 13.4734 8.96496C12.6202 8.96496 11.926 8.00344 11.926 6.82188C11.926 5.63982 12.6202 4.6783 13.4734 4.6783Z" fill="url(#paint2_linear_1244_32703)"/>
<path d="M20.401 17.6421H11.0953V18.4H20.401V17.6421Z" fill="url(#paint3_linear_1244_32703)"/>
<path d="M20.401 19.7476H11.0953V20.5055H20.401V19.7476Z" fill="url(#paint4_linear_1244_32703)"/>
<defs>
<linearGradient id="paint0_linear_1244_32703" x1="24.9526" y1="-9.09064e-07" x2="2.2488" y2="3.8405" gradientUnits="userSpaceOnUse">
<stop stop-color="#00A7F7"/>
<stop offset="1" stop-color="#00FC92"/>
</linearGradient>
<linearGradient id="paint1_linear_1244_32703" x1="20.2754" y1="4.32129" x2="16.7886" y2="4.51825" gradientUnits="userSpaceOnUse">
<stop stop-color="#00A7F7"/>
<stop offset="1" stop-color="#00FC92"/>
</linearGradient>
<linearGradient id="paint2_linear_1244_32703" x1="15.693" y1="3.92041" x2="10.1034" y2="4.4076" gradientUnits="userSpaceOnUse">
<stop stop-color="#00A7F7"/>
<stop offset="1" stop-color="#00FC92"/>
</linearGradient>
<linearGradient id="paint3_linear_1244_32703" x1="20.2287" y1="17.6421" x2="18.7711" y2="21.4428" gradientUnits="userSpaceOnUse">
<stop stop-color="#00A7F7"/>
<stop offset="1" stop-color="#00FC92"/>
</linearGradient>
<linearGradient id="paint4_linear_1244_32703" x1="20.2287" y1="19.7476" x2="18.7711" y2="23.5483" gradientUnits="userSpaceOnUse">
<stop stop-color="#00A7F7"/>
<stop offset="1" stop-color="#00FC92"/>
</linearGradient>
</defs>
</svg>
