<svg width="18" height="20" viewBox="0 0 18 20" fill="none" xmlns="http://www.w3.org/2000/svg">
<g opacity="0.3">
<path d="M1.64954 19.9998H16.1898C16.2189 19.9998 16.2482 19.9984 16.2771 19.9963C16.8296 19.9454 17.2358 19.4582 17.1858 18.9093L15.9734 5.57596C15.9263 5.05751 15.4985 4.6665 14.9778 4.6665H2.86147C2.34166 4.66707 1.91391 5.05808 1.86669 5.57593L0.654461 18.9092C0.651855 18.9377 0.650589 18.9685 0.650589 18.9992C0.650291 19.5503 1.09813 19.9994 1.64954 19.9998ZM14.9778 5.33311C15.1512 5.33311 15.2938 5.46335 15.3094 5.63616L16.5217 18.9699C16.5386 19.1528 16.4029 19.3152 16.2199 19.3318L16.1897 19.3332H1.64991C1.46622 19.3328 1.31717 19.1834 1.31717 18.9995L2.53066 5.63656C2.54625 5.46374 2.68881 5.3335 2.86209 5.33311H14.9778ZM11.5863 7.00072C11.5868 6.81686 11.737 6.66681 11.9204 6.66644L11.9189 5.99984C11.3696 6.00108 10.9213 6.44941 10.9197 6.99879L11.5863 7.00072Z" fill="url(#paint0_linear_1244_32679)"/>
<path d="M5.9197 7.99994C6.47109 7.99994 6.91972 7.55143 6.91972 6.99992C6.91972 6.44851 6.47121 6 5.9197 6C5.36832 6 4.91979 6.44851 4.91979 6.99992C4.91979 7.55143 5.36829 7.99994 5.9197 7.99994ZM5.9197 6.6666C6.10357 6.6666 6.25312 6.81606 6.25312 6.99992C6.25312 7.18398 6.10357 7.33333 5.9197 7.33333C5.73574 7.33333 5.58639 7.18398 5.58639 6.99992C5.58639 6.81606 5.73574 6.6666 5.9197 6.6666ZM11.9198 7.99994C12.4711 7.99994 12.9197 7.55143 12.9197 6.99992C12.9197 6.44851 12.4712 6 11.9198 6V6.6666C12.1034 6.6666 12.253 6.81596 12.253 6.99992C12.253 7.18378 12.1034 7.33333 11.9198 7.33333C11.736 7.33333 11.5863 7.18378 11.5863 6.99992H10.9197C10.9197 7.55143 11.3682 7.99994 11.9198 7.99994Z" fill="url(#paint1_linear_1244_32679)"/>
<path d="M11.5863 7.00089C11.5868 6.81702 11.7369 6.66698 11.9204 6.6666L11.9188 6C11.3696 6.00124 10.9213 6.44957 10.9197 6.99895L11.5863 7.00089Z" fill="url(#paint2_linear_1244_32679)"/>
<path d="M5.58639 6.33334H6.25312V3.33337C6.25312 1.86302 7.44931 0.666728 8.91968 0.666728C10.39 0.666728 11.5863 1.86302 11.5863 3.33339V6.33337H12.2531V3.33339C12.2531 1.49527 10.7578 0 8.91966 0C7.08179 0 5.58639 1.49527 5.58639 3.33339V6.33334Z" fill="url(#paint3_linear_1244_32679)"/>
</g>
<defs>
<linearGradient id="paint0_linear_1244_32679" x1="0.956873" y1="4.6665" x2="20.1544" y2="9.06414" gradientUnits="userSpaceOnUse">
<stop stop-color="#00A7F7"/>
<stop offset="1" stop-color="#00FC92"/>
</linearGradient>
<linearGradient id="paint1_linear_1244_32679" x1="5.06793" y1="6" x2="10.7445" y2="10.8221" gradientUnits="userSpaceOnUse">
<stop stop-color="#00A7F7"/>
<stop offset="1" stop-color="#00FC92"/>
</linearGradient>
<linearGradient id="paint2_linear_1244_32679" x1="10.9382" y1="6" x2="12.108" y2="6.24838" gradientUnits="userSpaceOnUse">
<stop stop-color="#00A7F7"/>
<stop offset="1" stop-color="#00FC92"/>
</linearGradient>
<linearGradient id="paint3_linear_1244_32679" x1="5.70985" y1="-2.39893e-07" x2="13.4664" y2="1.73393" gradientUnits="userSpaceOnUse">
<stop stop-color="#00A7F7"/>
<stop offset="1" stop-color="#00FC92"/>
</linearGradient>
</defs>
</svg>
