<svg width="29" height="29" viewBox="0 0 29 29" fill="none" xmlns="http://www.w3.org/2000/svg">
<path d="M15.4999 4.8335C15.4999 4.28121 15.0522 3.8335 14.4999 3.8335C13.9476 3.8335 13.4999 4.28121 13.4999 4.8335H15.4999ZM13.4999 6.04183C13.4999 6.59411 13.9476 7.04183 14.4999 7.04183C15.0522 7.04183 15.4999 6.59411 15.4999 6.04183H13.4999ZM21.7499 18.3335C21.1976 18.3335 20.7499 18.7812 20.7499 19.3335C20.7499 19.8858 21.1976 20.3335 21.7499 20.3335V18.3335ZM24.1666 20.3335C24.7189 20.3335 25.1666 19.8858 25.1666 19.3335C25.1666 18.7812 24.7189 18.3335 24.1666 18.3335V20.3335ZM14.4999 19.3335V18.3335C13.9476 18.3335 13.4999 18.7812 13.4999 19.3335H14.4999ZM16.9166 20.3335C17.4689 20.3335 17.9166 19.8858 17.9166 19.3335C17.9166 18.7812 17.4689 18.3335 16.9166 18.3335V20.3335ZM13.4999 24.1668C13.4999 24.7191 13.9476 25.1668 14.4999 25.1668C15.0522 25.1668 15.4999 24.7191 15.4999 24.1668H13.4999ZM15.4999 10.8752C15.4999 10.3229 15.0522 9.87516 14.4999 9.87516C13.9476 9.87516 13.4999 10.3229 13.4999 10.8752H15.4999ZM14.4999 14.5002H13.4999C13.4999 15.0524 13.9476 15.5002 14.4999 15.5002V14.5002ZM19.3333 23.1668C18.781 23.1668 18.3333 23.6145 18.3333 24.1668C18.3333 24.7191 18.781 25.1668 19.3333 25.1668V23.1668ZM24.1666 25.1668C24.7189 25.1668 25.1666 24.7191 25.1666 24.1668C25.1666 23.6145 24.7189 23.1668 24.1666 23.1668V25.1668ZM4.83325 13.5002C4.28097 13.5002 3.83325 13.9479 3.83325 14.5002C3.83325 15.0524 4.28097 15.5002 4.83325 15.5002V13.5002ZM9.66659 15.5002C10.2189 15.5002 10.6666 15.0524 10.6666 14.5002C10.6666 13.9479 10.2189 13.5002 9.66659 13.5002V15.5002ZM14.512 15.5002C15.0643 15.5002 15.512 15.0524 15.512 14.5002C15.512 13.9479 15.0643 13.5002 14.512 13.5002V15.5002ZM19.3453 15.5002C19.8976 15.5002 20.3453 15.0524 20.3453 14.5002C20.3453 13.9479 19.8976 13.5002 19.3453 13.5002V15.5002ZM24.1666 13.5002C23.6143 13.5002 23.1666 13.9479 23.1666 14.5002C23.1666 15.0524 23.6143 15.5002 24.1666 15.5002V13.5002ZM24.1787 15.5002C24.731 15.5002 25.1787 15.0524 25.1787 14.5002C25.1787 13.9479 24.731 13.5002 24.1787 13.5002V15.5002ZM6.04159 5.8335H8.45825V3.8335H6.04159V5.8335ZM8.66659 6.04183V8.4585H10.6666V6.04183H8.66659ZM8.45825 8.66683H6.04159V10.6668H8.45825V8.66683ZM5.83325 8.4585V6.04183H3.83325V8.4585H5.83325ZM6.04159 8.66683C5.92653 8.66683 5.83325 8.57356 5.83325 8.4585H3.83325C3.83325 9.67812 4.82196 10.6668 6.04159 10.6668V8.66683ZM8.66659 8.4585C8.66659 8.57356 8.57331 8.66683 8.45825 8.66683V10.6668C9.67788 10.6668 10.6666 9.67812 10.6666 8.4585H8.66659ZM8.45825 5.8335C8.57331 5.8335 8.66659 5.92677 8.66659 6.04183H10.6666C10.6666 4.8222 9.67788 3.8335 8.45825 3.8335V5.8335ZM6.04159 3.8335C4.82196 3.8335 3.83325 4.8222 3.83325 6.04183H5.83325C5.83325 5.92677 5.92653 5.8335 6.04159 5.8335V3.8335ZM20.5416 5.8335H22.9583V3.8335H20.5416V5.8335ZM23.1666 6.04183V8.4585H25.1666V6.04183H23.1666ZM22.9583 8.66683H20.5416V10.6668H22.9583V8.66683ZM20.3333 8.4585V6.04183H18.3333V8.4585H20.3333ZM20.5416 8.66683C20.4265 8.66683 20.3333 8.57356 20.3333 8.4585H18.3333C18.3333 9.67812 19.322 10.6668 20.5416 10.6668V8.66683ZM23.1666 8.4585C23.1666 8.57356 23.0733 8.66683 22.9583 8.66683V10.6668C24.1779 10.6668 25.1666 9.67812 25.1666 8.4585H23.1666ZM22.9583 5.8335C23.0733 5.8335 23.1666 5.92677 23.1666 6.04183H25.1666C25.1666 4.8222 24.1779 3.8335 22.9583 3.8335V5.8335ZM20.5416 3.8335C19.322 3.8335 18.3333 4.8222 18.3333 6.04183H20.3333C20.3333 5.92677 20.4265 5.8335 20.5416 5.8335V3.8335ZM6.04159 20.3335H8.45825V18.3335H6.04159V20.3335ZM8.66659 20.5418V22.9585H10.6666V20.5418H8.66659ZM8.45825 23.1668H6.04159V25.1668H8.45825V23.1668ZM5.83325 22.9585V20.5418H3.83325V22.9585H5.83325ZM6.04159 23.1668C5.92653 23.1668 5.83325 23.0736 5.83325 22.9585H3.83325C3.83325 24.1781 4.82196 25.1668 6.04159 25.1668V23.1668ZM8.66659 22.9585C8.66659 23.0736 8.57331 23.1668 8.45825 23.1668V25.1668C9.67788 25.1668 10.6666 24.1781 10.6666 22.9585H8.66659ZM8.45825 20.3335C8.57331 20.3335 8.66659 20.4268 8.66659 20.5418H10.6666C10.6666 19.3222 9.67788 18.3335 8.45825 18.3335V20.3335ZM6.04159 18.3335C4.82196 18.3335 3.83325 19.3222 3.83325 20.5418H5.83325C5.83325 20.4268 5.92653 20.3335 6.04159 20.3335V18.3335ZM13.4999 4.8335V6.04183H15.4999V4.8335H13.4999ZM21.7499 20.3335H24.1666V18.3335H21.7499V20.3335ZM14.4999 20.3335H16.9166V18.3335H14.4999V20.3335ZM13.4999 19.3335V24.1668H15.4999V19.3335H13.4999ZM13.4999 10.8752V14.5002H15.4999V10.8752H13.4999ZM19.3333 25.1668H24.1666V23.1668H19.3333V25.1668ZM4.83325 15.5002H9.66659V13.5002H4.83325V15.5002ZM14.4999 15.5002H14.512V13.5002H14.4999V15.5002ZM24.1666 15.5002H24.1787V13.5002H24.1666V15.5002ZM14.4999 15.5002H19.3453V13.5002H14.4999V15.5002Z" fill="black"/>
</svg>
