<svg width="21" height="20" viewBox="0 0 21 20" fill="none" xmlns="http://www.w3.org/2000/svg">
<g opacity="0.3">
<path d="M6.93147 15.306C6.92639 15.281 6.91897 15.2564 6.9092 15.2325C6.89943 15.2091 6.88732 15.1864 6.87326 15.1653C6.85919 15.1439 6.84295 15.1241 6.82482 15.106C6.80673 15.0878 6.78684 15.0716 6.76544 15.0575C6.74416 15.0433 6.72152 15.0313 6.69785 15.0216C6.67441 15.0118 6.6498 15.004 6.6248 14.9993C6.57452 14.9892 6.52272 14.9892 6.47244 14.9993C6.44744 15.004 6.42283 15.0118 6.399 15.0216C6.37556 15.0314 6.3529 15.0435 6.3318 15.0575C6.31032 15.0716 6.29039 15.088 6.27242 15.106C6.25445 15.1239 6.23804 15.1439 6.22398 15.1653C6.20953 15.1864 6.19781 15.2091 6.18804 15.2325C6.17815 15.2562 6.17069 15.2808 6.16577 15.306C6.16069 15.331 6.15796 15.3568 6.15796 15.3822C6.15796 15.4076 6.16069 15.4333 6.16577 15.4583C6.17046 15.4833 6.17827 15.508 6.18804 15.5314C6.19781 15.5552 6.20953 15.5779 6.22398 15.599C6.23804 15.6205 6.25445 15.6404 6.27242 15.6584C6.29039 15.6763 6.31032 15.6927 6.3318 15.7068C6.3529 15.7209 6.37556 15.733 6.399 15.7428C6.42283 15.7525 6.44744 15.7604 6.47244 15.7651C6.49744 15.7701 6.52323 15.7729 6.54862 15.7729C6.57401 15.7729 6.5998 15.7701 6.6248 15.7651C6.6498 15.7604 6.67441 15.7525 6.69785 15.7428C6.72168 15.733 6.74434 15.7209 6.76544 15.7068C6.78684 15.6927 6.80673 15.6765 6.82482 15.6584C6.84279 15.6404 6.85919 15.6205 6.87326 15.599C6.88732 15.5779 6.89943 15.5552 6.9092 15.5314C6.92882 15.4841 6.93904 15.4334 6.93928 15.3822C6.93928 15.3568 6.93655 15.331 6.93147 15.306Z" fill="url(#paint0_linear_1244_32687)"/>
<path d="M18.1584 15.4264C18.1569 15.4226 18.1553 15.4187 18.1537 15.4148C17.7942 14.5736 16.9511 14.2627 15.9533 14.6035L13.2322 15.356C13.0749 14.8796 12.6825 14.4742 12.1276 14.2683C12.1242 14.267 12.1207 14.2658 12.1172 14.2646L9.12612 13.2494C8.87716 12.9276 8.09733 12.1042 6.63721 12.1042C5.61681 12.1042 4.71414 12.8042 4.19771 13.5672H0.582477C0.366758 13.5672 0.191895 13.742 0.191895 13.9577V18.8821C0.191895 19.0978 0.366758 19.2727 0.582477 19.2727H2.90476C3.12048 19.2727 3.29535 19.0978 3.29535 18.8821V18.5449H4.38441C4.60013 18.5449 4.77499 18.37 4.77499 18.1543V18.0419C5.40984 18.0973 5.61865 18.2177 6.20171 18.5539C6.6501 18.8124 7.3278 19.2032 8.54821 19.752C8.55388 19.7545 8.55962 19.7569 8.56536 19.7592C8.79959 19.8513 9.25747 19.9961 9.82198 19.9961C10.2149 19.9961 10.6596 19.9259 11.116 19.719L17.1306 17.5655C17.1413 17.5616 17.1519 17.5573 17.1622 17.5526C17.737 17.2881 18.5936 16.5428 18.1584 15.4264ZM2.51418 18.4915H0.97306V14.3483H2.51418V18.4915ZM3.99383 17.7637H3.29535V14.3483H3.99383V17.7637ZM16.8501 16.8361L10.8382 18.9887C10.8269 18.9928 10.8158 18.9973 10.8048 19.0023C9.96751 19.3871 9.17162 19.1567 8.8597 19.0354C7.68085 18.505 7.05166 18.1422 6.59194 17.8771C5.95279 17.5085 5.64482 17.3309 4.77499 17.2591V14.1132C5.14522 13.5064 5.86319 12.8853 6.63725 12.8853C7.96468 12.8853 8.52716 13.7487 8.54927 13.7835C8.59696 13.8611 8.67025 13.9195 8.75647 13.9488L11.8606 15.0024C12.3564 15.1884 12.6184 15.613 12.498 16.0364C12.4709 16.1326 12.425 16.2225 12.3629 16.3009C12.3009 16.3793 12.2239 16.4446 12.1364 16.493C11.9619 16.5909 11.7556 16.6155 11.5629 16.5617L8.06358 15.4527C7.85782 15.3875 7.63839 15.5014 7.57324 15.7071C7.50805 15.9127 7.62195 16.1322 7.82759 16.1974L11.333 17.3083C11.3367 17.3094 11.3405 17.3106 11.3442 17.3116C11.4821 17.351 11.6248 17.371 11.7683 17.3711C12.0275 17.3711 12.2839 17.3051 12.5167 17.1754C12.8765 16.9749 13.1367 16.6463 13.2493 16.25C13.2583 16.2184 13.2663 16.1868 13.2732 16.1551L16.2058 15.3427C16.6294 15.198 17.1854 15.1459 17.4329 15.716C17.6891 16.3854 17.0232 16.7536 16.8501 16.8361ZM14.2162 5.13698C14.2111 5.11198 14.2037 5.08737 14.1935 5.06355C14.1837 5.04011 14.172 5.01746 14.1576 4.99637C14.1435 4.97497 14.1273 4.95508 14.1091 4.937C14.0911 4.91886 14.0712 4.90263 14.0498 4.88857C14.0287 4.87451 14.006 4.8624 13.9826 4.85263C13.959 4.8428 13.9346 4.83534 13.9095 4.83037C13.8591 4.82022 13.8072 4.82022 13.7568 4.83037C13.7318 4.83506 13.7072 4.84287 13.6838 4.85263C13.66 4.8624 13.6373 4.87451 13.6162 4.88857C13.5947 4.90263 13.5748 4.91903 13.5569 4.937C13.5389 4.95497 13.5225 4.97489 13.5084 4.99637C13.4944 5.01746 13.4822 5.04011 13.4725 5.06355C13.4626 5.08721 13.4551 5.11181 13.4502 5.13698C13.4451 5.16197 13.4424 5.18775 13.4424 5.21314C13.4424 5.23853 13.4451 5.26431 13.4502 5.2893C13.4549 5.3143 13.4627 5.33891 13.4725 5.36234C13.4822 5.38617 13.4944 5.40882 13.5084 5.42991C13.5225 5.4514 13.5389 5.47132 13.5569 5.48928C13.5748 5.50725 13.5947 5.52365 13.6162 5.53771C13.6373 5.55178 13.66 5.56388 13.6838 5.57365C13.7072 5.58341 13.7318 5.59083 13.7568 5.59591C13.7818 5.60099 13.8076 5.60372 13.833 5.60372C13.8584 5.60372 13.8842 5.60099 13.9095 5.59591C13.9342 5.59083 13.9588 5.58341 13.9826 5.57365C14.006 5.56388 14.0287 5.55178 14.0498 5.53771C14.0712 5.52365 14.0911 5.50742 14.1091 5.48928C14.1271 5.47132 14.1435 5.4514 14.1576 5.42991C14.172 5.40882 14.1837 5.38617 14.1935 5.36234C14.2037 5.33891 14.2111 5.3143 14.2162 5.2893C14.2212 5.26431 14.2236 5.23853 14.2236 5.21314C14.2236 5.18775 14.2212 5.16197 14.2162 5.13698Z" fill="url(#paint1_linear_1244_32687)"/>
<path d="M19.7993 1.32282H17.477C17.2613 1.32282 17.0864 1.49768 17.0864 1.7134V2.05063H15.9973C15.7816 2.05063 15.6068 2.22549 15.6068 2.44121V2.55362C14.9719 2.4982 14.7631 2.37782 14.1801 2.0416C13.7317 1.78304 13.054 1.39226 11.8335 0.843531C11.8279 0.840963 11.8221 0.838553 11.8163 0.836306C11.4191 0.679995 10.3779 0.37245 9.26587 0.876419L7.69417 1.43917L6.36935 0.114392C6.21683 -0.0381306 5.96951 -0.0381306 5.81699 0.114392L1.46754 4.4638C1.32685 4.60453 1.29986 4.84853 1.46754 5.0162L8.89982 12.4485C9.01875 12.5675 9.29724 12.6034 9.45222 12.4485L13.4231 8.47766C13.5263 8.48657 13.6334 8.49137 13.7445 8.49137C14.7649 8.49137 15.6676 7.79137 16.184 7.02841H19.7993C20.015 7.02841 20.1898 6.85354 20.1898 6.63782V1.7134C20.1898 1.49768 20.015 1.32282 19.7993 1.32282ZM6.09313 0.942935L6.98335 1.83315C6.71873 1.9968 6.41279 2.08437 6.09313 2.08437C5.77344 2.08437 5.46754 1.99684 5.20292 1.83315L6.09313 0.942935ZM3.18634 5.63024L2.29612 4.73998L3.18634 3.84977C3.34999 4.11439 3.43756 4.42033 3.43756 4.73998C3.43756 5.05964 3.35003 5.36558 3.18634 5.63024ZM9.17604 11.6199L8.28598 10.7298C8.8294 10.3945 9.5226 10.3945 10.0661 10.7298L9.17604 11.6199ZM10.6288 10.1672C9.7657 9.54106 8.58638 9.54106 7.72327 10.1672L3.74905 6.19291C4.05406 5.77343 4.21873 5.26954 4.21873 4.73998C4.21873 4.21039 4.0541 3.70654 3.74905 3.28706L4.64024 2.3959C5.05973 2.70091 5.56358 2.86558 6.09317 2.86558C6.62276 2.86558 7.12662 2.70091 7.5461 2.3959L8.39089 3.24069C8.20621 3.26814 8.02805 3.32891 7.86509 3.42005C7.58512 3.57605 7.36546 3.80965 7.22867 4.09228C6.78598 4.17432 6.37857 4.3887 6.06025 4.7071C5.19218 5.57521 5.19218 6.98767 6.06029 7.85578C6.4943 8.28979 7.06443 8.50684 7.63461 8.50684C8.20474 8.50684 8.77491 8.28983 9.20897 7.85578C9.49136 7.57339 9.68919 7.22632 9.78828 6.84807L11.107 7.29564C10.9586 7.98338 11.1106 8.7069 11.5208 9.27519L10.6288 10.1672ZM8.25415 6.32723C8.25759 6.32848 8.26102 6.32973 8.2645 6.3309L9.04551 6.59599C8.98653 6.86217 8.85307 7.10691 8.65661 7.30342C8.09307 7.86687 7.17614 7.86695 6.61269 7.30342C6.04915 6.73992 6.04915 5.82303 6.61269 5.2595C6.74744 5.12465 6.90756 5.01782 7.08381 4.94516C7.15591 5.54517 7.58793 6.07999 8.25415 6.32723ZM12.0836 8.71236C11.9333 8.46695 11.8475 8.18756 11.834 7.90011C12.0466 8.05365 12.2781 8.17901 12.5229 8.27308L12.0836 8.71236ZM15.6067 6.4821C15.2365 7.08899 14.5185 7.71013 13.7445 7.71013C13.5997 7.71013 13.4639 7.69982 13.337 7.68146L13.3355 7.68123C12.492 7.5587 12.0383 7.0793 11.8887 6.88948C11.8807 6.87776 11.8468 6.83335 11.8418 6.82597C11.7947 6.74167 11.718 6.67787 11.6265 6.64696L8.52107 5.59298C8.0255 5.40698 7.76354 4.98261 7.8836 4.55938L7.88384 4.55856L7.88411 4.55758C7.9113 4.46162 7.95722 4.37199 8.0192 4.29386C8.08119 4.21572 8.15803 4.15063 8.24528 4.10232C8.41982 4.00442 8.62606 3.97974 8.81878 4.03369L12.3181 5.1426C12.5238 5.20786 12.7433 5.09389 12.8085 4.88825C12.8736 4.68261 12.7598 4.4631 12.5541 4.39791L9.77102 3.51598L9.74672 3.49168L9.74598 3.49094L8.30512 2.05008L9.54358 1.60661C9.54776 1.60509 9.55291 1.60318 9.55705 1.6015L9.56116 1.59986C9.56645 1.59771 9.5717 1.59544 9.5769 1.59306C10.4141 1.20826 11.21 1.43858 11.522 1.5599C12.7009 2.09035 13.3301 2.45316 13.7898 2.71825C14.4289 3.08684 14.7369 3.26444 15.6067 3.33627V6.4821ZM17.0864 6.24716H16.3879V2.83179H17.0864V6.24716ZM19.4087 6.24716H17.8676V2.10398H19.4087V6.24716Z" fill="url(#paint2_linear_1244_32687)"/>
</g>
<defs>
<linearGradient id="paint0_linear_1244_32687" x1="6.92481" y1="14.9917" x2="6.01153" y2="15.1857" gradientUnits="userSpaceOnUse">
<stop stop-color="#00A7F7"/>
<stop offset="1" stop-color="#00FC92"/>
</linearGradient>
<linearGradient id="paint1_linear_1244_32687" x1="17.9425" y1="4.82275" x2="-2.82088" y2="10.0785" gradientUnits="userSpaceOnUse">
<stop stop-color="#00A7F7"/>
<stop offset="1" stop-color="#00FC92"/>
</linearGradient>
<linearGradient id="paint2_linear_1244_32687" x1="19.841" y1="-4.75427e-07" x2="-1.0499" y2="6.65863" gradientUnits="userSpaceOnUse">
<stop stop-color="#00A7F7"/>
<stop offset="1" stop-color="#00FC92"/>
</linearGradient>
</defs>
</svg>
