<svg width="12" height="21" viewBox="0 0 12 21" fill="none" xmlns="http://www.w3.org/2000/svg">
<path d="M10.8123 0.41098C10.6934 0.280705 10.5521 0.177346 10.3966 0.106823C10.2411 0.0363008 10.0744 0 9.90597 0C9.73759 0 9.57087 0.0363008 9.41535 0.106823C9.25982 0.177346 9.11856 0.280705 8.99965 0.41098L0.489432 9.71087C0.394495 9.81441 0.319175 9.93738 0.267784 10.0728C0.216394 10.2082 0.189941 10.3533 0.189941 10.4999C0.189941 10.6464 0.216394 10.7916 0.267784 10.9269C0.319175 11.0623 0.394495 11.1853 0.489432 11.2888L8.99965 20.5887C9.50146 21.1371 10.3105 21.1371 10.8123 20.5887C11.3141 20.0404 11.3141 19.1562 10.8123 18.6079L3.39786 10.4943L10.8225 2.38063C11.3141 1.84345 11.3141 0.948158 10.8123 0.41098Z" fill="url(#paint0_linear_1244_32674)"/>
<defs>
<linearGradient id="paint0_linear_1244_32674" x1="10.9862" y1="-7.95431e-07" x2="-2.28741" y2="1.47657" gradientUnits="userSpaceOnUse">
<stop stop-color="#ff0000"/>
<stop offset="1" stop-color="#ff0000"/>
</linearGradient>
</defs>
</svg>
