<svg width="23" height="20" viewBox="0 0 23 20" fill="none" xmlns="http://www.w3.org/2000/svg">
<path d="M13.0439 12.1967C12.8582 12.1967 12.7024 12.0518 12.6845 11.8646C12.6665 11.6652 12.8163 11.4901 13.014 11.478L18.3822 11.0552C18.5799 11.0371 18.7537 11.1881 18.7716 11.3874C18.7896 11.5867 18.6398 11.7619 18.4421 11.774L13.0739 12.1967C13.0619 12.1967 13.0559 12.1967 13.0439 12.1967ZM18.5619 13.2718L13.1937 13.6946C12.996 13.7127 12.8462 13.8818 12.8642 14.0872C12.8822 14.2744 13.038 14.4193 13.2237 14.4193C13.2357 14.4193 13.2417 14.4193 13.2536 14.4193L18.6219 13.9966C18.8196 13.9784 18.9694 13.8093 18.9514 13.604C18.9334 13.4047 18.7597 13.2597 18.5619 13.2718ZM16.0396 15.585L13.3555 15.7964C13.1578 15.8145 13.008 15.9836 13.026 16.189C13.0439 16.3762 13.1997 16.5211 13.3854 16.5211C13.3974 16.5211 13.4034 16.5211 13.4154 16.5211L16.0995 16.3098C16.2972 16.2916 16.447 16.1225 16.429 15.9172C16.4111 15.7179 16.2373 15.5729 16.0396 15.585ZM21.9351 19.1182L10.7493 20C10.7373 20 10.7313 20 10.7193 20C10.5336 20 10.3778 19.855 10.3598 19.6678L9.82062 12.7161L2.5831 11.9914C2.38539 11.9733 2.2416 11.7921 2.25957 11.5928L3.36797 0.322728C3.37995 0.226093 3.42189 0.141538 3.49978 0.0811408C3.57167 0.020744 3.66753 -0.00945459 3.76339 0.00262476L14.9252 1.11393C15.0211 1.12601 15.105 1.16828 15.1649 1.2468C15.2248 1.31927 15.2547 1.41591 15.2428 1.51254L14.6436 7.63074L21.0064 7.12945C21.1023 7.12341 21.1981 7.1536 21.27 7.214C21.3419 7.2744 21.3898 7.36499 21.3958 7.46163L22.2706 18.7317C22.2826 18.931 22.1328 19.1061 21.9351 19.1182ZM3.01448 11.3089L10.1801 12.0216L10.4677 9.07422C10.4797 8.97759 10.5216 8.89303 10.5995 8.8266C10.6714 8.7662 10.7672 8.736 10.8631 8.74808L13.7869 9.03798L13.8887 7.975L14.4938 1.79641L4.04498 0.757585L3.01448 11.3089ZM21.5217 18.4236L20.7068 7.87233L14.5717 8.3555L14.4639 9.4668C14.4639 9.47284 14.4639 9.47284 14.4639 9.47888C14.4639 9.48492 14.4639 9.48492 14.4639 9.49096C14.4639 9.50304 14.4579 9.52116 14.4519 9.53324C14.4459 9.54532 14.4399 9.56344 14.4339 9.57552C14.4339 9.58156 14.4279 9.58156 14.4279 9.58759C14.4219 9.59967 14.416 9.61175 14.404 9.62383C14.404 9.62383 14.404 9.62383 14.404 9.62987C14.398 9.64195 14.386 9.65403 14.374 9.66611C14.368 9.67215 14.368 9.67215 14.368 9.67215C14.356 9.68423 14.3441 9.69631 14.3321 9.70839L10.7253 12.692C10.7073 12.7041 10.6894 12.7161 10.6714 12.7282C10.6594 12.7343 10.6534 12.7343 10.6414 12.7403C10.6354 12.7463 10.6235 12.7463 10.6175 12.7524C10.6055 12.7584 10.5935 12.7584 10.5815 12.7645C10.5755 12.7645 10.5635 12.7705 10.5575 12.7705H10.5516L11.0548 19.245L21.5217 18.4236ZM6.26777 4.28476L11.63 4.81625C11.642 4.81625 11.654 4.81625 11.6659 4.81625C11.8517 4.81625 12.0074 4.67734 12.0254 4.49011C12.0434 4.2908 11.8996 4.11565 11.7019 4.09149L6.33966 3.56C6.14195 3.54188 5.9682 3.68683 5.94424 3.88614C5.92626 4.08545 6.07006 4.26664 6.26777 4.28476ZM11.4143 7.03885C11.4263 7.03885 11.4383 7.03885 11.4503 7.03885C11.636 7.03885 11.7918 6.89994 11.8097 6.71271C11.8277 6.5134 11.6839 6.33825 11.4862 6.31409L6.12398 5.7826C5.92626 5.76448 5.75252 5.90943 5.72855 6.10874C5.71058 6.30805 5.85437 6.4832 6.05208 6.50736L11.4143 7.03885Z" fill="url(#paint0_linear_1524_1033)"/>
<path d="M2.35342 18.6906C2.25274 18.6906 2.1562 18.7306 2.08501 18.8018C2.01383 18.873 1.97383 18.9695 1.97383 19.0702C1.97383 19.1709 2.01383 19.2674 2.08501 19.3386C2.1562 19.4098 2.25274 19.4498 2.35342 19.4498H6.15067C6.25134 19.4498 6.34789 19.4098 6.41908 19.3386C6.49026 19.2674 6.53025 19.1709 6.53025 19.0702C6.53025 18.9695 6.49026 18.873 6.41908 18.8018C6.34789 18.7306 6.25134 18.6906 6.15067 18.6906H2.35342ZM0.758978 16.9477H2.41965C2.52033 16.9477 2.61687 16.9077 2.68806 16.8365C2.75925 16.7653 2.79924 16.6688 2.79924 16.5681C2.79924 16.4674 2.75925 16.3709 2.68806 16.2997C2.61687 16.2285 2.52033 16.1885 2.41965 16.1885H0.758978C0.658306 16.1885 0.561757 16.2285 0.490572 16.2997C0.419386 16.3709 0.379395 16.4674 0.379395 16.5681C0.379395 16.6688 0.419386 16.7653 0.490572 16.8365C0.561757 16.9077 0.658306 16.9477 0.758978 16.9477ZM2.42639 14.4457H5.74774C5.84842 14.4457 5.94496 14.4057 6.01615 14.3345C6.08734 14.2633 6.12733 14.1668 6.12733 14.0661C6.12733 13.9654 6.08734 13.8689 6.01615 13.7977C5.94496 13.7265 5.84842 13.6865 5.74774 13.6865H2.42639C2.32572 13.6865 2.22917 13.7265 2.15799 13.7977C2.0868 13.8689 2.04681 13.9654 2.04681 14.0661C2.04681 14.1668 2.0868 14.2633 2.15799 14.3345C2.22917 14.4057 2.32572 14.4457 2.42639 14.4457ZM8.4388 16.5681C8.4388 16.4674 8.39881 16.3709 8.32762 16.2997C8.25643 16.2285 8.15989 16.1885 8.05922 16.1885H4.55248C4.45181 16.1885 4.35526 16.2285 4.28408 16.2997C4.21289 16.3709 4.1729 16.4674 4.1729 16.5681C4.1729 16.6688 4.21289 16.7653 4.28408 16.8365C4.35526 16.9077 4.45181 16.9477 4.55248 16.9477H8.05922C8.15989 16.9477 8.25643 16.9077 8.32762 16.8365C8.39881 16.7653 8.4388 16.6688 8.4388 16.5681Z" fill="url(#paint1_linear_1524_1033)"/>
<defs>
<linearGradient id="paint0_linear_1524_1033" x1="21.9006" y1="-7.57553e-07" x2="-1.49164" y2="4.97105" gradientUnits="userSpaceOnUse">
<stop stop-color="#00A7F7"/>
<stop offset="1" stop-color="#00FC92"/>
</linearGradient>
<linearGradient id="paint1_linear_1524_1033" x1="8.28955" y1="13.6865" x2="-0.758075" y2="16.3735" gradientUnits="userSpaceOnUse">
<stop stop-color="#00A7F7"/>
<stop offset="1" stop-color="#00FC92"/>
</linearGradient>
</defs>
</svg>
