<svg width="18" height="20" viewBox="0 0 18 20" fill="none" xmlns="http://www.w3.org/2000/svg">
<path d="M17 5.06593C14.6209 5.06593 12.6923 3.13266 12.6923 0.747883H9.61536V13.3936C9.61536 14.9267 8.37556 16.1695 6.84609 16.1695C5.31674 16.1695 4.07694 14.9267 4.07694 13.3936C4.07694 11.8606 5.31674 10.6178 6.84609 10.6178V7.53341C3.61748 7.53341 1 10.1572 1 13.3936C1 16.6302 3.61748 19.2539 6.84609 19.2539C10.075 19.2539 12.6923 16.6302 12.6923 13.3936V6.76061C13.9048 7.63497 15.3923 8.15029 17 8.15029V5.06593Z" stroke="url(#paint0_linear_975_22173)" stroke-miterlimit="10" stroke-linecap="round" stroke-linejoin="round"/>
<defs>
<linearGradient id="paint0_linear_975_22173" x1="16.7037" y1="19.2539" x2="-2.20488" y2="15.7821" gradientUnits="userSpaceOnUse">
<stop stop-color="#00A7F7"/>
<stop offset="1" stop-color="#00FC92"/>
</linearGradient>
</defs>
</svg>
