<svg width="77" height="10" viewBox="0 0 77 10" fill="none" xmlns="http://www.w3.org/2000/svg">
<path d="M3.534 9L0.486 0.599999H2.04L4.47 7.29L6.906 0.599999H8.454L5.406 9H3.534ZM13.5142 3H14.9782V9H13.5142L13.4482 8.256C13.2842 8.524 13.0662 8.742 12.7942 8.91C12.5262 9.074 12.2082 9.156 11.8402 9.156C11.3962 9.156 10.9802 9.072 10.5922 8.904C10.2042 8.736 9.86216 8.504 9.56616 8.208C9.27416 7.912 9.04416 7.57 8.87616 7.182C8.71216 6.794 8.63016 6.378 8.63016 5.934C8.63016 5.506 8.70816 5.104 8.86416 4.728C9.02416 4.352 9.24616 4.022 9.53016 3.738C9.81416 3.454 10.1422 3.232 10.5142 3.072C10.8862 2.912 11.2862 2.832 11.7142 2.832C12.1102 2.832 12.4642 2.92 12.7762 3.096C13.0922 3.272 13.3602 3.496 13.5802 3.768L13.5142 3ZM11.8042 7.746C12.1162 7.746 12.3922 7.668 12.6322 7.512C12.8722 7.356 13.0602 7.146 13.1962 6.882C13.3322 6.614 13.4002 6.32 13.4002 6C13.4002 5.676 13.3322 5.382 13.1962 5.118C13.0602 4.85 12.8702 4.638 12.6262 4.482C12.3862 4.326 12.1122 4.248 11.8042 4.248C11.4962 4.248 11.2142 4.328 10.9582 4.488C10.7062 4.644 10.5042 4.854 10.3522 5.118C10.2042 5.382 10.1302 5.676 10.1302 6C10.1302 6.324 10.2062 6.618 10.3582 6.882C10.5102 7.146 10.7122 7.356 10.9642 7.512C11.2202 7.668 11.5002 7.746 11.8042 7.746ZM16.5689 9V-7.15256e-07H18.0329V9H16.5689ZM22.3814 9.156C21.8294 9.156 21.3254 9.014 20.8694 8.73C20.4174 8.446 20.0554 8.064 19.7834 7.584C19.5154 7.104 19.3814 6.574 19.3814 5.994C19.3814 5.558 19.4594 5.15 19.6154 4.77C19.7714 4.386 19.9854 4.05 20.2574 3.762C20.5334 3.47 20.8534 3.242 21.2174 3.078C21.5814 2.914 21.9694 2.832 22.3814 2.832C22.8494 2.832 23.2774 2.932 23.6654 3.132C24.0574 3.328 24.3894 3.598 24.6614 3.942C24.9334 4.286 25.1314 4.678 25.2554 5.118C25.3794 5.558 25.4074 6.018 25.3394 6.498H20.9534C21.0094 6.722 21.1014 6.924 21.2294 7.104C21.3574 7.28 21.5194 7.422 21.7154 7.53C21.9114 7.634 22.1334 7.688 22.3814 7.692C22.6374 7.696 22.8694 7.636 23.0774 7.512C23.2894 7.384 23.4654 7.212 23.6054 6.996L25.0994 7.344C24.8554 7.876 24.4914 8.312 24.0074 8.652C23.5234 8.988 22.9814 9.156 22.3814 9.156ZM20.9054 5.4H23.8574C23.8134 5.16 23.7194 4.944 23.5754 4.752C23.4354 4.556 23.2614 4.4 23.0534 4.284C22.8454 4.168 22.6214 4.11 22.3814 4.11C22.1414 4.11 21.9194 4.168 21.7154 4.284C21.5114 4.396 21.3374 4.55 21.1934 4.746C21.0534 4.938 20.9574 5.156 20.9054 5.4ZM29.8916 4.464H28.7276V9H27.2636V4.464H26.3756V3H27.2636V1.116H28.7276V3H29.8916V4.464ZM37.6032 9.156C37.1392 9.156 36.6932 9.084 36.2652 8.94C35.8412 8.792 35.4692 8.582 35.1492 8.31C34.8292 8.034 34.5992 7.704 34.4592 7.32L35.8332 6.816C35.8892 6.976 36.0032 7.122 36.1752 7.254C36.3472 7.386 36.5572 7.492 36.8052 7.572C37.0532 7.652 37.3192 7.692 37.6032 7.692C37.8952 7.692 38.1672 7.648 38.4192 7.56C38.6752 7.468 38.8812 7.342 39.0372 7.182C39.1932 7.018 39.2712 6.828 39.2712 6.612C39.2712 6.392 39.1892 6.212 39.0252 6.072C38.8612 5.928 38.6512 5.814 38.3952 5.73C38.1392 5.646 37.8752 5.582 37.6032 5.538C37.0072 5.446 36.4732 5.304 36.0012 5.112C35.5292 4.92 35.1552 4.654 34.8792 4.314C34.6072 3.974 34.4712 3.534 34.4712 2.994C34.4712 2.486 34.6172 2.042 34.9092 1.662C35.2012 1.282 35.5852 0.986 36.0612 0.774C36.5372 0.562 37.0512 0.456 37.6032 0.456C38.0632 0.456 38.5072 0.528 38.9352 0.672C39.3632 0.816 39.7372 1.026 40.0572 1.302C40.3812 1.578 40.6132 1.91 40.7532 2.298L39.3732 2.796C39.3172 2.636 39.2032 2.49 39.0312 2.358C38.8592 2.226 38.6492 2.122 38.4012 2.046C38.1532 1.966 37.8872 1.926 37.6032 1.926C37.3192 1.922 37.0492 1.968 36.7932 2.064C36.5412 2.156 36.3352 2.282 36.1752 2.442C36.0152 2.602 35.9352 2.786 35.9352 2.994C35.9352 3.262 36.0092 3.464 36.1572 3.6C36.3092 3.736 36.5112 3.836 36.7632 3.9C37.0152 3.96 37.2952 4.016 37.6032 4.068C38.1632 4.156 38.6812 4.304 39.1572 4.512C39.6332 4.72 40.0152 4.998 40.3032 5.346C40.5912 5.69 40.7352 6.112 40.7352 6.612C40.7352 7.12 40.5912 7.566 40.3032 7.95C40.0152 8.33 39.6332 8.626 39.1572 8.838C38.6812 9.05 38.1632 9.156 37.6032 9.156ZM44.88 9.156C44.328 9.156 43.824 9.014 43.368 8.73C42.916 8.446 42.554 8.064 42.282 7.584C42.014 7.104 41.88 6.574 41.88 5.994C41.88 5.558 41.958 5.15 42.114 4.77C42.27 4.386 42.484 4.05 42.756 3.762C43.032 3.47 43.352 3.242 43.716 3.078C44.08 2.914 44.468 2.832 44.88 2.832C45.348 2.832 45.776 2.932 46.164 3.132C46.556 3.328 46.888 3.598 47.16 3.942C47.432 4.286 47.63 4.678 47.754 5.118C47.878 5.558 47.906 6.018 47.838 6.498H43.452C43.508 6.722 43.6 6.924 43.728 7.104C43.856 7.28 44.018 7.422 44.214 7.53C44.41 7.634 44.632 7.688 44.88 7.692C45.136 7.696 45.368 7.636 45.576 7.512C45.788 7.384 45.964 7.212 46.104 6.996L47.598 7.344C47.354 7.876 46.99 8.312 46.506 8.652C46.022 8.988 45.48 9.156 44.88 9.156ZM43.404 5.4H46.356C46.312 5.16 46.218 4.944 46.074 4.752C45.934 4.556 45.76 4.4 45.552 4.284C45.344 4.168 45.12 4.11 44.88 4.11C44.64 4.11 44.418 4.168 44.214 4.284C44.01 4.396 43.836 4.55 43.692 4.746C43.552 4.938 43.456 5.156 43.404 5.4ZM49.1802 9L49.1742 3H50.6382L50.6442 3.534C50.8482 3.318 51.0922 3.148 51.3762 3.024C51.6602 2.896 51.9662 2.832 52.2942 2.832C52.5142 2.832 52.7342 2.864 52.9542 2.928L52.3782 4.404C52.2262 4.344 52.0742 4.314 51.9222 4.314C51.6862 4.314 51.4702 4.372 51.2742 4.488C51.0822 4.6 50.9282 4.754 50.8122 4.95C50.7002 5.142 50.6442 5.356 50.6442 5.592V9H49.1802ZM57.8654 9H55.9754L53.7914 2.994H55.3514L56.9234 7.314L58.4894 2.994H60.0494L57.8654 9ZM61.2966 3H62.7606V9H61.2966V3ZM62.0406 2.226C61.8246 2.226 61.6426 2.156 61.4946 2.016C61.3466 1.872 61.2726 1.692 61.2726 1.476C61.2726 1.264 61.3466 1.086 61.4946 0.942C61.6426 0.798 61.8226 0.726 62.0346 0.726C62.2466 0.726 62.4246 0.798 62.5686 0.942C62.7166 1.086 62.7906 1.264 62.7906 1.476C62.7906 1.692 62.7186 1.872 62.5746 2.016C62.4306 2.156 62.2526 2.226 62.0406 2.226ZM68.1422 7.194L69.4622 7.908C69.1862 8.284 68.8402 8.586 68.4242 8.814C68.0082 9.042 67.5542 9.156 67.0622 9.156C66.5102 9.156 66.0062 9.014 65.5502 8.73C65.0982 8.446 64.7362 8.066 64.4642 7.59C64.1962 7.11 64.0622 6.58 64.0622 6C64.0622 5.56 64.1402 5.15 64.2962 4.77C64.4522 4.386 64.6662 4.05 64.9382 3.762C65.2142 3.47 65.5342 3.242 65.8982 3.078C66.2622 2.914 66.6502 2.832 67.0622 2.832C67.5542 2.832 68.0082 2.946 68.4242 3.174C68.8402 3.402 69.1862 3.708 69.4622 4.092L68.1422 4.8C68.0022 4.64 67.8362 4.516 67.6442 4.428C67.4562 4.34 67.2622 4.296 67.0622 4.296C66.7742 4.296 66.5142 4.376 66.2822 4.536C66.0502 4.692 65.8662 4.9 65.7302 5.16C65.5942 5.416 65.5262 5.696 65.5262 6C65.5262 6.3 65.5942 6.58 65.7302 6.84C65.8662 7.096 66.0502 7.302 66.2822 7.458C66.5142 7.614 66.7742 7.692 67.0622 7.692C67.2702 7.692 67.4682 7.648 67.6562 7.56C67.8442 7.468 68.0062 7.346 68.1422 7.194ZM73.3519 9.156C72.7999 9.156 72.2959 9.014 71.8399 8.73C71.3879 8.446 71.0259 8.064 70.7539 7.584C70.4859 7.104 70.3519 6.574 70.3519 5.994C70.3519 5.558 70.4299 5.15 70.5859 4.77C70.7419 4.386 70.9559 4.05 71.2279 3.762C71.5039 3.47 71.8239 3.242 72.1879 3.078C72.5519 2.914 72.9399 2.832 73.3519 2.832C73.8199 2.832 74.2479 2.932 74.6359 3.132C75.0279 3.328 75.3599 3.598 75.6319 3.942C75.9039 4.286 76.1019 4.678 76.2259 5.118C76.3499 5.558 76.3779 6.018 76.3099 6.498H71.9239C71.9799 6.722 72.0719 6.924 72.1999 7.104C72.3279 7.28 72.4899 7.422 72.6859 7.53C72.8819 7.634 73.1039 7.688 73.3519 7.692C73.6079 7.696 73.8399 7.636 74.0479 7.512C74.2599 7.384 74.4359 7.212 74.5759 6.996L76.0699 7.344C75.8259 7.876 75.4619 8.312 74.9779 8.652C74.4939 8.988 73.9519 9.156 73.3519 9.156ZM71.8759 5.4H74.8279C74.7839 5.16 74.6899 4.944 74.5459 4.752C74.4059 4.556 74.2319 4.4 74.0239 4.284C73.8159 4.168 73.5919 4.11 73.3519 4.11C73.1119 4.11 72.8899 4.168 72.6859 4.284C72.4819 4.396 72.3079 4.55 72.1639 4.746C72.0239 4.938 71.9279 5.156 71.8759 5.4Z" fill="url(#paint0_linear_886_4242)"/>
<defs>
<linearGradient id="paint0_linear_886_4242" x1="75.5741" y1="-2" x2="35.7881" y2="44.471" gradientUnits="userSpaceOnUse">
<stop stop-color="#00A7F7"/>
<stop offset="1" stop-color="#00FC92"/>
</linearGradient>
</defs>
</svg>
