<svg width="22" height="22" viewBox="0 0 22 22" fill="none" xmlns="http://www.w3.org/2000/svg">
<g id="Frame" clip-path="url(#clip0_886_4239)">
<g id="Group">
<path id="Vector" d="M1.46668 21.9999H4.89319C5.10479 21.9997 5.31385 21.9537 5.506 21.8651C5.69815 21.7765 5.86886 21.6474 6.00639 21.4866L6.44638 20.9732C6.54915 20.8369 6.68208 20.7263 6.83475 20.65C6.98742 20.5736 7.15569 20.5337 7.32638 20.5332H14.3073C14.7697 20.5197 15.209 20.328 15.5334 19.9983L20.1117 15.3416C20.6663 14.7815 20.682 13.8843 20.1473 13.3051C19.6126 12.726 18.7169 12.6701 18.1144 13.1783L15.1316 15.6735C14.9876 15.474 14.798 15.3119 14.5787 15.2005C14.3593 15.0892 14.1166 15.0318 13.8706 15.0333H9.76617C9.69015 15.0359 9.61555 15.0122 9.55499 14.9662C9.03077 14.5352 8.37313 14.2997 7.69451 14.3C6.82428 14.2754 5.95876 14.4359 5.15523 14.7709C4.3517 15.106 3.62848 15.6078 3.03344 16.2433C2.81345 16.4633 2.56556 16.7174 2.29717 16.9972L0.382459 19.0956C0.136345 19.3657 -4.85794e-05 19.718 1.29794e-08 20.0834V20.5333C1.29794e-08 21.3433 0.656655 21.9999 1.46668 21.9999ZM0.733342 20.0834C0.733476 19.9008 0.80173 19.7248 0.924752 19.5898L2.83142 17.4961C3.06828 17.248 3.30796 17.0026 3.55043 16.7599C4.07947 16.195 4.7225 15.7489 5.43693 15.4512C6.15135 15.1536 6.92087 15.0111 7.69451 15.0333C8.20313 15.0305 8.69646 15.2071 9.08783 15.5319C9.28002 15.6862 9.51973 15.7691 9.76617 15.7666H13.8706C14.041 15.7636 14.2078 15.8154 14.3464 15.9145C14.4851 16.0135 14.5882 16.1545 14.6406 16.3166C14.6437 16.3356 14.6481 16.3543 14.6538 16.3727C14.6598 16.4023 14.6634 16.4321 14.6648 16.4622C14.6701 16.5617 14.655 16.6612 14.6205 16.7547C14.586 16.8481 14.5328 16.9336 14.4642 17.0058C14.3955 17.078 14.3129 17.1355 14.2213 17.1748C14.1298 17.214 14.0311 17.2342 13.9315 17.234H9.52893C9.32644 17.234 9.16228 17.3982 9.16228 17.6007C9.16228 17.8032 9.32644 17.9673 9.52893 17.9673H13.9307C14.1297 17.9676 14.3266 17.9274 14.5095 17.8491C14.6924 17.7709 14.8575 17.6562 14.9947 17.5122C15.1318 17.3681 15.2383 17.1976 15.3075 17.0111C15.3768 16.8247 15.4074 16.626 15.3974 16.4273V16.4105L18.5874 13.7408C18.8901 13.4861 19.3395 13.5144 19.6078 13.8049C19.8762 14.0954 19.8688 14.5456 19.591 14.8272L15.0135 19.4839C14.8244 19.6768 14.5685 19.7899 14.2985 19.7999H7.32782C7.04718 19.7996 6.77022 19.8639 6.51838 19.9877C6.26654 20.1116 6.04656 20.2917 5.87547 20.5142L5.44977 21.0099C5.38101 21.0903 5.29566 21.1549 5.19959 21.1992C5.10351 21.2435 4.99899 21.2665 4.89319 21.2666H1.46668C1.06167 21.2666 0.733342 20.9382 0.733342 20.5332V20.0834ZM20.9 1.09995H20.1667C19.9546 1.1004 19.7472 1.16214 19.5694 1.27774C19.3916 1.39334 19.251 1.55787 19.1646 1.75151L12.6221 0.0534699C12.3169 -0.0200955 11.9983 -0.0177172 11.6942 0.0603965C11.3902 0.13851 11.1099 0.289978 10.8779 0.501537L9.34705 1.89485C8.22497 2.10813 7.32966 2.95508 7.05449 4.06363C6.77932 5.17217 7.17459 6.33947 8.06665 7.05275V11.7332C8.06784 11.9276 8.14449 12.1139 8.28043 12.2528L9.38043 13.3528C9.66762 13.6391 10.1324 13.6391 10.4196 13.3528L11.5269 12.2455C11.6589 12.1075 11.7328 11.9241 11.7333 11.7332V7.05459C11.7674 7.02709 11.7993 6.99591 11.8323 6.96661H15.1653C15.2421 6.96354 15.3177 6.98711 15.3791 7.03333C15.9025 7.46398 16.5592 7.69959 17.237 7.69995H17.9667C18.4414 7.69952 18.8973 7.51406 19.2375 7.18295C19.3359 7.34083 19.4728 7.4711 19.6353 7.56154C19.7978 7.65198 19.9807 7.6996 20.1667 7.69995H20.9C21.5075 7.69995 22 7.20746 22 6.59995V2.19994C22 1.59244 21.5075 1.09995 20.9 1.09995ZM7.7 4.76658C7.70408 3.67673 8.50393 2.75342 9.58209 2.59409C9.68705 2.57569 9.79342 2.56649 9.89999 2.56659C10.8299 2.5706 11.6574 3.15717 11.9691 4.03328H11.0037C10.8046 4.03245 10.6074 4.07228 10.4242 4.15033C10.241 4.22838 10.0757 4.34301 9.93842 4.48719C9.8011 4.63137 9.69467 4.80206 9.62564 4.98882C9.55662 5.17558 9.52644 5.37446 9.53698 5.57329C9.55818 5.86441 9.66462 6.14284 9.84302 6.37386C10.0214 6.60488 10.2639 6.77826 10.5402 6.87238C10.2113 6.9724 9.86357 6.99396 9.52485 6.93534C9.18613 6.87671 8.86587 6.73953 8.58974 6.5348C8.3136 6.33006 8.08929 6.06347 7.93477 5.75641C7.78026 5.44934 7.69985 5.11033 7.7 4.76658ZM9.89999 12.8333L8.79999 11.7333V7.48396C9.03512 7.5791 9.28164 7.64319 9.53333 7.67462V10.2666C9.53333 10.4691 9.6975 10.6332 9.89999 10.6332C10.1025 10.6332 10.2666 10.4691 10.2666 10.2666V7.67462C10.5182 7.64401 10.7647 7.58078 11 7.48653V11.7333L9.89999 12.8333ZM19.0667 5.86661C19.0667 6.47412 18.5742 6.96661 17.9667 6.96661H17.237C16.7291 6.96874 16.2366 6.79208 15.8459 6.46758C15.653 6.31305 15.4125 6.23024 15.1654 6.2333H11.0623C10.6565 6.24424 10.3109 5.94048 10.2696 5.53663C10.2641 5.43715 10.2789 5.33759 10.3134 5.24409C10.3478 5.15059 10.401 5.06513 10.4697 4.99298C10.5384 4.92083 10.6211 4.86353 10.7129 4.82459C10.8046 4.78566 10.9033 4.76593 11.0029 4.76662H15.4029C15.6054 4.76662 15.7696 4.60245 15.7696 4.39997C15.7696 4.19748 15.6054 4.03331 15.4029 4.03331H12.7358C12.449 2.93653 11.5585 2.10149 10.4456 1.88576L11.3718 1.04242C11.5143 0.912062 11.6865 0.818497 11.8734 0.769867C12.0603 0.721236 12.2563 0.719013 12.4443 0.763391L19.0667 2.48301V5.86661ZM21.2667 6.59992C21.2667 6.80241 21.1025 6.96657 20.9 6.96657H20.1667C19.9642 6.96657 19.8 6.80241 19.8 6.59992V2.19994C19.8 1.99745 19.9642 1.83329 20.1667 1.83329H20.9C21.1025 1.83329 21.2667 1.99745 21.2667 2.19994V6.59992Z" fill="url(#paint0_linear_886_4239)"/>
</g>
</g>
<defs>
<linearGradient id="paint0_linear_886_4239" x1="21.5926" y1="-8.33305e-07" x2="-4.12341" y2="5.46128" gradientUnits="userSpaceOnUse">
<stop stop-color="#00A7F7"/>
<stop offset="1" stop-color="#00FC92"/>
</linearGradient>
<clipPath id="clip0_886_4239">
<rect width="22" height="22" fill="white"/>
</clipPath>
</defs>
</svg>
