<svg width="42" height="40" viewBox="0 0 42 40" fill="none" xmlns="http://www.w3.org/2000/svg">
<g id="Vector" filter="url(#filter0_bd_886_4226)">
<mask id="path-1-inside-1_886_4226" fill="white">
<path d="M21 9.94001H29.3672C29.5141 9.94001 29.4016 9.93956 29.438 9.93971C29.6534 9.94077 29.8368 9.94152 30.0648 9.86099C30.4979 9.70821 30.7807 9.37799 30.9129 8.99355C30.9709 8.82499 31 8.64697 31 8.47001C31 8.29303 30.9709 8.11501 30.9129 7.94646C30.7806 7.56202 30.4979 7.23182 30.0648 7.07902C29.8366 6.9985 29.6534 6.9994 29.438 7.0003C29.4016 7.00045 29.5141 7 29.3672 7H12.6328C12.4859 7 12.5984 7.00045 12.562 7.0003C12.3466 6.99925 12.1632 6.9985 11.9352 7.07902C11.5021 7.23181 11.2193 7.56203 11.0871 7.94646C11.0291 8.11502 11 8.29305 11 8.47001C11 8.64698 11.0291 8.825 11.0871 8.99355C11.2194 9.37799 11.5021 9.70819 11.9352 9.86099C12.1634 9.94152 12.3466 9.94061 12.562 9.93971C12.5984 9.93956 12.4859 9.94001 12.6328 9.94001H21ZM29.3672 22.06H12.6328C12.4859 22.06 12.5984 22.0604 12.562 22.0603C12.3466 22.0592 12.1632 22.0585 11.9352 22.139C11.5021 22.2918 11.2193 22.622 11.0871 23.0064C11.0291 23.175 11 23.353 11 23.53C11 23.707 11.0291 23.885 11.0871 24.0535C11.2194 24.438 11.5021 24.7682 11.9352 24.921C12.1634 25.0015 12.3466 25.0006 12.562 24.9997C12.5984 24.9995 12.4859 25 12.6328 25H29.3672C29.5141 25 29.4016 24.9995 29.438 24.9997C29.6534 25.0007 29.8368 25.0015 30.0648 24.921C30.4979 24.7682 30.7807 24.438 30.9129 24.0535C30.9709 23.885 31 23.707 31 23.53C31 23.353 30.9709 23.175 30.9129 23.0064C30.7806 22.622 30.4979 22.2918 30.0648 22.139C29.8366 22.0585 29.6534 22.0594 29.438 22.0603C29.4016 22.0604 29.5141 22.06 29.3672 22.06ZM21 17.4699H29.3672C29.5141 17.4699 29.4016 17.4694 29.438 17.4696C29.6534 17.4707 29.8368 17.4714 30.0648 17.3909C30.4979 17.2381 30.7807 16.9079 30.9129 16.5234C30.9709 16.3549 31 16.1769 31 15.9999C31 15.8229 30.9709 15.6449 30.9129 15.4764C30.7806 15.0919 30.4979 14.7617 30.0648 14.6089C29.8366 14.5284 29.6534 14.5293 29.438 14.5302C29.4016 14.5303 29.5141 14.5299 29.3672 14.5299H12.6328C12.4859 14.5299 12.5984 14.5303 12.562 14.5302C12.3466 14.5291 12.1632 14.5284 11.9352 14.6089C11.5021 14.7617 11.2193 15.0919 11.0871 15.4764C11.0291 15.6449 11 15.8229 11 15.9999C11 16.1769 11.0291 16.3549 11.0871 16.5234C11.2194 16.9079 11.5021 17.2381 11.9352 17.3909C12.1634 17.4714 12.3466 17.4705 12.562 17.4696C12.5984 17.4694 12.4859 17.4699 12.6328 17.4699H21Z"/>
</mask>
<path d="M21 9.94001H29.3672C29.5141 9.94001 29.4016 9.93956 29.438 9.93971C29.6534 9.94077 29.8368 9.94152 30.0648 9.86099C30.4979 9.70821 30.7807 9.37799 30.9129 8.99355C30.9709 8.82499 31 8.64697 31 8.47001C31 8.29303 30.9709 8.11501 30.9129 7.94646C30.7806 7.56202 30.4979 7.23182 30.0648 7.07902C29.8366 6.9985 29.6534 6.9994 29.438 7.0003C29.4016 7.00045 29.5141 7 29.3672 7H12.6328C12.4859 7 12.5984 7.00045 12.562 7.0003C12.3466 6.99925 12.1632 6.9985 11.9352 7.07902C11.5021 7.23181 11.2193 7.56203 11.0871 7.94646C11.0291 8.11502 11 8.29305 11 8.47001C11 8.64698 11.0291 8.825 11.0871 8.99355C11.2194 9.37799 11.5021 9.70819 11.9352 9.86099C12.1634 9.94152 12.3466 9.94061 12.562 9.93971C12.5984 9.93956 12.4859 9.94001 12.6328 9.94001H21ZM29.3672 22.06H12.6328C12.4859 22.06 12.5984 22.0604 12.562 22.0603C12.3466 22.0592 12.1632 22.0585 11.9352 22.139C11.5021 22.2918 11.2193 22.622 11.0871 23.0064C11.0291 23.175 11 23.353 11 23.53C11 23.707 11.0291 23.885 11.0871 24.0535C11.2194 24.438 11.5021 24.7682 11.9352 24.921C12.1634 25.0015 12.3466 25.0006 12.562 24.9997C12.5984 24.9995 12.4859 25 12.6328 25H29.3672C29.5141 25 29.4016 24.9995 29.438 24.9997C29.6534 25.0007 29.8368 25.0015 30.0648 24.921C30.4979 24.7682 30.7807 24.438 30.9129 24.0535C30.9709 23.885 31 23.707 31 23.53C31 23.353 30.9709 23.175 30.9129 23.0064C30.7806 22.622 30.4979 22.2918 30.0648 22.139C29.8366 22.0585 29.6534 22.0594 29.438 22.0603C29.4016 22.0604 29.5141 22.06 29.3672 22.06ZM21 17.4699H29.3672C29.5141 17.4699 29.4016 17.4694 29.438 17.4696C29.6534 17.4707 29.8368 17.4714 30.0648 17.3909C30.4979 17.2381 30.7807 16.9079 30.9129 16.5234C30.9709 16.3549 31 16.1769 31 15.9999C31 15.8229 30.9709 15.6449 30.9129 15.4764C30.7806 15.0919 30.4979 14.7617 30.0648 14.6089C29.8366 14.5284 29.6534 14.5293 29.438 14.5302C29.4016 14.5303 29.5141 14.5299 29.3672 14.5299H12.6328C12.4859 14.5299 12.5984 14.5303 12.562 14.5302C12.3466 14.5291 12.1632 14.5284 11.9352 14.6089C11.5021 14.7617 11.2193 15.0919 11.0871 15.4764C11.0291 15.6449 11 15.8229 11 15.9999C11 16.1769 11.0291 16.3549 11.0871 16.5234C11.2194 16.9079 11.5021 17.2381 11.9352 17.3909C12.1634 17.4714 12.3466 17.4705 12.562 17.4696C12.5984 17.4694 12.4859 17.4699 12.6328 17.4699H21Z" fill="url(#paint0_linear_886_4226)"/>
<path d="M29.438 9.93971L29.4405 9.32782L29.441 9.32783L29.438 9.93971ZM30.0648 9.86099L29.8611 9.28401L29.8613 9.28395L30.0648 9.86099ZM30.9129 8.99355L30.3343 8.7946L30.3343 8.79442L30.9129 8.99355ZM30.9129 7.94646L31.4915 7.74729L31.4915 7.74732L30.9129 7.94646ZM30.0648 7.07902L29.8612 7.65606L29.8612 7.65604L30.0648 7.07902ZM29.438 7.0003L29.4405 7.61219L29.4405 7.61219L29.438 7.0003ZM12.562 7.0003L12.5595 7.61219L12.559 7.61219L12.562 7.0003ZM11.9352 7.07902L12.1389 7.656L12.1387 7.65606L11.9352 7.07902ZM11.0871 7.94646L11.6657 8.14542L11.6657 8.14559L11.0871 7.94646ZM11.0871 8.99355L10.5085 9.19273L10.5085 9.1927L11.0871 8.99355ZM11.9352 9.86099L12.1388 9.28396L12.1388 9.28397L11.9352 9.86099ZM12.562 9.93971L12.5595 9.32782H12.5595L12.562 9.93971ZM12.562 22.0603L12.5595 22.6722L12.559 22.6722L12.562 22.0603ZM11.9352 22.139L12.1389 22.716L12.1387 22.716L11.9352 22.139ZM11.0871 23.0064L11.6657 23.2054L11.6657 23.2056L11.0871 23.0064ZM11.0871 24.0535L10.5085 24.2527L10.5085 24.2527L11.0871 24.0535ZM11.9352 24.921L12.1388 24.3439L12.1388 24.344L11.9352 24.921ZM12.562 24.9997L12.5595 24.3878H12.5595L12.562 24.9997ZM29.438 24.9997L29.4405 24.3878L29.441 24.3878L29.438 24.9997ZM30.0648 24.921L29.8611 24.344L29.8613 24.3439L30.0648 24.921ZM30.9129 24.0535L30.3343 23.8546L30.3343 23.8544L30.9129 24.0535ZM30.9129 23.0064L31.4915 22.8073L31.4915 22.8073L30.9129 23.0064ZM30.0648 22.139L29.8612 22.716L29.8612 22.716L30.0648 22.139ZM29.438 22.0603L29.4405 22.6722H29.4405L29.438 22.0603ZM29.438 17.4696L29.4405 16.8577L29.441 16.8577L29.438 17.4696ZM30.0648 17.3909L29.8611 16.8139L29.8613 16.8138L30.0648 17.3909ZM30.9129 16.5234L30.3343 16.3245L30.3343 16.3243L30.9129 16.5234ZM30.9129 15.4764L31.4915 15.2772L31.4915 15.2772L30.9129 15.4764ZM30.0648 14.6089L29.8612 15.1859L29.8612 15.1859L30.0648 14.6089ZM29.438 14.5302L29.4405 15.1421H29.4405L29.438 14.5302ZM12.562 14.5302L12.5595 15.1421L12.559 15.1421L12.562 14.5302ZM11.9352 14.6089L12.1389 15.1859L12.1387 15.1859L11.9352 14.6089ZM11.0871 15.4764L11.6657 15.6753L11.6657 15.6755L11.0871 15.4764ZM11.0871 16.5234L10.5085 16.7226L10.5085 16.7226L11.0871 16.5234ZM11.9352 17.3909L12.1388 16.8138L12.1388 16.8139L11.9352 17.3909ZM12.562 17.4696L12.5595 16.8577H12.5595L12.562 17.4696ZM21 9.32812H29.3672V10.5519H21V9.32812ZM29.3672 9.32812C29.4039 9.32812 29.4234 9.32809 29.4328 9.32806C29.4351 9.32805 29.4364 9.32804 29.4369 9.32804C29.4382 9.32803 29.4361 9.32803 29.4326 9.3281C29.4316 9.32812 29.4296 9.32816 29.427 9.32824C29.4253 9.32829 29.4194 9.32846 29.4118 9.32888C29.4084 9.32906 29.3999 9.32955 29.389 9.33055C29.3837 9.33104 29.3737 9.33203 29.3612 9.33377C29.3553 9.33461 29.3418 9.33676 29.3342 9.33812C29.3237 9.34015 29.2983 9.34586 29.2834 9.34975C29.2601 9.35664 29.1976 9.38034 29.1592 9.39894C29.084 9.44602 28.9004 9.66143 28.8403 9.84794C28.8501 10.082 29.0241 10.3838 29.1166 10.456C29.1633 10.4829 29.2392 10.516 29.2667 10.5251C29.2838 10.5301 29.3128 10.5372 29.3245 10.5397C29.333 10.5414 29.3478 10.5439 29.3542 10.5449C29.3677 10.547 29.3785 10.5481 29.384 10.5487C29.3955 10.5498 29.4044 10.5504 29.4079 10.5506C29.4123 10.5509 29.4159 10.551 29.418 10.5511C29.4222 10.5513 29.4256 10.5514 29.427 10.5515C29.4301 10.5516 29.4324 10.5516 29.433 10.5516C29.435 10.5516 29.4356 10.5516 29.4331 10.5516C29.4315 10.5516 29.4296 10.5516 29.4281 10.5516C29.4276 10.5516 29.4266 10.5516 29.426 10.5516C29.4258 10.5516 29.4253 10.5516 29.4247 10.5516C29.4245 10.5516 29.4237 10.5515 29.4226 10.5515C29.4222 10.5515 29.4209 10.5515 29.4192 10.5515C29.4183 10.5515 29.4158 10.5514 29.4143 10.5514C29.4113 10.5513 29.4001 10.5508 29.3918 10.5504C29.2736 10.5312 28.8297 9.82264 29.3875 9.32928C29.3998 9.32855 29.4158 9.32796 29.4195 9.32788C29.424 9.3278 29.4276 9.32779 29.4277 9.32779C29.4293 9.32779 29.4307 9.32779 29.4308 9.32779C29.4316 9.32779 29.4322 9.32779 29.4323 9.32779C29.4335 9.32779 29.4364 9.32781 29.4405 9.32782L29.4354 10.5516C29.4331 10.5516 29.4315 10.5516 29.4303 10.5516C29.4289 10.5516 29.4286 10.5516 29.4287 10.5516C29.4287 10.5516 29.4289 10.5516 29.429 10.5516C29.4291 10.5516 29.4294 10.5516 29.4298 10.5516C29.4299 10.5516 29.4312 10.5516 29.4329 10.5516C29.4329 10.5516 29.4365 10.5516 29.441 10.5515C29.4447 10.5514 29.4608 10.5508 29.473 10.5501C30.0309 10.0567 29.5869 9.34818 29.4687 9.329C29.4605 9.32853 29.4492 9.32808 29.4463 9.328C29.4447 9.32796 29.4422 9.32791 29.4413 9.32789C29.4396 9.32786 29.4383 9.32784 29.4379 9.32784C29.4369 9.32782 29.4361 9.32782 29.436 9.32782C29.4357 9.32781 29.4354 9.32781 29.4353 9.32781C29.4352 9.32781 29.4351 9.32781 29.4351 9.32781C29.435 9.32781 29.435 9.32781 29.4353 9.32781C29.4356 9.32781 29.4359 9.32781 29.4363 9.32782C29.438 9.32783 29.4407 9.32785 29.4436 9.32787C29.4455 9.32789 29.4504 9.32793 29.455 9.32801C29.4563 9.32803 29.4591 9.32809 29.4627 9.32819C29.4643 9.32824 29.4678 9.32835 29.4722 9.32854C29.4744 9.32864 29.478 9.32881 29.4825 9.32908C29.486 9.3293 29.495 9.32986 29.5065 9.33102C29.512 9.33158 29.5228 9.33273 29.5363 9.33477C29.5427 9.33576 29.5576 9.33834 29.566 9.33999C29.5777 9.34246 29.6067 9.34963 29.6239 9.3546C29.6513 9.36369 29.7272 9.39677 29.7739 9.42369C29.8664 9.49593 30.0404 9.79771 30.0502 10.0318C29.9902 10.2183 29.8066 10.4337 29.7313 10.4808C29.693 10.4994 29.6304 10.5231 29.6071 10.53C29.5922 10.5338 29.5668 10.5396 29.5563 10.5416C29.5487 10.5429 29.5352 10.5451 29.5293 10.5459C29.5168 10.5477 29.5068 10.5487 29.5015 10.5492C29.4905 10.5502 29.482 10.5507 29.4785 10.5508C29.4708 10.5513 29.4647 10.5514 29.4628 10.5515C29.4601 10.5516 29.4578 10.5516 29.4565 10.5517C29.4518 10.5517 29.4476 10.5518 29.4458 10.5518C29.4433 10.5518 29.4404 10.5518 29.4374 10.5518C29.4254 10.5519 29.4039 10.5519 29.3672 10.5519V9.32812ZM29.441 9.32783C29.6571 9.32888 29.7437 9.32547 29.8611 9.28401L30.2686 10.438C29.9299 10.5576 29.6497 10.5527 29.435 10.5516L29.441 9.32783ZM29.8613 9.28395C30.0976 9.20057 30.2554 9.02403 30.3343 8.7946L31.4916 9.1925C31.3061 9.73194 30.8982 10.2158 30.2684 10.438L29.8613 9.28395ZM30.3343 8.79442C30.3698 8.6912 30.3881 8.58056 30.3881 8.47001H31.6119C31.6119 8.71338 31.572 8.95878 31.4915 9.19268L30.3343 8.79442ZM30.3881 8.47001C30.3881 8.35944 30.3698 8.2488 30.3343 8.14561L31.4915 7.74732C31.572 7.98122 31.6119 8.22663 31.6119 8.47001H30.3881ZM30.3343 8.14564C30.2552 7.91588 30.0975 7.7394 29.8612 7.65606L30.2684 6.50199C30.8983 6.72424 31.3059 7.20817 31.4915 7.74729L30.3343 8.14564ZM29.8612 7.65604C29.7436 7.61455 29.6574 7.61128 29.4405 7.61219L29.4354 6.38841C29.6494 6.38752 29.9296 6.38244 30.2685 6.502L29.8612 7.65604ZM29.4405 7.61219C29.4364 7.61221 29.4335 7.61222 29.4323 7.61222C29.4322 7.61222 29.4316 7.61223 29.4308 7.61223C29.4307 7.61223 29.4293 7.61223 29.4277 7.61222C29.4276 7.61222 29.424 7.61221 29.4195 7.61213C29.4158 7.61205 29.3997 7.61146 29.3874 7.61072C28.8293 7.11566 29.2753 6.4084 29.3919 6.38964C29.4001 6.38918 29.4113 6.38873 29.4143 6.38864C29.4158 6.38861 29.4183 6.38855 29.4192 6.38853C29.4209 6.3885 29.4222 6.38849 29.4226 6.38848C29.4237 6.38847 29.4245 6.38846 29.4247 6.38846C29.4253 6.38846 29.4258 6.38845 29.426 6.38845C29.4266 6.38845 29.4276 6.38844 29.4281 6.38844C29.4296 6.38843 29.4315 6.38841 29.4331 6.3884C29.4356 6.38838 29.435 6.38837 29.433 6.38841C29.4324 6.38842 29.4301 6.38846 29.427 6.38855C29.4256 6.3886 29.4222 6.3887 29.418 6.38888C29.4159 6.38898 29.4123 6.38915 29.4079 6.38942C29.4044 6.38963 29.3955 6.3902 29.384 6.39135C29.3784 6.39191 29.3676 6.39306 29.3541 6.3951C29.3478 6.39609 29.3329 6.39867 29.3245 6.40031C29.3127 6.40279 29.2838 6.40997 29.2666 6.41494C29.2391 6.42404 29.1632 6.45718 29.1164 6.48414C29.0239 6.55651 28.85 6.85863 28.8404 7.09278C28.9006 7.27904 29.0841 7.49413 29.1593 7.54113C29.1976 7.55972 29.2602 7.58339 29.2835 7.59028C29.2983 7.59416 29.3238 7.59987 29.3342 7.6019C29.3418 7.60325 29.3553 7.60541 29.3612 7.60625C29.3737 7.60798 29.3837 7.60897 29.389 7.60946C29.3999 7.61047 29.4084 7.61095 29.4118 7.61114C29.4194 7.61155 29.4253 7.61173 29.427 7.61178C29.4296 7.61185 29.4316 7.61189 29.4326 7.61191C29.4361 7.61198 29.4382 7.61199 29.4369 7.61198C29.4364 7.61198 29.4351 7.61197 29.4328 7.61196C29.4234 7.61192 29.4039 7.6119 29.3672 7.6119V6.3881C29.4039 6.3881 29.4254 6.38813 29.4374 6.38818C29.4404 6.38819 29.4433 6.3882 29.4458 6.38822C29.4476 6.38823 29.4518 6.38827 29.4565 6.38836C29.4578 6.38838 29.4601 6.38843 29.4628 6.38851C29.4647 6.38857 29.4708 6.38875 29.4785 6.38917C29.482 6.38936 29.4905 6.38984 29.5015 6.39085C29.5068 6.39134 29.5168 6.39233 29.5293 6.39407C29.5352 6.39491 29.5487 6.39707 29.5563 6.39842C29.5668 6.40045 29.5922 6.40616 29.6071 6.41005C29.6304 6.41693 29.6929 6.44061 29.7312 6.4592C29.8064 6.5062 29.9899 6.72129 30.0501 6.90755C30.0406 7.1417 29.8667 7.44382 29.7741 7.51619C29.7274 7.54315 29.6514 7.57629 29.6239 7.58539C29.6068 7.59037 29.5778 7.59754 29.5661 7.60002C29.5576 7.60166 29.5427 7.60425 29.5364 7.60524C29.5229 7.60728 29.5121 7.60843 29.5065 7.60899C29.495 7.61015 29.486 7.61072 29.4825 7.61093C29.478 7.61121 29.4744 7.61138 29.4722 7.61148C29.4678 7.61167 29.4643 7.61178 29.4627 7.61182C29.4591 7.61193 29.4563 7.61198 29.4551 7.612C29.4504 7.61209 29.4455 7.61213 29.4436 7.61214C29.4407 7.61217 29.438 7.61219 29.4363 7.6122C29.4359 7.6122 29.4356 7.6122 29.4353 7.61221C29.435 7.61221 29.435 7.61221 29.4351 7.61221C29.4351 7.61221 29.4352 7.61221 29.4353 7.6122C29.4354 7.6122 29.4357 7.6122 29.436 7.6122C29.4361 7.6122 29.4369 7.61219 29.4379 7.61218C29.4383 7.61217 29.4396 7.61216 29.4413 7.61213C29.4422 7.61211 29.4447 7.61206 29.4463 7.61202C29.4492 7.61193 29.4605 7.61148 29.4687 7.61102C29.5853 7.59227 30.0312 6.885 29.4732 6.38994C29.4609 6.3892 29.4448 6.38861 29.441 6.38853C29.4365 6.38845 29.4329 6.38844 29.4329 6.38844C29.4313 6.38843 29.4299 6.38844 29.4298 6.38844C29.4294 6.38844 29.4291 6.38844 29.429 6.38844C29.4289 6.38844 29.4287 6.38844 29.4287 6.38844C29.4286 6.38844 29.4289 6.38844 29.4303 6.38843C29.4315 6.38843 29.4331 6.38842 29.4354 6.38841L29.4405 7.61219ZM29.3672 7.6119H12.6328V6.3881H29.3672V7.6119ZM12.6328 7.6119C12.5961 7.6119 12.5766 7.61192 12.5672 7.61196C12.5649 7.61197 12.5636 7.61198 12.5631 7.61198C12.5618 7.61199 12.5639 7.61198 12.5674 7.61191C12.5684 7.61189 12.5704 7.61185 12.573 7.61178C12.5747 7.61173 12.5806 7.61155 12.5882 7.61114C12.5916 7.61095 12.6001 7.61047 12.611 7.60947C12.6163 7.60898 12.6263 7.60799 12.6388 7.60626C12.6446 7.60542 12.6581 7.60327 12.6657 7.60192C12.6761 7.5999 12.7015 7.59421 12.7163 7.59034C12.7395 7.58349 12.8018 7.55995 12.84 7.54149C12.9149 7.49486 13.0982 7.28133 13.159 7.09617C13.1507 6.86143 12.9774 6.55767 12.8844 6.48469C12.8375 6.45753 12.7613 6.42418 12.7337 6.41503C12.7165 6.41003 12.6874 6.40283 12.6757 6.40034C12.6672 6.39869 12.6523 6.3961 12.6459 6.39511C12.6324 6.39307 12.6216 6.39191 12.616 6.39135C12.6046 6.3902 12.5956 6.38963 12.5921 6.38942C12.5877 6.38915 12.5841 6.38898 12.582 6.38888C12.5778 6.3887 12.5745 6.3886 12.573 6.38855C12.5699 6.38846 12.5676 6.38842 12.567 6.38841C12.565 6.38837 12.5644 6.38838 12.5669 6.3884C12.5685 6.38841 12.5704 6.38843 12.5719 6.38844C12.5724 6.38844 12.5734 6.38845 12.5741 6.38845C12.5742 6.38845 12.5747 6.38846 12.5753 6.38846C12.5755 6.38846 12.5763 6.38847 12.5774 6.38848C12.5778 6.38849 12.5791 6.3885 12.5808 6.38854C12.5817 6.38855 12.5842 6.38861 12.5858 6.38865C12.5888 6.38873 12.6001 6.38919 12.6084 6.38966C12.7304 6.40991 13.1695 7.12148 12.6123 7.61074C12.6001 7.61147 12.5842 7.61206 12.5805 7.61213C12.576 7.61221 12.5724 7.61222 12.5723 7.61222C12.5707 7.61223 12.5693 7.61223 12.5692 7.61223C12.5684 7.61223 12.5678 7.61222 12.5677 7.61222C12.5665 7.61222 12.5636 7.61221 12.5595 7.61219L12.5646 6.38841C12.5669 6.38842 12.5685 6.38843 12.5697 6.38843C12.5711 6.38844 12.5714 6.38844 12.5713 6.38844C12.5713 6.38844 12.5711 6.38844 12.571 6.38844C12.5709 6.38844 12.5706 6.38844 12.5702 6.38844C12.5701 6.38844 12.5687 6.38843 12.5671 6.38844C12.5671 6.38844 12.5635 6.38845 12.559 6.38853C12.5553 6.38861 12.5393 6.38919 12.5271 6.38992C11.9699 6.87918 12.409 7.59075 12.5311 7.61101C12.5394 7.61147 12.5507 7.61193 12.5537 7.61202C12.5552 7.61205 12.5577 7.61211 12.5587 7.61213C12.5604 7.61216 12.5617 7.61217 12.5621 7.61218C12.5631 7.61219 12.5639 7.6122 12.564 7.6122C12.5643 7.6122 12.5646 7.6122 12.5647 7.6122C12.5648 7.61221 12.5649 7.61221 12.5649 7.61221C12.565 7.61221 12.565 7.61221 12.5647 7.61221C12.5644 7.6122 12.5641 7.6122 12.5637 7.6122C12.562 7.61219 12.5593 7.61217 12.5564 7.61214C12.5545 7.61213 12.5496 7.61209 12.5449 7.612C12.5437 7.61198 12.5409 7.61193 12.5373 7.61182C12.5357 7.61178 12.5322 7.61167 12.5278 7.61147C12.5256 7.61138 12.522 7.6112 12.5175 7.61093C12.514 7.61072 12.505 7.61015 12.4935 7.60899C12.4879 7.60843 12.4771 7.60727 12.4635 7.60523C12.4572 7.60423 12.4423 7.60164 12.4338 7.59999C12.4221 7.59751 12.393 7.5903 12.3758 7.58531C12.3482 7.57615 12.272 7.5428 12.225 7.51564C12.1321 7.44266 11.9588 7.1389 11.9504 6.90416C12.0113 6.719 12.1946 6.50547 12.2695 6.45884C12.3076 6.44037 12.3699 6.41684 12.3932 6.40998C12.408 6.40612 12.4334 6.40042 12.4438 6.3984C12.4514 6.39705 12.4649 6.3949 12.4707 6.39406C12.4832 6.39233 12.4932 6.39134 12.4986 6.39085C12.5095 6.38984 12.518 6.38935 12.5215 6.38917C12.5292 6.38875 12.5353 6.38857 12.5372 6.38851C12.5399 6.38843 12.5422 6.38838 12.5436 6.38836C12.5482 6.38827 12.5524 6.38823 12.5542 6.38822C12.5567 6.3882 12.5596 6.38819 12.5626 6.38818C12.5746 6.38813 12.5961 6.3881 12.6328 6.3881V7.6119ZM12.559 7.61219C12.3429 7.61113 12.2563 7.61454 12.1389 7.656L11.7314 6.50204C12.0701 6.38245 12.3503 6.38736 12.565 6.38841L12.559 7.61219ZM12.1387 7.65606C11.9024 7.73944 11.7446 7.91599 11.6657 8.14542L10.5084 7.74751C10.6939 7.20807 11.1018 6.72417 11.7316 6.50198L12.1387 7.65606ZM11.6657 8.14559C11.6302 8.24882 11.6119 8.35946 11.6119 8.47001H10.3881C10.3881 8.22663 10.428 7.98123 10.5085 7.74734L11.6657 8.14559ZM11.6119 8.47001C11.6119 8.58058 11.6302 8.69121 11.6657 8.7944L10.5085 9.1927C10.428 8.95879 10.3881 8.71338 10.3881 8.47001H11.6119ZM11.6657 8.79437C11.7448 9.02413 11.9025 9.20061 12.1388 9.28396L11.7316 10.438C11.1017 10.2158 10.6941 9.73185 10.5085 9.19273L11.6657 8.79437ZM12.1388 9.28397C12.2564 9.32546 12.3426 9.32873 12.5595 9.32782L12.5646 10.5516C12.3506 10.5525 12.0704 10.5576 11.7315 10.438L12.1388 9.28397ZM12.5595 9.32782C12.5636 9.32781 12.5665 9.32779 12.5677 9.32779C12.5678 9.32779 12.5684 9.32779 12.5692 9.32779C12.5693 9.32779 12.5707 9.32779 12.5723 9.32779C12.5724 9.32779 12.576 9.3278 12.5804 9.32788C12.5842 9.32796 12.6002 9.32854 12.6124 9.32928C13.1699 9.82058 12.7284 10.5307 12.6082 10.5504C12.6 10.5508 12.5887 10.5513 12.5857 10.5514C12.5842 10.5514 12.5817 10.5515 12.5808 10.5515C12.5791 10.5515 12.5778 10.5515 12.5774 10.5515C12.5763 10.5515 12.5755 10.5516 12.5753 10.5516C12.5747 10.5516 12.5742 10.5516 12.574 10.5516C12.5734 10.5516 12.5724 10.5516 12.5719 10.5516C12.5704 10.5516 12.5685 10.5516 12.5669 10.5516C12.5644 10.5516 12.565 10.5516 12.567 10.5516C12.5676 10.5516 12.5699 10.5516 12.573 10.5515C12.5744 10.5514 12.5778 10.5513 12.582 10.5511C12.5841 10.551 12.5877 10.5509 12.5921 10.5506C12.5956 10.5504 12.6046 10.5498 12.616 10.5487C12.6216 10.5481 12.6324 10.5469 12.6459 10.5449C12.6523 10.5439 12.6672 10.5413 12.6757 10.5397C12.6874 10.5372 12.7165 10.53 12.7337 10.525C12.7613 10.5158 12.8376 10.4824 12.8846 10.4552C12.9776 10.3821 13.1508 10.078 13.1589 9.84312C13.0979 9.65818 12.9146 9.44498 12.8398 9.39844C12.8017 9.38 12.7394 9.3565 12.7162 9.34966C12.7014 9.34579 12.6761 9.34011 12.6656 9.33809C12.658 9.33674 12.6446 9.33459 12.6387 9.33375C12.6263 9.33202 12.6163 9.33104 12.6109 9.33055C12.6001 9.32955 12.5916 9.32906 12.5882 9.32888C12.5806 9.32846 12.5747 9.32829 12.573 9.32824C12.5704 9.32816 12.5684 9.32812 12.5674 9.3281C12.5639 9.32803 12.5618 9.32803 12.5631 9.32804C12.5636 9.32804 12.5649 9.32805 12.5672 9.32806C12.5766 9.32809 12.5961 9.32812 12.6328 9.32812V10.5519C12.5961 10.5519 12.5746 10.5519 12.5626 10.5518C12.5596 10.5518 12.5567 10.5518 12.5542 10.5518C12.5524 10.5518 12.5482 10.5517 12.5436 10.5517C12.5422 10.5516 12.5399 10.5516 12.5372 10.5515C12.5353 10.5514 12.5292 10.5513 12.5215 10.5508C12.518 10.5507 12.5095 10.5502 12.4986 10.5492C12.4932 10.5487 12.4832 10.5477 12.4708 10.546C12.4649 10.5451 12.4515 10.543 12.4439 10.5416C12.4334 10.5396 12.4081 10.5339 12.3932 10.5301C12.37 10.5232 12.3078 10.4997 12.2696 10.4813C12.1948 10.4347 12.0115 10.2215 11.9505 10.0366C11.9586 9.8017 12.1319 9.49757 12.2249 9.42447C12.2718 9.39727 12.3481 9.36388 12.3757 9.35472C12.393 9.34972 12.422 9.34251 12.4338 9.34002C12.4423 9.33837 12.4572 9.33578 12.4635 9.33479C12.4771 9.33274 12.4879 9.33159 12.4935 9.33102C12.505 9.32987 12.514 9.3293 12.5175 9.32908C12.522 9.32881 12.5256 9.32864 12.5278 9.32854C12.5322 9.32835 12.5357 9.32824 12.5373 9.32819C12.5409 9.32809 12.5437 9.32803 12.5449 9.32801C12.5496 9.32793 12.5545 9.32789 12.5564 9.32787C12.5593 9.32785 12.562 9.32783 12.5637 9.32782C12.5641 9.32781 12.5644 9.32781 12.5647 9.32781C12.565 9.32781 12.565 9.32781 12.5649 9.32781C12.5649 9.32781 12.5648 9.32781 12.5647 9.32781C12.5646 9.32781 12.5643 9.32781 12.564 9.32782C12.5639 9.32782 12.5631 9.32782 12.5621 9.32784C12.5617 9.32784 12.5604 9.32786 12.5587 9.32789C12.5578 9.32791 12.5553 9.32796 12.5537 9.328C12.5507 9.32808 12.5395 9.32854 12.5312 9.329C12.4111 9.34871 11.9695 10.0588 12.5271 10.5501C12.5393 10.5508 12.5553 10.5514 12.559 10.5515C12.5635 10.5516 12.5671 10.5516 12.5671 10.5516C12.5688 10.5516 12.5701 10.5516 12.5702 10.5516C12.5706 10.5516 12.5709 10.5516 12.571 10.5516C12.5711 10.5516 12.5713 10.5516 12.5713 10.5516C12.5714 10.5516 12.5711 10.5516 12.5697 10.5516C12.5685 10.5516 12.5669 10.5516 12.5646 10.5516L12.5595 9.32782ZM12.6328 9.32812H21V10.5519H12.6328V9.32812ZM29.3672 22.6719H12.6328V21.4481H29.3672V22.6719ZM12.6328 22.6719C12.5961 22.6719 12.5766 22.6719 12.5672 22.6719C12.5649 22.672 12.5636 22.672 12.5631 22.672C12.5618 22.672 12.5639 22.672 12.5674 22.6719C12.5684 22.6719 12.5704 22.6718 12.573 22.6718C12.5747 22.6717 12.5806 22.6715 12.5882 22.6711C12.5916 22.6709 12.6001 22.6705 12.611 22.6695C12.6163 22.669 12.6263 22.668 12.6388 22.6662C12.6446 22.6654 12.6581 22.6633 12.6657 22.6619C12.6761 22.6599 12.7014 22.6542 12.7163 22.6503C12.7395 22.6435 12.8018 22.6199 12.84 22.6015C12.9148 22.5549 13.0982 22.3413 13.159 22.1562C13.1507 21.9214 12.9773 21.6176 12.8844 21.5447C12.8375 21.5175 12.7612 21.4842 12.7337 21.475C12.7164 21.47 12.6874 21.4628 12.6757 21.4603C12.6672 21.4587 12.6523 21.4561 12.6459 21.4551C12.6324 21.4531 12.6216 21.4519 12.616 21.4513C12.6046 21.4502 12.5956 21.4496 12.5921 21.4494C12.5877 21.4491 12.5841 21.449 12.582 21.4489C12.5778 21.4487 12.5744 21.4486 12.573 21.4485C12.5699 21.4484 12.5676 21.4484 12.567 21.4484C12.565 21.4484 12.5644 21.4484 12.5669 21.4484C12.5685 21.4484 12.5704 21.4484 12.5719 21.4484C12.5724 21.4484 12.5734 21.4484 12.574 21.4484C12.5742 21.4484 12.5747 21.4484 12.5753 21.4484C12.5755 21.4484 12.5763 21.4485 12.5774 21.4485C12.5778 21.4485 12.5791 21.4485 12.5808 21.4485C12.5817 21.4485 12.5842 21.4486 12.5857 21.4486C12.5887 21.4487 12.6 21.4492 12.6083 21.4496C12.7303 21.4699 13.1695 22.1813 12.6123 22.6707C12.6001 22.6715 12.5842 22.672 12.5804 22.6721C12.576 22.6722 12.5724 22.6722 12.5723 22.6722C12.5707 22.6722 12.5693 22.6722 12.5692 22.6722C12.5684 22.6722 12.5678 22.6722 12.5677 22.6722C12.5665 22.6722 12.5636 22.6722 12.5595 22.6722L12.5646 21.4484C12.5669 21.4484 12.5685 21.4484 12.5697 21.4484C12.5711 21.4484 12.5714 21.4484 12.5713 21.4484C12.5713 21.4484 12.5711 21.4484 12.571 21.4484C12.5709 21.4484 12.5706 21.4484 12.5702 21.4484C12.5701 21.4484 12.5688 21.4484 12.5671 21.4484C12.5671 21.4484 12.5635 21.4484 12.559 21.4485C12.5553 21.4486 12.5394 21.4492 12.5272 21.4499C11.9699 21.9393 12.4092 22.6508 12.5311 22.671C12.5394 22.6715 12.5507 22.6719 12.5537 22.672C12.5553 22.672 12.5577 22.6721 12.5587 22.6721C12.5604 22.6721 12.5617 22.6722 12.5621 22.6722C12.5631 22.6722 12.5639 22.6722 12.564 22.6722C12.5643 22.6722 12.5646 22.6722 12.5647 22.6722C12.5648 22.6722 12.5649 22.6722 12.5649 22.6722C12.565 22.6722 12.565 22.6722 12.5647 22.6722C12.5644 22.6722 12.5641 22.6722 12.5637 22.6722C12.562 22.6722 12.5593 22.6722 12.5564 22.6721C12.5545 22.6721 12.5496 22.6721 12.5449 22.672C12.5437 22.672 12.5409 22.6719 12.5373 22.6718C12.5357 22.6718 12.5322 22.6717 12.5278 22.6715C12.5256 22.6714 12.522 22.6712 12.5175 22.6709C12.514 22.6707 12.505 22.6701 12.4935 22.669C12.4879 22.6684 12.4771 22.6673 12.4636 22.6652C12.4572 22.6642 12.4423 22.6616 12.4338 22.66C12.4221 22.6575 12.393 22.6503 12.3758 22.6453C12.3482 22.6361 12.272 22.6028 12.2251 22.5756C12.1321 22.5027 11.9588 22.1989 11.9504 21.9641C12.0113 21.779 12.1946 21.5654 12.2695 21.5188C12.3077 21.5003 12.37 21.4768 12.3932 21.47C12.408 21.4661 12.4334 21.4604 12.4438 21.4584C12.4514 21.457 12.4649 21.4549 12.4707 21.454C12.4832 21.4523 12.4932 21.4513 12.4986 21.4508C12.5095 21.4498 12.518 21.4493 12.5215 21.4492C12.5292 21.4487 12.5353 21.4486 12.5372 21.4485C12.5399 21.4484 12.5422 21.4484 12.5436 21.4483C12.5482 21.4482 12.5524 21.4482 12.5542 21.4482C12.5567 21.4482 12.5596 21.4482 12.5626 21.4482C12.5746 21.4481 12.5961 21.4481 12.6328 21.4481V22.6719ZM12.559 22.6722C12.3429 22.6711 12.2563 22.6745 12.1389 22.716L11.7314 21.562C12.0701 21.4424 12.3503 21.4473 12.565 21.4484L12.559 22.6722ZM12.1387 22.716C11.9024 22.7994 11.7446 22.976 11.6657 23.2054L10.5084 22.8075C10.6939 22.2681 11.1018 21.7842 11.7316 21.562L12.1387 22.716ZM11.6657 23.2056C11.6302 23.3088 11.6119 23.4194 11.6119 23.53H10.3881C10.3881 23.2866 10.428 23.0412 10.5085 22.8073L11.6657 23.2056ZM11.6119 23.53C11.6119 23.6406 11.6302 23.7512 11.6657 23.8544L10.5085 24.2527C10.428 24.0188 10.3881 23.7734 10.3881 23.53H11.6119ZM11.6657 23.8544C11.7448 24.0841 11.9025 24.2606 12.1388 24.3439L11.7316 25.498C11.1017 25.2758 10.6941 24.7918 10.5085 24.2527L11.6657 23.8544ZM12.1388 24.344C12.2564 24.3854 12.3426 24.3887 12.5595 24.3878L12.5646 25.6116C12.3506 25.6125 12.0704 25.6176 11.7315 25.498L12.1388 24.344ZM12.5595 24.3878C12.5636 24.3878 12.5665 24.3878 12.5677 24.3878C12.5678 24.3878 12.5685 24.3878 12.5692 24.3878C12.5694 24.3878 12.5708 24.3878 12.5725 24.3878C12.5725 24.3878 12.5762 24.3878 12.5808 24.3879C12.5846 24.388 12.6009 24.3886 12.6134 24.3893C13.1695 24.8784 12.7314 25.5898 12.6091 25.6103C12.6006 25.6108 12.5891 25.6113 12.586 25.6113C12.5844 25.6114 12.5819 25.6114 12.5809 25.6115C12.5792 25.6115 12.5779 25.6115 12.5775 25.6115C12.5764 25.6115 12.5756 25.6115 12.5754 25.6115C12.5747 25.6115 12.5742 25.6115 12.5741 25.6115C12.5735 25.6116 12.5724 25.6116 12.5719 25.6116C12.5704 25.6116 12.5686 25.6116 12.5669 25.6116C12.5644 25.6116 12.565 25.6116 12.567 25.6116C12.5676 25.6116 12.5699 25.6115 12.573 25.6114C12.5745 25.6114 12.5778 25.6113 12.5821 25.6111C12.5842 25.611 12.5878 25.6108 12.5922 25.6106C12.5957 25.6104 12.6047 25.6098 12.6162 25.6086C12.6218 25.6081 12.6326 25.6069 12.6462 25.6049C12.6526 25.6039 12.6675 25.6013 12.676 25.5996C12.6877 25.5971 12.7169 25.5899 12.7341 25.5848C12.7618 25.5756 12.8382 25.5421 12.8851 25.5149C12.9781 25.4416 13.1509 25.1378 13.159 24.9033C13.0982 24.7186 12.9152 24.5054 12.8404 24.4587C12.8022 24.4402 12.7398 24.4166 12.7166 24.4097C12.7017 24.4059 12.6763 24.4001 12.6659 24.3981C12.6583 24.3968 12.6448 24.3946 12.6389 24.3938C12.6264 24.392 12.6164 24.391 12.6111 24.3905C12.6002 24.3895 12.5917 24.3891 12.5883 24.3889C12.5806 24.3884 12.5747 24.3883 12.573 24.3882C12.5704 24.3881 12.5684 24.3881 12.5674 24.3881C12.564 24.388 12.5618 24.388 12.5631 24.388C12.5636 24.388 12.5649 24.388 12.5672 24.388C12.5766 24.3881 12.5961 24.3881 12.6328 24.3881V25.6119C12.5961 25.6119 12.5746 25.6119 12.5626 25.6118C12.5596 25.6118 12.5567 25.6118 12.5542 25.6118C12.5524 25.6118 12.5482 25.6117 12.5435 25.6116C12.5422 25.6116 12.5399 25.6116 12.5371 25.6115C12.5352 25.6114 12.5291 25.6113 12.5214 25.6108C12.518 25.6106 12.5094 25.6102 12.4985 25.6091C12.4931 25.6086 12.4831 25.6077 12.4706 25.6059C12.4647 25.6051 12.4512 25.6029 12.4436 25.6016C12.4331 25.5995 12.4077 25.5938 12.3929 25.5899C12.3696 25.5831 12.3073 25.5595 12.2691 25.541C12.1943 25.4943 12.0113 25.2811 11.9505 25.0963C11.9586 24.8619 12.1314 24.558 12.2243 24.4848C12.2713 24.4575 12.3477 24.424 12.3753 24.4148C12.3926 24.4098 12.4217 24.4026 12.4335 24.4001C12.442 24.3984 12.4569 24.3958 12.4633 24.3948C12.4769 24.3928 12.4877 24.3916 12.4934 24.391C12.5049 24.3899 12.5139 24.3893 12.5174 24.3891C12.5219 24.3888 12.5255 24.3886 12.5278 24.3885C12.5321 24.3883 12.5356 24.3882 12.5373 24.3882C12.5408 24.3881 12.5437 24.388 12.5449 24.388C12.5495 24.3879 12.5545 24.3879 12.5564 24.3879C12.5593 24.3878 12.562 24.3878 12.5636 24.3878C12.5641 24.3878 12.5644 24.3878 12.5646 24.3878C12.5649 24.3878 12.565 24.3878 12.5649 24.3878C12.5648 24.3878 12.5647 24.3878 12.5646 24.3878C12.5645 24.3878 12.5643 24.3878 12.564 24.3878C12.5638 24.3878 12.563 24.3878 12.562 24.3878C12.5616 24.3878 12.5602 24.3878 12.5585 24.3879C12.5575 24.3879 12.555 24.388 12.5534 24.388C12.5504 24.3881 12.5389 24.3886 12.5304 24.389C12.408 24.4095 11.97 25.121 12.526 25.61C12.5386 25.6108 12.5549 25.6114 12.5587 25.6115C12.5633 25.6115 12.567 25.6116 12.567 25.6116C12.5687 25.6116 12.57 25.6116 12.5701 25.6116C12.5705 25.6116 12.5708 25.6116 12.571 25.6116C12.5711 25.6116 12.5712 25.6116 12.5713 25.6116C12.5714 25.6116 12.5711 25.6116 12.5697 25.6116C12.5685 25.6116 12.5669 25.6116 12.5646 25.6116L12.5595 24.3878ZM12.6328 24.3881H29.3672V25.6119H12.6328V24.3881ZM29.3672 24.3881C29.4039 24.3881 29.4234 24.3881 29.4328 24.388C29.4351 24.388 29.4364 24.388 29.4369 24.388C29.4382 24.388 29.436 24.388 29.4326 24.3881C29.4316 24.3881 29.4296 24.3881 29.427 24.3882C29.4253 24.3883 29.4194 24.3884 29.4117 24.3889C29.4083 24.3891 29.3998 24.3895 29.3889 24.3905C29.3835 24.391 29.3735 24.392 29.361 24.3938C29.3551 24.3946 29.3416 24.3968 29.334 24.3982C29.3235 24.4002 29.298 24.4059 29.2831 24.4098C29.2597 24.4167 29.1971 24.4405 29.1587 24.4592C29.0834 24.5064 28.9002 24.7218 28.8403 24.9081C28.8501 25.1417 29.0236 25.4433 29.1161 25.5156C29.1628 25.5426 29.2388 25.5758 29.2663 25.585C29.2835 25.59 29.3125 25.5972 29.3242 25.5996C29.3327 25.6013 29.3476 25.6039 29.3539 25.6049C29.3675 25.6069 29.3783 25.6081 29.3839 25.6086C29.3953 25.6098 29.4043 25.6104 29.4078 25.6106C29.4122 25.6108 29.4158 25.611 29.4179 25.6111C29.4222 25.6113 29.4255 25.6114 29.427 25.6114C29.4301 25.6115 29.4324 25.6116 29.433 25.6116C29.435 25.6116 29.4356 25.6116 29.4331 25.6116C29.4314 25.6116 29.4296 25.6116 29.4281 25.6116C29.4276 25.6116 29.4265 25.6116 29.4259 25.6115C29.4258 25.6115 29.4253 25.6115 29.4246 25.6115C29.4244 25.6115 29.4236 25.6115 29.4225 25.6115C29.4221 25.6115 29.4208 25.6115 29.4191 25.6115C29.4181 25.6114 29.4156 25.6114 29.414 25.6113C29.4109 25.6113 29.3995 25.6108 29.391 25.6103C29.2706 25.5904 28.8301 24.8805 29.3865 24.3893C29.399 24.3886 29.4154 24.388 29.4192 24.3879C29.4238 24.3878 29.4275 24.3878 29.4275 24.3878C29.4292 24.3878 29.4306 24.3878 29.4308 24.3878C29.4315 24.3878 29.4322 24.3878 29.4323 24.3878C29.4335 24.3878 29.4364 24.3878 29.4405 24.3878L29.4354 25.6116C29.4331 25.6116 29.4315 25.6116 29.4303 25.6116C29.4289 25.6116 29.4286 25.6116 29.4287 25.6116C29.4288 25.6116 29.4289 25.6116 29.429 25.6116C29.4292 25.6116 29.4295 25.6116 29.4299 25.6116C29.43 25.6116 29.4313 25.6116 29.433 25.6116C29.433 25.6116 29.4367 25.6115 29.4413 25.6115C29.4451 25.6114 29.4615 25.6108 29.4741 25.61C30.0304 25.1189 29.5899 24.409 29.4695 24.389C29.4611 24.3885 29.4496 24.3881 29.4466 24.388C29.445 24.3879 29.4424 24.3879 29.4415 24.3879C29.4398 24.3878 29.4384 24.3878 29.438 24.3878C29.437 24.3878 29.4362 24.3878 29.436 24.3878C29.4357 24.3878 29.4355 24.3878 29.4354 24.3878C29.4353 24.3878 29.4352 24.3878 29.4351 24.3878C29.435 24.3878 29.4351 24.3878 29.4354 24.3878C29.4356 24.3878 29.4359 24.3878 29.4364 24.3878C29.438 24.3878 29.4407 24.3878 29.4436 24.3879C29.4455 24.3879 29.4505 24.3879 29.4551 24.388C29.4563 24.388 29.4592 24.3881 29.4627 24.3882C29.4644 24.3882 29.4678 24.3883 29.4722 24.3885C29.4744 24.3886 29.4781 24.3888 29.4826 24.3891C29.4861 24.3893 29.4951 24.3899 29.5066 24.391C29.5122 24.3916 29.523 24.3927 29.5366 24.3948C29.5429 24.3958 29.5578 24.3984 29.5663 24.4C29.578 24.4025 29.6071 24.4097 29.6243 24.4147C29.6518 24.4238 29.7277 24.457 29.7745 24.484C29.8669 24.5564 30.0405 24.8579 30.0503 25.0915C29.9904 25.2778 29.8071 25.4933 29.7319 25.5405C29.6935 25.5591 29.6308 25.5829 29.6075 25.5898C29.5925 25.5937 29.5671 25.5995 29.5566 25.6015C29.5489 25.6029 29.5354 25.6051 29.5295 25.6059C29.517 25.6076 29.507 25.6086 29.5016 25.6091C29.4907 25.6101 29.4821 25.6106 29.4786 25.6108C29.4709 25.6113 29.4648 25.6114 29.4629 25.6115C29.4601 25.6116 29.4578 25.6116 29.4565 25.6116C29.4518 25.6117 29.4476 25.6118 29.4458 25.6118C29.4433 25.6118 29.4404 25.6118 29.4374 25.6118C29.4254 25.6119 29.4039 25.6119 29.3672 25.6119V24.3881ZM29.441 24.3878C29.6571 24.3889 29.7437 24.3855 29.8611 24.344L30.2686 25.498C29.9299 25.6175 29.6497 25.6126 29.435 25.6116L29.441 24.3878ZM29.8613 24.3439C30.0976 24.2606 30.2554 24.084 30.3343 23.8546L31.4916 24.2525C31.3061 24.7919 30.8982 25.2758 30.2684 25.498L29.8613 24.3439ZM30.3343 23.8544C30.3698 23.7512 30.3881 23.6405 30.3881 23.53H31.6119C31.6119 23.7734 31.572 24.0188 31.4915 24.2527L30.3343 23.8544ZM30.3881 23.53C30.3881 23.4194 30.3698 23.3088 30.3343 23.2056L31.4915 22.8073C31.572 23.0412 31.6119 23.2866 31.6119 23.53H30.3881ZM30.3343 23.2056C30.2552 22.9759 30.0975 22.7994 29.8612 22.716L30.2684 21.562C30.8983 21.7842 31.3059 22.2682 31.4915 22.8073L30.3343 23.2056ZM29.8612 22.716C29.7436 22.6745 29.6574 22.6713 29.4405 22.6722L29.4354 21.4484C29.6494 21.4475 29.9296 21.4424 30.2685 21.562L29.8612 22.716ZM29.4405 22.6722C29.4364 22.6722 29.4335 22.6722 29.4323 22.6722C29.4322 22.6722 29.4316 22.6722 29.4308 22.6722C29.4307 22.6722 29.4293 22.6722 29.4277 22.6722C29.4276 22.6722 29.424 22.6722 29.4195 22.6721C29.4158 22.672 29.3997 22.6714 29.3874 22.6707C28.8293 22.1755 29.2754 21.4683 29.3919 21.4496C29.4001 21.4492 29.4113 21.4487 29.4143 21.4486C29.4158 21.4486 29.4183 21.4485 29.4192 21.4485C29.4209 21.4485 29.4222 21.4485 29.4227 21.4485C29.4237 21.4485 29.4245 21.4484 29.4247 21.4484C29.4253 21.4484 29.4258 21.4484 29.426 21.4484C29.4266 21.4484 29.4276 21.4484 29.4281 21.4484C29.4296 21.4484 29.4315 21.4484 29.4331 21.4484C29.4356 21.4484 29.435 21.4484 29.433 21.4484C29.4324 21.4484 29.4301 21.4484 29.427 21.4485C29.4256 21.4486 29.4222 21.4487 29.418 21.4489C29.4159 21.449 29.4123 21.4491 29.4079 21.4494C29.4044 21.4496 29.3955 21.4502 29.384 21.4513C29.3784 21.4519 29.3677 21.453 29.3541 21.4551C29.3478 21.4561 29.3329 21.4587 29.3245 21.4603C29.3128 21.4628 29.2838 21.4699 29.2666 21.4749C29.2391 21.484 29.1632 21.5171 29.1165 21.5441C29.0239 21.6165 28.85 21.9186 28.8404 22.1528C28.9006 22.3391 29.0842 22.5541 29.1593 22.6011C29.1977 22.6197 29.2602 22.6434 29.2835 22.6503C29.2984 22.6541 29.3238 22.6599 29.3342 22.6619C29.3418 22.6632 29.3553 22.6654 29.3612 22.6662C29.3737 22.668 29.3837 22.669 29.389 22.6694C29.3999 22.6705 29.4084 22.6709 29.4118 22.6711C29.4194 22.6715 29.4253 22.6717 29.427 22.6718C29.4296 22.6718 29.4316 22.6719 29.4326 22.6719C29.4361 22.672 29.4382 22.672 29.4369 22.672C29.4364 22.672 29.4351 22.672 29.4328 22.6719C29.4234 22.6719 29.4039 22.6719 29.3672 22.6719V21.4481C29.4039 21.4481 29.4254 21.4481 29.4374 21.4482C29.4404 21.4482 29.4433 21.4482 29.4458 21.4482C29.4476 21.4482 29.4518 21.4482 29.4565 21.4483C29.4578 21.4484 29.4601 21.4484 29.4628 21.4485C29.4647 21.4486 29.4708 21.4487 29.4785 21.4492C29.482 21.4493 29.4905 21.4498 29.5014 21.4508C29.5068 21.4513 29.5168 21.4523 29.5293 21.4541C29.5352 21.4549 29.5487 21.4571 29.5563 21.4584C29.5668 21.4604 29.5922 21.4661 29.6071 21.47C29.6303 21.4769 29.6929 21.5006 29.7312 21.5192C29.8064 21.5662 29.9899 21.7812 30.0501 21.9675C30.0406 22.2017 29.8667 22.5038 29.7741 22.5762C29.7273 22.6032 29.6514 22.6363 29.6239 22.6454C29.6067 22.6504 29.5778 22.6575 29.566 22.66C29.5576 22.6617 29.5427 22.6642 29.5364 22.6652C29.5228 22.6673 29.512 22.6684 29.5065 22.669C29.495 22.6701 29.486 22.6707 29.4825 22.6709C29.478 22.6712 29.4744 22.6714 29.4722 22.6715C29.4678 22.6717 29.4643 22.6718 29.4627 22.6718C29.4591 22.6719 29.4563 22.672 29.4551 22.672C29.4504 22.6721 29.4455 22.6721 29.4436 22.6721C29.4407 22.6722 29.438 22.6722 29.4363 22.6722C29.4359 22.6722 29.4356 22.6722 29.4353 22.6722C29.435 22.6722 29.435 22.6722 29.4351 22.6722C29.4351 22.6722 29.4352 22.6722 29.4353 22.6722C29.4354 22.6722 29.4357 22.6722 29.436 22.6722C29.4361 22.6722 29.4369 22.6722 29.4379 22.6722C29.4383 22.6722 29.4396 22.6721 29.4413 22.6721C29.4422 22.6721 29.4447 22.672 29.4463 22.672C29.4492 22.6719 29.4604 22.6715 29.4686 22.671C29.5851 22.6523 30.0312 21.9451 29.4731 21.4499C29.4608 21.4492 29.4447 21.4486 29.441 21.4485C29.4365 21.4484 29.4329 21.4484 29.4329 21.4484C29.4312 21.4484 29.4299 21.4484 29.4298 21.4484C29.4294 21.4484 29.4291 21.4484 29.429 21.4484C29.4289 21.4484 29.4287 21.4484 29.4287 21.4484C29.4286 21.4484 29.4289 21.4484 29.4303 21.4484C29.4315 21.4484 29.4331 21.4484 29.4354 21.4484L29.4405 22.6722ZM21 16.858H29.3672V18.0818H21V16.858ZM29.3672 16.858C29.4039 16.858 29.4234 16.858 29.4328 16.8579C29.4351 16.8579 29.4364 16.8579 29.4369 16.8579C29.4382 16.8579 29.4361 16.8579 29.4326 16.858C29.4316 16.858 29.4296 16.858 29.427 16.8581C29.4253 16.8582 29.4194 16.8583 29.4118 16.8588C29.4084 16.8589 29.3999 16.8594 29.389 16.8604C29.3837 16.8609 29.3737 16.8619 29.3612 16.8637C29.3553 16.8645 29.3418 16.8667 29.3342 16.868C29.3237 16.87 29.2983 16.8757 29.2834 16.8796C29.2601 16.8865 29.1976 16.9102 29.1592 16.9288C29.084 16.9759 28.9004 17.1913 28.8403 17.3778C28.8501 17.6119 29.0241 17.9137 29.1166 17.9859C29.1633 18.0128 29.2392 18.0459 29.2667 18.055C29.2838 18.06 29.3128 18.0671 29.3245 18.0696C29.333 18.0712 29.3478 18.0738 29.3542 18.0748C29.3677 18.0768 29.3785 18.078 29.384 18.0786C29.3955 18.0797 29.4044 18.0803 29.4079 18.0805C29.4123 18.0808 29.4159 18.0809 29.418 18.081C29.4222 18.0812 29.4256 18.0813 29.427 18.0813C29.4301 18.0814 29.4324 18.0815 29.433 18.0815C29.435 18.0815 29.4356 18.0815 29.4331 18.0815C29.4315 18.0815 29.4296 18.0815 29.4281 18.0815C29.4276 18.0815 29.4266 18.0815 29.426 18.0815C29.4258 18.0814 29.4253 18.0814 29.4247 18.0814C29.4245 18.0814 29.4237 18.0814 29.4226 18.0814C29.4222 18.0814 29.4209 18.0814 29.4192 18.0814C29.4183 18.0813 29.4158 18.0813 29.4143 18.0813C29.4113 18.0812 29.4001 18.0807 29.3918 18.0803C29.2736 18.0611 28.8297 17.3525 29.3875 16.8592C29.3998 16.8584 29.4158 16.8578 29.4195 16.8578C29.424 16.8577 29.4276 16.8577 29.4277 16.8577C29.4293 16.8577 29.4307 16.8577 29.4308 16.8577C29.4316 16.8577 29.4322 16.8577 29.4323 16.8577C29.4335 16.8577 29.4364 16.8577 29.4405 16.8577L29.4354 18.0815C29.4331 18.0815 29.4315 18.0815 29.4303 18.0815C29.4289 18.0815 29.4286 18.0815 29.4287 18.0815C29.4287 18.0815 29.4289 18.0815 29.429 18.0815C29.4291 18.0815 29.4294 18.0815 29.4298 18.0815C29.4299 18.0815 29.4312 18.0815 29.4329 18.0815C29.4329 18.0815 29.4365 18.0814 29.441 18.0814C29.4447 18.0813 29.4608 18.0807 29.473 18.08C30.0309 17.5866 29.5869 16.8781 29.4687 16.8589C29.4605 16.8584 29.4492 16.858 29.4463 16.8579C29.4447 16.8578 29.4422 16.8578 29.4413 16.8578C29.4396 16.8577 29.4383 16.8577 29.4379 16.8577C29.4369 16.8577 29.4361 16.8577 29.436 16.8577C29.4357 16.8577 29.4354 16.8577 29.4353 16.8577C29.4352 16.8577 29.4351 16.8577 29.4351 16.8577C29.435 16.8577 29.435 16.8577 29.4353 16.8577C29.4356 16.8577 29.4359 16.8577 29.4363 16.8577C29.438 16.8577 29.4407 16.8577 29.4436 16.8578C29.4455 16.8578 29.4504 16.8578 29.455 16.8579C29.4563 16.8579 29.4591 16.858 29.4627 16.8581C29.4643 16.8581 29.4678 16.8582 29.4722 16.8584C29.4744 16.8585 29.478 16.8587 29.4825 16.859C29.486 16.8592 29.495 16.8598 29.5065 16.8609C29.512 16.8615 29.5228 16.8626 29.5363 16.8647C29.5427 16.8656 29.5576 16.8682 29.566 16.8699C29.5777 16.8723 29.6067 16.8795 29.6239 16.8845C29.6513 16.8936 29.7272 16.9267 29.7739 16.9536C29.8664 17.0258 30.0404 17.3276 30.0502 17.5617C29.9902 17.7482 29.8066 17.9636 29.7313 18.0106C29.693 18.0293 29.6304 18.053 29.6071 18.0598C29.5922 18.0637 29.5668 18.0694 29.5563 18.0715C29.5487 18.0728 29.5352 18.075 29.5293 18.0758C29.5168 18.0776 29.5068 18.0786 29.5015 18.0791C29.4905 18.0801 29.482 18.0805 29.4785 18.0807C29.4708 18.0812 29.4647 18.0813 29.4628 18.0814C29.4601 18.0815 29.4578 18.0815 29.4565 18.0815C29.4518 18.0816 29.4476 18.0817 29.4458 18.0817C29.4433 18.0817 29.4404 18.0817 29.4374 18.0817C29.4254 18.0818 29.4039 18.0818 29.3672 18.0818V16.858ZM29.441 16.8577C29.6571 16.8588 29.7437 16.8554 29.8611 16.8139L30.2686 17.9679C29.9299 18.0874 29.6497 18.0825 29.435 18.0815L29.441 16.8577ZM29.8613 16.8138C30.0976 16.7305 30.2554 16.5539 30.3343 16.3245L31.4916 16.7224C31.3061 17.2618 30.8982 17.7457 30.2684 17.9679L29.8613 16.8138ZM30.3343 16.3243C30.3698 16.2211 30.3881 16.1104 30.3881 15.9999H31.6119C31.6119 16.2433 31.572 16.4887 31.4915 16.7226L30.3343 16.3243ZM30.3881 15.9999C30.3881 15.8893 30.3698 15.7787 30.3343 15.6755L31.4915 15.2772C31.572 15.5111 31.6119 15.7565 31.6119 15.9999H30.3881ZM30.3343 15.6755C30.2552 15.4458 30.0975 15.2693 29.8612 15.1859L30.2684 14.0319C30.8983 14.2541 31.3059 14.7381 31.4915 15.2772L30.3343 15.6755ZM29.8612 15.1859C29.7436 15.1444 29.6574 15.1412 29.4405 15.1421L29.4354 13.9183C29.6494 13.9174 29.9296 13.9123 30.2685 14.0319L29.8612 15.1859ZM29.4405 15.1421C29.4364 15.1421 29.4335 15.1421 29.4323 15.1421C29.4322 15.1421 29.4316 15.1421 29.4308 15.1421C29.4307 15.1421 29.4293 15.1421 29.4277 15.1421C29.4276 15.1421 29.424 15.1421 29.4195 15.142C29.4158 15.1419 29.3997 15.1414 29.3874 15.1406C28.8293 14.6454 29.2754 13.9382 29.3919 13.9195C29.4001 13.9191 29.4113 13.9186 29.4143 13.9185C29.4158 13.9185 29.4183 13.9184 29.4192 13.9184C29.4209 13.9184 29.4222 13.9184 29.4227 13.9184C29.4237 13.9184 29.4245 13.9184 29.4247 13.9183C29.4253 13.9183 29.4258 13.9183 29.426 13.9183C29.4266 13.9183 29.4276 13.9183 29.4281 13.9183C29.4296 13.9183 29.4315 13.9183 29.4331 13.9183C29.4356 13.9183 29.435 13.9183 29.433 13.9183C29.4324 13.9183 29.4301 13.9183 29.427 13.9184C29.4256 13.9185 29.4222 13.9186 29.418 13.9188C29.4159 13.9189 29.4123 13.919 29.4079 13.9193C29.4044 13.9195 29.3955 13.9201 29.384 13.9212C29.3784 13.9218 29.3677 13.9229 29.3541 13.925C29.3478 13.926 29.3329 13.9286 29.3245 13.9302C29.3128 13.9327 29.2838 13.9398 29.2666 13.9448C29.2391 13.9539 29.1632 13.9871 29.1165 14.014C29.0239 14.0864 28.85 14.3885 28.8404 14.6227C28.9006 14.809 29.0842 15.024 29.1593 15.071C29.1977 15.0896 29.2602 15.1133 29.2835 15.1202C29.2984 15.1241 29.3238 15.1298 29.3342 15.1318C29.3418 15.1331 29.3553 15.1353 29.3612 15.1361C29.3737 15.1379 29.3837 15.1389 29.389 15.1394C29.3999 15.1404 29.4084 15.1408 29.4118 15.141C29.4194 15.1414 29.4253 15.1416 29.427 15.1417C29.4296 15.1417 29.4316 15.1418 29.4326 15.1418C29.4361 15.1419 29.4382 15.1419 29.4369 15.1419C29.4364 15.1419 29.4351 15.1419 29.4328 15.1418C29.4234 15.1418 29.4039 15.1418 29.3672 15.1418V13.918C29.4039 13.918 29.4254 13.918 29.4374 13.9181C29.4404 13.9181 29.4433 13.9181 29.4458 13.9181C29.4476 13.9181 29.4518 13.9182 29.4565 13.9182C29.4578 13.9183 29.4601 13.9183 29.4628 13.9184C29.4647 13.9185 29.4708 13.9186 29.4785 13.9191C29.482 13.9192 29.4905 13.9197 29.5014 13.9207C29.5068 13.9212 29.5168 13.9222 29.5293 13.924C29.5352 13.9248 29.5487 13.927 29.5563 13.9283C29.5668 13.9303 29.5922 13.936 29.6071 13.9399C29.6303 13.9468 29.6929 13.9705 29.7312 13.9891C29.8064 14.0361 29.9899 14.2511 30.0501 14.4374C30.0406 14.6716 29.8667 14.9737 29.7741 15.0461C29.7273 15.0731 29.6514 15.1062 29.6239 15.1153C29.6067 15.1203 29.5778 15.1274 29.566 15.1299C29.5576 15.1316 29.5427 15.1341 29.5364 15.1351C29.5228 15.1372 29.512 15.1383 29.5065 15.1389C29.495 15.14 29.486 15.1406 29.4825 15.1408C29.478 15.1411 29.4744 15.1413 29.4722 15.1414C29.4678 15.1416 29.4643 15.1417 29.4627 15.1417C29.4591 15.1418 29.4563 15.1419 29.4551 15.1419C29.4504 15.142 29.4455 15.142 29.4436 15.142C29.4407 15.1421 29.438 15.1421 29.4363 15.1421C29.4359 15.1421 29.4356 15.1421 29.4353 15.1421C29.435 15.1421 29.435 15.1421 29.4351 15.1421C29.4351 15.1421 29.4352 15.1421 29.4353 15.1421C29.4354 15.1421 29.4357 15.1421 29.436 15.1421C29.4361 15.1421 29.4369 15.1421 29.4379 15.1421C29.4383 15.1421 29.4396 15.142 29.4413 15.142C29.4422 15.142 29.4447 15.1419 29.4463 15.1419C29.4492 15.1418 29.4604 15.1414 29.4686 15.1409C29.5851 15.1222 30.0312 14.415 29.4731 13.9198C29.4608 13.9191 29.4447 13.9185 29.441 13.9184C29.4365 13.9183 29.4329 13.9183 29.4329 13.9183C29.4312 13.9183 29.4299 13.9183 29.4298 13.9183C29.4294 13.9183 29.4291 13.9183 29.429 13.9183C29.4289 13.9183 29.4287 13.9183 29.4287 13.9183C29.4286 13.9183 29.4289 13.9183 29.4303 13.9183C29.4315 13.9183 29.4331 13.9183 29.4354 13.9183L29.4405 15.1421ZM29.3672 15.1418H12.6328V13.918H29.3672V15.1418ZM12.6328 15.1418C12.5961 15.1418 12.5766 15.1418 12.5672 15.1418C12.5649 15.1419 12.5636 15.1419 12.5631 15.1419C12.5618 15.1419 12.5639 15.1419 12.5674 15.1418C12.5684 15.1418 12.5704 15.1417 12.573 15.1417C12.5747 15.1416 12.5806 15.1414 12.5882 15.141C12.5916 15.1408 12.6001 15.1404 12.611 15.1394C12.6163 15.1389 12.6263 15.1379 12.6388 15.1361C12.6446 15.1353 12.6581 15.1332 12.6657 15.1318C12.6761 15.1298 12.7014 15.1241 12.7163 15.1202C12.7395 15.1134 12.8018 15.0899 12.84 15.0714C12.9148 15.0248 13.0982 14.8112 13.159 14.6261C13.1507 14.3913 12.9773 14.0875 12.8844 14.0146C12.8375 13.9874 12.7612 13.9541 12.7337 13.9449C12.7164 13.9399 12.6874 13.9327 12.6757 13.9302C12.6672 13.9286 12.6523 13.926 12.6459 13.925C12.6324 13.923 12.6216 13.9218 12.616 13.9212C12.6046 13.9201 12.5956 13.9195 12.5921 13.9193C12.5877 13.919 12.5841 13.9189 12.582 13.9188C12.5778 13.9186 12.5744 13.9185 12.573 13.9184C12.5699 13.9183 12.5676 13.9183 12.567 13.9183C12.565 13.9183 12.5644 13.9183 12.5669 13.9183C12.5685 13.9183 12.5704 13.9183 12.5719 13.9183C12.5724 13.9183 12.5734 13.9183 12.574 13.9183C12.5742 13.9183 12.5747 13.9183 12.5753 13.9183C12.5755 13.9184 12.5763 13.9184 12.5774 13.9184C12.5778 13.9184 12.5791 13.9184 12.5808 13.9184C12.5817 13.9184 12.5842 13.9185 12.5857 13.9185C12.5887 13.9186 12.6 13.9191 12.6083 13.9195C12.7303 13.9398 13.1695 14.6512 12.6123 15.1406C12.6001 15.1414 12.5842 15.1419 12.5804 15.142C12.576 15.1421 12.5724 15.1421 12.5723 15.1421C12.5707 15.1421 12.5693 15.1421 12.5692 15.1421C12.5684 15.1421 12.5678 15.1421 12.5677 15.1421C12.5665 15.1421 12.5636 15.1421 12.5595 15.1421L12.5646 13.9183C12.5669 13.9183 12.5685 13.9183 12.5697 13.9183C12.5711 13.9183 12.5714 13.9183 12.5713 13.9183C12.5713 13.9183 12.5711 13.9183 12.571 13.9183C12.5709 13.9183 12.5706 13.9183 12.5702 13.9183C12.5701 13.9183 12.5688 13.9183 12.5671 13.9183C12.5671 13.9183 12.5635 13.9183 12.559 13.9184C12.5553 13.9185 12.5394 13.9191 12.5272 13.9198C11.9699 14.4092 12.4092 15.1207 12.5311 15.1409C12.5394 15.1414 12.5507 15.1418 12.5537 15.1419C12.5553 15.1419 12.5577 15.142 12.5587 15.142C12.5604 15.142 12.5617 15.1421 12.5621 15.1421C12.5631 15.1421 12.5639 15.1421 12.564 15.1421C12.5643 15.1421 12.5646 15.1421 12.5647 15.1421C12.5648 15.1421 12.5649 15.1421 12.5649 15.1421C12.565 15.1421 12.565 15.1421 12.5647 15.1421C12.5644 15.1421 12.5641 15.1421 12.5637 15.1421C12.562 15.1421 12.5593 15.1421 12.5564 15.142C12.5545 15.142 12.5496 15.142 12.5449 15.1419C12.5437 15.1419 12.5409 15.1418 12.5373 15.1417C12.5357 15.1417 12.5322 15.1416 12.5278 15.1414C12.5256 15.1413 12.522 15.1411 12.5175 15.1408C12.514 15.1406 12.505 15.14 12.4935 15.1389C12.4879 15.1383 12.4771 15.1372 12.4636 15.1351C12.4572 15.1341 12.4423 15.1315 12.4338 15.1299C12.4221 15.1274 12.393 15.1202 12.3758 15.1152C12.3482 15.106 12.272 15.0727 12.2251 15.0455C12.1321 14.9726 11.9588 14.6688 11.9504 14.434C12.0113 14.2489 12.1946 14.0353 12.2695 13.9887C12.3077 13.9702 12.37 13.9467 12.3932 13.9399C12.408 13.936 12.4334 13.9303 12.4438 13.9283C12.4514 13.9269 12.4649 13.9248 12.4707 13.9239C12.4832 13.9222 12.4932 13.9212 12.4986 13.9207C12.5095 13.9197 12.518 13.9192 12.5215 13.9191C12.5292 13.9186 12.5353 13.9185 12.5372 13.9184C12.5399 13.9183 12.5422 13.9183 12.5436 13.9182C12.5482 13.9182 12.5524 13.9181 12.5542 13.9181C12.5567 13.9181 12.5596 13.9181 12.5626 13.9181C12.5746 13.918 12.5961 13.918 12.6328 13.918V15.1418ZM12.559 15.1421C12.3429 15.141 12.2563 15.1444 12.1389 15.1859L11.7314 14.0319C12.0701 13.9123 12.3503 13.9173 12.565 13.9183L12.559 15.1421ZM12.1387 15.1859C11.9024 15.2693 11.7446 15.4459 11.6657 15.6753L10.5084 15.2774C10.6939 14.738 11.1018 14.2541 11.7316 14.0319L12.1387 15.1859ZM11.6657 15.6755C11.6302 15.7787 11.6119 15.8893 11.6119 15.9999H10.3881C10.3881 15.7565 10.428 15.5111 10.5085 15.2772L11.6657 15.6755ZM11.6119 15.9999C11.6119 16.1105 11.6302 16.2211 11.6657 16.3243L10.5085 16.7226C10.428 16.4887 10.3881 16.2433 10.3881 15.9999H11.6119ZM11.6657 16.3243C11.7448 16.554 11.9025 16.7305 12.1388 16.8138L11.7316 17.9679C11.1017 17.7457 10.6941 17.2617 10.5085 16.7226L11.6657 16.3243ZM12.1388 16.8139C12.2564 16.8553 12.3426 16.8586 12.5595 16.8577L12.5646 18.0815C12.3506 18.0824 12.0704 18.0875 11.7315 17.9679L12.1388 16.8139ZM12.5595 16.8577C12.5636 16.8577 12.5665 16.8577 12.5677 16.8577C12.5678 16.8577 12.5684 16.8577 12.5692 16.8577C12.5693 16.8577 12.5707 16.8577 12.5723 16.8577C12.5724 16.8577 12.576 16.8577 12.5804 16.8578C12.5842 16.8578 12.6002 16.8584 12.6124 16.8592C13.1699 17.3505 12.7284 18.0605 12.6082 18.0803C12.6 18.0807 12.5887 18.0812 12.5857 18.0813C12.5842 18.0813 12.5817 18.0813 12.5808 18.0814C12.5791 18.0814 12.5778 18.0814 12.5774 18.0814C12.5763 18.0814 12.5755 18.0814 12.5753 18.0814C12.5747 18.0814 12.5742 18.0814 12.574 18.0815C12.5734 18.0815 12.5724 18.0815 12.5719 18.0815C12.5704 18.0815 12.5685 18.0815 12.5669 18.0815C12.5644 18.0815 12.565 18.0815 12.567 18.0815C12.5676 18.0815 12.5699 18.0814 12.573 18.0813C12.5744 18.0813 12.5778 18.0812 12.582 18.081C12.5841 18.0809 12.5877 18.0808 12.5921 18.0805C12.5956 18.0803 12.6046 18.0797 12.616 18.0786C12.6216 18.078 12.6324 18.0768 12.6459 18.0748C12.6523 18.0738 12.6672 18.0712 12.6757 18.0696C12.6874 18.0671 12.7165 18.0599 12.7337 18.0549C12.7613 18.0457 12.8376 18.0123 12.8846 17.9851C12.9776 17.912 13.1508 17.6079 13.1589 17.373C13.0979 17.1881 12.9146 16.9749 12.8398 16.9283C12.8017 16.9099 12.7394 16.8864 12.7162 16.8795C12.7014 16.8757 12.6761 16.87 12.6656 16.868C12.658 16.8666 12.6446 16.8645 12.6387 16.8636C12.6263 16.8619 12.6163 16.8609 12.6109 16.8604C12.6001 16.8594 12.5916 16.8589 12.5882 16.8588C12.5806 16.8583 12.5747 16.8582 12.573 16.8581C12.5704 16.858 12.5684 16.858 12.5674 16.858C12.5639 16.8579 12.5618 16.8579 12.5631 16.8579C12.5636 16.8579 12.5649 16.8579 12.5672 16.8579C12.5766 16.858 12.5961 16.858 12.6328 16.858V18.0818C12.5961 18.0818 12.5746 18.0818 12.5626 18.0817C12.5596 18.0817 12.5567 18.0817 12.5542 18.0817C12.5524 18.0817 12.5482 18.0816 12.5436 18.0815C12.5422 18.0815 12.5399 18.0815 12.5372 18.0814C12.5353 18.0813 12.5292 18.0812 12.5215 18.0807C12.518 18.0805 12.5095 18.0801 12.4986 18.0791C12.4932 18.0786 12.4832 18.0776 12.4708 18.0758C12.4649 18.075 12.4515 18.0729 12.4439 18.0715C12.4334 18.0695 12.4081 18.0638 12.3932 18.0599C12.37 18.0531 12.3078 18.0296 12.2696 18.0112C12.1948 17.9646 12.0115 17.7514 11.9505 17.5665C11.9586 17.3316 12.1319 17.0275 12.2249 16.9544C12.2718 16.9272 12.3481 16.8938 12.3757 16.8846C12.393 16.8796 12.422 16.8724 12.4338 16.8699C12.4423 16.8683 12.4572 16.8657 12.4635 16.8647C12.4771 16.8626 12.4879 16.8615 12.4935 16.8609C12.505 16.8598 12.514 16.8592 12.5175 16.859C12.522 16.8587 12.5256 16.8585 12.5278 16.8584C12.5322 16.8582 12.5357 16.8581 12.5373 16.8581C12.5409 16.858 12.5437 16.8579 12.5449 16.8579C12.5496 16.8578 12.5545 16.8578 12.5564 16.8578C12.5593 16.8577 12.562 16.8577 12.5637 16.8577C12.5641 16.8577 12.5644 16.8577 12.5647 16.8577C12.565 16.8577 12.565 16.8577 12.5649 16.8577C12.5649 16.8577 12.5648 16.8577 12.5647 16.8577C12.5646 16.8577 12.5643 16.8577 12.564 16.8577C12.5639 16.8577 12.5631 16.8577 12.5621 16.8577C12.5617 16.8577 12.5604 16.8577 12.5587 16.8578C12.5578 16.8578 12.5553 16.8578 12.5537 16.8579C12.5507 16.858 12.5395 16.8584 12.5312 16.8589C12.4111 16.8786 11.9695 17.5887 12.5271 18.08C12.5393 18.0807 12.5553 18.0813 12.559 18.0814C12.5635 18.0814 12.5671 18.0815 12.5671 18.0815C12.5688 18.0815 12.5701 18.0815 12.5702 18.0815C12.5706 18.0815 12.5709 18.0815 12.571 18.0815C12.5711 18.0815 12.5713 18.0815 12.5713 18.0815C12.5714 18.0815 12.5711 18.0815 12.5697 18.0815C12.5685 18.0815 12.5669 18.0815 12.5646 18.0815L12.5595 16.8577ZM12.6328 16.858H21V18.0818H12.6328V16.858Z" fill="url(#paint1_linear_886_4226)" mask="url(#path-1-inside-1_886_4226)"/>
</g>
<defs>
<filter id="filter0_bd_886_4226" x="-1.64845" y="-5.64845" width="45.2969" height="45.5485" filterUnits="userSpaceOnUse" color-interpolation-filters="sRGB">
<feFlood flood-opacity="0" result="BackgroundImageFix"/>
<feGaussianBlur in="BackgroundImageFix" stdDeviation="6.32423"/>
<feComposite in2="SourceAlpha" operator="in" result="effect1_backgroundBlur_886_4226"/>
<feColorMatrix in="SourceAlpha" type="matrix" values="0 0 0 0 0 0 0 0 0 0 0 0 0 0 0 0 0 0 127 0" result="hardAlpha"/>
<feOffset dy="4"/>
<feGaussianBlur stdDeviation="5.45"/>
<feComposite in2="hardAlpha" operator="out"/>
<feColorMatrix type="matrix" values="0 0 0 0 0.305635 0 0 0 0 0.0867188 0 0 0 0 0.770833 0 0 0 1 0"/>
<feBlend mode="normal" in2="effect1_backgroundBlur_886_4226" result="effect2_dropShadow_886_4226"/>
<feBlend mode="normal" in="SourceGraphic" in2="effect2_dropShadow_886_4226" result="shape"/>
</filter>
<linearGradient id="paint0_linear_886_4226" x1="11.3704" y1="7" x2="34.5143" y2="12.4611" gradientUnits="userSpaceOnUse">
<stop stop-color="#00A7F7"/>
<stop offset="1" stop-color="#00FC92"/>
</linearGradient>
<linearGradient id="paint1_linear_886_4226" x1="31" y1="10.375" x2="22.7948" y2="25.3484" gradientUnits="userSpaceOnUse">
<stop stop-color="white"/>
<stop offset="0.99715" stop-color="white" stop-opacity="0"/>
</linearGradient>
</defs>
</svg>
