<svg width="32" height="32" viewBox="0 0 32 32" fill="none" xmlns="http://www.w3.org/2000/svg">
<g filter="url(#filter0_b_719_27368)">
<rect width="32" height="32" rx="16" fill="white" fill-opacity="0.1"/>
<path d="M19.6935 14.9243L14.3914 12.0232C14.0865 11.8564 13.7262 11.8626 13.4273 12.0397C13.1283 12.2169 12.95 12.53 12.95 12.8776V18.63C12.95 18.9759 13.1272 19.2884 13.4242 19.4659C13.5793 19.5585 13.7512 19.605 13.9235 19.605C14.0848 19.6048 14.2434 19.5644 14.3852 19.4876L19.6875 16.6365C19.842 16.5535 19.9711 16.4303 20.0614 16.28C20.1516 16.1296 20.1996 15.9577 20.2002 15.7823C20.2009 15.6069 20.1542 15.4346 20.065 15.2836C19.9758 15.1325 19.8475 15.0084 19.6935 14.9243ZM14.3564 17.9063V13.6071L18.3192 15.7754L14.3564 17.9063Z" fill="url(#paint0_linear_719_27368)"/>
<path d="M27.8233 11.2005L27.8222 11.1895C27.8019 10.9963 27.5995 9.27808 26.7642 8.4041C25.7987 7.37614 24.7041 7.25126 24.1777 7.1914C24.1379 7.18701 24.0981 7.18225 24.0585 7.17711L24.0165 7.17275C20.8437 6.94203 16.0521 6.91053 16.0041 6.91034L15.9999 6.91016L15.9957 6.91034C15.9477 6.91053 11.1561 6.94203 7.95467 7.17275L7.91239 7.17711C7.87831 7.1817 7.84077 7.18592 7.79994 7.1907C7.27958 7.2507 6.19669 7.37581 5.22844 8.44089C4.43284 9.30554 4.20287 10.987 4.17925 11.1759L4.17653 11.2005C4.16936 11.2808 4 13.1945 4 15.1156V16.9115C4 18.8326 4.16936 20.7462 4.17653 20.8268L4.1778 20.8389C4.19814 21.0289 4.40026 22.7157 5.23172 23.59C6.13959 24.5835 7.28746 24.715 7.90489 24.7857C8.00248 24.7969 8.08653 24.8064 8.14381 24.8165L8.19931 24.8241C10.0313 24.9985 15.775 25.0843 16.0186 25.0878L16.0259 25.088L16.0332 25.0878C16.0812 25.0876 20.8727 25.0561 24.0455 24.8254L24.0874 24.821C24.1275 24.8157 24.1726 24.811 24.222 24.8058C24.7395 24.7509 25.8165 24.6368 26.7714 23.5861C27.567 22.7214 27.7971 21.0399 27.8206 20.8511L27.8233 20.8266C27.8305 20.746 28 18.8326 28 16.9115V15.1156C27.9998 13.1945 27.8305 11.281 27.8233 11.2005ZM26.5934 16.9115C26.5934 18.6896 26.4381 20.5208 26.4235 20.6889C26.3638 21.152 26.1211 22.2158 25.7335 22.6372C25.1359 23.2947 24.5219 23.3599 24.0737 23.4073C24.0237 23.4124 23.9738 23.418 23.9239 23.4241C20.8551 23.646 16.2444 23.6801 16.032 23.6814C15.7938 23.6779 10.134 23.5913 8.35789 23.4263C8.26686 23.4115 8.16851 23.4001 8.06492 23.3884C7.53922 23.3282 6.8196 23.2458 6.26629 22.6372L6.25326 22.6232C5.87241 22.2264 5.63677 21.2316 5.57686 20.6944C5.56571 20.5674 5.40643 18.7145 5.40643 16.9115V15.1156C5.40643 13.3395 5.56135 11.5103 5.57635 11.3387C5.6476 10.7933 5.89477 9.79388 6.26629 9.38992C6.88223 8.71244 7.53172 8.63739 7.96128 8.58775C8.0023 8.58297 8.04055 8.57861 8.07589 8.57402C11.1894 8.35099 15.8333 8.31785 15.9999 8.31658C16.1665 8.31766 20.8088 8.35099 23.8946 8.57402C23.9325 8.5788 23.9739 8.58353 24.0184 8.58869C24.4602 8.63903 25.128 8.7152 25.7409 9.36887L25.7465 9.37492C26.1274 9.77171 26.363 10.7839 26.4229 11.3319C26.4335 11.4519 26.5934 13.3087 26.5934 15.1156V16.9115Z" fill="url(#paint1_linear_719_27368)"/>
</g>
<defs>
<filter id="filter0_b_719_27368" x="-5.3" y="-5.3" width="42.6" height="42.6" filterUnits="userSpaceOnUse" color-interpolation-filters="sRGB">
<feFlood flood-opacity="0" result="BackgroundImageFix"/>
<feGaussianBlur in="BackgroundImageFix" stdDeviation="2.65"/>
<feComposite in2="SourceAlpha" operator="in" result="effect1_backgroundBlur_719_27368"/>
<feBlend mode="normal" in="SourceGraphic" in2="effect1_backgroundBlur_719_27368" result="shape"/>
</filter>
<linearGradient id="paint0_linear_719_27368" x1="20.0659" y1="11.9023" x2="11.5491" y2="13.6048" gradientUnits="userSpaceOnUse">
<stop stop-color="#00A7F7"/>
<stop offset="1" stop-color="#00FC92"/>
</linearGradient>
<linearGradient id="paint1_linear_719_27368" x1="27.5556" y1="6.91016" x2="0.373472" y2="14.5317" gradientUnits="userSpaceOnUse">
<stop stop-color="#00A7F7"/>
<stop offset="1" stop-color="#00FC92"/>
</linearGradient>
</defs>
</svg>
